<svg width="815" height="1185" viewBox="0 0 815 1185" fill="none" xmlns="http://www.w3.org/2000/svg">
<path d="M758.475 1185H55.861C25.0653 1185 -0.000244141 1159.93 -0.000244141 1129.1V55.9021C-0.000244141 25.0839 25.0506 0 55.861 0H758.475C789.271 0 814.336 25.0692 814.336 55.9021V1129.1C814.336 1159.92 789.285 1185 758.475 1185ZM55.861 11.7774C31.5447 11.7774 11.7538 31.568 11.7538 55.9168V1129.11C11.7538 1153.45 31.53 1173.25 55.861 1173.25H758.475C782.791 1173.25 802.582 1153.46 802.582 1129.11V55.9021C802.582 31.5681 782.806 11.7627 758.475 11.7627H55.861V11.7774Z" fill="#FFCD54"/>
<path d="M55.861 11.7774C31.5447 11.7774 11.7538 31.568 11.7538 55.9168V1129.11C11.7538 1153.45 31.53 1173.25 55.861 1173.25H758.475C782.791 1173.25 802.582 1153.46 802.582 1129.11V55.9021C802.582 31.5681 782.806 11.7627 758.475 11.7627H55.861V11.7774Z" fill="white" fill-opacity="0.1"/>
<path d="M263.556 1143.19H158.43C155.83 1143.19 153.523 1141.47 152.788 1138.97C152.054 1136.47 153.053 1133.78 155.242 1132.37C156.991 1131.24 161.222 1127.97 162.706 1122.05C164.528 1114.74 160.678 1108.86 159.885 1107.76C158.225 1105.43 158.474 1102.24 160.473 1100.21C162.471 1098.17 165.644 1097.88 167.995 1099.49C180.866 1108.39 194.839 1115.58 209.517 1120.87C226.942 1127.15 245.19 1130.71 263.776 1131.44C266.979 1131.58 269.477 1134.24 269.418 1137.44C269.359 1140.65 266.744 1143.21 263.541 1143.21L263.556 1143.19ZM171.58 1131.43H204.183C194.075 1127.69 184.289 1123.12 174.945 1117.75C174.974 1119.99 174.724 1122.37 174.107 1124.87C173.505 1127.33 172.609 1129.5 171.58 1131.41V1131.43Z" fill="#FFCD54"/>
<path d="M45.1212 1035.39C44.5629 1035.39 44.0045 1035.31 43.4609 1035.15C40.9632 1034.42 39.2441 1032.12 39.2441 1029.51V924.304C39.2441 921.098 41.8006 918.481 45.0036 918.422C45.0477 918.422 45.0771 918.422 45.1212 918.422C48.2654 918.422 50.866 920.907 50.9982 924.068C51.7328 942.653 55.2884 960.93 61.5622 978.353C66.8515 993.042 74.0362 1007.02 82.9252 1019.92C84.5414 1022.27 84.2475 1025.45 82.2053 1027.45C80.163 1029.45 76.9894 1029.7 74.668 1028.04C73.566 1027.24 67.689 1023.39 60.3868 1025.21C54.4657 1026.68 51.2039 1030.92 50.0726 1032.68C48.9706 1034.39 47.09 1035.37 45.1359 1035.37L45.1212 1035.39ZM50.9982 983.705V1016.33C52.9229 1015.3 55.0974 1014.42 57.5364 1013.8C60.0341 1013.19 62.429 1012.92 64.6476 1012.96C59.2848 1003.61 54.7154 993.821 50.9835 983.705H50.9982Z" fill="#FFCD54"/>
<path d="M129.456 1138.49C127.825 1138.49 126.209 1138.25 124.637 1137.77C116.865 1135.43 111.267 1127.45 110.738 1117.92C110.561 1114.67 113.03 1111.9 116.277 1111.71C119.495 1111.55 122.286 1114.01 122.477 1117.26C122.727 1121.78 125.019 1125.59 128.031 1126.5C130.573 1127.27 133.261 1125.7 134.261 1125.11C138.757 1122.48 141.607 1116.4 140.769 1111.29C139.535 1103.8 129.985 1098.69 122.051 1098.69C121.963 1098.69 121.86 1098.69 121.772 1098.69C111.355 1098.85 101.599 1108.68 99.0719 1121.58C98.4548 1124.77 95.3546 1126.84 92.181 1126.22C88.9927 1125.59 86.9211 1122.5 87.5382 1119.31C91.1672 1100.8 105.493 1087.17 121.596 1086.92C134.643 1086.72 150.055 1095.24 152.391 1109.36C154.022 1119.28 148.909 1130.17 140.226 1135.25C136.567 1137.4 132.968 1138.47 129.5 1138.47L129.456 1138.49Z" fill="#FFCD54"/>
<path d="M60.0051 1100.82C57.2576 1100.82 54.7892 1098.88 54.2456 1096.07C53.6285 1092.88 55.7002 1089.79 58.8885 1089.16C71.7739 1086.63 81.6032 1076.87 81.7648 1066.44C81.8824 1058.44 76.7546 1048.66 69.1733 1047.41C64.0602 1046.58 57.9922 1049.43 55.3622 1053.93C54.7745 1054.94 53.2024 1057.62 53.9665 1060.16C54.8774 1063.18 58.6681 1065.46 63.2081 1065.72C66.4551 1065.9 68.9235 1068.68 68.7472 1071.92C68.5709 1075.17 65.794 1077.63 62.5469 1077.47C53.0261 1076.92 45.0481 1071.34 42.7119 1063.56C41.228 1058.62 42.0655 1053.38 45.2097 1048C50.2933 1039.3 61.1658 1034.18 71.0833 1035.81C85.2029 1038.14 93.7099 1053.62 93.5042 1066.63C93.2544 1082.75 79.6344 1097.08 61.1364 1100.71C60.7544 1100.79 60.3724 1100.83 60.0051 1100.83V1100.82Z" fill="#FFCD54"/>
<path d="M657.743 1143.19H552.618C549.415 1143.19 546.8 1140.63 546.741 1137.43C546.682 1134.22 549.18 1131.56 552.383 1131.43C570.969 1130.69 589.217 1127.14 606.643 1120.86C621.321 1115.56 635.293 1108.37 648.164 1099.48C650.515 1097.85 653.688 1098.16 655.687 1100.2C657.685 1102.24 657.934 1105.42 656.274 1107.74C655.481 1108.85 651.646 1114.71 653.453 1122.03C654.923 1127.96 659.154 1131.22 660.917 1132.36C663.106 1133.77 664.105 1136.46 663.371 1138.96C662.636 1141.46 660.344 1143.18 657.729 1143.18L657.743 1143.19ZM611.991 1131.43H644.594C643.565 1129.5 642.684 1127.33 642.067 1124.89C641.449 1122.39 641.2 1120 641.229 1117.77C631.885 1123.14 622.099 1127.71 611.991 1131.44V1131.43Z" fill="#FFCD54"/>
<path d="M771.053 1035.39C769.099 1035.39 767.218 1034.4 766.116 1032.7C764.985 1030.95 761.723 1026.71 755.802 1025.23C748.485 1023.4 742.623 1027.26 741.521 1028.05C739.2 1029.71 736.011 1029.46 733.984 1027.46C731.941 1025.46 731.648 1022.29 733.264 1019.93C742.153 1007.04 749.337 993.057 754.627 978.368C760.901 960.93 764.456 942.669 765.191 924.083C765.323 920.878 767.924 918.335 771.185 918.437C774.388 918.496 776.945 921.113 776.945 924.319V1029.52C776.945 1032.12 775.226 1034.43 772.728 1035.17C772.184 1035.33 771.626 1035.4 771.068 1035.4L771.053 1035.39ZM751.835 1012.97C753.98 1012.97 756.258 1013.22 758.638 1013.8C761.092 1014.42 763.266 1015.3 765.176 1016.33V983.705C761.444 993.821 756.875 1003.61 751.512 1012.97C751.615 1012.97 751.718 1012.97 751.821 1012.97H751.835Z" fill="#FFCD54"/>
<path d="M686.731 1138.49C683.249 1138.49 679.664 1137.41 676.006 1135.28C667.308 1130.19 662.195 1119.31 663.826 1109.39C666.132 1095.44 681.266 1086.94 694.166 1086.94C694.313 1086.94 694.474 1086.94 694.621 1086.94C710.724 1087.19 725.05 1100.82 728.679 1119.33C729.296 1122.52 727.224 1125.61 724.036 1126.24C720.847 1126.86 717.762 1124.78 717.145 1121.59C714.618 1108.7 704.862 1098.86 694.445 1098.7C686.408 1098.52 676.682 1103.71 675.433 1111.3C674.595 1116.43 677.446 1122.49 681.941 1125.12C682.955 1125.71 685.629 1127.28 688.171 1126.52C691.183 1125.61 693.461 1121.81 693.725 1117.27C693.901 1114.02 696.678 1111.58 699.925 1111.73C703.172 1111.9 705.641 1114.68 705.464 1117.93C704.935 1127.46 699.338 1135.44 691.565 1137.78C689.993 1138.25 688.377 1138.5 686.746 1138.5L686.731 1138.49Z" fill="#FFCD54"/>
<path d="M756.184 1100.82C755.802 1100.82 755.434 1100.79 755.052 1100.7C736.554 1097.07 722.934 1082.73 722.685 1066.62C722.479 1053.62 731.001 1038.14 745.105 1035.8C755.023 1034.17 765.895 1039.28 770.979 1047.97C774.123 1053.35 774.961 1058.59 773.477 1063.53C771.141 1071.31 763.163 1076.91 753.642 1077.44C750.424 1077.59 747.633 1075.13 747.442 1071.9C747.265 1068.65 749.734 1065.88 752.981 1065.69C757.506 1065.44 761.311 1063.15 762.222 1060.13C762.986 1057.59 761.414 1054.9 760.827 1053.9C758.197 1049.4 752.143 1046.55 747.015 1047.38C739.449 1048.63 734.306 1058.41 734.424 1066.41C734.586 1076.84 744.415 1086.61 757.3 1089.13C760.489 1089.76 762.56 1092.85 761.943 1096.04C761.399 1098.85 758.931 1100.79 756.184 1100.79V1100.82Z" fill="#FFCD54"/>
<path d="M164.675 86.7572C163.147 86.7572 161.619 86.1544 160.488 84.9928C158.489 82.9491 158.24 79.7732 159.9 77.45C160.693 76.3473 164.528 70.4807 162.721 63.1584C161.252 57.233 157.02 53.9688 155.257 52.8367C153.068 51.4251 152.069 48.7344 152.803 46.2349C153.538 43.7353 155.83 42.015 158.445 42.015H263.571C266.774 42.015 269.389 44.5734 269.448 47.7787C269.507 50.984 267.009 53.6453 263.806 53.7777C245.234 54.5128 226.972 58.071 209.546 64.3494C194.868 69.6426 180.896 76.8325 168.025 85.728C167.011 86.4338 165.85 86.7719 164.69 86.7719L164.675 86.7572ZM171.58 53.7777C172.609 55.7038 173.491 57.8799 174.108 60.3207C174.725 62.8202 174.974 65.2022 174.945 67.4371C184.29 62.0704 194.075 57.4976 204.183 53.763H171.58V53.7777Z" fill="#FFCD54"/>
<path d="M45.1212 266.784C45.1212 266.784 45.0477 266.784 45.0036 266.784C41.8006 266.725 39.2441 264.108 39.2441 260.903V155.7C39.2441 153.098 40.9632 150.79 43.4609 150.054C45.9587 149.319 48.6474 150.319 50.0579 152.51C51.1892 154.26 54.451 158.494 60.3721 159.979C67.6743 161.802 73.5513 157.95 74.6533 157.156C76.9747 155.495 80.163 155.745 82.1906 157.744C84.2181 159.744 84.5267 162.92 82.9105 165.272C74.0215 178.152 66.8368 192.135 61.5475 206.824C55.2738 224.262 51.7181 242.524 50.9835 261.123C50.8513 264.285 48.2654 266.769 45.1065 266.769L45.1212 266.784ZM50.9982 168.875V201.501C54.7301 191.385 59.2995 181.593 64.6623 172.242C62.4143 172.286 60.0488 172.021 57.5511 171.404C55.0974 170.786 52.9229 169.904 51.0129 168.875H50.9982Z" fill="#FFCD54"/>
<path d="M122.022 98.269C121.875 98.269 121.714 98.269 121.567 98.269C105.464 98.0191 91.1384 84.3891 87.5094 65.8776C86.8923 62.687 88.9639 59.5993 92.1522 58.967C95.3405 58.3348 98.4259 60.4227 99.043 63.6133C101.57 76.5081 111.326 86.3446 121.743 86.5064C121.831 86.5064 121.934 86.5064 122.022 86.5064C129.956 86.5064 139.506 81.4043 140.741 73.9056C141.578 68.7741 138.728 62.7017 134.232 60.0845C133.218 59.4963 130.544 57.9231 128.002 58.6877C124.99 59.5993 122.713 63.3927 122.448 67.9361C122.272 71.1855 119.51 73.6557 116.248 73.4792C113.001 73.3028 110.533 70.5238 110.709 67.2744C111.238 57.7467 116.836 49.7627 124.608 47.4249C129.545 45.9399 134.775 46.778 140.153 49.9245C148.836 55.0118 153.964 65.8923 152.333 75.817C150.041 89.7705 134.893 98.269 122.008 98.269H122.022Z" fill="#FFCD54"/>
<path d="M67.3367 149.687C58.5358 149.687 49.6468 144.821 45.2097 137.204C42.0655 131.823 41.228 126.588 42.7119 121.648C45.0481 113.87 53.0261 108.268 62.5469 107.739C65.7646 107.548 68.5562 110.033 68.7472 113.282C68.9235 116.531 66.4551 119.296 63.2081 119.487C58.6828 119.737 54.8774 122.03 53.9665 125.045C53.2024 127.588 54.7745 130.279 55.3622 131.279C57.9922 135.778 64.0456 138.63 69.1733 137.792C76.7399 136.543 81.8824 126.765 81.7648 118.766C81.6032 108.342 71.7739 98.5639 58.8885 96.0497C55.7002 95.4174 53.6285 92.3297 54.2456 89.1391C54.8627 85.9485 57.9481 83.8753 61.1364 84.4928C79.6344 88.1246 93.2544 102.46 93.5042 118.575C93.7099 131.573 85.1882 147.056 71.0833 149.393C69.8491 149.599 68.6003 149.702 67.3367 149.702V149.687Z" fill="#FFCD54"/>
<path d="M651.514 86.7568C650.353 86.7568 649.193 86.4186 648.179 85.7129C635.308 76.8174 621.335 69.6274 606.658 64.3342C589.232 58.0559 570.984 54.4977 552.398 53.7625C549.195 53.6302 546.697 50.9689 546.756 47.7636C546.815 44.5583 549.43 41.9999 552.633 41.9999H657.758C660.359 41.9999 662.666 43.7202 663.4 46.2197C664.135 48.7193 663.136 51.41 660.947 52.8215C659.198 53.9537 654.967 57.2178 653.483 63.1433C651.661 70.4508 655.51 76.3321 656.304 77.4349C657.964 79.758 657.714 82.9486 655.716 84.9777C654.57 86.1393 653.057 86.7421 651.529 86.7421L651.514 86.7568ZM611.991 53.7772C622.099 57.5119 631.885 62.0846 641.229 67.4513C641.2 65.2164 641.45 62.8345 642.067 60.3349C642.669 57.8795 643.565 55.7034 644.594 53.7919H611.991V53.7772Z" fill="#FFCD54"/>
<path d="M771.052 266.785C767.908 266.785 765.308 264.3 765.175 261.138C764.441 242.553 760.885 224.277 754.611 206.839C749.322 192.15 742.137 178.168 733.248 165.287C731.632 162.935 731.926 159.759 733.968 157.759C736.011 155.76 739.184 155.51 741.506 157.171C742.608 157.965 748.485 161.817 755.787 159.994C761.708 158.524 764.97 154.289 766.101 152.525C767.512 150.334 770.2 149.334 772.698 150.07C775.196 150.805 776.915 153.098 776.915 155.716V260.918C776.915 264.123 774.358 266.74 771.155 266.799C771.111 266.799 771.082 266.799 771.038 266.799L771.052 266.785ZM751.526 172.242C756.889 181.593 761.458 191.386 765.19 201.502V168.875C763.265 169.904 761.091 170.787 758.652 171.404C756.154 172.022 753.789 172.257 751.541 172.242H751.526Z" fill="#FFCD54"/>
<path d="M694.152 98.269C681.252 98.269 666.119 89.7852 663.812 75.817C662.181 65.8923 667.294 55.0118 675.977 49.9245C681.355 46.778 686.6 45.9399 691.522 47.4249C699.295 49.7627 704.892 57.7467 705.421 67.2744C705.598 70.5238 703.129 73.2881 699.882 73.4792C696.65 73.6409 693.873 71.1855 693.682 67.9361C693.432 63.4074 691.14 59.5993 688.128 58.6877C685.586 57.9231 682.898 59.4963 681.898 60.0845C677.403 62.7164 674.552 68.7889 675.39 73.9056C676.624 81.3896 686.174 86.5064 694.108 86.5064C694.211 86.5064 694.299 86.5064 694.402 86.5064C704.819 86.3446 714.589 76.5081 717.102 63.6133C717.734 60.4227 720.819 58.3495 723.993 58.967C727.181 59.5993 729.253 62.687 728.636 65.8776C725.007 84.3891 710.681 98.0191 694.578 98.269C694.431 98.269 694.27 98.269 694.123 98.269H694.152Z" fill="#FFCD54"/>
<path d="M748.837 149.687C747.588 149.687 746.339 149.584 745.091 149.378C730.971 147.055 722.464 131.572 722.67 118.56C722.919 102.445 736.54 88.1094 755.037 84.4777C758.226 83.8602 761.311 85.9333 761.928 89.1239C762.545 92.3146 760.474 95.4023 757.285 96.0345C744.4 98.5635 734.571 108.326 734.409 118.751C734.291 126.75 739.419 136.527 747.001 137.777C752.128 138.63 758.182 135.763 760.812 131.264C761.399 130.249 762.971 127.573 762.207 125.029C761.297 122.015 757.506 119.722 752.966 119.472C749.719 119.295 747.25 116.516 747.427 113.267C747.603 110.017 750.395 107.547 753.627 107.724C763.148 108.268 771.126 113.855 773.462 121.633C774.946 126.573 774.108 131.808 770.964 137.189C766.527 144.805 757.623 149.672 748.837 149.672V149.687Z" fill="#FFCD54"/>
<path d="M201.363 196.849C200.334 197.054 199.512 196.951 198.997 196.437C198.38 196.025 197.969 195.408 197.969 194.687C197.763 194.07 197.969 193.349 198.38 192.629C198.792 192.011 199.512 191.599 200.54 191.394C202.597 191.085 204.654 190.776 206.917 190.57C209.076 190.364 211.236 190.261 213.293 190.056C216.379 189.953 218.847 190.261 220.595 191.085C222.241 192.011 223.27 193.143 223.784 194.584C224.298 196.025 224.298 197.672 223.887 199.422C223.372 201.274 222.55 202.921 221.521 204.568C220.287 206.42 218.641 208.376 216.584 210.332C214.425 212.39 212.368 214.243 210.311 215.786C209.488 216.404 208.665 216.713 207.945 216.507C207.122 216.404 206.608 216.095 206.197 215.581C205.785 215.066 205.58 214.448 205.58 213.625C205.58 212.905 205.991 212.184 206.814 211.567C208.871 209.92 210.825 208.273 212.676 206.523C214.425 204.877 215.967 203.024 217.304 200.965C218.539 199.113 218.847 197.672 218.333 196.643C217.716 195.819 216.07 195.408 213.293 195.511C211.339 195.613 209.385 195.819 207.328 196.025C205.271 196.334 203.214 196.643 201.363 196.849ZM210.414 226.388C210.414 224.535 210.928 223.403 211.956 222.785C212.882 222.271 214.013 221.962 215.35 221.756C216.379 221.756 218.024 221.653 220.287 221.447C222.55 221.344 224.915 221.241 227.383 221.036C229.852 220.933 232.217 220.83 234.583 220.624C236.845 220.521 238.491 220.418 239.725 220.212C241.165 220.212 242.296 220.624 243.119 221.447C243.839 222.374 244.251 223.403 244.251 224.535V228.137C244.148 229.372 244.045 230.607 244.045 231.74V235.445C243.942 236.68 243.942 237.915 244.045 239.15C243.942 239.87 243.633 240.694 243.119 241.62C242.502 242.649 241.679 243.164 240.754 243.37C239.622 243.576 238.08 243.885 236.023 244.09C233.966 244.399 231.703 244.708 229.44 244.914C227.075 245.325 224.812 245.531 222.755 245.737C220.595 246.046 218.95 246.252 217.819 246.355C215.453 246.766 213.602 246.252 212.368 244.811C211.031 243.576 210.414 242.032 210.414 240.179C210.311 238.841 210.311 237.606 210.311 236.474V233.386C210.311 232.357 210.311 231.328 210.414 230.196V226.388ZM216.173 227.314C216.07 228.343 216.07 229.269 216.07 230.093C215.967 231.122 215.967 232.048 215.967 232.872V235.548C215.967 236.577 215.967 237.503 216.07 238.327C216.07 239.356 216.276 239.973 216.79 240.385C217.201 240.797 217.921 240.9 218.95 240.694C220.904 240.488 222.961 240.179 225.018 239.871C226.972 239.665 228.823 239.356 230.675 239.15C232.32 238.944 233.863 238.738 235.303 238.532C236.537 238.43 237.565 238.327 238.182 238.121C238.285 235.856 238.388 233.489 238.388 231.122V225.667C236.537 225.77 234.583 225.873 232.526 225.976C230.366 226.182 228.309 226.388 226.355 226.49C224.298 226.696 222.344 226.902 220.595 227.005C218.744 227.211 217.201 227.314 216.173 227.314ZM242.605 198.907H253.095C253.918 198.907 254.638 199.216 255.255 199.628C255.667 200.142 255.975 200.863 255.975 201.686C255.975 202.612 255.667 203.23 255.255 203.642C254.638 204.156 253.918 204.362 253.095 204.362H242.913L243.428 213.831C243.531 215.066 243.325 215.992 242.913 216.507C242.399 217.124 241.679 217.433 240.754 217.433C239.725 217.433 238.902 217.227 238.491 216.61C237.977 216.095 237.668 215.169 237.668 213.934L236.126 185.63C235.92 184.498 236.023 183.571 236.537 182.851C236.948 182.233 237.668 181.925 238.697 181.925C239.622 181.925 240.342 182.233 240.959 182.851C241.371 183.571 241.679 184.498 241.885 185.527L242.605 198.907Z" fill="#FFCD54"/>
<path d="M216.319 247.237C214.453 247.237 212.91 246.575 211.808 245.296C210.413 244.017 209.678 242.282 209.678 240.179C209.575 238.871 209.575 237.592 209.575 236.474V233.386C209.575 232.357 209.575 231.299 209.678 230.137V226.402C209.678 224.314 210.295 222.932 211.573 222.168C212.528 221.638 213.689 221.286 215.232 221.05C216.348 221.05 217.979 220.933 220.212 220.742L220.712 220.712C222.828 220.609 225.032 220.521 227.309 220.33C230.012 220.212 232.246 220.109 234.508 219.918C236.786 219.815 238.402 219.712 239.592 219.506H239.651C241.384 219.506 242.677 219.992 243.632 220.947C244.543 222.109 244.984 223.3 244.984 224.564V228.167C244.881 229.461 244.778 230.681 244.778 231.769V235.474C244.676 236.724 244.676 237.93 244.778 239.121V239.209V239.297C244.661 240.106 244.323 241.017 243.765 242.017C243.089 243.149 242.134 243.855 240.914 244.135L240.488 244.208C239.416 244.399 237.946 244.679 236.095 244.87C234.332 245.134 231.967 245.473 229.513 245.693C227.382 246.061 225.237 246.281 223.357 246.458L222.842 246.516C220.668 246.825 219.037 247.031 217.891 247.134C217.347 247.222 216.833 247.281 216.334 247.281L216.319 247.237ZM239.724 220.947C238.578 221.153 236.977 221.256 234.611 221.359C232.349 221.55 230.101 221.653 227.412 221.771C225.134 221.962 222.916 222.065 220.785 222.153H220.315C218.067 222.388 216.392 222.491 215.349 222.491C214.086 222.697 213.087 222.991 212.308 223.432C211.823 223.726 211.147 224.373 211.147 226.388V230.196C211.044 231.357 211.044 232.387 211.044 233.386V236.474C211.044 237.621 211.044 238.812 211.147 240.121C211.147 241.856 211.705 243.194 212.866 244.267C213.983 245.561 215.584 245.987 217.7 245.62C218.875 245.517 220.477 245.311 222.666 245.002L223.21 244.943C225.164 244.752 227.177 244.546 229.322 244.179C231.805 243.943 234.141 243.62 235.919 243.355C237.755 243.164 239.122 242.914 240.238 242.708L240.635 242.635C241.429 242.458 242.031 242.003 242.501 241.223C242.942 240.429 243.221 239.709 243.324 239.106C243.221 237.871 243.221 236.606 243.324 235.371V231.725C243.324 230.578 243.427 229.328 243.53 228.108V224.506C243.53 223.579 243.206 222.712 242.56 221.874C241.928 221.256 240.988 220.918 239.739 220.918L239.724 220.947ZM218.023 241.547C217.289 241.547 216.686 241.341 216.275 240.915C215.452 240.253 215.335 239.194 215.335 238.341C215.232 237.562 215.232 236.592 215.232 235.562V232.886C215.232 232.048 215.232 231.107 215.335 230.034C215.335 229.269 215.335 228.314 215.437 227.255L215.511 226.593H216.172C217.23 226.593 218.758 226.491 220.506 226.285C222.034 226.196 223.695 226.035 225.428 225.858L226.266 225.77C228.058 225.682 229.88 225.505 231.834 225.314L232.451 225.255C234.538 225.153 236.492 225.05 238.343 224.947L239.122 224.903V231.137C239.122 233.592 239.004 236.121 238.916 238.165L238.887 238.665L238.402 238.827C237.755 239.047 236.786 239.15 235.346 239.268C233.95 239.474 232.393 239.679 230.747 239.885C229.895 239.988 229.043 240.091 228.176 240.223C227.162 240.356 226.134 240.503 225.076 240.62C223.21 240.9 221.035 241.223 219.008 241.444C218.655 241.517 218.317 241.547 218.009 241.547H218.023ZM216.848 228.049C216.804 228.784 216.804 229.475 216.804 230.108C216.701 231.181 216.701 232.078 216.701 232.886V235.562C216.701 236.592 216.701 237.474 216.804 238.253C216.804 239.341 217.024 239.65 217.259 239.826C217.538 240.091 218.082 240.135 218.817 239.988C220.888 239.768 223.033 239.444 224.914 239.165C225.987 239.047 227 238.915 228 238.768C228.866 238.65 229.733 238.533 230.6 238.43C232.231 238.224 233.774 238.018 235.214 237.812C236.066 237.739 236.889 237.665 237.491 237.547C237.579 235.548 237.667 233.342 237.667 231.122V226.446C236.051 226.535 234.347 226.623 232.569 226.711L231.996 226.77C230.042 226.961 228.191 227.137 226.398 227.226L225.59 227.314C223.827 227.49 222.167 227.652 220.639 227.74C219.213 227.902 217.891 228.005 216.848 228.034V228.049ZM240.753 218.168C239.328 218.168 238.402 217.786 237.873 217.022C237.285 216.448 236.933 215.345 236.933 213.934L235.39 185.674C235.155 184.38 235.331 183.277 235.934 182.425C236.477 181.616 237.403 181.19 238.696 181.19C239.798 181.19 240.709 181.557 241.473 182.336L241.59 182.498C242.031 183.263 242.369 184.233 242.604 185.395L243.295 198.187H253.094C253.961 198.187 254.828 198.466 255.666 199.025L255.827 199.172C256.4 199.878 256.709 200.774 256.709 201.686C256.709 202.715 256.4 203.539 255.769 204.156C255.005 204.803 254.138 205.097 253.094 205.097H243.691L244.161 213.787C244.279 215.154 244.044 216.272 243.486 216.963C242.824 217.757 241.899 218.168 240.753 218.168ZM238.696 182.66C237.55 182.66 237.241 183.116 237.153 183.263C236.771 183.807 236.668 184.513 236.859 185.498L238.417 213.89C238.417 214.919 238.637 215.698 239.034 216.081C239.342 216.522 239.901 216.683 240.782 216.683C241.487 216.683 242.002 216.463 242.384 216.022C242.677 215.654 242.81 214.845 242.736 213.875L242.178 203.612H253.139C253.844 203.612 254.373 203.436 254.828 203.068C255.122 202.774 255.284 202.304 255.284 201.671C255.284 200.966 255.005 200.451 254.799 200.157C254.24 199.804 253.697 199.628 253.153 199.628H241.958L241.193 185.542C241.017 184.704 240.738 183.895 240.415 183.277C239.945 182.836 239.416 182.63 238.74 182.63L238.696 182.66ZM208.414 217.316C208.179 217.316 207.959 217.286 207.753 217.227C206.901 217.125 206.196 216.742 205.637 216.051C205.108 215.404 204.859 214.61 204.859 213.64C204.859 212.949 205.123 211.934 206.387 210.993C208.693 209.155 210.53 207.567 212.19 206.009C213.895 204.406 215.408 202.583 216.701 200.583C217.436 199.495 218.185 197.981 217.685 196.996C217.538 196.819 216.672 196.128 213.322 196.275C211.529 196.363 209.737 196.555 207.827 196.746L207.21 196.819C205.27 197.113 203.272 197.407 201.479 197.613C200.157 197.878 199.143 197.657 198.482 196.996C197.762 196.54 197.277 195.731 197.248 194.849C197.042 194.114 197.219 193.261 197.748 192.305C198.291 191.482 199.173 190.953 200.407 190.717C202.361 190.423 204.535 190.1 206.857 189.879C207.9 189.776 208.958 189.703 209.986 189.629C211.088 189.556 212.161 189.468 213.219 189.365C216.598 189.247 219.096 189.615 220.903 190.453C222.74 191.482 223.9 192.761 224.473 194.378C225.017 195.908 225.061 197.672 224.606 199.628C224.121 201.392 223.342 203.083 222.152 204.994C220.815 206.994 219.125 208.979 217.098 210.905C214.541 213.346 212.587 215.051 210.765 216.419C209.942 217.036 209.149 217.345 208.429 217.345L208.414 217.316ZM214.1 194.761C216.627 194.761 218.2 195.231 218.92 196.202C219.639 197.613 219.287 199.319 217.92 201.377C216.569 203.465 214.967 205.377 213.189 207.067C211.514 208.655 209.634 210.273 207.283 212.155C206.842 212.493 206.328 213.008 206.328 213.64C206.328 214.272 206.475 214.743 206.783 215.14C207.048 215.478 207.371 215.713 208.047 215.801C208.708 215.978 209.399 215.581 209.884 215.228C211.661 213.89 213.571 212.228 216.084 209.832C218.023 207.979 219.654 206.082 220.918 204.2C222.02 202.436 222.74 200.863 223.18 199.26C223.562 197.613 223.548 196.113 223.092 194.864C222.637 193.584 221.726 192.599 220.227 191.761C218.699 191.041 216.363 190.717 213.307 190.835C212.293 190.938 211.191 191.011 210.075 191.1C209.046 191.173 208.018 191.247 206.974 191.35C204.682 191.555 202.537 191.879 200.642 192.173C199.849 192.335 199.276 192.643 198.982 193.085C198.761 193.467 198.512 194.07 198.658 194.496L198.703 194.731C198.703 195.319 199.143 195.687 199.408 195.863C199.907 196.334 200.657 196.275 201.23 196.172H201.288C203.052 195.966 205.05 195.672 206.989 195.378L207.68 195.29C209.604 195.099 211.426 194.908 213.263 194.82C213.557 194.82 213.836 194.805 214.1 194.805V194.761Z" fill="#FFCD54"/>
<path d="M264.51 194.996C263.276 195.408 262.35 195.511 261.733 195.099C261.116 194.79 260.808 194.173 260.808 193.143C260.602 192.423 260.705 191.805 261.322 191.188C261.836 190.673 262.762 190.262 263.996 189.85L273.869 187.174C278.6 185.939 282.2 185.939 284.668 186.968C287.034 188.203 288.268 190.467 288.268 193.864C288.268 195.202 287.857 196.54 287.034 197.878C286.314 198.907 285.491 200.039 284.566 201.171L293.513 208.582C294.336 209.405 294.85 210.229 295.056 210.949C295.159 211.773 294.953 212.596 294.336 213.213C293.719 213.934 293.102 214.243 292.382 214.037C291.559 213.934 290.736 213.419 289.914 212.596L280.555 204.98L270.167 214.757C269.241 215.684 268.418 216.198 267.699 216.301C266.876 216.507 266.259 216.198 265.744 215.375C265.024 214.757 264.819 214.037 265.024 213.213C265.127 212.493 265.642 211.67 266.567 210.743L279.835 198.29C280.657 197.466 281.274 196.746 281.789 195.922C282.2 195.202 282.406 194.481 282.406 193.864C282.406 192.835 281.892 192.114 280.863 191.805C279.732 191.6 278.189 191.6 276.132 192.011L264.51 194.996ZM313.363 231.843C313.363 233.798 312.952 235.548 312.232 237.195C311.409 238.944 310.38 240.488 309.146 241.929C307.706 243.37 305.958 244.502 304.107 245.12C302.05 245.943 299.89 246.252 297.422 246.252C295.159 246.252 293.102 246.046 291.456 245.428C289.708 244.914 288.268 244.09 287.24 242.855C286.005 241.826 285.08 240.591 284.566 239.047C283.949 237.606 283.64 235.96 283.64 234.107C283.64 232.048 283.949 230.196 284.668 228.343C285.286 226.594 286.417 224.947 287.857 223.403C289.091 221.962 290.736 220.83 292.691 220.006C294.542 219.286 296.805 218.874 299.273 218.874C301.33 218.874 303.181 219.183 304.93 219.801C306.575 220.521 308.015 221.447 309.352 222.477C310.586 223.712 311.512 225.153 312.335 226.594C312.952 228.24 313.363 229.99 313.363 231.843ZM307.706 231.843C307.706 230.813 307.501 229.887 307.192 228.858C306.781 228.034 306.164 227.211 305.547 226.388C304.724 225.77 303.901 225.256 302.873 224.844C301.844 224.535 300.61 224.329 299.273 224.329C297.627 224.329 296.29 224.638 295.056 225.05C293.719 225.564 292.691 226.285 291.868 227.211C290.839 228.24 290.222 229.372 289.914 230.402C289.502 231.637 289.297 232.872 289.297 234.107C289.297 235.239 289.399 236.165 289.811 236.989C290.017 237.915 290.531 238.636 291.251 239.15C291.868 239.768 292.691 240.179 293.719 240.385C294.748 240.694 295.982 240.797 297.422 240.797C298.964 240.797 300.404 240.591 301.741 240.076C302.975 239.665 304.004 238.944 304.93 237.812C305.752 236.989 306.369 235.96 306.986 234.93C307.398 233.901 307.706 232.872 307.706 231.843ZM297.524 202.612C296.599 202.612 295.982 202.407 295.57 201.892C295.056 201.48 294.85 200.863 294.85 199.936C294.85 199.113 295.056 198.393 295.57 197.878C295.982 197.466 296.599 197.157 297.524 197.157H308.221V185.63C308.221 184.498 308.426 183.572 308.941 182.851C309.352 182.234 309.969 181.925 310.998 181.925C311.923 181.925 312.643 182.234 313.26 182.851C313.774 183.572 314.083 184.498 314.083 185.63V213.934C314.083 215.169 313.774 216.095 313.26 216.61C312.643 217.227 311.923 217.433 310.998 217.433C309.969 217.433 309.352 217.227 308.941 216.61C308.426 216.095 308.221 215.169 308.221 213.934V202.612H297.524Z" fill="#FFCD54"/>
<path d="M297.422 247.002C294.762 247.002 292.779 246.722 291.192 246.134C289.282 245.576 287.739 244.635 286.667 243.341C285.344 242.253 284.389 240.9 283.86 239.297C283.229 237.827 282.891 236.063 282.891 234.122C282.891 231.901 283.229 229.99 283.963 228.093C284.566 226.373 285.668 224.667 287.299 222.918C288.562 221.447 290.281 220.227 292.382 219.345C294.395 218.566 296.761 218.154 299.244 218.154C301.374 218.154 303.299 218.477 305.15 219.124C306.737 219.815 308.235 220.727 309.778 221.918C311.203 223.344 312.173 224.903 312.952 226.255C313.73 228.284 314.083 230.093 314.083 231.872C314.083 233.842 313.686 235.68 312.893 237.518C312.07 239.283 311.012 240.885 309.69 242.444C308.088 244.046 306.252 245.208 304.327 245.855C302.344 246.649 300.14 247.031 297.407 247.031L297.422 247.002ZM299.273 219.61C296.966 219.61 294.777 219.977 292.955 220.698C291.089 221.492 289.546 222.565 288.415 223.888C286.916 225.491 285.903 227.064 285.359 228.593C284.683 230.328 284.375 232.078 284.375 234.107C284.375 235.857 284.669 237.415 285.242 238.753C285.712 240.15 286.505 241.282 287.71 242.282C288.694 243.444 289.958 244.208 291.662 244.708C293.102 245.252 294.968 245.502 297.422 245.502C299.875 245.502 301.991 245.164 303.828 244.414C305.576 243.826 307.222 242.782 308.617 241.385C309.822 239.974 310.792 238.489 311.556 236.856C312.261 235.224 312.614 233.578 312.614 231.813C312.614 230.211 312.291 228.579 311.629 226.814C310.954 225.653 310.057 224.197 308.808 222.962C307.427 221.903 306.032 221.065 304.606 220.433C302.975 219.859 301.198 219.565 299.244 219.565L299.273 219.61ZM297.422 241.532C295.761 241.532 294.513 241.385 293.513 241.091C292.412 240.871 291.457 240.385 290.737 239.665C289.958 239.121 289.37 238.253 289.12 237.239C288.636 236.224 288.562 235.136 288.562 234.107C288.562 232.798 288.782 231.475 289.223 230.166C289.591 228.917 290.34 227.711 291.354 226.682C292.25 225.667 293.381 224.903 294.792 224.359C296.393 223.829 297.76 223.594 299.273 223.594C300.566 223.594 301.888 223.785 303.078 224.138C304.121 224.55 304.988 225.064 305.987 225.8L306.134 225.947C306.766 226.799 307.413 227.652 307.853 228.534C308.177 229.593 308.441 230.637 308.441 231.843C308.441 233.048 308.03 234.298 307.677 235.195C306.987 236.357 306.34 237.445 305.459 238.327C304.504 239.488 303.357 240.312 301.976 240.768C300.654 241.267 299.155 241.532 297.422 241.532ZM299.273 225.064C297.921 225.064 296.702 225.27 295.291 225.741C294.131 226.182 293.19 226.829 292.426 227.696C291.324 228.799 290.839 229.887 290.619 230.608C290.222 231.784 290.031 232.945 290.031 234.107C290.031 235.269 290.164 236.033 290.472 236.665L290.531 236.842C290.692 237.548 291.074 238.136 291.677 238.562C292.279 239.15 292.985 239.503 293.866 239.68C294.806 239.959 295.908 240.077 297.422 240.077C298.935 240.077 300.301 239.856 301.477 239.4C302.623 239.018 303.534 238.371 304.357 237.356C305.165 236.548 305.738 235.577 306.355 234.563C306.766 233.504 306.972 232.637 306.972 231.857C306.972 231.034 306.825 230.225 306.487 229.078C306.164 228.461 305.605 227.711 305.018 226.917C304.166 226.285 303.431 225.873 302.593 225.535C301.594 225.241 300.434 225.079 299.273 225.079V225.064ZM310.998 218.169C310.057 218.169 308.999 218.036 308.324 217.022C307.78 216.492 307.486 215.478 307.486 213.934V203.348H297.525C296.805 203.348 295.761 203.245 295.042 202.421C294.204 201.701 294.101 200.672 294.101 199.936C294.101 198.848 294.41 197.981 295.042 197.363C295.659 196.746 296.496 196.422 297.51 196.422H307.471V185.63C307.471 184.277 307.751 183.233 308.324 182.425C308.867 181.601 309.749 181.19 310.983 181.19C312.085 181.19 312.996 181.557 313.76 182.337C314.48 183.322 314.803 184.395 314.803 185.63V213.934C314.803 215.346 314.45 216.448 313.76 217.125C313.04 217.845 312.188 218.169 310.968 218.169H310.998ZM297.525 197.893C296.907 197.893 296.437 198.054 296.085 198.393C295.732 198.731 295.585 199.245 295.585 199.936C295.585 200.848 295.806 201.142 296.026 201.319L296.143 201.436C296.32 201.657 296.628 201.877 297.525 201.877H308.955V213.934C308.955 215.301 309.235 215.86 309.455 216.095C309.719 216.463 309.954 216.698 310.998 216.698C311.806 216.698 312.305 216.522 312.746 216.095C313.128 215.713 313.348 214.919 313.348 213.934V185.63C313.348 184.704 313.113 183.91 312.658 183.278C312.247 182.881 311.703 182.66 310.998 182.66C310.072 182.66 309.763 182.954 309.558 183.263C309.146 183.836 308.955 184.586 308.955 185.63V197.893H297.525ZM267.228 217.11C266.597 217.11 265.833 216.845 265.186 215.86C264.349 215.096 264.04 214.125 264.319 213.037C264.437 212.214 265.01 211.273 266.053 210.229L279.335 197.76C280.158 196.937 280.716 196.261 281.172 195.54C281.495 194.981 281.671 194.379 281.671 193.864C281.671 193.144 281.363 192.717 280.657 192.511C279.541 192.32 278.042 192.379 276.279 192.732L264.716 195.702C263.643 196.055 262.306 196.378 261.322 195.702C260.543 195.32 260.088 194.482 260.073 193.232C259.823 192.247 260.073 191.394 260.808 190.659C261.366 190.1 262.248 189.659 263.776 189.144L273.693 186.453C278.468 185.204 282.259 185.145 284.962 186.277C287.666 187.689 289.018 190.232 289.018 193.849C289.018 195.32 288.562 196.805 287.681 198.246C286.916 199.334 286.255 200.231 285.609 201.054L293.998 208.009C294.924 208.935 295.526 209.861 295.776 210.743C295.938 211.964 295.614 212.993 294.865 213.728C294.072 214.654 293.161 215.007 292.191 214.743C291.339 214.64 290.399 214.11 289.4 213.111L280.599 205.95L270.681 215.287C269.653 216.331 268.698 216.889 267.816 217.022C267.64 217.066 267.449 217.095 267.243 217.095L267.228 217.11ZM279.247 190.938C279.879 190.938 280.452 190.982 280.995 191.085C282.391 191.497 283.14 192.511 283.14 193.864C283.14 194.629 282.891 195.467 282.421 196.29C281.892 197.143 281.275 197.878 280.349 198.819L267.067 211.287C266.082 212.273 265.803 212.934 265.744 213.331C265.583 213.993 265.744 214.419 266.215 214.831L266.362 214.993C266.802 215.713 267.17 215.684 267.508 215.595C267.963 215.522 268.639 215.243 269.638 214.243L280.511 204.009L290.369 212.037C291.163 212.831 291.853 213.243 292.47 213.316C292.867 213.419 293.205 213.405 293.778 212.743C294.351 212.17 294.38 211.508 294.322 211.052C294.16 210.538 293.69 209.817 292.985 209.111L283.522 201.274L283.978 200.716C284.742 199.775 285.521 198.745 286.417 197.466C287.137 196.29 287.519 195.07 287.519 193.879C287.519 190.806 286.476 188.762 284.316 187.63C281.965 186.645 278.498 186.733 274.046 187.894L264.172 190.57C263.423 190.82 262.306 191.232 261.822 191.717C261.44 192.1 261.351 192.423 261.498 192.952L261.528 193.158C261.528 194.202 261.895 194.379 262.042 194.452C262.483 194.731 263.173 194.673 264.261 194.305H264.305L275.926 191.306C277.131 191.056 278.233 190.938 279.232 190.938H279.247Z" fill="#FFCD54"/>
<path d="M352.96 194.996C351.726 195.408 350.8 195.511 350.183 195.099C349.566 194.79 349.257 194.173 349.257 193.143C349.052 192.423 349.155 191.805 349.772 191.188C350.286 190.673 351.212 190.262 352.446 189.85L362.319 187.174C367.05 185.939 370.65 185.939 373.118 186.968C375.484 188.203 376.718 190.467 376.718 193.864C376.718 195.202 376.306 196.54 375.484 197.878C374.764 198.907 373.941 200.039 373.015 201.171L381.963 208.582C382.786 209.405 383.3 210.229 383.506 210.949C383.609 211.773 383.403 212.596 382.786 213.213C382.169 213.934 381.552 214.243 380.832 214.037C380.009 213.934 379.186 213.419 378.363 212.596L369.004 204.98L358.617 214.757C357.691 215.684 356.868 216.198 356.148 216.301C355.325 216.507 354.708 216.198 354.194 215.375C353.474 214.757 353.268 214.037 353.474 213.213C353.577 212.493 354.091 211.67 355.017 210.743L368.284 198.29C369.107 197.466 369.724 196.746 370.238 195.922C370.65 195.202 370.856 194.481 370.856 193.864C370.856 192.835 370.341 192.114 369.313 191.805C368.181 191.6 366.639 191.6 364.582 192.011L352.96 194.996ZM401.813 231.843C401.813 233.798 401.401 235.548 400.681 237.195C399.859 238.944 398.83 240.488 397.596 241.929C396.156 243.37 394.408 244.502 392.556 245.12C390.499 245.943 388.34 246.252 385.871 246.252C383.609 246.252 381.552 246.046 379.906 245.428C378.158 244.914 376.718 244.09 375.689 242.855C374.455 241.826 373.53 240.591 373.015 239.047C372.398 237.606 372.09 235.96 372.09 234.107C372.09 232.048 372.398 230.196 373.118 228.343C373.735 226.594 374.867 224.947 376.306 223.403C377.541 221.962 379.186 220.83 381.14 220.006C382.992 219.286 385.254 218.874 387.723 218.874C389.78 218.874 391.631 219.183 393.379 219.801C395.025 220.521 396.465 221.447 397.802 222.477C399.036 223.712 399.962 225.153 400.784 226.594C401.401 228.24 401.813 229.99 401.813 231.843ZM396.156 231.843C396.156 230.813 395.95 229.887 395.642 228.858C395.231 228.034 394.613 227.211 393.996 226.388C393.174 225.77 392.351 225.256 391.322 224.844C390.294 224.535 389.06 224.329 387.723 224.329C386.077 224.329 384.74 224.638 383.506 225.05C382.169 225.564 381.14 226.285 380.318 227.211C379.289 228.24 378.672 229.372 378.363 230.402C377.952 231.637 377.746 232.872 377.746 234.107C377.746 235.239 377.849 236.165 378.261 236.989C378.466 237.915 378.981 238.636 379.7 239.15C380.318 239.768 381.14 240.179 382.169 240.385C383.197 240.694 384.431 240.797 385.871 240.797C387.414 240.797 388.854 240.591 390.191 240.076C391.425 239.665 392.454 238.944 393.379 237.812C394.202 236.989 394.819 235.96 395.436 234.93C395.848 233.901 396.156 232.872 396.156 231.843ZM385.974 202.612C385.049 202.612 384.431 202.407 384.02 201.892C383.506 201.48 383.3 200.863 383.3 199.936C383.3 199.113 383.506 198.393 384.02 197.878C384.431 197.466 385.049 197.157 385.974 197.157H396.67V185.63C396.67 184.498 396.876 183.572 397.39 182.851C397.802 182.234 398.419 181.925 399.447 181.925C400.373 181.925 401.093 182.234 401.71 182.851C402.224 183.572 402.533 184.498 402.533 185.63V213.934C402.533 215.169 402.224 216.095 401.71 216.61C401.093 217.227 400.373 217.433 399.447 217.433C398.419 217.433 397.802 217.227 397.39 216.61C396.876 216.095 396.67 215.169 396.67 213.934V202.612H385.974Z" fill="#FFCD54"/>
<path d="M385.871 247.002C383.212 247.002 381.229 246.722 379.642 246.134C377.732 245.576 376.189 244.635 375.116 243.341C373.794 242.253 372.839 240.9 372.31 239.297C371.678 237.827 371.34 236.063 371.34 234.122C371.34 231.901 371.678 229.99 372.413 228.093C373.015 226.373 374.117 224.667 375.748 222.918C377.012 221.447 378.731 220.227 380.832 219.345C382.845 218.566 385.21 218.154 387.693 218.154C389.824 218.154 391.748 218.477 393.6 219.124C395.186 219.815 396.685 220.727 398.228 221.918C399.653 223.344 400.623 224.903 401.401 226.255C402.18 228.299 402.533 230.093 402.533 231.872C402.533 233.828 402.136 235.68 401.343 237.518C400.52 239.283 399.462 240.885 398.14 242.444C396.538 244.046 394.702 245.208 392.777 245.855C390.793 246.649 388.59 247.031 385.857 247.031L385.871 247.002ZM387.723 219.61C385.416 219.61 383.227 219.977 381.405 220.698C379.539 221.492 377.996 222.565 376.865 223.888C375.366 225.491 374.352 227.064 373.809 228.593C373.133 230.328 372.824 232.078 372.824 234.107C372.824 235.857 373.118 237.415 373.691 238.753C374.161 240.15 374.955 241.282 376.16 242.282C377.144 243.444 378.408 244.208 380.112 244.708C381.552 245.252 383.418 245.502 385.871 245.502C388.325 245.502 390.441 245.164 392.277 244.414C394.026 243.826 395.671 242.782 397.067 241.385C398.272 239.974 399.242 238.489 400.006 236.856C400.711 235.224 401.064 233.578 401.064 231.813C401.064 230.225 400.74 228.579 400.079 226.814C399.403 225.653 398.507 224.197 397.258 222.962C395.892 221.918 394.496 221.065 393.056 220.433C391.425 219.859 389.647 219.565 387.693 219.565L387.723 219.61ZM385.871 241.532C384.211 241.532 382.962 241.385 381.963 241.091C380.861 240.871 379.906 240.385 379.186 239.665C378.408 239.121 377.82 238.253 377.57 237.239C377.085 236.224 377.012 235.136 377.012 234.107C377.012 232.798 377.232 231.475 377.673 230.166C378.055 228.917 378.79 227.711 379.803 226.682C380.7 225.667 381.831 224.903 383.241 224.359C384.843 223.829 386.209 223.594 387.723 223.594C389.016 223.594 390.338 223.785 391.528 224.138C392.571 224.55 393.453 225.064 394.437 225.8L394.584 225.947C395.216 226.799 395.862 227.652 396.303 228.534C396.626 229.593 396.891 230.637 396.891 231.843C396.891 233.048 396.479 234.298 396.127 235.195L396.053 235.327C395.422 236.371 394.775 237.445 393.908 238.327C392.953 239.488 391.807 240.312 390.426 240.768C389.104 241.267 387.605 241.532 385.871 241.532ZM387.723 225.064C386.371 225.064 385.151 225.27 383.741 225.741C382.58 226.182 381.64 226.829 380.876 227.696C379.774 228.799 379.289 229.887 379.069 230.608C378.672 231.784 378.481 232.96 378.481 234.107C378.481 235.254 378.613 236.033 378.922 236.665L378.981 236.842C379.142 237.548 379.524 238.136 380.127 238.562C380.729 239.15 381.434 239.503 382.316 239.68C383.256 239.959 384.358 240.077 385.871 240.077C387.385 240.077 388.751 239.856 389.927 239.4C391.073 239.018 391.983 238.371 392.806 237.356C393.6 236.548 394.173 235.592 394.79 234.592C395.216 233.519 395.422 232.637 395.422 231.857C395.422 231.034 395.275 230.225 394.937 229.078C394.613 228.461 394.055 227.711 393.467 226.917C392.615 226.285 391.881 225.873 391.043 225.535C390.044 225.241 388.883 225.079 387.723 225.079V225.064ZM399.447 218.169C398.507 218.169 397.449 218.036 396.773 217.022C396.23 216.492 395.936 215.478 395.936 213.934V203.348H385.974C385.254 203.348 384.211 203.245 383.491 202.421C382.654 201.716 382.566 200.672 382.566 199.936C382.566 198.848 382.874 197.981 383.506 197.363C384.123 196.746 384.96 196.422 385.974 196.422H395.936V185.63C395.936 184.277 396.215 183.233 396.788 182.425C397.332 181.601 398.213 181.19 399.447 181.19C400.549 181.19 401.46 181.557 402.224 182.337C402.944 183.322 403.267 184.395 403.267 185.63V213.934C403.267 215.346 402.915 216.448 402.224 217.125C401.504 217.845 400.652 218.169 399.433 218.169H399.447ZM385.974 197.893C385.357 197.893 384.887 198.054 384.534 198.393C384.196 198.731 384.035 199.231 384.035 199.936C384.035 200.848 384.255 201.142 384.476 201.319L384.593 201.436C384.769 201.657 385.078 201.877 385.974 201.877H397.405V213.934C397.405 215.301 397.684 215.86 397.905 216.095C398.169 216.463 398.404 216.698 399.447 216.698C400.255 216.698 400.755 216.522 401.196 216.095C401.578 215.713 401.798 214.919 401.798 213.934V185.63C401.798 184.704 401.563 183.91 401.108 183.278C400.696 182.881 400.153 182.66 399.447 182.66C398.522 182.66 398.213 182.954 398.007 183.263C397.596 183.836 397.405 184.586 397.405 185.63V197.893H385.974ZM355.678 217.11C355.046 217.11 354.282 216.845 353.636 215.86C352.798 215.096 352.49 214.125 352.769 213.037C352.887 212.214 353.46 211.273 354.503 210.229L367.785 197.76C368.608 196.937 369.166 196.261 369.621 195.54C369.945 194.981 370.121 194.379 370.121 193.864C370.121 193.144 369.812 192.717 369.107 192.511C367.991 192.32 366.492 192.379 364.729 192.732L353.166 195.702C352.093 196.055 350.756 196.378 349.772 195.702C348.993 195.32 348.538 194.482 348.523 193.232C348.273 192.247 348.523 191.394 349.257 190.659C349.816 190.1 350.697 189.659 352.225 189.144L362.143 186.453C366.918 185.204 370.709 185.145 373.412 186.277C376.116 187.689 377.467 190.232 377.467 193.849C377.467 195.32 377.012 196.805 376.116 198.246C375.352 199.334 374.69 200.231 374.044 201.054L382.433 208.009C383.374 208.935 383.961 209.861 384.211 210.743C384.373 211.964 384.05 212.993 383.3 213.728C382.507 214.654 381.596 215.007 380.626 214.743C379.774 214.64 378.834 214.11 377.835 213.111L369.034 205.95L359.116 215.287C358.088 216.316 357.133 216.889 356.251 217.022C356.075 217.066 355.884 217.095 355.678 217.095V217.11ZM367.697 190.938C368.328 190.938 368.901 190.982 369.445 191.085C370.841 191.497 371.59 192.511 371.59 193.864C371.59 194.629 371.34 195.467 370.87 196.29C370.341 197.143 369.724 197.878 368.799 198.819L355.517 211.287C354.532 212.273 354.253 212.934 354.194 213.331C354.033 213.993 354.194 214.419 354.664 214.831L354.811 214.993C355.252 215.713 355.619 215.684 355.957 215.595C356.413 215.522 357.074 215.243 358.088 214.243L368.96 204.009L378.819 212.037C379.612 212.831 380.303 213.243 380.92 213.316C381.317 213.419 381.655 213.405 382.228 212.743C382.801 212.17 382.83 211.508 382.771 211.052C382.61 210.538 382.139 209.817 381.434 209.111L371.972 201.274L372.428 200.716C373.192 199.775 373.97 198.745 374.867 197.466C375.587 196.29 375.969 195.07 375.969 193.879C375.969 190.806 374.925 188.762 372.766 187.63C370.415 186.645 366.947 186.733 362.496 187.894L352.622 190.57C351.873 190.82 350.756 191.232 350.271 191.717C349.889 192.1 349.801 192.423 349.948 192.952L349.977 193.158C349.977 194.202 350.345 194.379 350.492 194.452C350.932 194.731 351.623 194.673 352.71 194.305H352.754L364.376 191.306C365.581 191.056 366.683 190.938 367.682 190.938H367.697Z" fill="#FFCD54"/>
<path d="M433.078 192.217C436.987 192.217 439.969 192.937 442.026 194.378C444.083 195.922 445.009 198.392 445.009 201.891C444.803 205.082 443.672 207.346 441.615 208.787C439.352 210.228 436.164 211.566 432.05 212.801L426.805 214.139C425.159 214.654 423.719 215.374 422.485 216.404C421.251 217.536 420.634 218.771 420.84 220.212C420.84 221.858 421.457 223.196 422.588 224.02C423.616 224.946 425.262 225.358 427.628 225.358C430.919 225.358 434.004 225.152 437.09 224.534C440.072 224.123 443.055 223.196 445.934 221.961C446.757 221.55 447.477 221.447 448.197 221.653C448.814 221.961 449.328 222.476 449.74 223.299C449.946 224.123 449.946 224.843 449.637 225.461C449.226 226.078 448.506 226.593 447.683 227.005C444.597 228.343 441.409 229.269 438.118 229.887C434.724 230.504 431.227 230.813 427.628 230.813C423.308 230.813 420.222 229.886 418.268 227.828C416.211 225.872 415.08 223.299 415.08 220.212C414.874 216.918 415.697 214.448 417.446 212.801C419.091 211.257 421.765 210.022 425.365 208.993L430.507 207.655C432.976 207.038 435.033 206.214 436.678 205.391C438.221 204.67 439.044 203.538 439.146 201.891C439.146 200.245 438.632 199.112 437.604 198.495C436.575 197.98 435.033 197.672 433.078 197.672C430.404 197.672 427.936 197.877 425.673 198.289C423.411 198.701 421.354 199.215 419.503 199.833C418.474 200.245 417.754 200.348 417.24 200.039C416.623 199.833 416.314 199.215 416.109 198.392C415.697 197.569 415.697 196.848 416.109 196.128C416.52 195.51 417.343 194.996 418.577 194.481C420.428 193.863 422.588 193.349 425.056 192.834C427.525 192.422 430.199 192.217 433.078 192.217ZM458.482 190.981C458.482 189.849 458.688 188.923 459.099 188.203C459.51 187.585 460.23 187.276 461.259 187.276C462.184 187.276 462.904 187.585 463.521 188.203C463.933 188.923 464.241 189.849 464.241 190.981V234.621C464.241 235.856 463.933 236.782 463.521 237.297C462.904 237.915 462.184 238.12 461.259 238.12C460.23 238.12 459.51 237.915 459.099 237.297C458.688 236.782 458.482 235.856 458.482 234.621V190.981Z" fill="#FFCD54"/>
<path d="M461.259 238.856C460.407 238.856 459.173 238.738 458.482 237.709C457.998 237.121 457.748 236.062 457.748 234.621V190.982C457.748 189.717 457.983 188.659 458.468 187.835C459.055 186.953 459.981 186.541 461.259 186.541C462.361 186.541 463.272 186.909 464.036 187.688L464.154 187.85C464.697 188.806 464.977 189.864 464.977 190.996V234.636C464.977 235.944 464.668 237.062 464.095 237.768C463.316 238.547 462.464 238.87 461.259 238.87V238.856ZM461.259 188.012C460.113 188.012 459.805 188.467 459.717 188.614C459.393 189.173 459.217 189.982 459.217 190.982V234.621C459.217 236.106 459.54 236.665 459.672 236.841C459.878 237.135 460.187 237.385 461.259 237.385C462.067 237.385 462.567 237.209 463.008 236.783C463.081 236.68 463.507 236.033 463.507 234.621V190.982C463.507 190.144 463.316 189.35 462.934 188.659C462.464 188.217 461.935 188.012 461.259 188.012ZM427.628 231.548C423.029 231.548 419.797 230.504 417.74 228.343C415.536 226.24 414.346 223.432 414.346 220.212C414.125 216.786 415.007 214.095 416.946 212.257C418.636 210.684 421.325 209.376 425.174 208.273L430.331 206.935C432.462 206.405 434.489 205.656 436.355 204.729C437.678 204.112 438.339 203.2 438.412 201.847C438.412 200.509 438.016 199.613 437.222 199.127C436.311 198.672 434.813 198.407 433.079 198.407C430.464 198.407 428.025 198.613 425.806 199.01C423.588 199.421 421.545 199.921 419.738 200.524C418.856 200.877 417.813 201.171 416.932 200.701C415.977 200.333 415.609 199.377 415.418 198.642C414.934 197.628 414.948 196.672 415.477 195.76C415.977 194.996 416.844 194.408 418.298 193.805C420.017 193.231 422.03 192.717 424.91 192.114C427.422 191.687 430.17 191.482 433.079 191.482C437.119 191.482 440.278 192.246 442.453 193.775C444.671 195.451 445.744 198.098 445.744 201.892C445.524 205.317 444.275 207.817 442.041 209.39C439.705 210.875 436.429 212.257 432.271 213.507L426.996 214.86C425.395 215.36 424.072 216.066 422.97 216.977C421.868 217.992 421.428 218.991 421.589 220.124C421.589 221.638 422.104 222.756 423.044 223.432C423.955 224.255 425.453 224.638 427.657 224.638C431.257 224.638 434.225 224.388 436.972 223.829C439.735 223.447 442.658 222.594 445.67 221.3C446.625 220.829 447.536 220.712 448.418 220.962C449.344 221.403 449.946 222.05 450.416 222.991L450.475 223.138C450.739 224.196 450.695 225.064 450.313 225.814C449.828 226.564 449.064 227.167 448.036 227.681C444.98 229.004 441.792 229.96 438.28 230.622C434.871 231.239 431.286 231.563 427.657 231.563L427.628 231.548ZM433.079 196.937C435.077 196.937 436.752 197.245 437.927 197.833C439.235 198.613 439.882 199.98 439.882 201.892C439.764 203.832 438.794 205.214 436.987 206.053C435.033 207.023 432.917 207.802 430.684 208.361L425.542 209.699C421.942 210.728 419.444 211.919 417.946 213.331C416.344 214.845 415.624 217.139 415.815 220.153C415.815 223.035 416.814 225.417 418.783 227.284C420.576 229.166 423.455 230.063 427.643 230.063C431.198 230.063 434.68 229.754 438.001 229.152C441.41 228.519 444.495 227.593 447.404 226.314C448.168 225.931 448.741 225.49 449.035 225.035C449.197 224.711 449.211 224.211 449.05 223.535C448.741 222.932 448.359 222.535 447.874 222.285C447.463 222.182 446.934 222.256 446.273 222.594C443.099 223.961 440.058 224.843 437.193 225.24C434.387 225.799 431.33 226.064 427.628 226.064C425.013 226.064 423.25 225.579 422.089 224.535C420.825 223.623 420.091 222.065 420.091 220.182C419.87 218.653 420.487 217.198 421.971 215.83C423.25 214.757 424.748 213.978 426.57 213.404L431.859 212.052C435.856 210.846 439.015 209.523 441.219 208.126C443.07 206.817 444.084 204.744 444.275 201.803C444.275 198.495 443.422 196.304 441.586 194.922C439.676 193.584 436.811 192.908 433.079 192.908C430.243 192.908 427.584 193.114 425.174 193.511C422.383 194.099 420.414 194.599 418.812 195.128C417.725 195.584 417.02 196.04 416.726 196.481C416.462 196.937 416.476 197.407 416.77 198.01L416.829 198.157C417.049 199.054 417.314 199.23 417.475 199.289L417.622 199.348C417.887 199.51 418.43 199.421 419.239 199.083C421.149 198.451 423.264 197.922 425.556 197.495C427.863 197.084 430.39 196.863 433.094 196.863L433.079 196.937Z" fill="#FFCD54"/>
<path d="M514.123 229.887C511.963 229.887 510.111 229.578 508.569 228.961C506.923 228.343 505.483 227.417 504.249 226.182C503.015 225.05 502.089 223.609 501.472 221.962C500.855 220.315 500.547 218.463 500.547 216.301C500.547 213.522 500.855 210.949 501.678 208.582C502.295 206.318 503.426 204.259 505.072 202.406C506.512 200.76 508.157 199.422 510.009 198.392C511.86 197.466 513.814 196.952 516.077 196.952C518.134 196.952 520.088 197.363 521.836 198.084C523.482 198.907 525.024 199.833 526.464 201.068C526.567 201.171 526.67 201.377 526.773 201.48C527.081 201.48 527.39 201.377 527.699 201.377L546.931 200.451V190.056C546.931 188.924 547.137 187.997 547.548 187.277C547.96 186.659 548.68 186.35 549.708 186.35C550.634 186.35 551.354 186.659 551.971 187.277C552.382 187.997 552.691 188.924 552.691 190.056V233.695C552.691 234.93 552.382 235.857 551.971 236.371C551.354 236.989 550.634 237.195 549.708 237.195C548.68 237.195 547.96 236.989 547.548 236.371C547.137 235.857 546.931 234.93 546.931 233.695V219.903L528.11 220.83C527.39 222.065 526.567 223.3 525.642 224.432C523.996 226.285 522.145 227.726 520.293 228.549C518.339 229.475 516.282 229.887 514.123 229.887ZM524.716 211.875C524.716 210.332 524.51 208.994 524.099 207.759C523.585 206.626 522.968 205.597 522.145 204.774C521.219 204.053 520.293 203.436 519.265 203.024C518.236 202.612 517.105 202.406 516.077 202.406C514.637 202.406 513.403 202.818 512.271 203.436C511.037 204.156 510.009 205.082 509.083 206.318C508.055 207.758 507.437 209.302 507.026 210.949C506.512 212.596 506.306 214.449 506.306 216.301C506.306 217.742 506.409 218.977 506.82 220.006C507.026 221.036 507.54 221.859 508.363 222.477C508.98 223.197 509.803 223.712 510.831 223.917C511.757 224.329 512.888 224.432 514.123 224.432C515.357 224.432 516.694 224.123 517.928 223.506C519.162 222.991 520.293 222.065 521.425 220.727C522.453 219.492 523.276 218.154 523.893 216.61C524.407 215.169 524.716 213.625 524.716 211.875ZM529.755 206.729C530.167 208.376 530.475 210.023 530.475 211.875C530.475 213.111 530.373 214.14 530.167 215.272L546.931 214.449V205.906L529.755 206.729Z" fill="#FFCD54"/>
<path d="M549.708 237.93C548.841 237.93 547.621 237.812 546.931 236.783C546.446 236.18 546.196 235.136 546.196 233.695V220.668L528.536 221.536C527.786 222.771 527.008 223.903 526.2 224.888C524.437 226.873 522.497 228.358 520.587 229.211C518.604 230.152 516.488 230.607 514.122 230.607C511.757 230.607 509.92 230.284 508.289 229.622C506.57 228.975 505.028 227.99 503.72 226.682C502.442 225.52 501.457 224.006 500.781 222.197C500.12 220.447 499.812 218.507 499.812 216.272C499.812 213.184 500.194 210.582 500.987 208.317C501.619 205.994 502.809 203.818 504.528 201.892C506.012 200.201 507.746 198.789 509.656 197.731C511.727 196.687 513.829 196.202 516.076 196.202C518.163 196.202 520.205 196.599 522.115 197.393C524.099 198.378 525.627 199.363 526.949 200.495C527.022 200.554 527.067 200.627 527.125 200.686C527.316 200.657 527.522 200.627 527.713 200.627L546.211 199.73V190.041C546.211 188.777 546.446 187.718 546.931 186.894C547.504 186.027 548.444 185.601 549.722 185.601C550.824 185.601 551.735 185.968 552.499 186.747L552.617 186.909C553.161 187.865 553.44 188.924 553.44 190.056V233.695C553.44 235.004 553.131 236.121 552.558 236.827C551.779 237.606 550.927 237.93 549.722 237.93H549.708ZM547.666 219.139V233.71C547.666 235.195 547.989 235.754 548.121 235.93C548.327 236.224 548.635 236.474 549.708 236.474C550.516 236.474 551.015 236.298 551.456 235.871C551.53 235.768 551.956 235.121 551.956 233.71V190.07C551.956 189.232 551.765 188.438 551.383 187.747C550.913 187.306 550.384 187.1 549.708 187.1C548.562 187.1 548.253 187.556 548.165 187.703C547.842 188.262 547.666 189.071 547.666 190.07V201.171L527.728 202.127C527.581 202.127 527.463 202.157 527.346 202.171C527.155 202.201 526.949 202.23 526.758 202.23H526.449L526.229 202.01C526.141 201.921 526.067 201.804 525.979 201.686C524.716 200.569 523.335 199.672 521.483 198.745C519.794 198.054 517.957 197.687 516.047 197.687C513.99 197.687 512.168 198.113 510.302 199.054C508.569 200.025 506.967 201.318 505.586 202.892C504.014 204.656 502.927 206.626 502.354 208.773C501.604 210.934 501.252 213.375 501.252 216.301C501.252 218.36 501.545 220.124 502.133 221.712C502.721 223.3 503.602 224.623 504.719 225.652C505.894 226.829 507.261 227.711 508.804 228.284C510.258 228.872 512.036 229.167 514.093 229.167C516.15 229.167 518.148 228.755 519.955 227.902C521.704 227.123 523.467 225.755 525.068 223.962C525.876 222.962 526.684 221.785 527.449 220.477L527.654 220.139L547.651 219.154L547.666 219.139ZM514.122 225.167C513.079 225.167 511.742 225.108 510.611 224.623C509.524 224.388 508.598 223.844 507.863 223.021C506.938 222.3 506.335 221.33 506.1 220.153C505.645 219.036 505.571 217.566 505.571 216.301C505.571 214.199 505.821 212.331 506.321 210.729C506.791 208.847 507.481 207.288 508.48 205.891C509.465 204.583 510.581 203.568 511.889 202.803C513.285 202.039 514.651 201.671 516.062 201.671C517.208 201.671 518.442 201.907 519.529 202.348C520.499 202.745 521.439 203.318 522.585 204.2C523.452 205.053 524.143 206.097 524.76 207.464C525.23 208.861 525.436 210.287 525.436 211.89C525.436 213.61 525.156 215.243 524.569 216.875C523.937 218.463 523.085 219.874 521.968 221.212C520.719 222.682 519.485 223.653 518.192 224.197C516.929 224.829 515.489 225.182 514.108 225.182L514.122 225.167ZM516.076 203.142C514.901 203.142 513.799 203.436 512.624 204.083C511.478 204.759 510.537 205.612 509.67 206.759C508.789 207.994 508.172 209.391 507.731 211.126C507.261 212.625 507.026 214.346 507.026 216.301C507.026 217.889 507.158 218.918 507.481 219.727C507.687 220.712 508.098 221.374 508.789 221.888L508.906 222.006C509.45 222.638 510.141 223.035 510.963 223.212L511.11 223.256C511.816 223.565 512.741 223.712 514.108 223.712C515.254 223.712 516.488 223.403 517.59 222.859C518.721 222.388 519.764 221.55 520.852 220.256C521.865 219.051 522.629 217.757 523.202 216.345C523.717 214.904 523.966 213.434 523.966 211.89C523.966 210.449 523.775 209.17 523.393 208.008C522.879 206.891 522.291 205.979 521.616 205.318C520.646 204.568 519.823 204.068 518.986 203.73C518.075 203.362 517.031 203.171 516.076 203.171V203.142ZM529.27 216.051L529.432 215.14C529.638 213.993 529.726 213.022 529.726 211.875C529.726 209.964 529.373 208.288 529.021 206.906L528.8 206.038L547.636 205.141V215.154L529.241 216.066L529.27 216.051ZM530.666 207.42C530.96 208.714 531.195 210.199 531.195 211.875C531.195 212.802 531.136 213.625 531.019 214.493L546.182 213.743V206.67L530.651 207.42H530.666Z" fill="#FFCD54"/>
<path d="M566.884 194.996C565.65 195.408 564.724 195.511 564.107 195.099C563.49 194.79 563.181 194.173 563.181 193.143C562.976 192.423 563.078 191.805 563.695 191.188C564.21 190.673 565.135 190.262 566.369 189.85L576.243 187.174C580.974 185.939 584.574 185.939 587.042 186.968C589.407 188.203 590.642 190.467 590.642 193.864C590.642 195.202 590.23 196.54 589.408 197.878C588.688 198.907 587.865 200.039 586.939 201.171L595.887 208.582C596.71 209.405 597.224 210.229 597.43 210.949C597.532 211.773 597.327 212.596 596.71 213.213C596.093 213.934 595.476 214.243 594.756 214.037C593.933 213.934 593.11 213.419 592.287 212.596L582.928 204.98L572.54 214.757C571.615 215.684 570.792 216.198 570.072 216.301C569.249 216.507 568.632 216.198 568.118 215.375C567.398 214.757 567.192 214.037 567.398 213.213C567.501 212.493 568.015 211.67 568.941 210.743L582.208 198.29C583.031 197.466 583.648 196.746 584.162 195.922C584.574 195.202 584.779 194.481 584.779 193.864C584.779 192.835 584.265 192.114 583.237 191.805C582.105 191.6 580.563 191.6 578.506 192.011L566.884 194.996ZM615.737 231.843C615.737 233.798 615.325 235.548 614.605 237.195C613.782 238.944 612.754 240.488 611.52 241.929C610.08 243.37 608.332 244.502 606.48 245.12C604.423 245.943 602.263 246.252 599.795 246.252C597.532 246.252 595.476 246.046 593.83 245.428C592.082 244.914 590.642 244.09 589.613 242.855C588.379 241.826 587.453 240.591 586.939 239.047C586.322 237.606 586.013 235.96 586.013 234.107C586.013 232.048 586.322 230.196 587.042 228.343C587.659 226.594 588.79 224.947 590.23 223.403C591.464 221.962 593.11 220.83 595.064 220.006C596.915 219.286 599.178 218.874 601.646 218.874C603.703 218.874 605.555 219.183 607.303 219.801C608.949 220.521 610.388 221.447 611.726 222.477C612.96 223.712 613.885 225.153 614.708 226.594C615.325 228.24 615.737 229.99 615.737 231.843ZM610.08 231.843C610.08 230.813 609.874 229.887 609.566 228.858C609.154 228.034 608.537 227.211 607.92 226.388C607.097 225.77 606.275 225.256 605.246 224.844C604.218 224.535 602.983 224.329 601.646 224.329C600.001 224.329 598.664 224.638 597.43 225.05C596.093 225.564 595.064 226.285 594.241 227.211C593.213 228.24 592.596 229.372 592.287 230.402C591.876 231.637 591.67 232.872 591.67 234.107C591.67 235.239 591.773 236.165 592.184 236.989C592.39 237.915 592.904 238.636 593.624 239.15C594.241 239.768 595.064 240.179 596.093 240.385C597.121 240.694 598.355 240.797 599.795 240.797C601.338 240.797 602.778 240.591 604.115 240.076C605.349 239.665 606.377 238.944 607.303 237.812C608.126 236.989 608.743 235.96 609.36 234.93C609.771 233.901 610.08 232.872 610.08 231.843ZM599.898 202.612C598.972 202.612 598.355 202.407 597.944 201.892C597.43 201.48 597.224 200.863 597.224 199.936C597.224 199.113 597.43 198.393 597.944 197.878C598.355 197.466 598.972 197.157 599.898 197.157H610.594V185.63C610.594 184.498 610.8 183.572 611.314 182.851C611.726 182.234 612.343 181.925 613.371 181.925C614.297 181.925 615.017 182.234 615.634 182.851C616.148 183.572 616.457 184.498 616.457 185.63V213.934C616.457 215.169 616.148 216.095 615.634 216.61C615.017 217.227 614.297 217.433 613.371 217.433C612.343 217.433 611.726 217.227 611.314 216.61C610.8 216.095 610.594 215.169 610.594 213.934V202.612H599.898Z" fill="#FFCD54"/>
<path d="M599.795 247.002C597.135 247.002 595.152 246.722 593.565 246.134C591.655 245.576 590.112 244.635 589.04 243.341C587.718 242.253 586.762 240.9 586.234 239.297C585.602 237.827 585.264 236.063 585.264 234.122C585.264 231.901 585.602 229.99 586.336 228.093C586.939 226.373 588.041 224.667 589.672 222.918C590.935 221.447 592.654 220.227 594.755 219.345C596.768 218.566 599.134 218.154 601.617 218.154C603.747 218.154 605.672 218.477 607.523 219.124C609.11 219.815 610.609 220.727 612.151 221.918C613.576 223.344 614.546 224.903 615.325 226.255C616.104 228.299 616.456 230.093 616.456 231.872C616.456 233.828 616.059 235.68 615.266 237.518C614.443 239.283 613.385 240.885 612.063 242.444C610.462 244.046 608.625 245.208 606.7 245.855C604.717 246.649 602.513 247.031 599.78 247.031L599.795 247.002ZM601.646 219.61C599.339 219.61 597.15 219.977 595.328 220.698C593.462 221.492 591.92 222.565 590.788 223.888C589.29 225.491 588.276 227.064 587.732 228.593C587.056 230.328 586.748 232.078 586.748 234.107C586.748 235.857 587.042 237.415 587.615 238.753C588.085 240.15 588.878 241.282 590.083 242.282C591.067 243.444 592.331 244.208 594.035 244.708C595.475 245.252 597.341 245.502 599.795 245.502C602.248 245.502 604.364 245.164 606.201 244.414C607.949 243.826 609.595 242.782 610.991 241.385C612.195 239.974 613.165 238.489 613.929 236.856C614.634 235.224 614.987 233.578 614.987 231.813C614.987 230.225 614.664 228.579 614.003 226.814C613.327 225.653 612.43 224.197 611.182 222.962C609.815 221.918 608.419 221.065 606.979 220.433C605.349 219.859 603.571 219.565 601.617 219.565L601.646 219.61ZM599.795 241.532C598.135 241.532 596.886 241.385 595.887 241.091C594.785 240.871 593.83 240.385 593.11 239.665C592.331 239.121 591.743 238.253 591.493 237.239C591.009 236.224 590.935 235.136 590.935 234.107C590.935 232.798 591.156 231.475 591.596 230.166C591.978 228.917 592.713 227.711 593.727 226.682C594.623 225.667 595.754 224.903 597.165 224.359C598.766 223.829 600.133 223.594 601.646 223.594C602.939 223.594 604.261 223.785 605.451 224.138C606.495 224.55 607.376 225.064 608.361 225.8L608.508 225.947C609.139 226.799 609.786 227.652 610.227 228.534C610.55 229.593 610.814 230.637 610.814 231.843C610.814 233.048 610.403 234.298 610.05 235.195L609.977 235.327C609.345 236.371 608.698 237.445 607.832 238.327C606.877 239.488 605.731 240.312 604.349 240.768C603.027 241.267 601.528 241.532 599.795 241.532ZM601.646 225.064C600.294 225.064 599.075 225.27 597.664 225.741C596.504 226.182 595.563 226.829 594.799 227.696C593.697 228.799 593.212 229.887 592.992 230.608C592.595 231.784 592.404 232.96 592.404 234.107C592.404 235.254 592.537 236.033 592.845 236.665L592.904 236.842C593.066 237.548 593.448 238.136 594.05 238.562C594.652 239.15 595.358 239.503 596.239 239.68C597.18 239.959 598.281 240.077 599.795 240.077C601.308 240.077 602.675 239.856 603.85 239.4C604.996 239.018 605.907 238.371 606.73 237.356C607.523 236.548 608.096 235.592 608.713 234.592C609.139 233.519 609.345 232.637 609.345 231.857C609.345 231.034 609.198 230.225 608.86 229.078C608.537 228.461 607.979 227.711 607.391 226.917C606.539 226.285 605.804 225.873 604.967 225.535C603.967 225.241 602.807 225.079 601.646 225.079V225.064ZM613.371 218.169C612.43 218.169 611.373 218.036 610.697 217.022C610.153 216.492 609.859 215.478 609.859 213.934V203.348H599.898C599.178 203.348 598.135 203.245 597.415 202.421C596.577 201.716 596.489 200.672 596.489 199.936C596.489 198.848 596.798 197.981 597.429 197.363C598.046 196.746 598.884 196.422 599.898 196.422H609.859V185.63C609.859 184.277 610.138 183.233 610.711 182.425C611.255 181.601 612.137 181.19 613.371 181.19C614.473 181.19 615.384 181.557 616.148 182.337C616.868 183.322 617.191 184.395 617.191 185.63V213.934C617.191 215.346 616.838 216.448 616.148 217.125C615.428 217.845 614.576 218.169 613.356 218.169H613.371ZM599.898 197.893C599.281 197.893 598.81 198.054 598.458 198.393C598.12 198.731 597.958 199.231 597.958 199.936C597.958 200.848 598.179 201.142 598.399 201.319L598.517 201.436C598.693 201.657 599.001 201.877 599.898 201.877H611.328V213.934C611.328 215.301 611.608 215.86 611.828 216.095C612.092 216.463 612.328 216.698 613.371 216.698C614.179 216.698 614.678 216.522 615.119 216.095C615.501 215.713 615.722 214.919 615.722 213.934V185.63C615.722 184.704 615.486 183.91 615.031 183.278C614.62 182.881 614.076 182.66 613.371 182.66C612.445 182.66 612.137 182.954 611.931 183.263C611.519 183.836 611.328 184.586 611.328 185.63V197.893H599.898ZM569.587 217.11C568.955 217.11 568.191 216.845 567.545 215.86C566.707 215.096 566.399 214.125 566.678 213.037C566.795 212.214 567.368 211.273 568.411 210.229L581.694 197.76C582.516 196.937 583.075 196.261 583.53 195.54C583.853 194.981 584.03 194.379 584.03 193.864C584.03 193.144 583.721 192.717 583.016 192.511C581.899 192.32 580.401 192.379 578.637 192.732L567.074 195.702C566.002 196.055 564.665 196.378 563.68 195.702C562.902 195.32 562.446 194.482 562.432 193.232C562.182 192.247 562.432 191.394 563.166 190.659C563.724 190.1 564.606 189.659 566.134 189.144L576.052 186.453C580.827 185.204 584.617 185.145 587.321 186.277C590.024 187.689 591.376 190.232 591.376 193.849C591.376 195.32 590.92 196.805 590.024 198.246C589.26 199.334 588.599 200.231 587.953 201.054L596.342 208.009C597.282 208.935 597.87 209.861 598.12 210.743C598.281 211.964 597.958 212.993 597.209 213.728C596.416 214.654 595.505 215.007 594.535 214.743C593.683 214.64 592.742 214.11 591.743 213.111L582.942 205.95L573.025 215.287C571.996 216.316 571.041 216.889 570.16 217.022C569.984 217.066 569.793 217.095 569.587 217.095V217.11ZM581.62 190.938C582.252 190.938 582.825 190.982 583.368 191.085C584.764 191.497 585.514 192.511 585.514 193.864C585.514 194.629 585.264 195.467 584.794 196.29C584.265 197.143 583.648 197.878 582.722 198.819L569.44 211.287C568.455 212.273 568.176 212.934 568.118 213.331C567.956 213.993 568.118 214.419 568.588 214.831L568.735 214.993C569.175 215.713 569.543 215.684 569.881 215.595C570.336 215.522 570.997 215.243 572.011 214.243L582.884 204.009L592.742 212.037C593.536 212.831 594.226 213.243 594.843 213.316C595.24 213.419 595.578 213.405 596.151 212.743C596.724 212.17 596.753 211.508 596.695 211.052C596.533 210.538 596.063 209.817 595.358 209.111L585.896 201.274L586.351 200.716C587.115 199.775 587.894 198.745 588.79 197.466C589.51 196.29 589.892 195.07 589.892 193.879C589.892 190.806 588.849 188.762 586.689 187.63C584.338 186.645 580.871 186.733 576.419 187.894L566.545 190.57C565.796 190.82 564.68 191.232 564.195 191.717C563.813 192.1 563.725 192.423 563.871 192.952L563.901 193.158C563.901 194.202 564.268 194.379 564.415 194.452C564.856 194.731 565.546 194.673 566.634 194.305H566.678L578.3 191.306C579.504 191.056 580.606 190.938 581.605 190.938H581.62Z" fill="#FFCD54"/>
</svg>
