<svg width="815" height="1185" viewBox="0 0 815 1185" fill="none" xmlns="http://www.w3.org/2000/svg">
<path d="M640.832 823.371H173.52C143.723 823.371 119.495 799.111 119.495 769.307V266.851C119.495 237.032 143.738 212.786 173.52 212.786H640.832C670.629 212.786 694.857 237.047 694.857 266.851V769.307C694.857 799.126 670.614 823.371 640.832 823.371ZM173.52 224.167C149.997 224.167 130.867 243.325 130.867 266.865V769.322C130.867 792.862 150.012 812.006 173.52 812.006H640.832C664.355 812.006 683.485 792.862 683.485 769.322V266.851C683.485 243.31 664.355 224.152 640.832 224.152H173.52V224.167Z" fill="#FFCC66"/>
<path d="M758.475 1185H55.8612C25.0655 1185 0 1159.93 0 1129.1V55.9021C0 25.0839 25.0509 0 55.8612 0H758.475C789.271 0 814.336 25.0692 814.336 55.9021V1129.1C814.336 1159.92 789.286 1185 758.475 1185ZM55.8612 11.7774C31.545 11.7774 11.7541 31.568 11.7541 55.9168V1129.11C11.7541 1153.45 31.5303 1173.25 55.8612 1173.25H758.475C782.792 1173.25 802.582 1153.46 802.582 1129.11V55.9021C802.582 31.5681 782.792 11.7627 758.475 11.7627H55.8612V11.7774Z" fill="#FFCC66"/>
<path d="M262.63 1140.85H157.505C154.904 1140.85 152.598 1139.13 151.863 1136.63C151.128 1134.13 152.127 1131.44 154.317 1130.02C156.065 1128.89 160.296 1125.63 161.78 1119.7C163.602 1112.4 159.753 1106.51 158.959 1105.41C157.299 1103.09 157.549 1099.9 159.547 1097.87C161.545 1095.82 164.719 1095.53 167.07 1097.15C179.94 1106.04 193.913 1113.23 208.591 1118.53C226.016 1124.8 244.265 1128.36 262.851 1129.1C266.054 1129.23 268.551 1131.89 268.493 1135.1C268.434 1138.3 265.819 1140.86 262.616 1140.86L262.63 1140.85ZM170.669 1129.08H203.272C193.164 1125.35 183.379 1120.78 174.034 1115.41C174.063 1117.64 173.814 1120.03 173.197 1122.53C172.594 1124.98 171.698 1127.16 170.669 1129.07V1129.08Z" fill="#FFCC66"/>
<path d="M44.21 1033.04C43.6517 1033.04 43.1081 1032.97 42.5498 1032.81C40.052 1032.07 38.333 1029.78 38.333 1027.16V921.957C38.333 918.752 40.8895 916.135 44.0925 916.076C47.3102 915.959 49.9548 918.517 50.0871 921.722C50.8217 940.307 54.3773 958.584 60.651 976.022C65.9404 990.71 73.1251 1004.69 82.0141 1017.57C83.6303 1019.93 83.3364 1023.1 81.2941 1025.1C79.2519 1027.1 76.0783 1027.35 73.7568 1025.69C72.6549 1024.9 66.7779 1021.06 59.4756 1022.87C53.5545 1024.34 50.2928 1028.57 49.1614 1030.34C48.0595 1032.06 46.1789 1033.03 44.2247 1033.03L44.21 1033.04ZM50.0871 981.359V1013.99C52.0118 1012.96 54.1863 1012.07 56.6253 1011.46C59.123 1010.84 61.5179 1010.59 63.7365 1010.62C58.3737 1001.27 53.8043 991.475 50.0724 981.359H50.0871Z" fill="#FFCC66"/>
<path d="M128.531 1136.14C126.9 1136.14 125.284 1135.91 123.712 1135.43C115.925 1133.1 110.342 1125.11 109.813 1115.59C109.636 1112.34 112.105 1109.57 115.352 1109.38C118.555 1109.19 121.361 1111.67 121.552 1114.92C121.802 1119.45 124.094 1123.26 127.106 1124.17C129.648 1124.94 132.336 1123.36 133.336 1122.78C137.831 1120.14 140.682 1114.09 139.844 1108.95C138.61 1101.47 129.06 1096.35 121.126 1096.35C121.038 1096.35 120.935 1096.35 120.847 1096.35C110.43 1096.52 100.659 1106.35 98.1468 1119.25C97.515 1122.44 94.4296 1124.51 91.256 1123.89C88.0677 1123.26 85.996 1120.17 86.6131 1116.98C90.2422 1098.47 104.567 1084.84 120.671 1084.59C120.817 1084.59 120.979 1084.59 121.126 1084.59C134.026 1084.59 149.159 1093.07 151.466 1107.04C153.097 1116.97 147.984 1127.85 139.301 1132.94C135.642 1135.08 132.043 1136.14 128.575 1136.14H128.531Z" fill="#FFCC66"/>
<path d="M59.0783 1098.47C56.3308 1098.47 53.8625 1096.53 53.3188 1093.72C52.7018 1090.53 54.7734 1087.44 57.9617 1086.81C70.8471 1084.28 80.6764 1074.52 80.8381 1064.09C80.9556 1056.1 75.8279 1046.32 68.2465 1045.07C63.1335 1044.23 57.0655 1047.08 54.4355 1051.58C53.8478 1052.6 52.2757 1055.27 53.0397 1057.82C53.9506 1060.83 57.7413 1063.11 62.2813 1063.37C65.5284 1063.55 67.9967 1066.33 67.8204 1069.58C67.6441 1072.83 64.8672 1075.3 61.6202 1075.12C52.0994 1074.58 44.1213 1068.99 41.7852 1061.21C40.3012 1056.27 41.1387 1051.04 44.2829 1045.66C49.3519 1036.97 60.2391 1031.84 70.1566 1033.48C84.2761 1035.81 92.7831 1051.29 92.5774 1064.3C92.3277 1080.42 78.7076 1094.75 60.2097 1098.38C59.8277 1098.46 59.4457 1098.5 59.0783 1098.5V1098.47Z" fill="#FFCC66"/>
<path d="M656.832 1140.85H551.707C548.504 1140.85 545.888 1138.29 545.83 1135.08C545.771 1131.88 548.269 1129.22 551.472 1129.08C570.058 1128.35 588.306 1124.79 605.731 1118.51C620.409 1113.22 634.382 1106.03 647.253 1097.13C649.603 1095.52 652.777 1095.81 654.775 1097.85C656.773 1099.9 657.023 1103.07 655.363 1105.4C654.569 1106.5 650.735 1112.37 652.542 1119.69C654.011 1125.61 658.243 1128.88 660.006 1130.01C662.195 1131.42 663.194 1134.11 662.459 1136.61C661.725 1139.11 659.433 1140.83 656.817 1140.83L656.832 1140.85ZM611.079 1129.08H643.682C642.654 1127.16 641.772 1124.98 641.155 1122.54C640.538 1120.04 640.288 1117.66 640.318 1115.42C630.973 1120.79 621.188 1125.36 611.079 1129.1V1129.08Z" fill="#FFCC66"/>
<path d="M770.141 1033.04C768.187 1033.04 766.306 1032.06 765.204 1030.35C764.073 1028.6 760.811 1024.37 754.89 1022.88C747.588 1021.06 741.711 1024.91 740.609 1025.7C738.287 1027.37 735.099 1027.12 733.071 1025.12C731.044 1023.12 730.735 1019.94 732.351 1017.59C741.24 1004.71 748.425 990.725 753.714 976.036C759.988 958.598 763.544 940.337 764.278 921.737C764.411 918.532 767.026 916.003 770.273 916.091C773.476 916.15 776.032 918.767 776.032 921.972V1027.17C776.032 1029.78 774.313 1032.09 771.816 1032.82C771.272 1032.98 770.714 1033.06 770.155 1033.06L770.141 1033.04ZM750.923 1010.62C753.068 1010.62 755.345 1010.87 757.725 1011.46C760.179 1012.07 762.354 1012.96 764.264 1013.99V981.359C760.532 991.475 755.962 1001.27 750.6 1010.62C750.702 1010.62 750.805 1010.62 750.923 1010.62Z" fill="#FFCC66"/>
<path d="M685.805 1136.14C682.323 1136.14 678.738 1135.07 675.08 1132.94C666.397 1127.85 661.269 1116.97 662.9 1107.04C665.221 1092.91 680.707 1084.46 693.695 1084.59C709.798 1084.84 724.124 1098.47 727.753 1116.98C728.37 1120.17 726.298 1123.26 723.11 1123.89C719.922 1124.51 716.836 1122.44 716.219 1119.25C713.692 1106.35 703.936 1096.52 693.519 1096.35C685.467 1096.27 675.756 1101.38 674.507 1108.95C673.669 1114.09 676.52 1120.14 681.016 1122.78C682.029 1123.36 684.703 1124.94 687.26 1124.17C690.272 1123.26 692.549 1119.47 692.814 1114.92C692.99 1111.67 695.767 1109.2 699.014 1109.38C702.261 1109.56 704.729 1112.34 704.553 1115.59C704.024 1125.11 698.426 1133.1 690.654 1135.44C689.082 1135.91 687.466 1136.14 685.835 1136.14H685.805Z" fill="#FFCC66"/>
<path d="M755.257 1098.47C754.875 1098.47 754.508 1098.44 754.126 1098.35C735.628 1094.72 722.008 1080.39 721.758 1064.27C721.552 1051.27 730.074 1035.79 744.179 1033.45C754.096 1031.82 764.969 1036.94 770.053 1045.63C773.197 1051.01 774.034 1056.24 772.55 1061.18C770.214 1068.96 762.236 1074.56 752.715 1075.09C749.468 1075.25 746.706 1072.8 746.515 1069.55C746.339 1066.3 748.807 1063.54 752.054 1063.34C756.579 1063.09 760.385 1060.8 761.296 1057.79C762.06 1055.24 760.502 1052.55 759.9 1051.55C757.27 1047.05 751.217 1044.2 746.089 1045.04C738.522 1046.29 733.38 1056.07 733.497 1064.07C733.659 1074.49 743.488 1084.27 756.374 1086.78C759.562 1087.41 761.634 1090.5 761.017 1093.69C760.473 1096.5 758.005 1098.44 755.257 1098.44V1098.47Z" fill="#FFCC66"/>
<path d="M163.748 84.4118C162.22 84.4118 160.692 83.8089 159.561 82.6474C157.563 80.6036 157.313 77.4277 158.973 75.1046C159.767 74.0018 163.601 68.1352 161.794 60.8129C160.325 54.8875 156.093 51.6234 154.33 50.4912C152.141 49.0797 151.142 46.389 151.877 43.8894C152.611 41.3898 154.903 39.6696 157.519 39.6696H262.644C265.847 39.6696 268.462 42.2279 268.521 45.4333C268.58 48.6386 266.082 51.2999 262.879 51.4322C244.293 52.1674 226.045 55.7256 208.619 62.0039C193.941 67.2971 179.969 74.487 167.098 83.3825C166.084 84.0883 164.924 84.4265 163.763 84.4265L163.748 84.4118ZM170.668 51.4322C171.697 53.3584 172.578 55.5344 173.196 57.9752C173.813 60.4748 174.062 62.8567 174.033 65.0916C183.378 59.7249 193.163 55.1522 203.271 51.4175H170.668V51.4322Z" fill="#FFCC66"/>
<path d="M44.21 264.44C44.21 264.44 44.1366 264.44 44.0925 264.44C40.8895 264.381 38.333 261.764 38.333 258.558V153.356C38.333 150.753 40.052 148.445 42.5498 147.71C45.0475 146.975 47.7363 147.974 49.1467 150.165C50.2781 151.915 53.5398 156.149 59.4609 157.635C66.7632 159.458 72.6402 155.605 73.7421 154.811C76.0636 153.15 79.2519 153.4 81.2794 155.4C83.3217 157.399 83.6156 160.575 81.9994 162.928C73.1104 175.808 65.9257 189.791 60.6363 204.479C54.3626 221.917 50.807 240.179 50.0724 258.779C49.9402 261.94 47.3543 264.425 44.1954 264.425L44.21 264.44ZM50.0871 166.53V199.157C53.819 189.041 58.3884 179.248 63.7512 169.897C61.5032 169.927 59.1377 169.677 56.64 169.059C54.1863 168.441 52.0118 167.559 50.1018 166.53H50.0871Z" fill="#FFCC66"/>
<path d="M121.111 95.9247C120.964 95.9247 120.802 95.9247 120.655 95.9247C104.552 95.6748 90.2271 82.0448 86.598 63.5333C85.9809 60.3427 88.0526 57.255 91.2408 56.6227C94.4291 56.0052 97.5146 58.0784 98.1317 61.269C100.659 74.1638 110.415 84.0003 120.832 84.1621C120.92 84.1621 121.023 84.1621 121.111 84.1621C129.045 84.1621 138.595 79.0453 139.829 71.5613C140.667 66.4298 137.816 60.3721 133.32 57.7402C132.307 57.1521 129.633 55.5788 127.091 56.3434C124.079 57.255 121.801 61.0484 121.537 65.5918C121.361 68.8412 118.584 71.3114 115.337 71.1349C112.09 70.9585 109.621 68.1795 109.798 64.9301C110.327 55.4024 115.924 47.4184 123.697 45.0806C128.633 43.5956 133.864 44.4337 139.242 47.5802C147.925 52.6675 153.053 63.548 151.422 73.4727C149.13 87.4262 133.982 95.9247 121.081 95.9247H121.111Z" fill="#FFCC66"/>
<path d="M66.4251 147.342C57.6242 147.342 48.7352 142.475 44.2981 134.859C41.1538 129.478 40.3164 124.243 41.8003 119.303C44.1364 111.525 52.1145 105.923 61.6353 105.393C64.853 105.217 67.6446 107.687 67.8356 110.937C68.0266 114.186 65.5435 116.95 62.2965 117.141C57.7711 117.391 53.9658 119.685 53.0548 122.699C52.2908 125.243 53.8629 127.934 54.4506 128.933C57.0806 133.433 63.1339 136.285 68.2617 135.447C75.8283 134.197 80.9707 124.42 80.8532 116.421C80.6916 105.996 70.8622 96.2186 57.9768 93.7043C54.7886 93.0721 52.7169 89.9844 53.334 86.7938C53.9511 83.6031 57.0365 81.53 60.2248 82.1475C78.7228 85.7792 92.3428 100.115 92.5926 116.23C92.7983 129.228 84.2766 144.71 70.1717 147.048C68.9375 147.254 67.6886 147.357 66.4251 147.357V147.342Z" fill="#FFCC66"/>
<path d="M650.588 84.4118C649.427 84.4118 648.266 84.0737 647.253 83.3679C634.382 74.4724 620.409 67.2825 605.731 61.9893C588.306 55.7109 570.058 52.1527 551.472 51.4176C548.269 51.2852 545.771 48.6239 545.83 45.4186C545.888 42.2133 548.504 39.6549 551.707 39.6549H656.832C659.433 39.6549 661.739 41.3752 662.474 43.8748C663.209 46.3743 662.21 49.065 660.02 50.4766C658.272 51.6087 654.041 54.8729 652.557 60.7983C650.735 68.1058 654.584 73.9872 655.378 75.0899C657.038 77.4131 656.788 80.6037 654.79 82.6327C653.644 83.7943 652.13 84.3971 650.602 84.3971L650.588 84.4118ZM611.079 51.4323C621.188 55.1669 630.973 59.7397 640.318 65.1064C640.288 62.8715 640.538 60.4895 641.155 57.99C641.758 55.5345 642.654 53.3584 643.682 51.447H611.079V51.4323Z" fill="#FFCC66"/>
<path d="M770.141 264.44C766.997 264.44 764.396 261.955 764.264 258.793C763.529 240.208 759.974 221.932 753.7 204.494C748.411 189.805 741.226 175.823 732.337 162.942C730.721 160.59 731.015 157.414 733.057 155.414C735.099 153.415 738.273 153.165 740.594 154.826C741.696 155.62 747.573 159.473 754.875 157.649C760.797 156.179 764.058 151.944 765.19 150.18C766.6 147.989 769.289 146.989 771.787 147.725C774.284 148.46 776.003 150.753 776.003 153.371V258.573C776.003 261.778 773.447 264.395 770.244 264.454C770.2 264.454 770.17 264.454 770.126 264.454L770.141 264.44ZM750.6 169.897C755.963 179.248 760.532 189.041 764.264 199.157V166.53C762.339 167.559 760.165 168.442 757.726 169.059C755.228 169.677 752.848 169.882 750.615 169.897H750.6Z" fill="#FFCC66"/>
<path d="M693.239 95.9247C680.339 95.9247 665.206 87.4409 662.914 73.4727C661.283 63.548 666.396 52.6675 675.079 47.5802C680.457 44.4337 685.687 43.5956 690.624 45.0806C698.411 47.4184 703.994 55.4024 704.523 64.9301C704.7 68.1795 702.231 70.9438 698.984 71.1349C695.752 71.3114 692.975 68.8412 692.784 65.5918C692.534 61.0631 690.242 57.255 687.23 56.3434C684.688 55.5788 682 57.1521 681.001 57.7402C676.505 60.3721 673.654 66.4298 674.492 71.5613C675.726 79.0453 685.276 84.1621 693.21 84.1621C693.313 84.1621 693.401 84.1621 693.504 84.1621C703.921 84.0003 713.692 74.1638 716.204 61.269C716.821 58.0784 719.906 56.0052 723.095 56.6227C726.283 57.255 728.355 60.3427 727.738 63.5333C724.109 82.0448 709.783 95.6748 693.68 95.9247C693.533 95.9247 693.372 95.9247 693.225 95.9247H693.239Z" fill="#FFCC66"/>
<path d="M747.926 147.342C746.677 147.342 745.428 147.239 744.179 147.033C730.059 144.71 721.552 129.227 721.758 116.215C722.008 100.1 735.628 85.7644 754.126 82.1327C757.314 81.5004 760.399 83.5883 761.017 86.7789C761.634 89.9695 759.562 93.0572 756.374 93.6895C743.488 96.2185 733.659 105.981 733.497 116.406C733.38 124.405 738.508 134.182 746.089 135.432C751.217 136.27 757.27 133.418 759.9 128.919C760.488 127.904 762.06 125.228 761.296 122.684C760.385 119.67 756.594 117.377 752.054 117.127C748.807 116.95 746.339 114.171 746.515 110.922C746.691 107.672 749.454 105.202 752.715 105.379C762.236 105.923 770.214 111.51 772.55 119.288C774.034 124.228 773.197 129.463 770.053 134.844C765.615 142.46 756.712 147.327 747.926 147.327V147.342Z" fill="#FFCC66"/>
<path d="M241.68 937.953C240.372 938.218 239.314 938.086 238.668 937.424C237.874 936.895 237.36 936.115 237.36 935.189C237.096 934.395 237.36 933.483 237.889 932.557C238.418 931.763 239.329 931.249 240.651 930.984C243.281 930.587 245.896 930.19 248.791 929.94C251.553 929.675 254.301 929.543 256.931 929.278C260.868 929.146 264.012 929.543 266.246 930.587C268.347 931.763 269.654 933.219 270.316 935.057C270.977 936.895 270.977 938.997 270.448 941.232C269.787 943.599 268.743 945.702 267.436 947.805C265.864 950.172 263.763 952.671 261.133 955.156C258.371 957.788 255.755 960.141 253.125 962.111C252.082 962.905 251.024 963.287 250.113 963.022C249.07 962.89 248.409 962.493 247.88 961.846C247.351 961.185 247.087 960.405 247.087 959.347C247.087 958.42 247.616 957.509 248.659 956.715C251.289 954.612 253.772 952.51 256.137 950.275C258.37 948.172 260.339 945.805 262.044 943.188C263.616 940.82 264.012 938.983 263.351 937.674C262.558 936.63 260.457 936.101 256.916 936.233C254.418 936.365 251.935 936.63 249.305 936.895C246.675 937.292 244.06 937.689 241.694 937.939L241.68 937.953ZM253.228 975.653C253.228 973.285 253.889 971.844 255.197 971.05C256.372 970.389 257.827 970.007 259.531 969.742C260.839 969.742 262.94 969.61 265.834 969.345C268.714 969.213 271.741 969.08 274.885 968.816C278.029 968.683 281.056 968.551 284.068 968.286C286.948 968.154 289.049 968.022 290.635 967.757C292.472 967.757 293.912 968.286 294.97 969.33C295.881 970.506 296.41 971.83 296.41 973.271V977.873C296.277 979.446 296.145 981.019 296.145 982.475V987.209C296.013 988.783 296.013 990.356 296.145 991.944C296.013 992.855 295.616 993.914 294.97 995.09C294.176 996.399 293.133 997.061 291.958 997.325C290.518 997.59 288.549 997.987 285.919 998.237C283.289 998.634 280.409 999.031 277.515 999.281C274.503 999.81 271.609 1000.07 268.979 1000.32C266.216 1000.72 264.13 1000.99 262.675 1001.12C259.663 1001.65 257.298 1000.99 255.726 999.149C254.021 997.575 253.228 995.605 253.228 993.238C253.096 991.532 253.096 989.959 253.096 988.503V984.563C253.096 983.254 253.096 981.931 253.228 980.49V975.638V975.653ZM260.574 976.829C260.442 978.137 260.442 979.328 260.442 980.372C260.31 981.681 260.31 982.872 260.31 983.916V987.327C260.31 988.636 260.31 989.827 260.442 990.871C260.442 992.179 260.707 992.973 261.368 993.502C261.897 994.032 262.808 994.164 264.13 993.899C266.628 993.635 269.243 993.238 271.873 992.855C274.371 992.591 276.736 992.194 279.087 991.944C281.188 991.679 283.157 991.415 284.993 991.15C286.566 991.018 287.873 990.885 288.667 990.621C288.799 987.739 288.931 984.71 288.931 981.696V974.741C286.566 974.873 284.083 975.006 281.453 975.138C278.69 975.403 276.075 975.667 273.577 975.8C270.947 976.064 268.464 976.329 266.231 976.461C263.866 976.726 261.897 976.858 260.589 976.858L260.574 976.829ZM294.309 940.585H307.693C308.737 940.585 309.662 940.982 310.456 941.497C310.985 942.158 311.367 943.07 311.367 944.129C311.367 945.305 310.97 946.099 310.456 946.628C309.662 947.29 308.751 947.555 307.693 947.555H294.705L295.366 959.641C295.499 961.214 295.234 962.405 294.705 963.052C294.044 963.846 293.133 964.228 291.943 964.228C290.635 964.228 289.578 963.963 289.063 963.184C288.402 962.523 288.02 961.346 288.02 959.773L286.051 923.662C285.787 922.221 285.919 921.03 286.58 920.118C287.109 919.324 288.02 918.942 289.342 918.942C290.518 918.942 291.443 919.339 292.222 920.118C292.751 921.03 293.133 922.221 293.398 923.529L294.309 940.6V940.585Z" fill="#FFCC66"/>
<path d="M260.78 1002.05C258.459 1002.05 256.534 1001.24 255.168 999.65C253.419 998.032 252.494 995.871 252.494 993.268C252.361 991.592 252.361 989.975 252.361 988.534V984.593C252.361 983.285 252.361 981.932 252.494 980.447V975.654C252.494 973.081 253.258 971.36 254.815 970.419C256.005 969.758 257.46 969.317 259.414 969.008C260.81 969.008 262.896 968.861 265.761 968.611H266.099C268.905 968.464 271.8 968.332 274.826 968.082C278.25 967.935 281.085 967.817 284.009 967.552C286.992 967.42 288.99 967.288 290.518 967.038H290.577C292.707 967.038 294.323 967.64 295.499 968.817C296.616 970.258 297.159 971.728 297.159 973.272V977.874C297.027 979.462 296.895 981.035 296.895 982.476V987.211C296.762 988.799 296.762 990.342 296.895 991.872V991.96V992.048C296.748 993.048 296.322 994.195 295.631 995.459C294.794 996.856 293.618 997.723 292.134 998.047L291.561 998.15C290.21 998.4 288.344 998.738 286.007 998.973C282.746 999.473 280.057 999.797 277.603 1000.03C274.9 1000.5 272.211 1000.77 269.831 1001L269.082 1001.08C266.349 1001.47 264.218 1001.74 262.778 1001.87C262.103 1001.99 261.441 1002.05 260.81 1002.05H260.78ZM290.621 968.508C289.152 968.758 287.095 968.89 284.097 969.037C281.174 969.287 278.323 969.42 274.9 969.567C271.873 969.817 268.964 969.949 266.158 970.081H265.849C262.94 970.361 260.854 970.493 259.517 970.493C257.856 970.758 256.564 971.155 255.55 971.713C254.874 972.11 253.963 972.978 253.963 975.668V980.521C253.831 981.991 253.831 983.314 253.831 984.593V988.534C253.831 989.931 253.831 991.533 253.963 993.21C253.963 995.474 254.698 997.238 256.226 998.635C257.68 1000.33 259.796 1000.9 262.558 1000.41C264.042 1000.28 266.143 1000.02 268.876 999.62L269.655 999.547C272.123 999.297 274.679 999.047 277.383 998.576C279.866 998.341 282.525 998.018 285.802 997.518C288.123 997.282 289.872 996.959 291.267 996.709L291.811 996.606C292.884 996.371 293.706 995.753 294.338 994.724C294.911 993.68 295.278 992.724 295.411 991.93C295.278 990.342 295.293 988.74 295.411 987.166V982.506C295.411 981.006 295.543 979.403 295.675 977.845V973.316C295.675 972.096 295.234 970.934 294.382 969.831C293.53 968.978 292.281 968.537 290.636 968.537L290.621 968.508ZM262.94 994.783C262.044 994.783 261.339 994.533 260.839 994.048C260.06 993.43 259.708 992.474 259.708 990.901C259.576 989.901 259.575 988.666 259.575 987.358V983.946C259.575 982.888 259.576 981.682 259.708 980.329C259.708 979.344 259.708 978.139 259.84 976.786L259.913 976.124H260.575C261.912 976.124 263.88 975.992 266.143 975.742C268.141 975.624 270.316 975.404 272.623 975.169L273.504 975.08C275.781 974.963 278.118 974.742 280.601 974.492L281.379 974.419C284.039 974.286 286.522 974.154 288.887 974.022L289.666 973.978V981.712C289.666 984.667 289.548 987.637 289.401 990.681L289.372 991.181L288.887 991.342C287.991 991.636 286.566 991.783 285.038 991.901C283.245 992.166 281.262 992.43 279.161 992.68C278.059 992.798 276.957 992.96 275.84 993.107C274.562 993.283 273.254 993.459 271.932 993.607C269.39 993.989 266.731 994.386 264.189 994.65C263.734 994.739 263.322 994.783 262.94 994.783ZM261.25 977.565C261.177 978.594 261.177 979.535 261.177 980.388C261.045 981.741 261.045 982.902 261.045 983.932V987.343C261.045 988.651 261.045 989.798 261.162 990.798C261.162 992.239 261.471 992.68 261.809 992.945C262.205 993.327 262.925 993.401 263.969 993.195C266.54 992.916 269.184 992.518 271.741 992.136C273.093 991.989 274.371 991.813 275.649 991.651C276.781 991.489 277.882 991.342 278.999 991.225C281.085 990.96 283.054 990.695 284.876 990.445C286.022 990.342 287.168 990.24 287.947 990.078C288.079 987.24 288.182 984.476 288.182 981.712V975.521C286.052 975.639 283.818 975.757 281.467 975.874L280.718 975.948C278.22 976.183 275.87 976.418 273.592 976.536L272.755 976.624C270.433 976.859 268.244 977.08 266.246 977.198C264.321 977.418 262.573 977.551 261.236 977.58L261.25 977.565ZM291.943 964.964C290.21 964.964 289.064 964.509 288.446 963.582C287.712 962.862 287.271 961.509 287.271 959.759L285.302 923.677C284.994 922.06 285.214 920.707 285.963 919.664C286.625 918.678 287.756 918.178 289.313 918.178C290.665 918.178 291.782 918.634 292.722 919.575L292.84 919.737C293.383 920.693 293.809 921.913 294.103 923.369L294.999 939.851H307.694C308.766 939.851 309.809 940.189 310.853 940.895L311.014 941.042C311.705 941.91 312.087 943.012 312.087 944.13C312.087 945.38 311.705 946.394 310.955 947.144C310.03 947.923 308.972 948.276 307.679 948.276H295.469L296.087 959.583C296.233 961.289 295.954 962.641 295.278 963.494C294.47 964.465 293.354 964.95 291.943 964.95V964.964ZM289.313 919.649C288.255 919.649 287.55 919.928 287.168 920.502C286.654 921.222 286.522 922.207 286.757 923.501L288.74 959.715C288.74 961.068 289.049 962.127 289.578 962.656C289.989 963.259 290.738 963.494 291.943 963.494C292.898 963.494 293.618 963.2 294.132 962.583C294.544 962.068 294.735 961.009 294.617 959.701L293.912 946.821H307.679C308.619 946.821 309.354 946.585 309.971 946.071C310.397 945.644 310.632 944.997 310.632 944.145C310.632 943.159 310.221 942.454 309.942 942.071C309.178 941.586 308.443 941.336 307.694 941.336H293.618L292.663 923.575C292.428 922.442 292.061 921.369 291.62 920.575C290.974 919.958 290.254 919.678 289.328 919.678L289.313 919.649ZM250.672 963.862C250.393 963.862 250.128 963.832 249.878 963.744C248.806 963.626 247.954 963.156 247.278 962.318C246.646 961.524 246.323 960.553 246.323 959.363C246.323 958.539 246.646 957.304 248.189 956.142C251.142 953.775 253.507 951.746 255.608 949.761C257.783 947.717 259.737 945.365 261.397 942.807C262.352 941.366 263.351 939.381 262.676 938.013C262.367 937.631 261.104 936.793 256.931 936.969C254.698 937.087 252.45 937.307 250.084 937.557L249.364 937.631C246.808 938.013 244.148 938.41 241.797 938.675C240.181 938.998 238.947 938.748 238.154 937.94C237.257 937.366 236.67 936.381 236.626 935.308C236.376 934.411 236.582 933.367 237.243 932.205C237.904 931.206 238.991 930.573 240.49 930.279C243.12 929.882 245.794 929.485 248.703 929.221C250.04 929.088 251.377 929 252.685 928.897C254.095 928.794 255.476 928.691 256.828 928.559C261.104 928.412 264.262 928.868 266.525 929.941C268.817 931.235 270.257 932.823 270.977 934.823C271.653 936.734 271.712 938.954 271.124 941.41C270.507 943.645 269.522 945.791 268.009 948.203C266.319 950.732 264.174 953.246 261.588 955.701C258.312 958.819 255.829 960.98 253.522 962.715C252.508 963.479 251.539 963.862 250.657 963.862H250.672ZM257.93 935.499C261.074 935.499 263.028 936.072 263.925 937.263C264.791 938.969 264.336 941.072 262.632 943.63C260.898 946.291 258.885 948.717 256.622 950.849C254.492 952.864 252.097 954.922 249.1 957.319C248.248 957.966 247.807 958.671 247.807 959.377C247.807 960.245 247.998 960.877 248.439 961.406C248.879 961.95 249.379 962.215 250.187 962.318C251.083 962.568 252.024 962.024 252.67 961.539C254.933 959.848 257.386 957.716 260.604 954.628C263.102 952.261 265.188 949.82 266.804 947.394C268.229 945.13 269.155 943.101 269.728 941.042C270.228 938.895 270.198 936.955 269.611 935.308C269.008 933.632 267.818 932.338 265.879 931.235C263.895 930.309 260.883 929.882 256.946 930.015C255.623 930.147 254.227 930.25 252.817 930.353C251.509 930.441 250.187 930.544 248.865 930.676C246 930.941 243.34 931.338 240.769 931.72C239.696 931.941 238.932 932.367 238.521 932.985C238.212 933.514 237.875 934.337 238.08 934.97L238.124 935.205C238.124 936.043 238.741 936.587 239.109 936.822C239.667 937.352 240.46 937.469 241.577 937.234H241.636C243.987 936.969 246.631 936.572 249.203 936.175L249.967 936.102C252.361 935.867 254.609 935.631 256.901 935.514C257.269 935.514 257.621 935.499 257.974 935.499H257.93Z" fill="#FFCD54"/>
<path d="M322.254 935.601C320.682 936.131 319.491 936.263 318.713 935.734C317.919 935.337 317.537 934.557 317.537 933.234C317.273 932.322 317.405 931.528 318.199 930.734C318.86 930.073 320.035 929.558 321.607 929.029L334.213 925.618C340.252 924.044 344.851 924.044 347.995 925.353C351.007 926.926 352.594 929.823 352.594 934.16C352.594 935.866 352.065 937.572 351.022 939.277C350.096 940.586 349.053 942.041 347.878 943.482L359.294 952.937C360.337 953.98 360.998 955.039 361.263 955.951C361.395 956.995 361.13 958.053 360.352 958.833C359.558 959.744 358.779 960.141 357.854 959.876C356.811 959.744 355.753 959.082 354.71 958.039L342.765 948.32L329.512 960.803C328.336 961.979 327.279 962.641 326.368 962.773C325.324 963.038 324.531 962.641 323.87 961.597C322.944 960.803 322.694 959.891 322.944 958.833C323.076 957.921 323.738 956.862 324.913 955.686L341.839 939.792C342.882 938.748 343.675 937.822 344.337 936.778C344.866 935.866 345.13 934.94 345.13 934.146C345.13 932.837 344.469 931.911 343.161 931.514C341.721 931.249 339.753 931.249 337.123 931.778L322.298 935.587L322.254 935.601ZM384.594 982.608C384.594 985.107 384.065 987.342 383.154 989.43C382.111 991.665 380.789 993.635 379.217 995.473C377.38 997.311 375.147 998.752 372.781 999.546C370.152 1000.59 367.404 1000.99 364.245 1000.99C361.365 1000.99 358.735 1000.72 356.634 999.943C354.401 999.281 352.564 998.237 351.257 996.664C349.685 995.356 348.495 993.768 347.848 991.797C347.055 989.96 346.673 987.857 346.673 985.49C346.673 982.858 347.069 980.505 347.98 978.138C348.774 975.903 350.214 973.801 352.05 971.83C353.622 969.992 355.723 968.551 358.221 967.493C360.587 966.566 363.466 966.052 366.625 966.052C369.255 966.052 371.606 966.449 373.839 967.228C375.94 968.14 377.777 969.331 379.481 970.639C381.053 972.213 382.243 974.05 383.287 975.888C384.08 977.991 384.594 980.226 384.594 982.593V982.608ZM377.366 982.608C377.366 981.299 377.101 980.108 376.704 978.8C376.175 977.756 375.397 976.697 374.603 975.653C373.56 974.859 372.502 974.212 371.195 973.683C369.887 973.286 368.3 973.021 366.596 973.021C364.495 973.021 362.79 973.418 361.218 973.948C359.514 974.609 358.206 975.521 357.149 976.712C355.841 978.02 355.048 979.476 354.651 980.785C354.122 982.358 353.857 983.931 353.857 985.519C353.857 986.96 353.99 988.151 354.519 989.195C354.783 990.371 355.444 991.297 356.355 991.959C357.149 992.753 358.192 993.268 359.499 993.532C360.807 993.929 362.379 994.062 364.23 994.062C366.199 994.062 368.036 993.797 369.74 993.15C371.312 992.621 372.62 991.709 373.81 990.268C374.853 989.224 375.647 987.901 376.44 986.592C376.969 985.284 377.351 983.961 377.351 982.652L377.366 982.608ZM364.377 945.32C363.202 945.32 362.409 945.056 361.88 944.394C361.218 943.865 360.954 943.085 360.954 941.894C360.954 940.85 361.218 939.924 361.88 939.262C362.409 938.733 363.187 938.351 364.377 938.351H378.027V923.647C378.027 922.207 378.291 921.016 378.938 920.104C379.467 919.31 380.245 918.928 381.568 918.928C382.743 918.928 383.669 919.325 384.447 920.104C385.109 921.016 385.491 922.207 385.491 923.647V959.759C385.491 961.332 385.094 962.523 384.447 963.17C383.654 963.964 382.743 964.214 381.568 964.214C380.26 964.214 379.467 963.949 378.938 963.17C378.277 962.508 378.027 961.332 378.027 959.759V945.306H364.377V945.32Z" fill="#FFCC66"/>
<path d="M364.246 1001.74C360.925 1001.74 358.339 1001.38 356.37 1000.63C353.946 999.929 352.021 998.738 350.684 997.135C348.995 995.738 347.805 994.047 347.143 992.033C346.335 990.166 345.924 987.945 345.924 985.49C345.924 982.682 346.35 980.256 347.29 977.874C348.054 975.727 349.465 973.522 351.507 971.331C353.109 969.463 355.268 967.934 357.928 966.817C360.455 965.832 363.452 965.317 366.611 965.317C369.3 965.317 371.739 965.714 374.075 966.537C376.058 967.405 377.954 968.552 379.923 970.066C381.715 971.845 382.949 973.83 383.919 975.536C384.889 978.08 385.329 980.359 385.329 982.593C385.329 985.078 384.83 987.401 383.816 989.71C382.773 991.945 381.451 993.974 379.761 995.929C377.748 997.944 375.427 999.414 373.002 1000.22C370.49 1001.22 367.698 1001.71 364.246 1001.71V1001.74ZM366.611 966.802C363.628 966.802 360.822 967.287 358.471 968.199C356.047 969.213 354.064 970.61 352.594 972.331C350.67 974.389 349.362 976.433 348.657 978.403C347.79 980.638 347.378 982.902 347.378 985.519C347.378 987.769 347.76 989.798 348.495 991.533C349.098 993.327 350.141 994.812 351.698 996.121C352.962 997.606 354.592 998.605 356.811 999.267C358.662 999.958 361.072 1000.28 364.216 1000.28C367.36 1000.28 370.108 999.84 372.473 998.885C374.721 998.135 376.852 996.782 378.659 994.974C380.216 993.15 381.465 991.239 382.45 989.136C383.375 987.034 383.831 984.887 383.831 982.623C383.831 980.564 383.419 978.462 382.567 976.183C381.686 974.668 380.525 972.786 378.923 971.184C377.131 969.816 375.338 968.728 373.502 967.92C371.386 967.17 369.094 966.802 366.582 966.802H366.611ZM364.246 994.768C362.145 994.768 360.572 994.591 359.309 994.209C357.928 993.93 356.738 993.342 355.856 992.445C354.872 991.754 354.137 990.68 353.843 989.416C353.241 988.151 353.153 986.784 353.153 985.49C353.153 983.843 353.432 982.167 353.975 980.535C354.446 978.962 355.371 977.447 356.649 976.183C357.781 974.904 359.206 973.933 360.969 973.257C362.982 972.581 364.716 972.286 366.611 972.286C368.257 972.286 369.917 972.522 371.416 972.977C372.708 973.492 373.81 974.124 375.059 975.065L375.206 975.212C376 976.286 376.822 977.374 377.381 978.477C377.777 979.785 378.115 981.094 378.115 982.608C378.115 984.123 377.601 985.681 377.146 986.828C376.293 988.269 375.471 989.636 374.354 990.754C373.149 992.224 371.709 993.253 370.005 993.827C368.345 994.474 366.449 994.782 364.26 994.782L364.246 994.768ZM366.611 973.757C364.877 973.757 363.291 974.036 361.469 974.639C359.955 975.227 358.721 976.065 357.722 977.183C356.297 978.609 355.665 980.035 355.386 980.976C354.886 982.491 354.622 984.005 354.622 985.49C354.622 986.975 354.784 988.019 355.195 988.842L355.254 989.019C355.459 989.974 355.988 990.754 356.796 991.342C357.575 992.107 358.501 992.562 359.661 992.798C360.852 993.15 362.291 993.312 364.246 993.312C366.2 993.312 367.977 993.033 369.491 992.445C370.989 991.945 372.165 991.107 373.252 989.783C374.281 988.739 375.03 987.504 375.809 986.196C376.367 984.784 376.631 983.667 376.631 982.623C376.631 981.3 376.338 980.109 376 979.021C375.559 978.168 374.809 977.168 374.075 976.183C372.958 975.345 372.003 974.801 370.916 974.374C369.608 973.992 368.095 973.771 366.596 973.771L366.611 973.757ZM381.568 964.964C380.422 964.964 379.144 964.802 378.336 963.582C377.66 962.92 377.293 961.671 377.293 959.759V946.041H364.378C363.496 946.041 362.218 945.923 361.366 944.909C360.352 944.056 360.234 942.777 360.234 941.895C360.234 940.557 360.616 939.498 361.366 938.748C362.115 937.998 363.129 937.616 364.378 937.616H377.293V923.648C377.293 921.972 377.63 920.663 378.35 919.678C379.026 918.663 380.055 918.193 381.568 918.193C382.92 918.193 384.036 918.649 384.977 919.59C385.844 920.781 386.24 922.119 386.24 923.648V959.759C386.24 961.509 385.8 962.862 384.977 963.7C384.095 964.582 383.052 964.964 381.568 964.964ZM364.378 939.086C363.54 939.086 362.864 939.322 362.409 939.792C361.939 940.263 361.704 940.968 361.704 941.895C361.704 943.13 362.027 943.556 362.35 943.821L362.468 943.938C362.717 944.262 363.144 944.585 364.392 944.585H378.777V959.774C378.777 961.229 379.012 962.2 379.482 962.67C379.878 963.229 380.305 963.509 381.583 963.509C382.67 963.509 383.361 963.259 383.948 962.67C384.477 962.141 384.786 961.082 384.786 959.774V923.662C384.786 922.442 384.477 921.398 383.875 920.545C383.287 919.972 382.552 919.663 381.583 919.663C380.319 919.663 379.864 920.075 379.57 920.516C379.026 921.281 378.777 922.28 378.777 923.648V939.086H364.392H364.378ZM325.692 963.611C324.752 963.611 323.914 963.112 323.253 962.097C322.21 961.156 321.843 960.009 322.181 958.671C322.328 957.657 323.033 956.48 324.34 955.172L341.281 939.263C342.354 938.189 343.074 937.322 343.661 936.381C344.087 935.631 344.337 934.822 344.337 934.146C344.337 933.131 343.882 932.514 342.897 932.22C341.428 931.955 339.489 932.043 337.211 932.499L322.445 936.293C321.123 936.734 319.477 937.116 318.287 936.337C317.332 935.866 316.803 934.837 316.774 933.337C316.465 932.146 316.744 931.117 317.641 930.22C318.331 929.529 319.433 928.97 321.343 928.338L333.979 924.912C340.032 923.339 344.822 923.251 348.231 924.677C351.595 926.427 353.27 929.617 353.27 934.161C353.27 935.999 352.697 937.851 351.581 939.674C350.905 940.645 349.95 941.983 348.833 943.394L359.691 952.393C360.837 953.54 361.586 954.687 361.895 955.775C362.086 957.245 361.689 958.48 360.793 959.392C359.808 960.538 358.736 960.965 357.575 960.627C356.503 960.509 355.342 959.833 354.108 958.598L342.721 949.335L329.938 961.377C328.645 962.67 327.485 963.376 326.383 963.538C326.133 963.597 325.898 963.626 325.663 963.626L325.692 963.611ZM341.046 930.617C341.839 930.617 342.574 930.676 343.25 930.794C344.939 931.294 345.821 932.484 345.821 934.146C345.821 935.087 345.512 936.131 344.939 937.131C344.278 938.189 343.5 939.13 342.324 940.307L325.384 956.216C324.355 957.245 323.753 958.186 323.635 958.936C323.415 959.833 323.635 960.45 324.311 961.024L324.458 961.2C325.031 962.126 325.545 962.215 326.148 962.053C326.97 961.935 327.896 961.332 328.954 960.274L342.692 947.335L355.136 957.465C356.165 958.495 357.09 959.039 357.913 959.142C358.427 959.289 358.956 959.274 359.764 958.348C360.528 957.568 360.587 956.657 360.514 956.025C360.293 955.304 359.661 954.348 358.751 953.437L346.82 943.556L347.29 942.997C348.569 941.439 349.685 939.88 350.405 938.836C351.36 937.292 351.845 935.704 351.845 934.131C351.845 930.117 350.479 927.456 347.643 925.986C344.587 924.706 340.106 924.809 334.39 926.309L321.799 929.72C320.814 930.058 319.374 930.588 318.713 931.235C318.17 931.779 318.037 932.279 318.243 933.014L318.272 933.22C318.272 934.514 318.684 934.881 319.051 935.058C319.639 935.44 320.564 935.381 322.034 934.881H322.078L336.903 931.058C338.431 930.75 339.812 930.602 341.061 930.602L341.046 930.617Z" fill="#FFCD54"/>
<path d="M435.107 935.601C433.535 936.131 432.344 936.263 431.566 935.734C430.772 935.337 430.39 934.557 430.39 933.234C430.126 932.322 430.258 931.528 431.052 930.734C431.713 930.073 432.888 929.558 434.46 929.029L447.066 925.618C453.105 924.044 457.704 924.044 460.848 925.353C463.86 926.926 465.447 929.823 465.447 934.16C465.447 935.866 464.918 937.572 463.875 939.277C462.949 940.586 461.906 942.041 460.731 943.482L472.147 952.937C473.19 953.98 473.851 955.039 474.116 955.951C474.248 956.995 473.983 958.053 473.205 958.833C472.411 959.744 471.632 960.141 470.707 959.876C469.664 959.744 468.606 959.082 467.563 958.039L455.618 948.32L442.365 960.803C441.189 961.979 440.132 962.641 439.221 962.773C438.177 963.038 437.384 962.641 436.723 961.597C435.797 960.803 435.547 959.891 435.797 958.833C435.929 957.921 436.591 956.862 437.766 955.686L454.692 939.792C455.735 938.748 456.528 937.822 457.19 936.778C457.719 935.866 457.983 934.94 457.983 934.146C457.983 932.837 457.322 931.911 456.014 931.514C454.574 931.249 452.606 931.249 449.976 931.778L435.151 935.587L435.107 935.601ZM497.447 982.608C497.447 985.107 496.918 987.342 496.007 989.43C494.964 991.665 493.642 993.635 492.07 995.473C490.233 997.311 488 998.752 485.635 999.546C483.005 1000.59 480.257 1000.99 477.098 1000.99C474.218 1000.99 471.588 1000.72 469.487 999.943C467.254 999.281 465.418 998.237 464.11 996.664C462.538 995.356 461.348 993.768 460.701 991.797C459.908 989.96 459.526 987.857 459.526 985.49C459.526 982.858 459.922 980.505 460.833 978.138C461.627 975.903 463.067 973.801 464.903 971.83C466.475 969.992 468.576 968.551 471.074 967.493C473.44 966.566 476.319 966.052 479.478 966.052C482.108 966.052 484.459 966.449 486.692 967.228C488.793 968.14 490.63 969.331 492.334 970.639C493.906 972.213 495.097 974.05 496.14 975.888C496.933 977.991 497.447 980.226 497.447 982.593V982.608ZM490.233 982.608C490.233 981.299 489.969 980.108 489.572 978.8C489.043 977.756 488.264 976.697 487.471 975.653C486.428 974.859 485.37 974.212 484.062 973.683C482.755 973.286 481.168 973.021 479.464 973.021C477.363 973.021 475.658 973.418 474.086 973.948C472.382 974.609 471.074 975.521 470.016 976.712C468.709 978.02 467.915 979.476 467.519 980.785C466.99 982.358 466.725 983.931 466.725 985.519C466.725 986.96 466.857 988.151 467.386 989.195C467.651 990.371 468.312 991.297 469.223 991.959C470.016 992.753 471.059 993.268 472.367 993.532C473.675 993.929 475.247 994.062 477.098 994.062C479.067 994.062 480.903 993.797 482.608 993.15C484.18 992.621 485.488 991.709 486.678 990.268C487.721 989.224 488.514 987.901 489.308 986.592C489.837 985.284 490.219 983.961 490.219 982.652L490.233 982.608ZM477.23 945.32C476.055 945.32 475.262 945.056 474.733 944.394C474.071 943.865 473.807 943.085 473.807 941.894C473.807 940.85 474.071 939.924 474.733 939.262C475.262 938.733 476.04 938.351 477.23 938.351H490.88V923.647C490.88 922.207 491.144 921.016 491.791 920.104C492.32 919.31 493.098 918.928 494.421 918.928C495.596 918.928 496.522 919.325 497.3 920.104C497.962 921.016 498.344 922.207 498.344 923.647V959.759C498.344 961.332 497.947 962.523 497.3 963.17C496.507 963.964 495.596 964.214 494.421 964.214C493.113 964.214 492.32 963.949 491.791 963.17C491.13 962.508 490.88 961.332 490.88 959.759V945.306H477.23V945.32Z" fill="#FFCC66"/>
<path d="M477.099 1001.74C473.778 1001.74 471.192 1001.38 469.223 1000.63C466.799 999.929 464.874 998.738 463.537 997.135C461.848 995.738 460.658 994.047 459.996 992.033C459.188 990.166 458.777 987.945 458.777 985.49C458.777 982.682 459.203 980.256 460.143 977.874C460.907 975.727 462.318 973.522 464.36 971.331C465.962 969.463 468.121 967.934 470.781 966.817C473.308 965.832 476.305 965.317 479.464 965.317C482.153 965.317 484.592 965.714 486.928 966.537C488.911 967.405 490.807 968.552 492.776 970.066C494.568 971.845 495.802 973.83 496.772 975.536C497.742 978.08 498.182 980.359 498.182 982.593C498.182 985.078 497.683 987.401 496.669 989.71C495.626 991.945 494.304 993.974 492.614 995.929C490.601 997.944 488.28 999.414 485.855 1000.22C483.343 1001.22 480.551 1001.71 477.099 1001.71V1001.74ZM479.464 966.802C476.481 966.802 473.675 967.287 471.324 968.199C468.9 969.213 466.917 970.61 465.447 972.331C463.523 974.389 462.215 976.433 461.51 978.403C460.643 980.638 460.231 982.902 460.231 985.519C460.231 987.769 460.613 989.798 461.348 991.533C461.95 993.327 462.994 994.812 464.551 996.121C465.815 997.606 467.446 998.605 469.664 999.267C471.515 999.958 473.925 1000.28 477.069 1000.28C480.213 1000.28 482.961 999.84 485.326 998.885C487.574 998.135 489.705 996.782 491.512 994.974C493.069 993.15 494.318 991.239 495.303 989.136C496.228 987.034 496.684 984.887 496.684 982.623C496.684 980.564 496.272 978.462 495.42 976.183C494.539 974.668 493.378 972.786 491.776 971.184C489.984 969.816 488.191 968.728 486.355 967.92C484.239 967.17 481.947 966.802 479.435 966.802H479.464ZM477.099 994.768C474.998 994.768 473.425 994.591 472.162 994.209C470.781 993.93 469.591 993.342 468.709 992.445C467.725 991.754 466.99 990.68 466.696 989.416C466.094 988.151 466.006 986.784 466.006 985.49C466.006 983.843 466.285 982.167 466.828 980.535C467.299 978.962 468.224 977.447 469.502 976.183C470.634 974.904 472.059 973.933 473.822 973.257C475.835 972.581 477.569 972.286 479.464 972.286C481.11 972.286 482.77 972.522 484.268 972.977C485.561 973.492 486.663 974.124 487.912 975.065L488.059 975.212C488.853 976.286 489.675 977.374 490.234 978.477C490.63 979.785 490.968 981.094 490.968 982.608C490.968 984.123 490.454 985.681 489.999 986.828C489.146 988.269 488.324 989.636 487.207 990.754C486.002 992.224 484.562 993.253 482.858 993.827C481.198 994.474 479.302 994.782 477.113 994.782L477.099 994.768ZM479.464 973.757C477.73 973.757 476.144 974.036 474.322 974.639C472.808 975.227 471.574 976.065 470.575 977.183C469.15 978.609 468.518 980.035 468.239 980.976C467.739 982.491 467.475 984.005 467.475 985.49C467.475 986.975 467.637 988.019 468.048 988.842L468.107 989.019C468.312 989.974 468.841 990.754 469.649 991.342C470.428 992.107 471.354 992.562 472.514 992.798C473.705 993.15 475.144 993.312 477.099 993.312C479.053 993.312 480.83 993.033 482.344 992.445C483.842 991.945 485.018 991.107 486.105 989.783C487.134 988.739 487.883 987.504 488.662 986.196C489.22 984.784 489.484 983.667 489.484 982.623C489.484 981.3 489.191 980.109 488.853 979.021C488.412 978.168 487.663 977.168 486.928 976.183C485.811 975.345 484.856 974.801 483.769 974.374C482.461 973.992 480.948 973.771 479.449 973.771L479.464 973.757ZM494.421 964.964C493.275 964.964 491.997 964.802 491.189 963.582C490.513 962.92 490.146 961.671 490.146 959.759V946.041H477.231C476.349 946.041 475.071 945.923 474.219 944.909C473.205 944.056 473.087 942.777 473.087 941.895C473.087 940.557 473.469 939.498 474.219 938.748C474.968 937.998 475.982 937.616 477.231 937.616H490.146V923.648C490.146 921.972 490.483 920.663 491.203 919.678C491.879 918.663 492.908 918.193 494.421 918.193C495.773 918.193 496.889 918.649 497.83 919.59C498.697 920.781 499.093 922.119 499.093 923.648V959.759C499.093 961.509 498.653 962.862 497.83 963.7C496.948 964.582 495.905 964.964 494.421 964.964ZM477.231 939.086C476.393 939.086 475.717 939.322 475.262 939.792C474.792 940.263 474.557 940.968 474.557 941.895C474.557 943.13 474.88 943.556 475.203 943.821L475.321 943.938C475.57 944.262 475.997 944.585 477.245 944.585H491.629V959.774C491.629 961.229 491.865 962.2 492.335 962.67C492.731 963.229 493.158 963.509 494.436 963.509C495.523 963.509 496.214 963.259 496.801 962.67C497.33 962.141 497.639 961.082 497.639 959.774V923.662C497.639 922.442 497.33 921.398 496.728 920.545C496.14 919.972 495.405 919.663 494.436 919.663C493.172 919.663 492.717 920.075 492.423 920.516C491.879 921.281 491.629 922.28 491.629 923.648V939.086H477.245H477.231ZM438.56 963.611C437.62 963.611 436.782 963.112 436.121 962.097C435.078 961.156 434.71 960.009 435.048 958.671C435.195 957.657 435.901 956.48 437.208 955.172L454.149 939.263C455.221 938.189 455.941 937.322 456.529 936.381C456.955 935.631 457.205 934.822 457.205 934.146C457.205 933.131 456.749 932.514 455.765 932.22C454.296 931.955 452.356 932.043 450.079 932.499L435.313 936.293C433.99 936.734 432.345 937.116 431.155 936.337C430.2 935.866 429.671 934.837 429.641 933.337C429.333 932.146 429.612 931.117 430.508 930.22C431.199 929.529 432.301 928.97 434.211 928.338L446.847 924.912C452.885 923.339 457.69 923.251 461.098 924.677C464.463 926.427 466.138 929.617 466.138 934.161C466.138 935.999 465.565 937.851 464.448 939.674C463.772 940.645 462.817 941.983 461.701 943.394L472.559 952.393C473.705 953.54 474.454 954.687 474.762 955.775C474.953 957.245 474.557 958.48 473.66 959.392C472.676 960.538 471.604 960.965 470.443 960.627C469.37 960.509 468.21 959.833 466.975 958.598L455.589 949.335L442.806 961.377C441.513 962.67 440.352 963.376 439.25 963.538C439.001 963.597 438.766 963.626 438.531 963.626L438.56 963.611ZM453.914 930.617C454.707 930.617 455.442 930.676 456.118 930.794C457.807 931.294 458.689 932.484 458.689 934.146C458.689 935.087 458.38 936.131 457.807 937.131C457.146 938.189 456.367 939.13 455.192 940.307L438.251 956.216C437.223 957.245 436.62 958.186 436.503 958.936C436.283 959.833 436.503 960.45 437.179 961.024L437.326 961.2C437.899 962.126 438.428 962.215 439.015 962.053C439.838 961.935 440.764 961.332 441.822 960.274L455.559 947.335L468.004 957.465C469.032 958.495 469.958 959.039 470.781 959.142C471.295 959.289 471.824 959.274 472.632 958.348C473.396 957.568 473.455 956.657 473.381 956.025C473.161 955.304 472.529 954.348 471.618 953.437L459.688 943.556L460.158 942.997C461.436 941.439 462.553 939.88 463.273 938.836C464.228 937.292 464.713 935.704 464.713 934.131C464.713 930.117 463.346 927.456 460.511 925.986C457.455 924.706 452.973 924.809 447.258 926.309L434.666 929.72C433.682 930.058 432.242 930.588 431.581 931.235C431.037 931.779 430.905 932.279 431.111 933.014L431.14 933.22C431.14 934.514 431.552 934.881 431.919 935.058C432.507 935.44 433.432 935.381 434.901 934.881H434.946L449.77 931.058C451.298 930.75 452.679 930.602 453.928 930.602L453.914 930.617Z" fill="#FFCD54"/>
<path d="M537.339 932.043C542.32 932.043 546.125 932.954 548.755 934.807C551.385 936.777 552.56 939.924 552.56 944.394C552.296 948.466 550.856 951.348 548.226 953.201C545.346 955.039 541.277 956.744 536.017 958.318L529.317 960.023C527.216 960.685 525.379 961.596 523.807 962.905C522.235 964.346 521.442 965.919 521.706 967.772C521.706 969.874 522.499 971.58 523.939 972.624C525.247 973.8 527.348 974.33 530.375 974.33C534.577 974.33 538.514 974.065 542.452 973.286C546.257 972.756 550.063 971.58 553.736 970.007C554.779 969.477 555.705 969.345 556.616 969.61C557.409 970.007 558.055 970.654 558.584 971.712C558.849 972.756 558.849 973.683 558.452 974.477C557.923 975.271 557.012 975.917 555.954 976.447C552.017 978.152 547.947 979.329 543.745 980.123C539.411 980.917 534.959 981.299 530.36 981.299C524.85 981.299 520.913 980.123 518.415 977.491C515.785 974.991 514.345 971.712 514.345 967.772C514.081 963.567 515.138 960.42 517.357 958.318C519.458 956.347 522.867 954.774 527.466 953.465L534.033 951.76C537.177 950.966 539.807 949.922 541.908 948.878C543.877 947.966 544.92 946.511 545.053 944.408C545.053 942.306 544.391 940.865 543.084 940.071C541.776 939.409 539.807 939.027 537.31 939.027C533.901 939.027 530.742 939.291 527.862 939.821C524.968 940.35 522.353 940.997 519.987 941.791C518.679 942.32 517.754 942.453 517.093 942.056C516.299 941.791 515.917 941.012 515.653 939.953C515.124 938.909 515.124 937.983 515.653 937.071C516.182 936.277 517.225 935.63 518.797 934.969C521.162 934.175 523.91 933.528 527.069 932.866C530.213 932.337 533.636 932.072 537.31 932.072L537.339 932.043ZM569.751 930.469C569.751 929.029 570.015 927.838 570.544 926.926C571.073 926.132 571.984 925.75 573.306 925.75C574.482 925.75 575.407 926.147 576.186 926.926C576.715 927.838 577.112 929.029 577.112 930.469V986.151C577.112 987.724 576.715 988.915 576.186 989.562C575.393 990.356 574.482 990.606 573.306 990.606C571.999 990.606 571.073 990.341 570.544 989.562C570.015 988.9 569.751 987.724 569.751 986.151V930.469Z" fill="#FFCC66"/>
<path d="M573.306 991.356C572.16 991.356 570.749 991.195 569.941 989.974C569.354 989.239 569.03 987.93 569.03 986.151V930.47C569.03 928.897 569.324 927.588 569.912 926.559C570.603 925.515 571.734 925 573.306 925C574.658 925 575.774 925.456 576.715 926.397L576.832 926.559C577.508 927.735 577.846 929.058 577.846 930.47V986.151C577.846 987.754 577.449 989.166 576.759 990.033C575.833 990.974 574.775 991.356 573.291 991.356H573.306ZM573.306 926.485C572.248 926.485 571.543 926.765 571.161 927.338C570.735 928.103 570.5 929.161 570.5 930.47V986.151C570.5 988.048 570.896 988.813 571.132 989.107C571.411 989.518 571.851 989.886 573.321 989.886C574.408 989.886 575.098 989.651 575.686 989.048C576.112 988.519 576.391 987.401 576.391 986.151V930.47C576.391 929.352 576.127 928.308 575.613 927.382C574.966 926.765 574.246 926.485 573.321 926.485H573.306ZM530.389 982.034C524.571 982.034 520.486 980.711 517.915 977.991C515.123 975.344 513.639 971.801 513.639 967.772C513.375 963.449 514.462 960.068 516.886 957.774C519.002 955.789 522.411 954.142 527.289 952.745L533.871 951.025C536.604 950.349 539.205 949.393 541.599 948.187C543.363 947.364 544.229 946.144 544.347 944.335C544.347 942.541 543.818 941.336 542.731 940.674C541.526 940.071 539.587 939.733 537.339 939.733C533.989 939.733 530.844 939.998 528.023 940.512C525.188 941.027 522.572 941.689 520.251 942.453C519.164 942.894 517.871 943.276 516.828 942.688C515.682 942.262 515.226 941.071 514.991 940.174C514.389 938.924 514.403 937.777 515.05 936.66C515.667 935.734 516.74 934.998 518.547 934.249C520.721 933.513 523.292 932.866 526.951 932.102C530.154 931.573 533.636 931.293 537.339 931.293C542.452 931.293 546.433 932.264 549.181 934.19C551.958 936.278 553.295 939.601 553.295 944.379C553.016 948.731 551.502 951.79 548.652 953.775C545.699 955.657 541.526 957.406 536.237 958.994L529.507 960.715C527.436 961.362 525.717 962.258 524.277 963.464C522.808 964.802 522.22 966.155 522.44 967.655C522.44 969.625 523.116 971.11 524.38 972.021C525.57 973.095 527.509 973.595 530.374 973.595C534.988 973.595 538.778 973.271 542.305 972.551C545.831 972.066 549.563 970.977 553.442 969.316C554.617 968.728 555.734 968.581 556.821 968.89C557.923 969.434 558.672 970.228 559.245 971.375L559.304 971.522C559.627 972.815 559.568 973.889 559.113 974.786C558.511 975.697 557.585 976.432 556.292 977.079C552.413 978.77 548.373 979.976 543.891 980.814C539.542 981.608 534.988 982.005 530.374 982.005L530.389 982.034ZM537.339 938.277C539.851 938.277 541.967 938.674 543.436 939.409C545.023 940.365 545.816 942.027 545.816 944.394C545.669 946.776 544.464 948.481 542.246 949.525C539.778 950.76 537.074 951.746 534.238 952.466L527.686 954.172C523.057 955.495 519.84 957.024 517.9 958.862C515.814 960.832 514.874 963.817 515.109 967.743C515.109 971.463 516.402 974.55 518.943 976.976C521.25 979.417 524.982 980.579 530.374 980.579C534.9 980.579 539.366 980.182 543.627 979.403C547.991 978.579 551.928 977.403 555.675 975.771C556.689 975.271 557.453 974.668 557.849 974.065C558.084 973.58 558.114 972.889 557.893 971.977C557.467 971.154 556.953 970.61 556.292 970.272C555.69 970.11 554.955 970.213 554.059 970.669C550.018 972.404 546.154 973.521 542.54 974.021C538.955 974.742 535.076 975.08 530.36 975.08C527.068 975.08 524.879 974.477 523.439 973.183C521.867 972.036 520.971 970.11 520.971 967.772C520.692 965.875 521.456 964.067 523.307 962.376C524.923 961.038 526.804 960.038 529.096 959.332L535.825 957.612C540.953 956.068 544.993 954.378 547.814 952.584C550.239 950.878 551.561 948.187 551.811 944.35C551.811 940.056 550.694 937.189 548.299 935.396C545.831 933.661 542.128 932.778 537.324 932.778C533.709 932.778 530.301 933.043 527.201 933.558C523.63 934.307 521.118 934.94 519.046 935.631C517.577 936.248 516.681 936.822 516.269 937.439C515.887 938.101 515.902 938.763 516.313 939.586L516.372 939.733C516.681 940.953 517.048 941.218 517.342 941.321L517.489 941.394C517.886 941.63 518.591 941.527 519.722 941.086C522.146 940.277 524.82 939.601 527.744 939.071C530.653 938.542 533.886 938.277 537.324 938.277H537.339Z" fill="#FFCD54"/>
<path d="M428.949 443.438C444.259 434.998 463.389 422.765 481.211 421.118C484.399 420.824 499.547 423.353 503.206 424.25C523.687 429.264 546.784 474.726 548.709 494.547C549.252 500.134 547.181 510.029 548.048 513.22C549.061 516.94 557.715 526.247 560.522 531.555C571.659 552.551 566.369 562.314 549.605 577.414C517.193 606.63 479.536 607.203 443.025 628.494C425.071 638.963 409.834 653.284 390.719 662.679C365.595 675.03 324.999 681.235 297.069 679.191C276.867 677.721 231.099 666.767 217.464 651.372C212.792 646.094 213.115 628.479 213.997 621.275C214.585 616.349 215.995 606.38 216.906 601.866C222.695 572.915 251.125 560.344 271.563 542.435C278.733 536.142 285.285 528.923 292.162 522.248C254.343 516.616 286.27 472.565 307.692 465.228C319.152 461.302 332.963 465.993 338.193 463.625C339.912 462.846 354.752 438.424 359.777 433.601C379.391 414.766 416.005 418.721 428.935 443.394L428.949 443.438ZM490.291 435.101C475.657 434.189 460.083 440.262 447.727 447.628C445.581 448.907 434.4 456.333 433.798 457.421C432.593 459.597 432.461 468.081 433.739 470.021C437.853 476.256 459.907 470.492 465.652 466.948C475.54 460.846 482.004 443.482 490.291 435.101ZM421.926 469.977C423.102 444.879 407.396 433.572 383.52 436.454C378.804 437.027 373.661 439.512 370.238 442.703C367.388 445.349 350.8 469.654 350.785 472.065C350.785 478.535 365.904 484.239 370.914 483.901C374.513 483.651 383.696 476.123 389.28 474.315C399.079 471.139 411.671 469.536 421.926 469.992V469.977ZM341 577.4C333.271 580.782 328.32 567.754 323.589 567.652C321.032 567.593 306.355 578.223 301.271 580.238C288.841 585.163 278.453 586.663 266.112 580.443C263.438 579.091 257.414 573.665 256.37 573.459C251.434 572.474 232.025 592.78 232.025 599.043C232.025 606.468 245.601 615.996 252.315 617.952C300.331 631.934 353.312 604.498 395.877 584.193C443.965 561.256 491.173 535.966 537.116 509.103C537.498 482.152 523.438 456.215 502.839 439.306C492.715 453.951 485.119 474.153 467.9 481.828C462.037 484.445 452.619 486.71 446.243 486.798C436.854 486.915 423.998 482.019 415.653 482.534C406.72 483.078 395.862 487.724 387.017 489.547C388.824 495.443 394.863 498.369 398.213 504.148C406.558 518.572 406.249 541.185 394.716 553.742C375.762 574.386 364.273 548.919 364.581 530.805L360.526 518.851C359.16 525.571 347.832 534.26 347.817 540.465C347.802 546.67 360.262 556.992 357.72 564.873C349.11 566.519 344.967 557.874 340.236 552.316C323.339 560.359 345.496 564.196 340.97 577.444L341 577.4ZM329.833 478.358C321.576 475.182 310.322 478.226 303.416 483.313C293.175 490.856 275.148 521.689 301.815 502.648C304.209 500.928 330.921 479.858 329.833 478.358ZM354.664 498.149C354.429 497.737 347.464 492.723 347.009 492.576C336.621 489.371 330.48 499.119 324.338 505.956C319.446 511.397 315.082 518.028 310.322 523.659L335.446 532.158C338.855 526.041 358.175 504.104 354.664 498.149ZM380.964 502.619C376.291 500.178 371.825 499.472 370.253 505.603C373.206 510.47 378.51 549.493 380.773 549.493C397.037 543.803 392.644 508.721 380.964 502.604V502.619ZM229.365 620.657C226.5 618.951 222.563 638.375 227.367 644.285C232.392 650.461 256.841 658.886 265.113 660.944C292.191 667.722 333.653 667.252 360.879 660.753C394.172 652.798 423.631 622.333 455.352 607.336C475.936 597.602 498.122 594.544 517.458 584.34C526.023 579.826 557.025 559.359 555.629 549.14C555.144 545.552 545.506 528.026 542.949 524.012C542.171 522.777 541.921 521.101 539.952 521.704C526.611 530.143 513.594 539.451 499.827 547.184C469.795 564.049 435.15 581.429 404.06 596.514C357.353 619.187 301.771 648.343 248.627 632.773C242.883 631.096 231.628 625.921 229.351 620.642L229.365 620.657ZM325.661 541.127C316.257 541.127 302.505 530.614 294.968 539.039C299.64 541.053 305.62 541.509 310.307 543.215C317.785 545.949 325.088 555.727 325.661 541.127ZM310.307 559.226C313.157 555.198 284.389 550.566 281.994 551.11C279.82 551.61 265.524 563.976 267.067 566.196C282.215 575.562 296.863 567.299 310.307 559.226Z" fill="#FFCC66"/>
<path d="M572.217 380.904C578.74 379.508 579.739 385.433 577.462 390.417C576.786 391.903 561.697 406.635 559.331 408.547C556.51 410.811 535.867 424.529 533.898 425.029C530.416 425.911 527.037 425.073 525.112 421.912C518.236 410.708 541.127 403.254 547.959 398.563C553.351 394.858 567.442 381.934 572.231 380.904H572.217Z" fill="#FFCC66"/>
<path d="M546.578 443.938C551.955 439.365 558.964 441.512 564.782 440.527C573.245 439.1 590.406 434.131 598.208 436.689C603.071 438.277 600.632 445.614 595.916 447.952C588.026 451.848 551.559 459.626 545.27 454.759C541.656 451.951 543.713 446.378 546.578 443.952V443.938Z" fill="#FFCC66"/>
<path d="M510.23 358.79C520.808 349.91 519.853 369.994 519.648 375.846C519.383 383.139 517.987 400.048 515.034 406.121C509.951 416.53 501.238 413.59 501.341 402.298C501.385 396.975 503.545 381.772 504.558 376.111C505.205 372.479 508.026 360.643 510.23 358.79Z" fill="#FFCC66"/>
<path d="M535.927 537.127C543.567 535.01 551.618 552.639 543.699 554.874C535.736 557.124 526.861 539.642 535.927 537.127Z" fill="#FFCC66"/>
<path d="M488.514 569.401C491.57 571.415 496.36 583.207 493.054 587.148C489.778 589.397 478.699 576.65 477.935 573.577C476.569 568.078 485.076 567.137 488.499 569.401H488.514Z" fill="#FFCC66"/>
<path d="M507.526 567.137C496.096 554.036 517.591 550.051 519.53 564.255C520.999 575.062 512.551 572.886 507.526 567.137Z" fill="#FFCC66"/>
</svg>
