<svg width="815" height="1210" viewBox="0 0 815 1210" fill="none" xmlns="http://www.w3.org/2000/svg">
<path d="M758.475 1185H55.8612C25.0655 1185 0 1159.93 0 1129.1V55.9021C0 25.0839 25.0509 0 55.8612 0H758.475C789.271 0 814.336 25.0692 814.336 55.9021V1129.1C814.336 1159.92 789.286 1185 758.475 1185ZM55.8612 11.7774C31.545 11.7774 11.7541 31.568 11.7541 55.9168V1129.11C11.7541 1153.45 31.5303 1173.25 55.8612 1173.25H758.475C782.792 1173.25 802.582 1153.46 802.582 1129.11V55.9021C802.582 31.5681 782.806 11.7627 758.475 11.7627H55.8612V11.7774Z" fill="#FFCC66"/>
<path d="M263.556 1209.77H158.43C155.83 1209.77 153.523 1208.05 152.788 1205.55C152.054 1203.05 153.053 1200.36 155.242 1198.95C156.99 1197.82 161.222 1194.55 162.706 1188.63C164.528 1181.32 160.678 1175.44 159.885 1174.33C158.224 1172.01 158.474 1168.82 160.472 1166.79C162.471 1164.75 165.644 1164.45 167.995 1166.07C180.866 1174.97 194.838 1182.16 209.516 1187.45C226.942 1193.73 245.19 1197.29 263.776 1198.02C266.979 1198.15 269.477 1200.82 269.418 1204.02C269.359 1207.23 266.744 1209.78 263.541 1209.78L263.556 1209.77ZM171.58 1198.01H204.183C194.074 1194.27 184.289 1189.7 174.945 1184.33C174.974 1186.57 174.724 1188.95 174.107 1191.45C173.505 1193.9 172.609 1196.08 171.58 1197.99V1198.01Z" fill="#FFCC66"/>
<path d="M45.1212 1101.96C44.5629 1101.96 44.0192 1101.89 43.4609 1101.73C40.9632 1100.99 39.2441 1098.7 39.2441 1096.08V990.881C39.2441 987.676 41.8006 985.059 45.0036 985C45.0477 985 45.0771 985 45.1212 985C48.2654 985 50.866 987.485 50.9982 990.646C51.7328 1009.23 55.2884 1027.51 61.5622 1044.93C66.8515 1059.62 74.0362 1073.6 82.9252 1086.5C84.5414 1088.85 84.2475 1092.03 82.2053 1094.03C80.163 1096.02 76.9894 1096.27 74.668 1094.61C73.566 1093.82 67.689 1089.97 60.3868 1091.79C54.4657 1093.26 51.2039 1097.5 50.0726 1099.26C48.9706 1100.98 47.09 1101.95 45.1359 1101.95L45.1212 1101.96ZM50.9982 1050.3V1082.92C52.9229 1081.89 55.0974 1081.01 57.5364 1080.4C60.0341 1079.78 62.429 1079.53 64.6476 1079.56C59.2848 1070.21 54.7154 1060.41 50.9835 1050.3H50.9982Z" fill="#FFCC66"/>
<path d="M129.456 1205.06C127.825 1205.06 126.209 1204.83 124.637 1204.34C116.865 1202.01 111.267 1194.02 110.738 1184.49C110.562 1181.25 113.03 1178.48 116.277 1178.29C119.495 1178.1 122.286 1180.58 122.477 1183.83C122.727 1188.36 125.019 1192.17 128.031 1193.08C130.573 1193.85 133.262 1192.27 134.261 1191.68C138.757 1189.05 141.607 1182.98 140.77 1177.86C139.535 1170.38 129.985 1165.26 122.051 1165.26C121.963 1165.26 121.86 1165.26 121.772 1165.26C111.355 1165.42 101.585 1175.26 99.0721 1188.16C98.4403 1191.35 95.3549 1193.42 92.1813 1192.8C88.993 1192.17 86.9213 1189.08 87.5384 1185.89C91.1675 1167.38 105.493 1153.75 121.596 1153.5C134.643 1153.27 150.055 1161.82 152.391 1175.94C154.022 1185.86 148.909 1196.74 140.226 1201.83C136.568 1203.98 132.968 1205.05 129.5 1205.05L129.456 1205.06Z" fill="#FFCC66"/>
<path d="M60.0051 1167.39C57.2576 1167.39 54.7892 1165.45 54.2456 1162.65C53.6285 1159.45 55.7002 1156.37 58.8885 1155.75C71.7739 1153.22 81.6032 1143.46 81.7648 1133.03C81.8824 1125.03 76.7546 1115.26 69.1733 1114.01C64.0602 1113.17 57.9922 1116.02 55.3622 1120.52C54.7745 1121.53 53.2024 1124.21 53.9665 1126.75C54.8774 1129.77 58.6681 1132.05 63.2081 1132.31C66.4551 1132.49 68.9235 1135.27 68.7472 1138.52C68.5709 1141.77 65.794 1144.24 62.5469 1144.06C53.0261 1143.52 45.0481 1137.93 42.7119 1130.15C41.228 1125.21 42.0655 1119.98 45.2097 1114.59C50.2786 1105.91 61.1658 1100.77 71.0833 1102.42C85.2029 1104.74 93.7099 1120.23 93.5042 1133.24C93.2544 1149.35 79.6344 1163.69 61.1364 1167.32C60.7544 1167.39 60.3724 1167.44 60.0051 1167.44V1167.39Z" fill="#FFCC66"/>
<path d="M657.744 1209.77H552.618C549.415 1209.77 546.8 1207.21 546.741 1204.01C546.682 1200.8 549.18 1198.14 552.383 1198.01C570.969 1197.27 589.217 1193.71 606.643 1187.43C621.321 1182.14 635.293 1174.95 648.164 1166.06C650.515 1164.44 653.689 1164.73 655.687 1166.78C657.685 1168.82 657.935 1172 656.274 1174.32C655.481 1175.42 651.646 1181.29 653.454 1188.61C654.923 1194.54 659.154 1197.8 660.917 1198.93C663.107 1200.34 664.106 1203.03 663.371 1205.53C662.636 1208.03 660.344 1209.75 657.729 1209.75L657.744 1209.77ZM611.991 1198.01H644.594C643.565 1196.08 642.684 1193.9 642.067 1191.46C641.45 1188.96 641.2 1186.58 641.229 1184.35C631.885 1189.71 622.1 1194.29 611.991 1198.02V1198.01Z" fill="#FFCC66"/>
<path d="M771.053 1101.97C769.099 1101.97 767.218 1100.98 766.116 1099.27C764.985 1097.53 761.723 1093.29 755.802 1091.81C748.5 1089.98 742.623 1093.83 741.521 1094.63C739.2 1096.29 736.011 1096.04 733.984 1094.04C731.941 1092.04 731.648 1088.86 733.264 1086.51C742.153 1073.62 749.337 1059.65 754.627 1044.95C760.901 1027.51 764.456 1009.25 765.191 990.661C765.323 987.456 767.938 984.912 771.185 985.015C774.388 985.074 776.945 987.691 776.945 990.897V1096.1C776.945 1098.7 775.226 1101.01 772.728 1101.74C772.184 1101.91 771.626 1101.98 771.068 1101.98L771.053 1101.97ZM751.835 1079.54C753.98 1079.54 756.258 1079.79 758.638 1080.38C761.092 1081 763.266 1081.88 765.176 1082.91V1050.28C761.444 1060.4 756.875 1070.19 751.512 1079.54C751.615 1079.54 751.718 1079.54 751.821 1079.54H751.835Z" fill="#FFCC66"/>
<path d="M686.732 1205.06C683.25 1205.06 679.665 1203.99 676.006 1201.84C667.323 1196.77 662.195 1185.88 663.841 1175.95C666.148 1162 681.281 1153.5 694.181 1153.5C694.328 1153.5 694.49 1153.5 694.637 1153.5C710.74 1153.75 725.065 1167.38 728.694 1185.89C729.311 1189.08 727.24 1192.17 724.051 1192.8C720.863 1193.42 717.778 1191.35 717.16 1188.16C714.633 1175.26 704.877 1165.42 694.46 1165.26C694.372 1165.26 694.269 1165.26 694.181 1165.26C686.247 1165.26 676.697 1170.38 675.463 1177.86C674.625 1182.99 677.476 1189.05 681.972 1191.68C682.986 1192.27 685.66 1193.85 688.201 1193.08C691.213 1192.17 693.491 1188.38 693.755 1183.83C693.931 1180.58 696.708 1178.11 699.955 1178.29C703.202 1178.47 705.671 1181.24 705.495 1184.49C704.966 1194.02 699.368 1202.01 691.595 1204.34C690.023 1204.81 688.407 1205.06 686.776 1205.06H686.732Z" fill="#FFCC66"/>
<path d="M756.184 1167.39C755.817 1167.39 755.435 1167.36 755.053 1167.28C736.555 1163.64 722.935 1149.31 722.685 1133.19C722.479 1120.2 731.001 1104.71 745.106 1102.38C755.023 1100.74 765.896 1105.86 770.979 1114.55C774.124 1119.93 774.961 1125.17 773.477 1130.11C771.141 1137.88 763.163 1143.49 753.642 1144.02C750.41 1144.18 747.633 1141.72 747.442 1138.47C747.265 1135.22 749.734 1132.46 752.981 1132.27C757.506 1132.02 761.312 1129.72 762.222 1126.71C762.987 1124.17 761.429 1121.48 760.827 1120.48C758.197 1115.98 752.143 1113.12 747.016 1113.96C739.449 1115.21 734.307 1124.99 734.424 1132.99C734.586 1143.41 744.415 1153.19 757.301 1155.71C760.489 1156.32 762.56 1159.42 761.943 1162.6C761.4 1165.41 758.931 1167.35 756.184 1167.35V1167.39Z" fill="#FFCC66"/>
<path d="M164.675 153.412C163.147 153.412 161.619 152.809 160.488 151.647C158.489 149.603 158.24 146.428 159.9 144.104C160.693 143.002 164.528 137.135 162.721 129.813C161.252 123.887 157.02 120.623 155.257 119.491C153.068 118.08 152.069 115.389 152.803 112.889C153.538 110.39 155.83 108.669 158.445 108.669H263.571C266.774 108.669 269.389 111.228 269.448 114.433C269.507 117.638 267.009 120.3 263.806 120.432C245.234 121.167 226.972 124.725 209.546 131.004C194.868 136.297 180.896 143.487 168.025 152.382C167.011 153.088 165.85 153.426 164.69 153.426L164.675 153.412ZM171.58 120.432C172.609 122.358 173.491 124.534 174.108 126.975C174.725 129.475 174.974 131.857 174.945 134.091C184.29 128.725 194.075 124.152 204.183 120.417H171.58V120.432Z" fill="#FFCC66"/>
<path d="M45.1212 333.439C45.1212 333.439 45.0477 333.439 45.0036 333.439C41.8006 333.38 39.2441 330.763 39.2441 327.557V222.355C39.2441 219.752 40.9632 217.444 43.4609 216.709C45.9587 215.974 48.6474 216.973 50.0579 219.164C51.1892 220.914 54.451 225.149 60.3721 226.634C67.6743 228.457 73.5513 224.604 74.6533 223.811C76.9747 222.149 80.163 222.399 82.1906 224.399C84.2328 226.398 84.5267 229.574 82.9105 231.927C74.0215 244.807 66.8368 258.79 61.5475 273.478C55.2738 290.916 51.7181 309.178 50.9835 327.778C50.8513 330.939 48.2654 333.424 45.1065 333.424L45.1212 333.439ZM50.9982 235.529V268.156C54.7301 258.04 59.2995 248.247 64.6623 238.896C62.429 238.926 60.0488 238.676 57.5511 238.058C55.0974 237.44 52.9229 236.558 51.0129 235.529H50.9982Z" fill="#FFCC66"/>
<path d="M122.022 164.923C121.876 164.923 121.714 164.923 121.567 164.923C105.464 164.673 91.1387 151.043 87.5096 132.532C86.8925 129.341 88.9642 126.254 92.1525 125.621C95.3408 124.989 98.4262 127.077 99.0433 130.268C101.57 143.162 111.326 152.999 121.743 153.161C121.831 153.161 121.934 153.161 122.022 153.161C129.956 153.161 139.507 148.059 140.741 140.56C141.578 135.428 138.728 129.356 134.232 126.739C133.218 126.151 130.544 124.577 128.002 125.342C124.99 126.254 122.713 130.047 122.449 134.59C122.272 137.84 119.495 140.325 116.248 140.133C113.001 139.957 110.533 137.178 110.709 133.929C111.238 124.401 116.836 116.432 124.608 114.079C129.545 112.594 134.776 113.432 140.153 116.579C148.836 121.666 153.964 132.547 152.319 142.471C150.027 156.425 134.878 164.923 121.993 164.923H122.022Z" fill="#FFCC66"/>
<path d="M67.3367 216.341C58.5358 216.341 49.6468 211.475 45.2097 203.858C42.0655 198.477 41.228 193.243 42.7119 188.302C45.0481 180.524 53.0261 174.922 62.5469 174.393C65.7646 174.216 68.5562 176.687 68.7472 179.936C68.9382 183.185 66.4551 185.95 63.2081 186.141C58.6828 186.391 54.8774 188.684 53.9665 191.699C53.2024 194.242 54.7745 196.933 55.3622 197.933C57.9922 202.432 64.0456 205.285 69.1733 204.446C76.7399 203.197 81.8824 193.419 81.7648 185.42C81.6032 174.996 71.7739 165.218 58.8885 162.704C55.7002 162.071 53.6285 158.984 54.2456 155.793C54.8627 152.603 57.9628 150.529 61.1364 151.147C79.6344 154.779 93.2544 169.114 93.5042 185.229C93.7099 198.227 85.1882 213.71 71.0833 216.047C69.8491 216.253 68.6003 216.356 67.3367 216.356V216.341Z" fill="#FFCC66"/>
<path d="M651.514 153.411C650.354 153.411 649.193 153.073 648.179 152.367C635.309 143.472 621.336 136.282 606.658 130.989C589.233 124.71 570.984 121.152 552.398 120.417C549.195 120.285 546.698 117.623 546.756 114.418C546.815 111.213 549.43 108.654 552.633 108.654H657.759C660.359 108.654 662.666 110.375 663.401 112.874C664.135 115.374 663.136 118.064 660.947 119.476C659.199 120.608 654.967 123.872 653.483 129.798C651.661 137.105 655.511 142.987 656.304 144.089C657.965 146.412 657.715 149.603 655.717 151.632C654.571 152.794 653.057 153.397 651.529 153.397L651.514 153.411ZM611.991 120.432C622.1 124.166 631.885 128.739 641.23 134.106C641.2 131.871 641.45 129.489 642.067 126.989C642.67 124.534 643.566 122.358 644.594 120.446H611.991V120.432Z" fill="#FFCC66"/>
<path d="M771.053 333.439C767.908 333.439 765.308 330.954 765.176 327.793C764.441 309.208 760.885 290.932 754.612 273.493C749.322 258.805 742.138 244.822 733.249 231.942C731.633 229.589 731.926 226.413 733.969 224.414C736.011 222.414 739.184 222.164 741.506 223.826C742.608 224.62 748.485 228.472 755.787 226.649C761.708 225.178 764.97 220.944 766.101 219.179C767.512 216.989 770.201 215.989 772.698 216.724C775.196 217.459 776.915 219.753 776.915 222.37V327.572C776.915 330.778 774.359 333.395 771.156 333.454C771.111 333.454 771.082 333.454 771.038 333.454L771.053 333.439ZM751.526 238.882C756.889 248.233 761.458 258.026 765.19 268.141V235.515C763.266 236.544 761.091 237.426 758.652 238.044C756.154 238.661 753.774 238.926 751.541 238.882H751.526Z" fill="#FFCC66"/>
<path d="M694.151 164.923C681.251 164.923 666.118 156.439 663.826 142.471C662.195 132.547 667.308 121.666 675.991 116.579C681.369 113.432 686.599 112.594 691.536 114.079C699.323 116.417 704.906 124.401 705.435 133.929C705.611 137.178 703.143 139.942 699.896 140.133C696.663 140.31 693.887 137.84 693.696 134.59C693.446 130.062 691.154 126.254 688.142 125.342C685.6 124.577 682.911 126.151 681.912 126.739C677.416 129.371 674.566 135.443 675.403 140.56C676.638 148.044 686.188 153.161 694.122 153.161C694.225 153.161 694.313 153.161 694.416 153.161C704.833 152.999 714.603 143.162 717.116 130.268C717.747 127.077 720.833 125.004 724.006 125.621C727.195 126.239 729.266 129.341 728.649 132.532C725.02 151.043 710.695 164.673 694.592 164.923C694.445 164.923 694.283 164.923 694.136 164.923H694.151Z" fill="#FFCC66"/>
<path d="M748.837 216.341C747.588 216.341 746.339 216.239 745.091 216.033C730.971 213.71 722.464 198.227 722.67 185.215C722.919 169.1 736.54 154.764 755.037 151.132C758.226 150.515 761.311 152.588 761.928 155.778C762.545 158.969 760.474 162.057 757.285 162.689C744.4 165.218 734.571 174.981 734.409 185.406C734.291 193.404 739.419 203.182 747.001 204.432C752.114 205.27 758.182 202.417 760.812 197.918C761.399 196.904 762.971 194.228 762.207 191.684C761.297 188.67 757.506 186.376 752.966 186.126C749.719 185.95 747.25 183.171 747.427 179.921C747.603 176.672 750.38 174.216 753.627 174.378C763.148 174.922 771.126 180.509 773.462 188.288C774.946 193.228 774.108 198.462 770.964 203.844C766.527 211.445 757.638 216.327 748.837 216.327V216.341Z" fill="#FFCC66"/>
<path d="M201.362 149.659C200.334 149.865 199.511 149.762 198.997 149.247C198.38 148.835 197.968 148.218 197.968 147.497C197.763 146.88 197.968 146.159 198.38 145.439C198.791 144.821 199.511 144.41 200.54 144.204C202.597 143.895 204.654 143.586 206.916 143.38C209.076 143.175 211.236 143.072 213.293 142.866C216.378 142.763 218.847 143.072 220.595 143.895C222.241 144.821 223.269 145.954 223.783 147.394C224.298 148.835 224.298 150.482 223.886 152.232C223.372 154.084 222.549 155.731 221.521 157.378C220.286 159.231 218.641 161.186 216.584 163.142C214.424 165.2 212.367 167.053 210.31 168.597C209.487 169.214 208.665 169.523 207.945 169.317C207.122 169.214 206.608 168.905 206.196 168.391C205.785 167.876 205.579 167.259 205.579 166.435C205.579 165.715 205.991 164.994 206.813 164.377C208.87 162.73 210.824 161.083 212.676 159.334C214.424 157.687 215.967 155.834 217.304 153.776C218.538 151.923 218.847 150.482 218.332 149.453C217.715 148.63 216.07 148.218 213.293 148.321C211.339 148.424 209.385 148.63 207.328 148.835C205.271 149.144 203.214 149.453 201.362 149.659ZM210.413 179.198C210.413 177.345 210.927 176.213 211.956 175.595C212.881 175.081 214.013 174.772 215.35 174.566C216.378 174.566 218.024 174.463 220.286 174.257C222.549 174.154 224.915 174.052 227.383 173.846C229.851 173.743 232.217 173.64 234.582 173.434C236.845 173.331 238.491 173.228 239.725 173.022C241.165 173.022 242.296 173.434 243.119 174.257C243.839 175.184 244.25 176.213 244.25 177.345V180.947C244.147 182.183 244.044 183.418 244.044 184.55V188.255C243.941 189.49 243.941 190.725 244.044 191.96C243.941 192.681 243.633 193.504 243.119 194.43C242.502 195.46 241.679 195.974 240.753 196.18C239.622 196.386 238.079 196.695 236.022 196.901C233.965 197.209 231.703 197.518 229.44 197.724C227.074 198.136 224.812 198.341 222.755 198.547C220.595 198.856 218.949 199.062 217.818 199.165C215.453 199.577 213.601 199.062 212.367 197.621C211.03 196.386 210.413 194.842 210.413 192.989C210.31 191.651 210.31 190.416 210.31 189.284V186.197C210.31 185.167 210.31 184.138 210.413 183.006V179.198ZM216.173 180.124C216.07 181.153 216.07 182.08 216.07 182.903C215.967 183.932 215.967 184.859 215.967 185.682V188.358C215.967 189.387 215.967 190.313 216.07 191.137C216.07 192.166 216.275 192.784 216.79 193.195C217.201 193.607 217.921 193.71 218.949 193.504C220.904 193.298 222.96 192.989 225.017 192.681C226.972 192.475 228.823 192.166 230.674 191.96C232.32 191.754 233.862 191.549 235.302 191.343C236.536 191.24 237.565 191.137 238.182 190.931C238.285 188.667 238.388 186.299 238.388 183.932V178.477C236.536 178.58 234.582 178.683 232.525 178.786C230.366 178.992 228.309 179.198 226.354 179.301C224.298 179.506 222.343 179.712 220.595 179.815C218.744 180.021 217.201 180.124 216.173 180.124ZM242.604 151.717H253.095C253.918 151.717 254.638 152.026 255.255 152.438C255.666 152.952 255.975 153.673 255.975 154.496C255.975 155.422 255.666 156.04 255.255 156.452C254.638 156.966 253.918 157.172 253.095 157.172H242.913L243.427 166.641C243.53 167.876 243.324 168.802 242.913 169.317C242.399 169.935 241.679 170.243 240.753 170.243C239.725 170.243 238.902 170.038 238.491 169.42C237.976 168.905 237.668 167.979 237.668 166.744L236.125 138.44C235.919 137.308 236.022 136.382 236.536 135.661C236.948 135.044 237.668 134.735 238.696 134.735C239.622 134.735 240.342 135.044 240.959 135.661C241.37 136.382 241.679 137.308 241.885 138.337L242.604 151.717Z" fill="#FFCC66"/>
<path d="M216.334 200.047C214.468 200.047 212.91 199.386 211.823 198.107C210.427 196.827 209.693 195.092 209.693 192.99C209.59 191.681 209.59 190.402 209.59 189.285V186.197C209.59 185.168 209.59 184.109 209.693 182.947V179.198C209.693 177.125 210.31 175.728 211.588 174.963C212.558 174.434 213.704 174.081 215.247 173.831C216.378 173.831 218.024 173.714 220.227 173.523H220.565C222.74 173.405 224.988 173.302 227.324 173.111C229.91 173.008 232.217 172.905 234.523 172.699C236.801 172.596 238.417 172.493 239.607 172.302H239.666C241.399 172.302 242.692 172.787 243.647 173.743C244.558 174.905 244.999 176.096 244.999 177.345V180.948C244.896 182.242 244.793 183.462 244.793 184.55V188.255C244.691 189.505 244.691 190.711 244.793 191.902V191.99V192.078C244.676 192.887 244.338 193.798 243.78 194.798C243.104 195.93 242.149 196.636 240.929 196.916L240.43 197.004C239.372 197.195 237.932 197.46 236.11 197.651C234.509 197.901 232.026 198.254 229.528 198.474C227.441 198.842 225.355 199.048 223.504 199.239L222.843 199.297C220.653 199.606 219.037 199.812 217.906 199.915C217.362 200.003 216.848 200.062 216.349 200.062L216.334 200.047ZM239.724 173.758C238.578 173.949 236.903 174.067 234.611 174.17C232.305 174.375 229.983 174.478 227.412 174.581C225.076 174.772 222.813 174.875 220.624 174.978H220.316C218.097 175.199 216.407 175.302 215.349 175.302C214.101 175.507 213.101 175.802 212.308 176.243C211.823 176.537 211.147 177.169 211.147 179.198V183.006C211.045 184.168 211.045 185.153 211.045 186.197V189.285C211.045 190.431 211.045 191.622 211.147 192.931C211.147 194.666 211.706 196.004 212.866 197.077C213.983 198.371 215.585 198.798 217.7 198.445C218.876 198.327 220.477 198.136 222.666 197.827L223.357 197.754C225.267 197.562 227.236 197.371 229.337 197.004C231.864 196.769 234.318 196.416 235.934 196.18C237.726 196.004 239.078 195.754 240.165 195.548L240.635 195.46C241.429 195.283 242.031 194.828 242.501 194.048C242.942 193.254 243.221 192.549 243.324 191.931C243.221 190.696 243.221 189.432 243.324 188.196V184.55C243.324 183.403 243.427 182.153 243.53 180.948V177.345C243.53 176.434 243.207 175.537 242.56 174.714C241.928 174.096 240.988 173.758 239.739 173.758H239.724ZM218.038 194.357C217.289 194.357 216.701 194.151 216.275 193.725C215.452 193.078 215.335 192.005 215.335 191.152C215.232 190.373 215.232 189.402 215.232 188.373V185.697C215.232 184.859 215.232 183.918 215.335 182.844C215.335 182.08 215.335 181.124 215.438 180.066L215.511 179.404H216.172C217.201 179.404 218.743 179.301 220.507 179.095C222.093 179.007 223.798 178.83 225.605 178.654L226.281 178.595C228.117 178.492 229.998 178.316 231.996 178.125L232.452 178.081C234.538 177.978 236.492 177.875 238.343 177.772L239.122 177.728V183.962C239.122 186.417 239.005 188.961 238.916 190.99L238.887 191.49L238.402 191.652C237.697 191.887 236.595 191.99 235.346 192.093C233.95 192.299 232.393 192.505 230.747 192.71C229.88 192.813 229.014 192.931 228.147 193.049C227.148 193.181 226.119 193.328 225.076 193.431L224.914 193.46C222.946 193.754 220.918 194.063 219.008 194.254C218.655 194.328 218.317 194.357 218.009 194.357H218.038ZM216.848 180.86C216.804 181.595 216.804 182.286 216.804 182.918C216.701 183.977 216.701 184.888 216.701 185.697V188.373C216.701 189.402 216.701 190.284 216.804 191.064C216.804 192.152 217.024 192.46 217.26 192.637C217.539 192.902 218.082 192.946 218.817 192.799C220.756 192.593 222.769 192.284 224.723 192.005L224.914 191.975C225.972 191.858 226.986 191.725 227.97 191.593C228.852 191.475 229.719 191.358 230.6 191.255C232.231 191.049 233.774 190.843 235.214 190.637C236.066 190.564 236.889 190.49 237.491 190.373C237.579 188.373 237.668 186.167 237.668 183.947V179.272C236.051 179.36 234.347 179.448 232.569 179.536L232.143 179.58C230.13 179.771 228.235 179.963 226.398 180.051L225.767 180.11C223.945 180.301 222.211 180.463 220.639 180.565C219.199 180.727 217.877 180.83 216.848 180.86ZM240.753 170.979C239.342 170.979 238.402 170.597 237.873 169.832C237.286 169.273 236.933 168.156 236.933 166.744L235.39 138.485C235.155 137.191 235.331 136.103 235.934 135.235C236.477 134.426 237.403 134 238.696 134C239.798 134 240.709 134.368 241.473 135.147L241.59 135.309C242.031 136.073 242.369 137.044 242.604 138.205L243.295 150.997H253.095C253.962 150.997 254.814 151.276 255.666 151.835L255.828 151.982C256.401 152.688 256.709 153.585 256.709 154.496C256.709 155.511 256.401 156.349 255.769 156.967C255.005 157.614 254.138 157.908 253.095 157.908H243.691L244.162 166.597C244.279 167.979 244.044 169.082 243.486 169.773C242.825 170.582 241.899 170.979 240.753 170.979ZM238.696 135.47C237.55 135.47 237.241 135.926 237.153 136.073C236.771 136.617 236.683 137.338 236.859 138.308L238.417 166.7C238.417 167.729 238.637 168.509 239.019 168.891C239.328 169.332 239.886 169.509 240.768 169.509C241.473 169.509 241.987 169.288 242.369 168.847C242.663 168.479 242.795 167.671 242.722 166.7L242.163 156.437H253.124C253.829 156.437 254.358 156.261 254.814 155.893C255.108 155.599 255.269 155.129 255.269 154.496C255.269 153.791 254.99 153.276 254.784 152.982C254.211 152.629 253.668 152.453 253.124 152.453H241.928L241.164 138.367C240.988 137.529 240.709 136.72 240.386 136.103C239.915 135.661 239.387 135.456 238.711 135.456L238.696 135.47ZM208.415 170.126C208.179 170.126 207.959 170.097 207.739 170.038C206.887 169.935 206.181 169.553 205.623 168.862C205.094 168.215 204.844 167.421 204.844 166.45C204.844 165.759 205.109 164.745 206.372 163.804C208.694 161.936 210.545 160.348 212.176 158.819C213.88 157.217 215.394 155.393 216.687 153.394C217.421 152.306 218.17 150.791 217.671 149.791C217.524 149.615 216.657 148.939 213.322 149.071C211.618 149.159 209.899 149.336 208.091 149.512L207.401 149.586C205.638 149.85 203.404 150.188 201.48 150.409C200.157 150.674 199.144 150.468 198.482 149.791C197.762 149.321 197.278 148.512 197.248 147.63C197.043 146.895 197.219 146.042 197.748 145.086C198.291 144.263 199.173 143.734 200.392 143.498L200.554 143.469C202.552 143.175 204.609 142.866 206.842 142.66C207.886 142.557 208.929 142.484 209.972 142.41C211.074 142.337 212.161 142.249 213.219 142.146C216.613 142.028 219.111 142.396 220.903 143.248C222.74 144.278 223.901 145.557 224.474 147.174C225.017 148.703 225.061 150.468 224.606 152.423C224.121 154.188 223.342 155.893 222.152 157.79C220.815 159.79 219.125 161.775 217.098 163.701C214.527 166.141 212.573 167.847 210.765 169.214C209.943 169.832 209.149 170.141 208.429 170.141L208.415 170.126ZM214.101 147.571C216.613 147.571 218.2 148.042 218.92 149.012C219.64 150.438 219.287 152.129 217.921 154.188C216.569 156.276 214.967 158.202 213.19 159.878C211.544 161.436 209.663 163.054 207.283 164.965C206.842 165.303 206.328 165.818 206.328 166.45C206.328 167.083 206.475 167.553 206.784 167.95C207.048 168.273 207.371 168.523 208.047 168.612C208.708 168.803 209.399 168.391 209.884 168.038C211.662 166.715 213.572 165.039 216.084 162.642C218.038 160.789 219.654 158.893 220.918 156.996C222.02 155.232 222.74 153.658 223.181 152.056C223.563 150.409 223.548 148.924 223.092 147.659C222.637 146.38 221.726 145.395 220.227 144.557C218.714 143.837 216.378 143.528 213.307 143.616C212.293 143.719 211.191 143.792 210.075 143.881C209.046 143.954 208.018 144.028 206.975 144.131C204.771 144.322 202.729 144.631 200.76 144.925C199.849 145.101 199.276 145.41 198.982 145.866C198.762 146.248 198.512 146.836 198.659 147.277L198.703 147.512C198.703 148.1 199.144 148.483 199.408 148.659C199.893 149.13 200.657 149.071 201.215 148.953H201.274C203.184 148.733 205.417 148.395 207.21 148.13L207.93 148.056C209.766 147.88 211.485 147.704 213.234 147.615C213.528 147.615 213.807 147.601 214.071 147.601L214.101 147.571Z" fill="#FFCD54"/>
<path d="M264.512 147.806C263.278 148.218 262.352 148.321 261.735 147.909C261.118 147.6 260.809 146.983 260.809 145.954C260.603 145.233 260.706 144.616 261.323 143.998C261.838 143.483 262.763 143.072 263.997 142.66L273.871 139.984C278.602 138.749 282.202 138.749 284.67 139.778C287.035 141.013 288.27 143.278 288.27 146.674C288.27 148.012 287.858 149.35 287.035 150.688C286.315 151.717 285.493 152.849 284.567 153.982L293.515 161.392C294.338 162.215 294.852 163.039 295.058 163.759C295.16 164.583 294.955 165.406 294.338 166.024C293.721 166.744 293.103 167.053 292.384 166.847C291.561 166.744 290.738 166.229 289.915 165.406L280.556 157.79L270.168 167.567C269.243 168.494 268.42 169.008 267.7 169.111C266.877 169.317 266.26 169.008 265.746 168.185C265.026 167.567 264.82 166.847 265.026 166.024C265.129 165.303 265.643 164.48 266.569 163.553L279.836 151.1C280.659 150.276 281.276 149.556 281.79 148.732C282.202 148.012 282.407 147.292 282.407 146.674C282.407 145.645 281.893 144.924 280.865 144.616C279.733 144.41 278.19 144.41 276.134 144.821L264.512 147.806ZM313.365 184.653C313.365 186.608 312.953 188.358 312.233 190.005C311.41 191.754 310.382 193.298 309.148 194.739C307.708 196.18 305.959 197.312 304.108 197.93C302.051 198.753 299.891 199.062 297.423 199.062C295.16 199.062 293.103 198.856 291.458 198.239C289.709 197.724 288.27 196.901 287.241 195.665C286.007 194.636 285.081 193.401 284.567 191.857C283.95 190.416 283.641 188.77 283.641 186.917C283.641 184.859 283.95 183.006 284.67 181.153C285.287 179.404 286.418 177.757 287.858 176.213C289.092 174.772 290.738 173.64 292.692 172.816C294.543 172.096 296.806 171.684 299.274 171.684C301.331 171.684 303.183 171.993 304.931 172.611C306.577 173.331 308.016 174.257 309.353 175.287C310.588 176.522 311.513 177.963 312.336 179.404C312.953 181.05 313.365 182.8 313.365 184.653ZM307.708 184.653C307.708 183.623 307.502 182.697 307.194 181.668C306.782 180.844 306.165 180.021 305.548 179.198C304.725 178.58 303.902 178.066 302.874 177.654C301.846 177.345 300.611 177.139 299.274 177.139C297.629 177.139 296.292 177.448 295.058 177.86C293.721 178.374 292.692 179.095 291.869 180.021C290.841 181.05 290.224 182.183 289.915 183.212C289.504 184.447 289.298 185.682 289.298 186.917C289.298 188.049 289.401 188.975 289.812 189.799C290.018 190.725 290.532 191.446 291.252 191.96C291.869 192.578 292.692 192.989 293.721 193.195C294.749 193.504 295.983 193.607 297.423 193.607C298.966 193.607 300.406 193.401 301.743 192.887C302.977 192.475 304.005 191.754 304.931 190.622C305.754 189.799 306.371 188.77 306.988 187.74C307.399 186.711 307.708 185.682 307.708 184.653ZM297.526 155.422C296.6 155.422 295.983 155.217 295.572 154.702C295.058 154.29 294.852 153.673 294.852 152.746C294.852 151.923 295.058 151.203 295.572 150.688C295.983 150.276 296.6 149.968 297.526 149.968H308.222V138.44C308.222 137.308 308.428 136.382 308.942 135.661C309.353 135.044 309.971 134.735 310.999 134.735C311.925 134.735 312.645 135.044 313.262 135.661C313.776 136.382 314.084 137.308 314.084 138.44V166.744C314.084 167.979 313.776 168.905 313.262 169.42C312.645 170.038 311.925 170.243 310.999 170.243C309.971 170.243 309.353 170.038 308.942 169.42C308.428 168.905 308.222 167.979 308.222 166.744V155.422H297.526Z" fill="#FFCC66"/>
<path d="M297.422 199.797C294.763 199.797 292.78 199.518 291.193 198.93C289.283 198.371 287.74 197.43 286.667 196.136C285.345 195.048 284.39 193.696 283.861 192.093C283.229 190.623 282.891 188.858 282.891 186.917C282.891 184.697 283.229 182.786 283.964 180.889C284.566 179.169 285.668 177.463 287.299 175.713C288.563 174.243 290.282 173.023 292.383 172.14C294.381 171.361 296.761 170.949 299.244 170.949C301.375 170.949 303.299 171.258 305.151 171.92C306.723 172.611 308.221 173.508 309.779 174.714C311.219 176.14 312.188 177.698 312.952 179.051C313.731 181.08 314.084 182.889 314.084 184.668C314.084 186.638 313.687 188.476 312.894 190.314C312.056 192.078 311.013 193.681 309.691 195.239C308.089 196.842 306.253 198.004 304.328 198.651C302.359 199.445 300.141 199.812 297.408 199.812L297.422 199.797ZM299.274 172.42C296.952 172.42 294.778 172.787 292.956 173.508C291.075 174.302 289.547 175.375 288.416 176.698C286.917 178.301 285.903 179.874 285.36 181.404C284.684 183.139 284.375 184.888 284.375 186.917C284.375 188.667 284.669 190.226 285.242 191.564C285.712 192.96 286.506 194.093 287.711 195.092C288.695 196.254 289.959 197.018 291.663 197.533C293.103 198.077 294.969 198.327 297.422 198.327C299.876 198.327 301.992 197.989 303.828 197.254C305.577 196.666 307.222 195.622 308.618 194.225C309.823 192.813 310.793 191.328 311.557 189.696C312.262 188.064 312.615 186.417 312.615 184.653C312.615 183.05 312.291 181.418 311.63 179.669C310.954 178.507 310.058 177.051 308.809 175.816C307.399 174.743 306.047 173.92 304.607 173.287C302.976 172.714 301.198 172.42 299.244 172.42H299.274ZM297.422 194.342C295.733 194.342 294.528 194.21 293.514 193.901C292.412 193.681 291.457 193.196 290.737 192.49C289.959 191.946 289.371 191.078 289.121 190.049C288.636 189.035 288.563 187.947 288.563 186.917C288.563 185.609 288.783 184.285 289.224 182.977C289.591 181.727 290.341 180.521 291.354 179.492C292.251 178.478 293.382 177.713 294.792 177.169C296.409 176.64 297.775 176.404 299.274 176.404C300.581 176.404 301.889 176.596 303.079 176.948C304.122 177.36 304.989 177.86 305.988 178.61L306.135 178.757C306.767 179.595 307.413 180.463 307.854 181.345C308.177 182.403 308.442 183.447 308.442 184.653C308.442 185.638 308.207 186.682 307.678 188.02C307.002 189.167 306.356 190.255 305.459 191.152C304.504 192.313 303.358 193.137 301.977 193.593C300.669 194.093 299.171 194.342 297.422 194.342ZM299.274 177.875C297.937 177.875 296.702 178.081 295.292 178.551C294.131 178.992 293.191 179.639 292.427 180.507C291.325 181.609 290.84 182.697 290.62 183.418C290.223 184.594 290.032 185.77 290.032 186.917C290.032 188.064 290.164 188.843 290.473 189.476L290.532 189.652C290.693 190.358 291.075 190.946 291.678 191.372C292.295 191.961 292.971 192.299 293.867 192.49C294.792 192.769 295.909 192.887 297.422 192.887C298.936 192.887 300.302 192.666 301.478 192.21C302.624 191.828 303.535 191.181 304.357 190.167C305.165 189.343 305.768 188.344 306.356 187.373C306.767 186.329 306.973 185.462 306.973 184.668C306.973 183.874 306.826 183.036 306.488 181.889C306.165 181.271 305.591 180.492 305.018 179.727C304.166 179.095 303.432 178.683 302.594 178.345C301.595 178.051 300.434 177.875 299.259 177.875H299.274ZM310.998 170.979C310.058 170.979 309 170.847 308.324 169.832C307.781 169.303 307.487 168.288 307.487 166.744V156.158H297.525C296.805 156.158 295.762 156.055 295.042 155.232C294.205 154.511 294.117 153.482 294.117 152.747C294.117 151.659 294.425 150.791 295.057 150.174C295.674 149.556 296.511 149.233 297.525 149.233H307.487V138.44C307.487 137.088 307.766 136.044 308.339 135.235C308.883 134.412 309.764 134 310.998 134C312.1 134 313.011 134.368 313.775 135.147C314.495 136.132 314.818 137.205 314.818 138.44V166.744C314.818 168.156 314.466 169.259 313.775 169.935C313.055 170.655 312.203 170.979 310.998 170.979ZM297.525 150.703C296.893 150.703 296.423 150.865 296.085 151.203C295.747 151.541 295.586 152.056 295.586 152.747C295.586 153.658 295.806 153.952 296.027 154.129L296.144 154.246C296.32 154.467 296.614 154.688 297.525 154.688H308.956V166.744C308.956 168.112 309.235 168.67 309.456 168.906C309.72 169.288 309.97 169.523 310.998 169.523C311.806 169.523 312.306 169.347 312.747 168.92C313.129 168.538 313.349 167.744 313.349 166.759V138.455C313.349 137.529 313.114 136.735 312.659 136.103C312.247 135.706 311.704 135.485 310.998 135.485C310.073 135.485 309.764 135.779 309.558 136.088C309.147 136.661 308.956 137.411 308.956 138.455V150.718H297.525V150.703ZM267.229 169.92C266.597 169.92 265.819 169.656 265.187 168.67C264.349 167.906 264.041 166.935 264.32 165.847C264.438 165.039 265.011 164.083 266.054 163.039L279.336 150.571C280.173 149.733 280.717 149.071 281.172 148.35C281.496 147.792 281.672 147.189 281.672 146.689C281.672 145.969 281.363 145.542 280.658 145.336C279.542 145.13 278.043 145.204 276.28 145.557L264.717 148.527C263.644 148.88 262.307 149.189 261.323 148.527C260.544 148.145 260.089 147.292 260.074 146.057C259.824 145.072 260.074 144.219 260.809 143.484C261.367 142.925 262.248 142.469 263.776 141.969L273.694 139.278C278.469 138.029 282.26 137.97 284.963 139.102C287.667 140.514 289.018 143.057 289.018 146.674C289.018 148.145 288.563 149.63 287.681 151.071C287.167 151.806 286.447 152.82 285.61 153.879L293.999 160.834C294.925 161.76 295.527 162.686 295.777 163.568C295.938 164.789 295.615 165.818 294.866 166.553C294.073 167.479 293.147 167.847 292.192 167.568C291.34 167.465 290.399 166.935 289.4 165.936L280.599 158.775L270.682 168.112C269.653 169.156 268.698 169.714 267.817 169.847C267.641 169.891 267.45 169.92 267.244 169.92H267.229ZM279.248 143.748C279.879 143.748 280.452 143.792 280.996 143.895C282.392 144.307 283.141 145.307 283.141 146.674C283.141 147.439 282.891 148.277 282.421 149.1C281.892 149.938 281.275 150.688 280.35 151.615L267.068 164.083C266.083 165.068 265.804 165.744 265.745 166.127C265.584 166.788 265.731 167.215 266.215 167.627L266.362 167.803C266.803 168.509 267.17 168.494 267.523 168.406C267.978 168.332 268.64 168.053 269.653 167.053L280.526 156.82L290.385 164.848C291.178 165.642 291.869 166.053 292.486 166.127C292.794 166.2 293.147 166.303 293.793 165.553C294.366 164.98 294.396 164.318 294.337 163.862C294.175 163.348 293.705 162.613 293 161.922L283.538 154.099L283.993 153.541C284.992 152.32 285.859 151.1 286.432 150.291C287.152 149.115 287.534 147.895 287.534 146.704C287.534 143.631 286.491 141.587 284.331 140.455C281.981 139.484 278.513 139.558 274.061 140.719L264.188 143.395C263.438 143.645 262.337 144.057 261.837 144.542C261.455 144.925 261.367 145.248 261.514 145.777L261.543 145.983C261.543 147.027 261.91 147.204 262.057 147.277C262.483 147.556 263.189 147.498 264.276 147.13H264.32L275.942 144.131C277.147 143.881 278.249 143.763 279.233 143.763L279.248 143.748Z" fill="#FFCD54"/>
<path d="M352.961 147.806C351.727 148.218 350.802 148.321 350.185 147.909C349.567 147.6 349.259 146.983 349.259 145.954C349.053 145.233 349.156 144.616 349.773 143.998C350.287 143.483 351.213 143.072 352.447 142.66L362.321 139.984C367.052 138.749 370.651 138.749 373.12 139.778C375.485 141.013 376.719 143.278 376.719 146.674C376.719 148.012 376.308 149.35 375.485 150.688C374.765 151.717 373.942 152.849 373.017 153.982L381.965 161.392C382.787 162.215 383.302 163.039 383.507 163.759C383.61 164.583 383.404 165.406 382.787 166.024C382.17 166.744 381.553 167.053 380.833 166.847C380.01 166.744 379.188 166.229 378.365 165.406L369.006 157.79L358.618 167.567C357.692 168.494 356.87 169.008 356.15 169.111C355.327 169.317 354.71 169.008 354.196 168.185C353.476 167.567 353.27 166.847 353.476 166.024C353.578 165.303 354.093 164.48 355.018 163.553L368.286 151.1C369.109 150.276 369.726 149.556 370.24 148.732C370.651 148.012 370.857 147.292 370.857 146.674C370.857 145.645 370.343 144.924 369.314 144.616C368.183 144.41 366.64 144.41 364.583 144.821L352.961 147.806ZM393.792 180.742C393.792 179.918 393.586 179.404 393.175 178.992C392.661 178.683 392.044 178.477 391.221 178.477L360.572 183.418C359.338 183.726 358.412 183.623 357.898 183.212C357.281 182.903 356.972 182.285 356.972 181.359C356.972 180.536 357.178 179.815 357.795 179.198C358.309 178.683 359.235 178.271 360.469 178.066L391.118 173.125C393.792 172.714 395.952 173.228 397.392 174.463C398.832 175.801 399.552 177.86 399.552 180.742V191.754C399.552 192.989 399.243 193.916 398.832 194.43C398.215 195.048 397.495 195.254 396.569 195.254C395.541 195.254 394.821 195.048 394.409 194.43C393.998 193.916 393.792 192.989 393.792 191.754V180.742ZM394.718 138.44C394.718 137.308 394.923 136.382 395.335 135.661C395.746 135.044 396.466 134.735 397.495 134.735C398.42 134.735 399.14 135.044 399.757 135.661C400.169 136.382 400.477 137.308 400.477 138.44V166.744C400.477 167.979 400.169 168.905 399.757 169.42C399.14 170.038 398.42 170.243 397.495 170.243C396.466 170.243 395.746 170.038 395.335 169.42C394.923 168.905 394.718 167.979 394.718 166.744V138.44Z" fill="#FFCC66"/>
<path d="M396.568 195.989C395.701 195.989 394.482 195.872 393.791 194.842C393.307 194.254 393.057 193.196 393.057 191.755V180.742C393.057 180.08 392.895 179.786 392.719 179.58C392.278 179.33 391.793 179.213 391.22 179.213L360.689 184.138C359.352 184.477 358.235 184.374 357.501 183.83C356.913 183.506 356.237 182.83 356.237 181.359C356.237 180.257 356.575 179.374 357.28 178.683C357.927 178.036 358.985 177.581 360.351 177.345L391.015 172.405C393.85 171.964 396.23 172.493 397.891 173.905C399.522 175.419 400.3 177.654 400.3 180.742V191.755C400.3 193.063 399.992 194.181 399.419 194.886C398.64 195.666 397.788 195.989 396.583 195.989H396.568ZM391.176 177.757C392.131 177.757 392.88 177.963 393.556 178.375L393.703 178.492C394.276 179.066 394.541 179.786 394.541 180.757V191.769C394.541 193.254 394.864 193.813 394.996 193.99C395.202 194.284 395.51 194.534 396.583 194.534C397.391 194.534 397.891 194.357 398.331 193.931C398.405 193.828 398.831 193.181 398.831 191.769V180.757C398.831 178.095 398.199 176.213 396.906 175.022C395.599 173.905 393.644 173.508 391.25 173.875L360.601 178.816C359.572 178.992 358.75 179.33 358.324 179.742C357.897 180.168 357.721 180.654 357.721 181.389C357.721 182.33 358.103 182.506 358.235 182.58L358.368 182.668C358.5 182.771 359.014 183.08 360.41 182.727L391.117 177.772C391.117 177.772 391.161 177.772 391.176 177.772V177.757ZM397.494 170.979C396.642 170.979 395.408 170.861 394.717 169.832C394.232 169.244 393.982 168.185 393.982 166.744V138.44C393.982 137.176 394.218 136.117 394.702 135.294C395.29 134.426 396.216 134 397.494 134C398.596 134 399.507 134.368 400.271 135.147L400.388 135.309C400.932 136.264 401.197 137.323 401.197 138.455V166.759C401.197 168.068 400.888 169.185 400.315 169.891C399.536 170.67 398.684 170.994 397.479 170.994L397.494 170.979ZM397.494 135.47C396.348 135.47 396.039 135.926 395.951 136.073C395.628 136.632 395.452 137.441 395.452 138.44V166.744C395.452 168.229 395.775 168.788 395.907 168.965C396.113 169.259 396.421 169.509 397.494 169.509C398.302 169.509 398.802 169.332 399.242 168.906C399.316 168.803 399.742 168.156 399.742 166.744V138.44C399.742 137.602 399.551 136.823 399.169 136.117C398.699 135.676 398.17 135.47 397.494 135.47ZM355.679 169.92C355.047 169.92 354.268 169.656 353.637 168.67C352.799 167.906 352.491 166.935 352.77 165.847C352.887 165.039 353.46 164.083 354.503 163.039L367.786 150.571C368.623 149.733 369.167 149.071 369.622 148.35C369.945 147.792 370.122 147.189 370.122 146.689C370.122 145.969 369.813 145.542 369.108 145.336C367.991 145.13 366.493 145.204 364.73 145.557L353.166 148.527C352.094 148.88 350.757 149.189 349.772 148.527C348.994 148.145 348.538 147.292 348.524 146.057C348.274 145.072 348.524 144.219 349.258 143.484C349.817 142.925 350.698 142.469 352.226 141.969L362.144 139.278C366.919 138.029 370.709 137.97 373.413 139.102C376.116 140.514 377.468 143.057 377.468 146.674C377.468 148.145 377.013 149.63 376.116 151.071C375.602 151.806 374.882 152.82 374.045 153.879L382.434 160.834C383.374 161.76 383.962 162.701 384.212 163.568C384.374 164.789 384.05 165.818 383.301 166.553C382.508 167.479 381.597 167.847 380.627 167.568C379.775 167.465 378.834 166.935 377.835 165.936L369.034 158.775L359.117 168.112C358.088 169.141 357.133 169.714 356.252 169.847C356.076 169.891 355.885 169.92 355.679 169.92ZM367.697 143.748C368.329 143.748 368.902 143.792 369.446 143.895C370.842 144.307 371.591 145.307 371.591 146.674C371.591 147.439 371.341 148.277 370.871 149.1C370.342 149.938 369.725 150.688 368.799 151.615L355.517 164.083C354.533 165.068 354.254 165.744 354.195 166.127C354.033 166.788 354.18 167.215 354.665 167.627L354.812 167.803C355.209 168.45 355.547 168.509 355.973 168.406C356.428 168.332 357.089 168.053 358.103 167.053L368.976 156.82L378.834 164.848C379.628 165.642 380.318 166.053 380.935 166.127C381.244 166.2 381.597 166.303 382.243 165.553C382.816 164.98 382.845 164.318 382.787 163.862C382.625 163.348 382.155 162.613 381.45 161.922L371.988 154.099L372.443 153.541C373.442 152.32 374.309 151.1 374.882 150.291C375.602 149.115 375.984 147.895 375.984 146.704C375.984 143.631 374.941 141.587 372.781 140.455C370.43 139.484 366.963 139.558 362.511 140.719L352.637 143.395C351.888 143.645 350.786 144.057 350.287 144.542C349.905 144.925 349.817 145.248 349.963 145.777L349.993 145.983C349.993 147.027 350.36 147.204 350.507 147.277C350.933 147.556 351.638 147.498 352.726 147.13H352.77L364.392 144.131C365.596 143.881 366.698 143.763 367.683 143.763L367.697 143.748Z" fill="#FFCD54"/>
<path d="M421.047 142.764L434.211 141.323C436.577 141.117 438.428 141.632 439.765 142.764C440.588 143.69 441.102 144.719 441.41 146.16L458.483 145.543V139.264C458.483 138.132 458.689 137.206 459.1 136.485C459.512 135.868 460.232 135.559 461.26 135.559C462.186 135.559 462.906 135.868 463.523 136.485C463.934 137.206 464.243 138.132 464.243 139.264V171.994C464.243 173.229 463.934 174.155 463.523 174.67C462.906 175.287 462.186 175.493 461.26 175.493C460.232 175.493 459.512 175.287 459.1 174.67C458.689 174.155 458.483 173.229 458.483 171.994V163.143L441.513 163.863H441.41C441.102 165.098 440.588 166.23 439.765 166.951C438.428 168.186 436.577 168.803 434.314 169.009L422.898 169.833C419.812 170.244 417.55 169.627 416.11 168.186C414.567 166.848 413.847 164.583 413.847 161.496V150.174C413.847 148.013 414.361 146.263 415.596 145.028C416.727 143.793 418.578 143.072 421.047 142.764ZM435.96 148.219C435.96 147.704 435.754 147.292 435.548 146.984C435.137 146.778 434.725 146.675 434.314 146.675L421.149 148.116C420.532 148.322 420.121 148.527 419.915 148.836C419.607 149.248 419.504 149.66 419.504 150.174V161.496C419.504 162.628 419.71 163.451 420.327 163.863C420.738 164.481 421.561 164.686 422.795 164.481L434.211 163.554C434.725 163.554 435.137 163.451 435.548 163.143C435.754 162.937 435.96 162.525 435.96 161.907V148.219ZM433.903 182.286C433.8 183.11 433.8 183.933 433.8 184.551C433.697 185.271 433.697 185.991 433.697 186.609C433.697 187.227 433.697 187.844 433.8 188.462C433.8 189.079 433.8 189.697 433.903 190.314C433.903 191.138 434.108 191.652 434.52 191.961C434.828 192.373 435.651 192.579 436.885 192.476C438.531 192.476 440.382 192.27 442.542 192.064C444.599 191.858 446.759 191.652 449.021 191.241C451.284 191.035 453.444 190.623 455.604 190.211C457.66 189.903 459.615 189.594 461.26 189.182C462.083 189.079 462.7 189.285 463.317 189.697C463.831 190.211 464.243 190.726 464.448 191.344C464.551 192.064 464.551 192.682 464.346 193.299C464.037 194.02 463.523 194.431 462.906 194.637C461.054 195.255 458.997 195.666 456.632 196.078C454.164 196.49 451.592 196.901 449.021 197.21C446.347 197.622 443.673 197.828 441.205 197.931C438.634 198.136 436.371 198.239 434.52 198.239C432.668 198.239 431.126 197.828 429.994 196.798C428.76 195.975 428.143 194.534 428.04 192.682C427.835 190.829 427.732 189.079 427.835 187.432C427.835 185.786 427.835 184.036 428.04 182.183C428.04 181.36 428.349 180.64 429.069 180.125C429.686 179.713 430.303 179.404 431.126 179.404C431.743 179.404 432.463 179.713 433.08 180.125C433.594 180.742 433.903 181.463 433.903 182.286ZM441.616 151.615V158.408L458.483 157.791V150.998L441.616 151.615Z" fill="#FFCC66"/>
<path d="M434.519 198.973C432.345 198.973 430.714 198.444 429.495 197.341C428.187 196.474 427.423 194.901 427.305 192.724C427.07 190.622 427.012 188.916 427.1 187.387C427.1 185.74 427.1 183.991 427.305 182.109C427.305 181.079 427.761 180.153 428.642 179.536C429.289 179.109 430.068 178.683 431.125 178.683C432.08 178.683 433.006 179.212 433.491 179.521L433.653 179.668C434.314 180.462 434.652 181.344 434.652 182.3V182.388C434.549 183.167 434.549 183.976 434.549 184.564C434.446 185.343 434.446 186.02 434.446 186.623C434.446 187.225 434.446 187.799 434.534 188.358C434.534 189.078 434.534 189.651 434.637 190.21C434.637 191.151 434.887 191.328 434.975 191.386L435.122 191.533C435.181 191.607 435.636 191.857 436.841 191.754C438.266 191.754 439.794 191.607 441.542 191.431L442.791 191.313C444.76 191.122 446.788 190.916 448.903 190.534C451.196 190.328 453.37 189.901 455.486 189.504C457.543 189.196 459.497 188.887 461.098 188.475C462.112 188.343 462.906 188.534 463.743 189.093L463.861 189.181C464.36 189.681 464.889 190.298 465.168 191.122C465.33 192.166 465.286 192.871 465.065 193.548C464.669 194.474 464.037 195.062 463.155 195.356C461.304 195.974 459.262 196.386 456.779 196.827C454.34 197.238 451.739 197.65 449.124 197.959C446.744 198.326 444.172 198.562 441.249 198.679C438.721 198.885 436.459 198.988 434.534 198.988L434.519 198.973ZM431.125 180.138C430.494 180.138 430.023 180.374 429.48 180.741C429.01 181.079 428.775 181.55 428.775 182.182C428.569 184.079 428.569 185.784 428.569 187.431C428.481 188.916 428.54 190.548 428.775 192.607C428.877 194.342 429.421 195.533 430.406 196.194C431.419 197.106 432.742 197.503 434.519 197.503C436.4 197.503 438.633 197.4 441.146 197.194C444.04 197.077 446.567 196.841 448.903 196.474C451.504 196.165 454.09 195.739 456.5 195.342C458.924 194.915 460.907 194.518 462.656 193.93C463.126 193.768 463.449 193.474 463.655 193.004C463.787 192.622 463.802 192.136 463.699 191.445C463.596 191.166 463.317 190.769 462.832 190.269C462.318 189.946 461.892 189.843 461.333 189.916C459.747 190.313 457.763 190.637 455.691 190.945C453.576 191.342 451.372 191.769 449.065 191.975C446.949 192.357 444.892 192.563 442.909 192.769L441.66 192.886C439.867 193.063 438.31 193.21 436.87 193.21C435.504 193.327 434.505 193.077 433.99 192.489C433.432 192.019 433.153 191.313 433.153 190.313C433.05 189.754 433.05 189.093 433.05 188.461C432.947 187.902 432.947 187.24 432.947 186.608C432.947 185.976 432.947 185.211 433.065 184.446C433.065 183.932 433.065 183.094 433.153 182.241C433.153 181.682 432.947 181.168 432.565 180.668C432.036 180.33 431.493 180.124 431.111 180.124L431.125 180.138ZM461.26 176.227C460.393 176.227 459.174 176.11 458.483 175.08C457.998 174.492 457.748 173.434 457.748 171.993V163.906L441.969 164.582C441.572 165.861 440.999 166.847 440.25 167.508C438.883 168.773 436.958 169.508 434.387 169.743L422.956 170.567C419.753 170.993 417.256 170.375 415.595 168.699C413.964 167.288 413.112 164.847 413.112 161.495V150.173C413.112 147.688 413.759 145.836 415.081 144.512C416.286 143.204 418.211 142.38 420.958 142.042L434.123 140.601C436.65 140.381 438.707 140.925 440.235 142.219C441.102 143.174 441.631 144.174 441.983 145.409L457.748 144.836V139.263C457.748 137.999 457.983 136.94 458.468 136.117C459.041 135.249 459.982 134.823 461.26 134.823C462.362 134.823 463.273 135.19 464.037 135.97L464.154 136.131C464.698 137.087 464.977 138.146 464.977 139.278V172.007C464.977 173.316 464.669 174.434 464.096 175.139C463.317 175.919 462.465 176.242 461.26 176.242V176.227ZM459.218 162.377V171.993C459.218 173.478 459.541 174.037 459.673 174.213C459.879 174.507 460.187 174.757 461.26 174.757C462.068 174.757 462.568 174.581 463.008 174.154C463.082 174.051 463.508 173.404 463.508 171.993V139.263C463.508 138.425 463.317 137.631 462.935 136.94C462.465 136.499 461.936 136.293 461.26 136.293C460.114 136.293 459.805 136.749 459.717 136.896C459.394 137.455 459.218 138.263 459.218 139.263V146.247L440.823 146.909L440.69 146.306C440.411 145.012 439.97 144.101 439.221 143.248C438.09 142.292 436.4 141.851 434.284 142.042L421.134 143.483C418.784 143.777 417.109 144.453 416.139 145.512C415.081 146.571 414.582 148.085 414.582 150.158V161.48C414.582 164.391 415.257 166.464 416.594 167.611C417.961 168.964 420.033 169.464 422.809 169.082L434.27 168.258C436.503 168.052 438.134 167.449 439.28 166.391C439.926 165.832 440.396 164.92 440.705 163.671L440.837 163.112H441.41L459.218 162.362V162.377ZM421.928 165.303C420.973 165.303 420.253 164.994 419.783 164.391C418.857 163.685 418.754 162.406 418.754 161.495V150.173C418.754 149.467 418.931 148.909 419.313 148.394C419.651 147.894 420.282 147.629 420.899 147.424L421.046 147.394L434.211 145.953C434.74 145.953 435.342 146.071 435.856 146.335L436.033 146.424L436.136 146.585C436.503 147.129 436.665 147.659 436.665 148.232V161.921C436.665 162.641 436.429 163.274 436.033 163.671C435.445 164.127 434.887 164.303 434.181 164.303L422.824 165.229C422.501 165.288 422.192 165.317 421.913 165.317L421.928 165.303ZM421.311 148.835C420.767 149.026 420.591 149.159 420.532 149.232C420.312 149.526 420.238 149.761 420.238 150.158V161.48C420.238 162.436 420.4 163.009 420.738 163.244L420.943 163.45C421.237 163.891 422.045 163.847 422.677 163.744L434.152 162.803C434.608 162.803 434.857 162.73 435.107 162.539C435.107 162.539 435.225 162.303 435.225 161.892V148.203C435.225 147.982 435.166 147.776 435.034 147.541C434.784 147.438 434.549 147.394 434.314 147.394L421.311 148.82V148.835ZM440.881 159.171V150.908L459.218 150.232V158.495L440.881 159.171ZM442.351 152.32V157.642L457.748 157.084V151.761L442.351 152.32Z" fill="#FFCD54"/>
<path d="M514.123 182.698C511.963 182.698 510.112 182.389 508.57 181.771C506.924 181.154 505.484 180.228 504.25 178.992C503.016 177.86 502.09 176.419 501.473 174.773C500.856 173.126 500.547 171.273 500.547 169.112C500.547 166.333 500.856 163.76 501.679 161.393C502.296 159.128 503.427 157.07 505.073 155.217C506.513 153.57 508.158 152.232 510.009 151.203C511.861 150.277 513.815 149.762 516.077 149.762C518.134 149.762 520.088 150.174 521.837 150.894C523.482 151.718 525.025 152.644 526.465 153.879C526.568 153.982 526.671 154.188 526.774 154.291C527.082 154.291 527.391 154.188 527.699 154.188L546.932 153.262V142.866C546.932 141.734 547.138 140.808 547.549 140.087C547.96 139.47 548.68 139.161 549.709 139.161C550.634 139.161 551.354 139.47 551.971 140.087C552.383 140.808 552.691 141.734 552.691 142.866V186.506C552.691 187.741 552.383 188.667 551.971 189.182C551.354 189.799 550.634 190.005 549.709 190.005C548.68 190.005 547.96 189.799 547.549 189.182C547.138 188.667 546.932 187.741 546.932 186.506V172.714L528.111 173.64C527.391 174.876 526.568 176.111 525.642 177.243C523.997 179.095 522.145 180.536 520.294 181.36C518.34 182.286 516.283 182.698 514.123 182.698ZM524.717 164.686C524.717 163.142 524.511 161.804 524.1 160.569C523.585 159.437 522.968 158.408 522.145 157.584C521.22 156.864 520.294 156.246 519.266 155.835C518.237 155.423 517.106 155.217 516.077 155.217C514.638 155.217 513.403 155.629 512.272 156.246C511.038 156.967 510.009 157.893 509.084 159.128C508.055 160.569 507.438 162.113 507.027 163.76C506.513 165.407 506.307 167.259 506.307 169.112C506.307 170.553 506.41 171.788 506.821 172.817C507.027 173.846 507.541 174.67 508.364 175.287C508.981 176.008 509.804 176.522 510.832 176.728C511.758 177.14 512.889 177.243 514.123 177.243C515.357 177.243 516.694 176.934 517.929 176.316C519.163 175.802 520.294 174.875 521.426 173.537C522.454 172.302 523.277 170.964 523.894 169.421C524.408 167.98 524.717 166.436 524.717 164.686ZM529.756 159.54C530.168 161.187 530.476 162.833 530.476 164.686C530.476 165.921 530.373 166.95 530.168 168.083L546.932 167.259V158.717L529.756 159.54Z" fill="#FFCC66"/>
<path d="M549.708 190.74C548.842 190.74 547.622 190.623 546.932 189.594C546.447 189.005 546.197 187.947 546.197 186.506V173.479L528.536 174.346C527.787 175.596 527.008 176.713 526.2 177.699C524.437 179.684 522.498 181.169 520.588 182.021C518.604 182.962 516.489 183.418 514.123 183.418C511.875 183.418 509.921 183.095 508.29 182.433C506.571 181.786 505.028 180.801 503.721 179.492C502.442 178.316 501.443 176.802 500.782 175.008C500.121 173.258 499.812 171.332 499.812 169.082C499.812 165.995 500.194 163.392 500.988 161.113C501.62 158.79 502.81 156.629 504.529 154.688C506.013 152.982 507.747 151.585 509.657 150.512C511.728 149.468 513.815 148.983 516.077 148.983C518.178 148.983 520.206 149.38 522.116 150.174C524.099 151.159 525.613 152.144 526.95 153.276C527.023 153.335 527.067 153.409 527.126 153.468C527.317 153.438 527.523 153.409 527.714 153.409L546.212 152.512V142.808C546.212 141.558 546.447 140.499 546.932 139.661C547.505 138.779 548.445 138.367 549.723 138.367C550.825 138.367 551.736 138.735 552.5 139.514L552.618 139.676C553.161 140.631 553.44 141.675 553.44 142.822V186.462C553.44 187.77 553.132 188.888 552.559 189.594C551.78 190.373 550.928 190.696 549.723 190.696L549.708 190.74ZM547.666 171.95V186.521C547.666 188.006 547.989 188.564 548.122 188.741C548.327 189.035 548.636 189.285 549.708 189.285C550.517 189.285 551.016 189.108 551.457 188.682C551.53 188.579 551.956 187.932 551.956 186.521V142.881C551.956 142.043 551.765 141.264 551.383 140.558C550.913 140.117 550.384 139.911 549.708 139.911C548.562 139.911 548.254 140.367 548.166 140.514C547.843 141.073 547.666 141.881 547.666 142.881V153.982L527.728 154.938C527.581 154.938 527.464 154.967 527.346 154.982C527.155 155.011 526.95 155.041 526.759 155.041H526.45L526.23 154.82C526.142 154.747 526.068 154.629 525.98 154.497C524.731 153.394 523.306 152.468 521.484 151.556C519.794 150.865 517.958 150.497 516.048 150.497C513.991 150.497 512.169 150.924 510.303 151.865C508.555 152.835 506.968 154.129 505.587 155.702C504.015 157.467 502.927 159.437 502.354 161.584C501.605 163.745 501.252 166.201 501.252 169.112C501.252 171.17 501.546 172.935 502.134 174.508C502.722 176.081 503.588 177.419 504.72 178.448C505.895 179.625 507.262 180.507 508.804 181.08C510.274 181.668 512.051 181.963 514.094 181.963C516.136 181.963 518.149 181.551 519.956 180.698C521.704 179.919 523.468 178.551 525.069 176.758C525.877 175.772 526.685 174.581 527.449 173.273L527.655 172.935L547.652 171.95H547.666ZM514.123 177.978C513.08 177.978 511.743 177.919 510.612 177.434C509.524 177.199 508.599 176.655 507.864 175.831C506.938 175.111 506.336 174.14 506.101 172.964C505.645 171.847 505.572 170.376 505.572 169.112C505.572 167.009 505.822 165.142 506.321 163.539C506.791 161.657 507.482 160.099 508.481 158.702C509.466 157.393 510.582 156.379 511.89 155.614C513.286 154.85 514.652 154.482 516.062 154.482C517.223 154.482 518.457 154.717 519.53 155.158C520.5 155.541 521.44 156.114 522.586 157.011C523.453 157.879 524.143 158.922 524.761 160.275C525.231 161.672 525.436 163.098 525.436 164.701C525.436 166.421 525.157 168.053 524.57 169.685C523.938 171.273 523.086 172.685 521.969 174.023C520.735 175.493 519.501 176.464 518.193 177.008C516.929 177.64 515.49 177.993 514.108 177.993L514.123 177.978ZM516.077 155.952C514.887 155.952 513.8 156.246 512.624 156.893C511.478 157.555 510.538 158.423 509.671 159.569C508.79 160.804 508.173 162.201 507.732 163.936C507.262 165.436 507.027 167.156 507.027 169.112C507.027 170.7 507.159 171.729 507.482 172.538C507.688 173.523 508.099 174.184 508.79 174.684L508.907 174.802C509.451 175.434 510.141 175.831 510.964 176.008L511.111 176.052C511.816 176.361 512.742 176.508 514.108 176.508C515.254 176.508 516.489 176.199 517.591 175.655C518.722 175.184 519.765 174.332 520.852 173.052C521.866 171.847 522.63 170.553 523.203 169.141C523.717 167.7 523.967 166.23 523.967 164.671C523.967 163.231 523.776 161.951 523.394 160.79C522.88 159.672 522.292 158.761 521.616 158.084C520.647 157.334 519.824 156.835 518.986 156.496C518.075 156.129 517.047 155.938 516.062 155.938L516.077 155.952ZM529.271 168.862L529.433 167.95C529.638 166.803 529.727 165.833 529.727 164.686C529.727 162.775 529.374 161.099 529.021 159.716L528.801 158.849L547.637 157.952V167.965L529.242 168.877L529.271 168.862ZM530.667 160.231C530.961 161.525 531.196 163.01 531.196 164.686C531.196 165.598 531.137 166.436 531.02 167.303L546.182 166.553V159.481L530.652 160.231H530.667Z" fill="#FFCD54"/>
<path d="M566.886 147.806C565.652 148.218 564.726 148.321 564.109 147.909C563.492 147.6 563.183 146.983 563.183 145.954C562.977 145.233 563.08 144.616 563.697 143.998C564.212 143.483 565.137 143.072 566.371 142.66L576.245 139.984C580.976 138.749 584.576 138.749 587.044 139.778C589.409 141.013 590.644 143.278 590.644 146.674C590.644 148.012 590.232 149.35 589.409 150.688C588.69 151.717 587.867 152.849 586.941 153.982L595.889 161.392C596.712 162.215 597.226 163.039 597.432 163.759C597.534 164.583 597.329 165.406 596.712 166.024C596.095 166.744 595.477 167.053 594.758 166.847C593.935 166.744 593.112 166.229 592.289 165.406L582.93 157.79L572.542 167.567C571.617 168.494 570.794 169.008 570.074 169.111C569.251 169.317 568.634 169.008 568.12 168.185C567.4 167.567 567.194 166.847 567.4 166.024C567.503 165.303 568.017 164.48 568.943 163.553L582.21 151.1C583.033 150.276 583.65 149.556 584.164 148.732C584.576 148.012 584.781 147.292 584.781 146.674C584.781 145.645 584.267 144.924 583.239 144.616C582.107 144.41 580.565 144.41 578.508 144.821L566.886 147.806ZM615.739 184.653C615.739 186.608 615.327 188.358 614.607 190.005C613.784 191.754 612.756 193.298 611.522 194.739C610.082 196.18 608.333 197.312 606.482 197.93C604.425 198.753 602.265 199.062 599.797 199.062C597.534 199.062 595.477 198.856 593.832 198.239C592.083 197.724 590.644 196.901 589.615 195.665C588.381 194.636 587.455 193.401 586.941 191.857C586.324 190.416 586.015 188.77 586.015 186.917C586.015 184.859 586.324 183.006 587.044 181.153C587.661 179.404 588.792 177.757 590.232 176.213C591.466 174.772 593.112 173.64 595.066 172.816C596.917 172.096 599.18 171.684 601.648 171.684C603.705 171.684 605.557 171.993 607.305 172.611C608.951 173.331 610.39 174.257 611.727 175.287C612.962 176.522 613.887 177.963 614.71 179.404C615.327 181.05 615.739 182.8 615.739 184.653ZM610.082 184.653C610.082 183.623 609.876 182.697 609.568 181.668C609.156 180.844 608.539 180.021 607.922 179.198C607.099 178.58 606.277 178.066 605.248 177.654C604.22 177.345 602.985 177.139 601.648 177.139C600.003 177.139 598.666 177.448 597.432 177.86C596.095 178.374 595.066 179.095 594.243 180.021C593.215 181.05 592.598 182.183 592.289 183.212C591.878 184.447 591.672 185.682 591.672 186.917C591.672 188.049 591.775 188.975 592.186 189.799C592.392 190.725 592.906 191.446 593.626 191.96C594.243 192.578 595.066 192.989 596.095 193.195C597.123 193.504 598.357 193.607 599.797 193.607C601.34 193.607 602.78 193.401 604.117 192.887C605.351 192.475 606.379 191.754 607.305 190.622C608.128 189.799 608.745 188.77 609.362 187.74C609.773 186.711 610.082 185.682 610.082 184.653ZM599.9 155.422C598.974 155.422 598.357 155.217 597.946 154.702C597.432 154.29 597.226 153.673 597.226 152.746C597.226 151.923 597.432 151.203 597.946 150.688C598.357 150.276 598.974 149.968 599.9 149.968H610.596V138.44C610.596 137.308 610.802 136.382 611.316 135.661C611.727 135.044 612.345 134.735 613.373 134.735C614.299 134.735 615.019 135.044 615.636 135.661C616.15 136.382 616.458 137.308 616.458 138.44V166.744C616.458 167.979 616.15 168.905 615.636 169.42C615.019 170.038 614.299 170.243 613.373 170.243C612.345 170.243 611.727 170.038 611.316 169.42C610.802 168.905 610.596 167.979 610.596 166.744V155.422H599.9Z" fill="#FFCC66"/>
<path d="M599.796 199.797C597.137 199.797 595.154 199.518 593.567 198.93C591.657 198.371 590.114 197.43 589.041 196.136C587.719 195.048 586.764 193.696 586.235 192.093C585.603 190.623 585.265 188.858 585.265 186.917C585.265 184.697 585.603 182.786 586.338 180.889C586.94 179.169 588.042 177.463 589.673 175.713C590.937 174.243 592.656 173.023 594.757 172.14C596.755 171.361 599.135 170.949 601.618 170.949C603.749 170.949 605.673 171.258 607.525 171.92C609.112 172.611 610.595 173.508 612.153 174.714C613.593 176.14 614.562 177.698 615.326 179.051C616.105 181.095 616.458 182.889 616.458 184.668C616.458 186.623 616.061 188.476 615.268 190.314C614.43 192.078 613.387 193.681 612.065 195.239C610.463 196.842 608.627 198.004 606.702 198.651C604.733 199.445 602.515 199.812 599.782 199.812L599.796 199.797ZM601.648 172.42C599.326 172.42 597.152 172.787 595.33 173.508C593.449 174.302 591.921 175.375 590.79 176.698C589.291 178.301 588.277 179.874 587.734 181.404C587.058 183.139 586.749 184.888 586.749 186.917C586.749 188.667 587.043 190.226 587.616 191.564C588.086 192.96 588.88 194.093 590.085 195.092C591.069 196.254 592.333 197.018 594.037 197.533C595.477 198.077 597.343 198.327 599.796 198.327C602.25 198.327 604.366 197.989 606.202 197.254C607.951 196.666 609.596 195.622 610.992 194.225C612.197 192.813 613.167 191.328 613.931 189.696C614.636 188.064 614.989 186.417 614.989 184.653C614.989 183.065 614.665 181.433 614.004 179.669C613.328 178.507 612.432 177.051 611.183 175.816C609.802 174.758 608.406 173.92 606.981 173.287C605.35 172.714 603.572 172.42 601.618 172.42H601.648ZM599.796 194.342C598.107 194.342 596.902 194.21 595.888 193.901C594.786 193.681 593.831 193.196 593.111 192.49C592.333 191.946 591.745 191.078 591.495 190.049C591.01 189.035 590.937 187.947 590.937 186.917C590.937 185.609 591.157 184.285 591.598 182.977C591.98 181.727 592.715 180.521 593.728 179.492C594.625 178.478 595.756 177.713 597.166 177.169C598.783 176.64 600.149 176.404 601.648 176.404C602.955 176.404 604.263 176.596 605.453 176.948C606.496 177.36 607.363 177.86 608.362 178.61L608.509 178.757C609.141 179.595 609.787 180.463 610.228 181.345C610.551 182.403 610.816 183.447 610.816 184.653C610.816 185.638 610.581 186.682 610.052 188.02C609.376 189.182 608.715 190.255 607.833 191.152C606.878 192.313 605.732 193.137 604.351 193.593C603.043 194.093 601.545 194.342 599.796 194.342ZM601.648 177.875C600.311 177.875 599.077 178.081 597.666 178.551C596.505 178.992 595.565 179.639 594.801 180.507C593.699 181.609 593.214 182.697 592.994 183.418C592.597 184.594 592.406 185.77 592.406 186.917C592.406 188.064 592.538 188.843 592.847 189.476L592.906 189.652C593.067 190.358 593.449 190.946 594.052 191.372C594.669 191.961 595.345 192.299 596.241 192.49C597.166 192.769 598.283 192.887 599.796 192.887C601.31 192.887 602.676 192.666 603.852 192.21C604.998 191.828 605.909 191.181 606.731 190.167C607.539 189.358 608.112 188.388 608.73 187.373C609.141 186.329 609.347 185.462 609.347 184.668C609.347 183.874 609.2 183.036 608.862 181.889C608.539 181.271 607.966 180.492 607.393 179.727C606.54 179.095 605.806 178.683 604.968 178.345C603.969 178.051 602.808 177.875 601.633 177.875H601.648ZM613.372 170.979C612.432 170.979 611.374 170.847 610.698 169.832C610.155 169.303 609.861 168.288 609.861 166.744V156.158H599.899C599.179 156.158 598.136 156.055 597.416 155.232C596.579 154.511 596.491 153.482 596.491 152.747C596.491 151.659 596.799 150.791 597.431 150.174C598.048 149.556 598.885 149.233 599.899 149.233H609.861V138.44C609.861 137.088 610.14 136.044 610.713 135.235C611.257 134.412 612.138 134 613.372 134C614.474 134 615.385 134.368 616.149 135.147C616.869 136.132 617.192 137.205 617.192 138.44V166.744C617.192 168.156 616.84 169.259 616.149 169.935C615.429 170.655 614.577 170.979 613.372 170.979ZM599.899 150.703C599.267 150.703 598.797 150.865 598.459 151.203C598.121 151.541 597.96 152.056 597.96 152.747C597.96 153.658 598.18 153.952 598.401 154.129L598.518 154.246C598.694 154.467 598.988 154.688 599.899 154.688H611.33V166.744C611.33 168.112 611.609 168.67 611.83 168.906C612.094 169.288 612.344 169.523 613.372 169.523C614.18 169.523 614.68 169.347 615.121 168.92C615.503 168.538 615.723 167.744 615.723 166.759V138.455C615.723 137.529 615.488 136.735 615.033 136.103C614.621 135.706 614.078 135.485 613.372 135.485C612.447 135.485 612.138 135.779 611.933 136.088C611.521 136.661 611.33 137.411 611.33 138.455V150.718H599.899V150.703ZM569.603 169.92C568.971 169.92 568.193 169.656 567.561 168.67C566.723 167.906 566.415 166.935 566.694 165.847C566.812 165.039 567.385 164.083 568.428 163.039L581.71 150.571C582.547 149.733 583.091 149.071 583.546 148.35C583.87 147.792 584.046 147.189 584.046 146.689C584.046 145.969 583.737 145.542 583.032 145.336C581.916 145.13 580.417 145.204 578.654 145.557L567.091 148.527C566.018 148.88 564.681 149.189 563.697 148.527C562.918 148.145 562.463 147.292 562.448 146.057C562.198 145.072 562.448 144.219 563.183 143.484C563.741 142.925 564.622 142.469 566.15 141.969L576.068 139.278C580.843 138.029 584.634 137.97 587.337 139.102C590.041 140.514 591.392 143.057 591.392 146.674C591.392 148.145 590.937 149.63 590.041 151.071C589.526 151.806 588.806 152.82 587.969 153.879L596.358 160.834C597.299 161.76 597.886 162.701 598.136 163.568C598.298 164.789 597.975 165.818 597.225 166.553C596.432 167.479 595.521 167.847 594.551 167.568C593.699 167.465 592.759 166.935 591.76 165.936L582.959 158.775L573.041 168.112C572.013 169.141 571.058 169.714 570.176 169.847C570 169.891 569.809 169.92 569.603 169.92ZM581.622 143.748C582.253 143.748 582.826 143.792 583.37 143.895C584.766 144.307 585.515 145.307 585.515 146.674C585.515 147.439 585.265 148.277 584.795 149.1C584.266 149.938 583.649 150.688 582.724 151.615L569.442 164.083C568.457 165.068 568.178 165.744 568.119 166.127C567.958 166.788 568.105 167.215 568.589 167.627L568.736 167.803C569.133 168.45 569.471 168.509 569.897 168.406C570.353 168.332 571.014 168.053 572.027 167.053L582.9 156.82L592.759 164.848C593.552 165.642 594.243 166.053 594.86 166.127C595.168 166.2 595.521 166.303 596.167 165.553C596.74 164.98 596.77 164.318 596.711 163.862C596.549 163.348 596.079 162.613 595.374 161.922L585.912 154.099L586.367 153.541C587.367 152.32 588.233 151.1 588.806 150.291C589.526 149.115 589.908 147.895 589.908 146.704C589.908 143.631 588.865 141.587 586.705 140.455C584.355 139.484 580.887 139.558 576.435 140.719L566.562 143.395C565.812 143.645 564.711 144.057 564.211 144.542C563.829 144.925 563.741 145.248 563.888 145.777L563.917 145.983C563.917 147.027 564.284 147.204 564.431 147.277C564.857 147.556 565.563 147.498 566.65 147.13H566.694L578.316 144.131C579.521 143.881 580.623 143.763 581.607 143.763L581.622 143.748Z" fill="#FFCD54"/>
</svg>
