<svg width="815" height="1185" viewBox="0 0 815 1185" fill="none" xmlns="http://www.w3.org/2000/svg">
<path d="M758.475 1185H55.8612C25.0655 1185 0 1159.93 0 1129.1V55.9021C0 25.0839 25.0509 0 55.8612 0H758.475C789.271 0 814.336 25.0692 814.336 55.9021V1129.1C814.336 1159.92 789.286 1185 758.475 1185ZM55.8612 11.7774C31.545 11.7774 11.7541 31.568 11.7541 55.9168V1129.11C11.7541 1153.45 31.5303 1173.25 55.8612 1173.25H758.475C782.791 1173.25 802.582 1153.46 802.582 1129.11V55.9021C802.582 31.5681 782.806 11.7627 758.475 11.7627H55.8612V11.7774Z" fill="#FFCC66"/>
<path d="M55.8612 11.7774C31.545 11.7774 11.7541 31.568 11.7541 55.9168V1129.11C11.7541 1153.45 31.5303 1173.25 55.8612 1173.25H758.475C782.791 1173.25 802.582 1153.46 802.582 1129.11V55.9021C802.582 31.5681 782.806 11.7627 758.475 11.7627H55.8612V11.7774Z" fill="white" fill-opacity="0.1"/>
<path d="M263.556 1143.12H158.43C155.83 1143.12 153.523 1141.39 152.788 1138.9C152.054 1136.4 153.053 1133.71 155.242 1132.29C156.991 1131.16 161.222 1127.9 162.706 1121.97C164.528 1114.66 160.678 1108.78 159.885 1107.68C158.225 1105.36 158.474 1102.17 160.473 1100.14C162.471 1098.09 165.644 1097.8 167.995 1099.42C180.866 1108.31 194.839 1115.5 209.517 1120.8C226.942 1127.07 245.19 1130.63 263.776 1131.37C266.979 1131.5 269.477 1134.16 269.418 1137.37C269.359 1140.57 266.744 1143.13 263.541 1143.13L263.556 1143.12ZM171.58 1131.35H204.183C194.075 1127.62 184.289 1123.05 174.945 1117.68C174.974 1119.91 174.724 1122.3 174.107 1124.79C173.505 1127.25 172.609 1129.43 171.58 1131.34V1131.35Z" fill="#FFCC66"/>
<path d="M45.1212 1035.31C44.5629 1035.31 44.0192 1035.24 43.4609 1035.08C40.9632 1034.34 39.2441 1032.05 39.2441 1029.43V924.227C39.2441 921.022 41.8006 918.405 45.0036 918.346C45.0477 918.346 45.0771 918.346 45.1212 918.346C48.2654 918.346 50.866 920.831 50.9982 923.992C51.7328 942.577 55.2884 960.853 61.5622 978.276C66.8515 992.965 74.0362 1006.95 82.9252 1019.84C84.5414 1022.2 84.2475 1025.37 82.2053 1027.37C80.163 1029.37 76.9894 1029.62 74.668 1027.96C73.566 1027.17 67.689 1023.31 60.3868 1025.14C54.4657 1026.61 51.2039 1030.84 50.0726 1032.61C48.9706 1034.33 47.09 1035.3 45.1359 1035.3L45.1212 1035.31ZM50.9982 983.643V1016.27C52.9229 1015.24 55.0974 1014.36 57.5364 1013.74C60.0341 1013.12 62.429 1012.87 64.6476 1012.9C59.2848 1003.55 54.7154 993.759 50.9835 983.643H50.9982Z" fill="#FFCC66"/>
<path d="M129.456 1138.41C127.825 1138.41 126.209 1138.18 124.637 1137.69C116.865 1135.35 111.267 1127.37 110.738 1117.84C110.561 1114.59 113.03 1111.83 116.277 1111.64C119.495 1111.44 122.286 1113.93 122.477 1117.18C122.727 1121.71 125.019 1125.52 128.031 1126.43C130.573 1127.19 133.261 1125.62 134.261 1125.03C138.757 1122.4 141.607 1116.33 140.769 1111.21C139.535 1103.73 129.985 1098.61 122.051 1098.61C121.963 1098.61 121.86 1098.61 121.772 1098.61C111.355 1098.77 101.584 1108.61 99.0719 1121.5C98.4401 1124.69 95.3546 1126.77 92.181 1126.15C88.9927 1125.52 86.9211 1122.43 87.5382 1119.24C91.1672 1100.73 105.493 1087.1 121.596 1086.85C134.643 1086.61 150.055 1095.17 152.391 1109.28C154.022 1119.21 148.909 1130.09 140.226 1135.18C136.567 1137.32 132.968 1138.4 129.5 1138.4L129.456 1138.41Z" fill="#FFCC66"/>
<path d="M60.0051 1100.74C57.2576 1100.74 54.7892 1098.8 54.2456 1095.99C53.6285 1092.8 55.7002 1089.71 58.8885 1089.1C71.7739 1086.57 81.6032 1076.8 81.7648 1066.38C81.8824 1058.38 76.7546 1048.6 69.1733 1047.35C64.0602 1046.51 57.9922 1049.37 55.3622 1053.87C54.7745 1054.88 53.2024 1057.56 53.9665 1060.1C54.8774 1063.11 58.6681 1065.39 63.2081 1065.66C66.4551 1065.83 68.9235 1068.61 68.7472 1071.86C68.5709 1075.11 65.794 1077.58 62.5469 1077.41C53.0261 1076.86 45.0481 1071.27 42.7119 1063.5C41.228 1058.56 42.0655 1053.32 45.2097 1047.94C50.2786 1039.25 61.1658 1034.12 71.0833 1035.77C85.2029 1038.09 93.7099 1053.57 93.5042 1066.58C93.2544 1082.7 79.6344 1097.03 61.1364 1100.67C60.7544 1100.74 60.3724 1100.78 60.0051 1100.78V1100.74Z" fill="#FFCC66"/>
<path d="M657.743 1143.11H552.618C549.415 1143.11 546.8 1140.56 546.741 1137.35C546.682 1134.15 549.18 1131.48 552.383 1131.35C570.969 1130.62 589.217 1127.06 606.643 1120.78C621.321 1115.49 635.293 1108.3 648.164 1099.4C650.515 1097.78 653.688 1098.08 655.687 1100.12C657.685 1102.17 657.934 1105.34 656.274 1107.67C655.481 1108.77 651.646 1114.63 653.453 1121.96C654.923 1127.88 659.154 1131.15 660.917 1132.28C663.106 1133.69 664.105 1136.38 663.371 1138.88C662.636 1141.38 660.344 1143.1 657.729 1143.1L657.743 1143.11ZM611.991 1131.35H644.594C643.565 1129.43 642.684 1127.25 642.067 1124.81C641.449 1122.31 641.2 1119.93 641.229 1117.69C631.885 1123.06 622.099 1127.63 611.991 1131.37V1131.35Z" fill="#FFCC66"/>
<path d="M771.053 1035.31C769.099 1035.31 767.218 1034.33 766.116 1032.62C764.985 1030.87 761.723 1026.64 755.802 1025.15C748.5 1023.33 742.623 1027.18 741.521 1027.97C739.199 1029.64 736.011 1029.39 733.984 1027.39C731.941 1025.39 731.647 1022.21 733.264 1019.86C742.153 1006.96 749.337 992.995 754.627 978.292C760.9 960.854 764.456 942.592 765.191 924.007C765.323 920.802 767.938 918.258 771.185 918.361C774.388 918.42 776.945 921.037 776.945 924.242V1029.44C776.945 1032.05 775.226 1034.36 772.728 1035.09C772.184 1035.25 771.626 1035.33 771.068 1035.33L771.053 1035.31ZM751.835 1012.89C753.98 1012.89 756.257 1013.14 758.638 1013.73C761.091 1014.34 763.266 1015.23 765.176 1016.26V983.629C761.444 993.745 756.875 1003.54 751.512 1012.89C751.615 1012.89 751.717 1012.89 751.82 1012.89H751.835Z" fill="#FFCC66"/>
<path d="M686.732 1138.41C683.25 1138.41 679.665 1137.34 676.006 1135.19C667.323 1130.12 662.195 1119.22 663.841 1109.3C666.148 1095.34 681.281 1086.85 694.181 1086.85C694.328 1086.85 694.49 1086.85 694.636 1086.85C710.74 1087.1 725.065 1100.73 728.694 1119.24C729.311 1122.43 727.239 1125.52 724.051 1126.15C720.863 1126.76 717.777 1124.69 717.16 1121.5C714.633 1108.61 704.877 1098.77 694.46 1098.61C694.372 1098.61 694.269 1098.61 694.181 1098.61C686.247 1098.61 676.697 1103.72 675.463 1111.21C674.625 1116.34 677.476 1122.4 681.971 1125.03C682.985 1125.62 685.659 1127.19 688.201 1126.43C691.213 1125.52 693.49 1121.72 693.755 1117.18C693.931 1113.93 696.708 1111.46 699.955 1111.64C703.202 1111.81 705.671 1114.59 705.494 1117.84C704.965 1127.37 699.367 1135.35 691.595 1137.69C690.023 1138.16 688.407 1138.41 686.776 1138.41H686.732Z" fill="#FFCC66"/>
<path d="M756.184 1100.74C755.817 1100.74 755.435 1100.71 755.053 1100.62C736.555 1096.99 722.935 1082.65 722.685 1066.54C722.479 1053.54 731.001 1038.06 745.106 1035.72C755.023 1034.09 765.896 1039.21 770.979 1047.9C774.124 1053.28 774.961 1058.51 773.477 1063.45C771.141 1071.23 763.163 1076.83 753.642 1077.36C750.41 1077.52 747.633 1075.07 747.442 1071.82C747.265 1068.57 749.734 1065.8 752.981 1065.61C757.506 1065.36 761.312 1063.07 762.222 1060.06C762.987 1057.51 761.429 1054.82 760.827 1053.82C758.197 1049.32 752.143 1046.47 747.016 1047.31C739.449 1048.56 734.307 1058.34 734.424 1066.33C734.586 1076.76 744.415 1086.54 757.301 1089.05C760.489 1089.67 762.56 1092.77 761.943 1095.95C761.4 1098.75 758.931 1100.7 756.184 1100.7V1100.74Z" fill="#FFCC66"/>
<path d="M164.675 86.7574C163.147 86.7574 161.619 86.1545 160.488 84.993C158.49 82.9492 158.24 79.7733 159.9 77.4502C160.694 76.3474 164.528 70.4808 162.721 63.1585C161.252 57.2331 157.02 53.9689 155.257 52.8368C153.068 51.4253 152.069 48.7346 152.804 46.235C153.538 43.7354 155.83 42.0151 158.446 42.0151H263.571C266.774 42.0151 269.389 44.5735 269.448 47.7788C269.507 50.9842 267.009 53.6455 263.806 53.7778C245.235 54.513 226.972 58.0712 209.546 64.3495C194.868 69.6427 180.896 76.8326 168.025 85.7281C167.011 86.4339 165.851 86.7721 164.69 86.7721L164.675 86.7574ZM171.581 53.7778C172.609 55.7039 173.491 57.88 174.108 60.3208C174.725 62.8203 174.975 65.2023 174.945 67.4372C184.29 62.0705 194.075 57.4977 204.184 53.7631H171.581V53.7778Z" fill="#FFCC66"/>
<path d="M45.1212 266.784C45.1212 266.784 45.0477 266.784 45.0036 266.784C41.8006 266.725 39.2441 264.108 39.2441 260.903V155.701C39.2441 153.098 40.9632 150.79 43.4609 150.055C45.9587 149.319 48.6474 150.319 50.0579 152.51C51.1892 154.26 54.451 158.494 60.3721 159.979C67.6743 161.802 73.5513 157.95 74.6533 157.156C76.9747 155.495 80.163 155.745 82.1906 157.744C84.2328 159.744 84.5267 162.92 82.9105 165.272C74.0215 178.153 66.8368 192.135 61.5475 206.824C55.2738 224.262 51.7181 242.524 50.9835 261.123C50.8513 264.285 48.2654 266.77 45.1065 266.77L45.1212 266.784ZM50.9982 168.875V201.501C54.7301 191.386 59.2995 181.593 64.6623 172.242C62.429 172.271 60.0488 172.021 57.5511 171.404C55.0974 170.786 52.9229 169.904 51.0129 168.875H50.9982Z" fill="#FFCC66"/>
<path d="M122.022 98.269C121.875 98.269 121.714 98.269 121.567 98.269C105.464 98.019 91.1384 84.389 87.5094 65.8775C86.8923 62.6869 88.9639 59.5992 92.1522 58.967C95.3405 58.3347 98.4259 60.4226 99.043 63.6132C101.57 76.508 111.326 86.3446 121.743 86.5063C121.831 86.5063 121.934 86.5063 122.022 86.5063C129.956 86.5063 139.506 81.4042 140.741 73.9055C141.578 68.7741 138.728 62.7016 134.232 60.0844C133.218 59.4963 130.544 57.923 128.002 58.6876C124.99 59.5992 122.713 63.3927 122.448 67.936C122.272 71.1854 119.495 73.6703 116.248 73.4792C113.001 73.3027 110.533 70.5238 110.709 67.2743C111.238 57.7466 116.836 49.7774 124.608 47.4249C129.545 45.9398 134.775 46.7779 140.153 49.9244C148.836 55.0118 153.964 65.8922 152.318 75.817C150.026 89.7704 134.878 98.269 121.993 98.269H122.022Z" fill="#FFCC66"/>
<path d="M67.3367 149.687C58.5358 149.687 49.6468 144.82 45.2097 137.204C42.0655 131.823 41.228 126.588 42.7119 121.648C45.0481 113.87 53.0261 108.268 62.5469 107.739C65.7646 107.562 68.5562 110.032 68.7472 113.282C68.9382 116.531 66.4551 119.295 63.2081 119.487C58.6828 119.736 54.8774 122.03 53.9665 125.044C53.2024 127.588 54.7745 130.279 55.3622 131.279C57.9922 135.778 64.0456 138.63 69.1733 137.792C76.7399 136.542 81.8824 126.765 81.7648 118.766C81.6032 108.341 71.7739 98.5637 58.8885 96.0494C55.7002 95.4172 53.6285 92.3295 54.2456 89.1388C54.8627 85.9482 57.9628 83.8751 61.1364 84.4926C79.6344 88.1243 93.2544 102.46 93.5042 118.575C93.7099 131.573 85.1882 147.055 71.0833 149.393C69.8491 149.599 68.6003 149.702 67.3367 149.702V149.687Z" fill="#FFCC66"/>
<path d="M651.514 86.7569C650.354 86.7569 649.193 86.4188 648.179 85.713C635.308 76.8175 621.336 69.6276 606.658 64.3344C589.232 58.056 570.984 54.4978 552.398 53.7627C549.195 53.6303 546.697 50.969 546.756 47.7637C546.815 44.5584 549.43 42 552.633 42H657.759C660.359 42 662.666 43.7203 663.401 46.2199C664.135 48.7194 663.136 51.4101 660.947 52.8216C659.198 53.9538 654.967 57.2179 653.483 63.1434C651.661 70.4509 655.511 76.3323 656.304 77.435C657.964 79.7581 657.714 82.9488 655.716 84.9778C654.57 86.1394 653.057 86.7422 651.529 86.7422L651.514 86.7569ZM611.991 53.7774C622.1 57.512 631.885 62.0847 641.229 67.4515C641.2 65.2166 641.45 62.8346 642.067 60.3351C642.669 57.8796 643.566 55.7035 644.594 53.7921H611.991V53.7774Z" fill="#FFCC66"/>
<path d="M771.053 266.785C767.908 266.785 765.308 264.3 765.176 261.139C764.441 242.554 760.885 224.277 754.612 206.839C749.322 192.151 742.138 178.168 733.249 165.288C731.633 162.935 731.926 159.759 733.969 157.759C736.011 155.76 739.184 155.51 741.506 157.171C742.608 157.965 748.485 161.818 755.787 159.994C761.708 158.524 764.97 154.29 766.101 152.525C767.512 150.334 770.201 149.334 772.698 150.07C775.196 150.805 776.915 153.099 776.915 155.716V260.918C776.915 264.123 774.359 266.741 771.156 266.799C771.111 266.799 771.082 266.799 771.038 266.799L771.053 266.785ZM751.526 172.228C756.889 181.579 761.458 191.371 765.19 201.487V168.861C763.266 169.89 761.091 170.772 758.652 171.389C756.154 172.007 753.774 172.272 751.541 172.228H751.526Z" fill="#FFCC66"/>
<path d="M694.151 98.269C681.251 98.269 666.118 89.7851 663.826 75.817C662.195 65.8922 667.308 55.0118 675.991 49.9244C681.369 46.7779 686.599 45.9398 691.536 47.4249C699.323 49.7627 704.906 57.7466 705.435 67.2743C705.611 70.5238 703.143 73.288 699.896 73.4792C696.663 73.6556 693.887 71.1854 693.696 67.936C693.446 63.4074 691.154 59.5992 688.142 58.6876C685.6 57.923 682.911 59.4963 681.912 60.0844C677.416 62.7163 674.566 68.7888 675.403 73.9055C676.638 81.3895 686.188 86.5063 694.122 86.5063C694.225 86.5063 694.313 86.5063 694.416 86.5063C704.833 86.3446 714.603 76.508 717.116 63.6132C717.747 60.4226 720.833 58.3494 724.006 58.967C727.195 59.5845 729.266 62.6869 728.649 65.8775C725.02 84.389 710.695 98.019 694.592 98.269C694.445 98.269 694.283 98.269 694.136 98.269H694.151Z" fill="#FFCC66"/>
<path d="M748.837 149.687C747.588 149.687 746.339 149.584 745.091 149.378C730.971 147.055 722.464 131.573 722.67 118.56C722.919 102.445 736.54 88.1097 755.037 84.4779C758.226 83.8604 761.311 85.9336 761.928 89.1242C762.545 92.3148 760.474 95.4025 757.285 96.0348C744.4 98.5637 734.571 108.327 734.409 118.751C734.291 126.75 739.419 136.528 747.001 137.778C752.114 138.616 758.182 135.763 760.812 131.264C761.399 130.249 762.971 127.573 762.207 125.03C761.297 122.016 757.506 119.722 752.966 119.472C749.719 119.295 747.25 116.516 747.427 113.267C747.603 110.018 750.38 107.562 753.627 107.724C763.148 108.268 771.126 113.855 773.462 121.633C774.946 126.574 774.108 131.808 770.964 137.189C766.527 144.791 757.638 149.672 748.837 149.672V149.687Z" fill="#FFCC66"/>
<path d="M201.362 196.659C200.334 196.865 199.511 196.762 198.997 196.247C198.38 195.835 197.968 195.218 197.968 194.497C197.763 193.88 197.968 193.159 198.38 192.439C198.791 191.821 199.511 191.41 200.54 191.204C202.597 190.895 204.654 190.586 206.916 190.38C209.076 190.175 211.236 190.072 213.293 189.866C216.378 189.763 218.847 190.072 220.595 190.895C222.241 191.821 223.269 192.954 223.783 194.394C224.298 195.835 224.298 197.482 223.886 199.232C223.372 201.084 222.549 202.731 221.521 204.378C220.286 206.231 218.641 208.186 216.584 210.142C214.424 212.2 212.367 214.053 210.31 215.597C209.487 216.214 208.665 216.523 207.945 216.317C207.122 216.214 206.608 215.905 206.196 215.391C205.785 214.876 205.579 214.259 205.579 213.435C205.579 212.715 205.991 211.994 206.813 211.377C208.87 209.73 210.824 208.083 212.676 206.334C214.424 204.687 215.967 202.834 217.304 200.776C218.538 198.923 218.847 197.482 218.332 196.453C217.715 195.63 216.07 195.218 213.293 195.321C211.339 195.424 209.385 195.63 207.328 195.835C205.271 196.144 203.214 196.453 201.362 196.659ZM210.413 226.198C210.413 224.345 210.927 223.213 211.956 222.595C212.881 222.081 214.013 221.772 215.35 221.566C216.378 221.566 218.024 221.463 220.286 221.257C222.549 221.154 224.915 221.052 227.383 220.846C229.851 220.743 232.217 220.64 234.582 220.434C236.845 220.331 238.491 220.228 239.725 220.022C241.165 220.022 242.296 220.434 243.119 221.257C243.839 222.184 244.25 223.213 244.25 224.345V227.947C244.147 229.183 244.044 230.418 244.044 231.55V235.255C243.941 236.49 243.941 237.725 244.044 238.96C243.941 239.681 243.633 240.504 243.119 241.43C242.502 242.46 241.679 242.974 240.753 243.18C239.622 243.386 238.079 243.695 236.022 243.901C233.965 244.209 231.703 244.518 229.44 244.724C227.074 245.136 224.812 245.341 222.755 245.547C220.595 245.856 218.949 246.062 217.818 246.165C215.453 246.577 213.601 246.062 212.367 244.621C211.03 243.386 210.413 241.842 210.413 239.989C210.31 238.651 210.31 237.416 210.31 236.284V233.197C210.31 232.167 210.31 231.138 210.413 230.006V226.198ZM216.173 227.124C216.07 228.153 216.07 229.08 216.07 229.903C215.967 230.932 215.967 231.859 215.967 232.682V235.358C215.967 236.387 215.967 237.313 216.07 238.137C216.07 239.166 216.275 239.784 216.79 240.195C217.201 240.607 217.921 240.71 218.949 240.504C220.904 240.298 222.96 239.989 225.017 239.681C226.972 239.475 228.823 239.166 230.674 238.96C232.32 238.754 233.862 238.549 235.302 238.343C236.536 238.24 237.565 238.137 238.182 237.931C238.285 235.667 238.388 233.299 238.388 230.932V225.477C236.536 225.58 234.582 225.683 232.525 225.786C230.366 225.992 228.309 226.198 226.354 226.301C224.298 226.506 222.343 226.712 220.595 226.815C218.744 227.021 217.201 227.124 216.173 227.124ZM242.604 198.717H253.095C253.918 198.717 254.638 199.026 255.255 199.438C255.666 199.952 255.975 200.673 255.975 201.496C255.975 202.422 255.666 203.04 255.255 203.452C254.638 203.966 253.918 204.172 253.095 204.172H242.913L243.427 213.641C243.53 214.876 243.324 215.802 242.913 216.317C242.399 216.935 241.679 217.243 240.753 217.243C239.725 217.243 238.902 217.038 238.491 216.42C237.976 215.905 237.668 214.979 237.668 213.744L236.125 185.44C235.919 184.308 236.022 183.382 236.536 182.661C236.948 182.044 237.668 181.735 238.696 181.735C239.622 181.735 240.342 182.044 240.959 182.661C241.37 183.382 241.679 184.308 241.885 185.337L242.604 198.717Z" fill="#FFCC66"/>
<path d="M216.334 247.047C214.468 247.047 212.91 246.386 211.823 245.107C210.427 243.827 209.693 242.092 209.693 239.99C209.59 238.681 209.59 237.402 209.59 236.285V233.197C209.59 232.168 209.59 231.109 209.693 229.947V226.198C209.693 224.125 210.31 222.728 211.588 221.963C212.558 221.434 213.704 221.081 215.246 220.831C216.378 220.831 218.023 220.714 220.227 220.523H220.565C222.74 220.405 224.988 220.302 227.324 220.111C229.91 220.008 232.216 219.905 234.523 219.699C236.8 219.596 238.417 219.493 239.607 219.302H239.665C241.399 219.302 242.692 219.787 243.647 220.743C244.558 221.905 244.999 223.096 244.999 224.345V227.948C244.896 229.242 244.793 230.462 244.793 231.55V235.255C244.69 236.505 244.69 237.711 244.793 238.902V238.99V239.078C244.676 239.887 244.338 240.798 243.779 241.798C243.104 242.93 242.149 243.636 240.929 243.916L240.429 244.004C239.372 244.195 237.932 244.46 236.11 244.651C234.508 244.901 232.025 245.254 229.528 245.474C227.441 245.842 225.355 246.048 223.504 246.239L222.842 246.297C220.653 246.606 219.037 246.812 217.906 246.915C217.362 247.003 216.848 247.062 216.348 247.062L216.334 247.047ZM239.724 220.758C238.578 220.949 236.903 221.067 234.611 221.17C232.304 221.375 229.983 221.478 227.412 221.581C225.076 221.772 222.813 221.875 220.624 221.978H220.315C218.097 222.199 216.407 222.302 215.349 222.302C214.1 222.507 213.101 222.802 212.308 223.243C211.823 223.537 211.147 224.169 211.147 226.198V230.006C211.044 231.168 211.044 232.153 211.044 233.197V236.285C211.044 237.431 211.044 238.622 211.147 239.931C211.147 241.666 211.705 243.004 212.866 244.077C213.983 245.371 215.584 245.798 217.7 245.445C218.875 245.327 220.477 245.136 222.666 244.827L223.357 244.754C225.267 244.562 227.236 244.371 229.337 244.004C231.864 243.769 234.317 243.416 235.934 243.18C237.726 243.004 239.078 242.754 240.165 242.548L240.635 242.46C241.429 242.283 242.031 241.828 242.501 241.048C242.942 240.254 243.221 239.549 243.324 238.931C243.221 237.696 243.221 236.432 243.324 235.196V231.55C243.324 230.403 243.427 229.153 243.53 227.948V224.345C243.53 223.434 243.206 222.537 242.56 221.714C241.928 221.096 240.988 220.758 239.739 220.758H239.724ZM218.038 241.357C217.289 241.357 216.701 241.151 216.275 240.725C215.452 240.078 215.335 239.005 215.335 238.152C215.232 237.373 215.232 236.402 215.232 235.373V232.697C215.232 231.859 215.232 230.918 215.335 229.844C215.335 229.08 215.335 228.124 215.437 227.066L215.511 226.404H216.172C217.2 226.404 218.743 226.301 220.506 226.095C222.093 226.007 223.797 225.83 225.605 225.654L226.281 225.595C228.117 225.492 229.998 225.316 231.996 225.125L232.451 225.081C234.538 224.978 236.492 224.875 238.343 224.772L239.122 224.728V230.962C239.122 233.417 239.004 235.961 238.916 237.99L238.887 238.49L238.402 238.652C237.697 238.887 236.595 238.99 235.346 239.093C233.95 239.299 232.393 239.505 230.747 239.71C229.88 239.813 229.013 239.931 228.146 240.049C227.147 240.181 226.119 240.328 225.076 240.431L224.914 240.46C222.945 240.754 220.918 241.063 219.008 241.254C218.655 241.328 218.317 241.357 218.009 241.357H218.038ZM216.848 227.86C216.804 228.595 216.804 229.286 216.804 229.918C216.701 230.977 216.701 231.888 216.701 232.697V235.373C216.701 236.402 216.701 237.284 216.804 238.064C216.804 239.152 217.024 239.46 217.259 239.637C217.538 239.902 218.082 239.946 218.817 239.799C220.756 239.593 222.769 239.284 224.723 239.005L224.914 238.975C225.972 238.858 226.986 238.725 227.97 238.593C228.852 238.475 229.719 238.358 230.6 238.255C232.231 238.049 233.774 237.843 235.214 237.637C236.066 237.564 236.889 237.49 237.491 237.373C237.579 235.373 237.667 233.167 237.667 230.947V226.272C236.051 226.36 234.347 226.448 232.569 226.536L232.143 226.58C230.13 226.771 228.235 226.963 226.398 227.051L225.766 227.11C223.944 227.301 222.211 227.463 220.639 227.565C219.199 227.727 217.876 227.83 216.848 227.86ZM240.753 217.979C239.342 217.979 238.402 217.597 237.873 216.832C237.285 216.273 236.933 215.156 236.933 213.744L235.39 185.485C235.155 184.191 235.331 183.103 235.934 182.235C236.477 181.426 237.403 181 238.696 181C239.798 181 240.709 181.368 241.473 182.147L241.59 182.309C242.031 183.073 242.369 184.044 242.604 185.205L243.295 197.997H253.094C253.961 197.997 254.814 198.276 255.666 198.835L255.827 198.982C256.4 199.688 256.709 200.585 256.709 201.496C256.709 202.511 256.4 203.349 255.769 203.967C255.005 204.614 254.138 204.908 253.094 204.908H243.691L244.161 213.597C244.279 214.979 244.044 216.082 243.486 216.773C242.824 217.582 241.899 217.979 240.753 217.979ZM238.696 182.47C237.55 182.47 237.241 182.926 237.153 183.073C236.771 183.617 236.683 184.338 236.859 185.308L238.417 213.7C238.417 214.729 238.637 215.509 239.019 215.891C239.328 216.332 239.886 216.509 240.767 216.509C241.473 216.509 241.987 216.288 242.369 215.847C242.663 215.479 242.795 214.671 242.722 213.7L242.163 203.437H253.124C253.829 203.437 254.358 203.261 254.814 202.893C255.107 202.599 255.269 202.129 255.269 201.496C255.269 200.791 254.99 200.276 254.784 199.982C254.211 199.629 253.667 199.453 253.124 199.453H241.928L241.164 185.367C240.988 184.529 240.709 183.72 240.385 183.103C239.915 182.661 239.386 182.456 238.71 182.456L238.696 182.47ZM208.414 217.126C208.179 217.126 207.959 217.097 207.738 217.038C206.886 216.935 206.181 216.553 205.623 215.862C205.094 215.215 204.844 214.421 204.844 213.45C204.844 212.759 205.108 211.745 206.372 210.804C208.693 208.936 210.545 207.348 212.176 205.819C213.88 204.217 215.393 202.393 216.686 200.394C217.421 199.306 218.17 197.791 217.671 196.791C217.524 196.615 216.657 195.939 213.322 196.071C211.617 196.159 209.898 196.336 208.091 196.512L207.401 196.586C205.637 196.85 203.404 197.188 201.479 197.409C200.157 197.674 199.143 197.468 198.482 196.791C197.762 196.321 197.277 195.512 197.248 194.63C197.042 193.895 197.219 193.042 197.748 192.086C198.291 191.263 199.173 190.734 200.392 190.498L200.554 190.469C202.552 190.175 204.609 189.866 206.842 189.66C207.885 189.557 208.929 189.484 209.972 189.41C211.074 189.337 212.161 189.249 213.219 189.146C216.613 189.028 219.111 189.396 220.903 190.248C222.74 191.278 223.9 192.557 224.473 194.174C225.017 195.703 225.061 197.468 224.606 199.423C224.121 201.188 223.342 202.893 222.152 204.79C220.815 206.79 219.125 208.775 217.098 210.701C214.526 213.141 212.572 214.847 210.765 216.214C209.942 216.832 209.149 217.141 208.429 217.141L208.414 217.126ZM214.1 194.571C216.613 194.571 218.2 195.042 218.92 196.012C219.639 197.438 219.287 199.129 217.92 201.188C216.569 203.276 214.967 205.202 213.189 206.878C211.544 208.436 209.663 210.054 207.283 211.965C206.842 212.303 206.328 212.818 206.328 213.45C206.328 214.083 206.475 214.553 206.783 214.95C207.048 215.273 207.371 215.523 208.047 215.612C208.708 215.803 209.399 215.391 209.884 215.038C211.661 213.715 213.571 212.039 216.084 209.642C218.038 207.789 219.654 205.893 220.918 203.996C222.02 202.232 222.74 200.658 223.18 199.056C223.562 197.409 223.548 195.924 223.092 194.659C222.637 193.38 221.726 192.395 220.227 191.557C218.714 190.837 216.378 190.528 213.307 190.616C212.293 190.719 211.191 190.792 210.075 190.881C209.046 190.954 208.018 191.028 206.974 191.131C204.771 191.322 202.728 191.631 200.759 191.925C199.849 192.101 199.276 192.41 198.982 192.866C198.761 193.248 198.512 193.836 198.658 194.277L198.703 194.512C198.703 195.1 199.143 195.483 199.408 195.659C199.893 196.13 200.657 196.071 201.215 195.953H201.274C203.184 195.733 205.417 195.395 207.21 195.13L207.929 195.056C209.766 194.88 211.485 194.704 213.233 194.615C213.527 194.615 213.807 194.601 214.071 194.601L214.1 194.571Z" fill="#FFCD54"/>
<path d="M264.511 194.806C263.277 195.218 262.351 195.321 261.734 194.909C261.117 194.6 260.809 193.983 260.809 192.954C260.603 192.233 260.706 191.616 261.323 190.998C261.837 190.483 262.763 190.072 263.997 189.66L273.87 186.984C278.601 185.749 282.201 185.749 284.669 186.778C287.035 188.013 288.269 190.278 288.269 193.674C288.269 195.012 287.858 196.35 287.035 197.688C286.315 198.717 285.492 199.849 284.567 200.982L293.514 208.392C294.337 209.215 294.851 210.039 295.057 210.759C295.16 211.583 294.954 212.406 294.337 213.024C293.72 213.744 293.103 214.053 292.383 213.847C291.56 213.744 290.737 213.229 289.915 212.406L280.556 204.79L270.168 214.567C269.242 215.494 268.419 216.008 267.7 216.111C266.877 216.317 266.26 216.008 265.745 215.185C265.025 214.567 264.82 213.847 265.025 213.024C265.128 212.303 265.643 211.48 266.568 210.553L279.836 198.1C280.658 197.276 281.275 196.556 281.79 195.732C282.201 195.012 282.407 194.292 282.407 193.674C282.407 192.645 281.893 191.924 280.864 191.616C279.733 191.41 278.19 191.41 276.133 191.821L264.511 194.806ZM313.364 231.653C313.364 233.608 312.953 235.358 312.233 237.005C311.41 238.754 310.381 240.298 309.147 241.739C307.707 243.18 305.959 244.312 304.108 244.93C302.051 245.753 299.891 246.062 297.423 246.062C295.16 246.062 293.103 245.856 291.457 245.239C289.709 244.724 288.269 243.901 287.241 242.665C286.006 241.636 285.081 240.401 284.567 238.857C283.949 237.416 283.641 235.77 283.641 233.917C283.641 231.859 283.949 230.006 284.669 228.153C285.287 226.404 286.418 224.757 287.858 223.213C289.092 221.772 290.737 220.64 292.692 219.816C294.543 219.096 296.805 218.684 299.274 218.684C301.331 218.684 303.182 218.993 304.931 219.611C306.576 220.331 308.016 221.257 309.353 222.287C310.587 223.522 311.513 224.963 312.336 226.404C312.953 228.05 313.364 229.8 313.364 231.653ZM307.707 231.653C307.707 230.623 307.502 229.697 307.193 228.668C306.782 227.844 306.165 227.021 305.548 226.198C304.725 225.58 303.902 225.066 302.874 224.654C301.845 224.345 300.611 224.139 299.274 224.139C297.628 224.139 296.291 224.448 295.057 224.86C293.72 225.374 292.692 226.095 291.869 227.021C290.84 228.05 290.223 229.183 289.915 230.212C289.503 231.447 289.298 232.682 289.298 233.917C289.298 235.049 289.4 235.975 289.812 236.799C290.018 237.725 290.532 238.446 291.252 238.96C291.869 239.578 292.692 239.989 293.72 240.195C294.749 240.504 295.983 240.607 297.423 240.607C298.965 240.607 300.405 240.401 301.742 239.887C302.976 239.475 304.005 238.754 304.931 237.622C305.753 236.799 306.37 235.77 306.987 234.74C307.399 233.711 307.707 232.682 307.707 231.653ZM297.525 202.422C296.6 202.422 295.983 202.217 295.571 201.702C295.057 201.29 294.851 200.673 294.851 199.746C294.851 198.923 295.057 198.203 295.571 197.688C295.983 197.276 296.6 196.968 297.525 196.968H308.222V185.44C308.222 184.308 308.427 183.382 308.942 182.661C309.353 182.044 309.97 181.735 310.999 181.735C311.924 181.735 312.644 182.044 313.261 182.661C313.775 183.382 314.084 184.308 314.084 185.44V213.744C314.084 214.979 313.775 215.905 313.261 216.42C312.644 217.038 311.924 217.243 310.999 217.243C309.97 217.243 309.353 217.038 308.942 216.42C308.427 215.905 308.222 214.979 308.222 213.744V202.422H297.525Z" fill="#FFCC66"/>
<path d="M297.422 246.797C294.763 246.797 292.779 246.518 291.192 245.93C289.282 245.371 287.74 244.43 286.667 243.136C285.345 242.048 284.39 240.696 283.861 239.093C283.229 237.623 282.891 235.858 282.891 233.917C282.891 231.697 283.229 229.786 283.964 227.889C284.566 226.169 285.668 224.463 287.299 222.713C288.562 221.243 290.281 220.023 292.382 219.14C294.381 218.361 296.761 217.949 299.244 217.949C301.374 217.949 303.299 218.258 305.15 218.92C306.722 219.611 308.221 220.508 309.778 221.714C311.218 223.14 312.188 224.698 312.952 226.051C313.731 228.08 314.083 229.889 314.083 231.668C314.083 233.638 313.687 235.476 312.893 237.314C312.056 239.078 311.013 240.681 309.69 242.239C308.089 243.842 306.252 245.004 304.327 245.651C302.359 246.445 300.14 246.812 297.407 246.812L297.422 246.797ZM299.273 219.42C296.952 219.42 294.777 219.787 292.955 220.508C291.075 221.302 289.547 222.375 288.415 223.698C286.917 225.301 285.903 226.874 285.359 228.404C284.683 230.139 284.375 231.888 284.375 233.917C284.375 235.667 284.669 237.226 285.242 238.564C285.712 239.96 286.505 241.093 287.71 242.092C288.695 243.254 289.958 244.018 291.662 244.533C293.102 245.077 294.968 245.327 297.422 245.327C299.876 245.327 301.991 244.989 303.828 244.254C305.576 243.666 307.222 242.622 308.618 241.225C309.822 239.813 310.792 238.328 311.556 236.696C312.261 235.064 312.614 233.417 312.614 231.653C312.614 230.05 312.291 228.418 311.63 226.669C310.954 225.507 310.058 224.051 308.809 222.816C307.398 221.743 306.046 220.92 304.607 220.287C302.976 219.714 301.198 219.42 299.244 219.42H299.273ZM297.422 241.342C295.732 241.342 294.527 241.21 293.514 240.901C292.412 240.681 291.457 240.196 290.737 239.49C289.958 238.946 289.37 238.078 289.121 237.049C288.636 236.035 288.562 234.947 288.562 233.917C288.562 232.609 288.783 231.285 289.223 229.977C289.591 228.727 290.34 227.521 291.354 226.492C292.25 225.478 293.381 224.713 294.792 224.169C296.408 223.64 297.775 223.404 299.273 223.404C300.581 223.404 301.888 223.596 303.079 223.948C304.122 224.36 304.989 224.86 305.988 225.61L306.135 225.757C306.766 226.595 307.413 227.463 307.854 228.345C308.177 229.403 308.441 230.447 308.441 231.653C308.441 232.638 308.206 233.682 307.677 235.02C307.001 236.167 306.355 237.255 305.459 238.152C304.504 239.313 303.358 240.137 301.977 240.593C300.669 241.093 299.17 241.342 297.422 241.342ZM299.273 224.875C297.936 224.875 296.702 225.081 295.292 225.551C294.131 225.992 293.19 226.639 292.426 227.507C291.324 228.609 290.84 229.697 290.619 230.418C290.223 231.594 290.032 232.77 290.032 233.917C290.032 235.064 290.164 235.843 290.472 236.476L290.531 236.652C290.693 237.358 291.075 237.946 291.677 238.372C292.294 238.961 292.97 239.299 293.866 239.49C294.792 239.769 295.909 239.887 297.422 239.887C298.935 239.887 300.302 239.666 301.477 239.21C302.623 238.828 303.534 238.181 304.357 237.167C305.165 236.343 305.767 235.344 306.355 234.373C306.766 233.329 306.972 232.462 306.972 231.668C306.972 230.874 306.825 230.036 306.487 228.889C306.164 228.271 305.591 227.492 305.018 226.727C304.166 226.095 303.431 225.683 302.594 225.345C301.595 225.051 300.434 224.875 299.259 224.875H299.273ZM310.998 217.979C310.058 217.979 309 217.847 308.324 216.832C307.78 216.303 307.486 215.288 307.486 213.744V203.158H297.525C296.805 203.158 295.762 203.055 295.042 202.232C294.204 201.511 294.116 200.482 294.116 199.747C294.116 198.659 294.425 197.791 295.056 197.174C295.674 196.556 296.511 196.233 297.525 196.233H307.486V185.44C307.486 184.088 307.766 183.044 308.339 182.235C308.882 181.412 309.764 181 310.998 181C312.1 181 313.011 181.368 313.775 182.147C314.495 183.132 314.818 184.205 314.818 185.44V213.744C314.818 215.156 314.465 216.259 313.775 216.935C313.055 217.655 312.203 217.979 310.998 217.979ZM297.525 197.703C296.893 197.703 296.423 197.865 296.085 198.203C295.747 198.541 295.585 199.056 295.585 199.747C295.585 200.658 295.806 200.952 296.026 201.129L296.144 201.246C296.32 201.467 296.614 201.688 297.525 201.688H308.956V213.744C308.956 215.112 309.235 215.67 309.455 215.906C309.72 216.288 309.969 216.523 310.998 216.523C311.806 216.523 312.306 216.347 312.746 215.92C313.128 215.538 313.349 214.744 313.349 213.759V185.455C313.349 184.529 313.114 183.735 312.658 183.103C312.247 182.706 311.703 182.485 310.998 182.485C310.072 182.485 309.764 182.779 309.558 183.088C309.147 183.661 308.956 184.411 308.956 185.455V197.718H297.525V197.703ZM267.229 216.92C266.597 216.92 265.818 216.656 265.186 215.67C264.349 214.906 264.04 213.935 264.32 212.847C264.437 212.039 265.01 211.083 266.053 210.039L279.335 197.571C280.173 196.733 280.716 196.071 281.172 195.35C281.495 194.792 281.671 194.189 281.671 193.689C281.671 192.969 281.363 192.542 280.658 192.336C279.541 192.13 278.042 192.204 276.279 192.557L264.716 195.527C263.644 195.88 262.307 196.189 261.322 195.527C260.544 195.145 260.088 194.292 260.073 193.057C259.824 192.072 260.073 191.219 260.808 190.484C261.366 189.925 262.248 189.469 263.776 188.969L273.693 186.278C278.468 185.029 282.259 184.97 284.963 186.102C287.666 187.514 289.018 190.057 289.018 193.674C289.018 195.145 288.562 196.63 287.681 198.071C287.167 198.806 286.447 199.82 285.609 200.879L293.999 207.834C294.924 208.76 295.527 209.686 295.776 210.568C295.938 211.789 295.615 212.818 294.865 213.553C294.072 214.479 293.146 214.847 292.191 214.568C291.339 214.465 290.399 213.935 289.4 212.936L280.599 205.775L270.681 215.112C269.653 216.156 268.698 216.714 267.816 216.847C267.64 216.891 267.449 216.92 267.243 216.92H267.229ZM279.247 190.748C279.879 190.748 280.452 190.792 280.996 190.895C282.391 191.307 283.141 192.307 283.141 193.674C283.141 194.439 282.891 195.277 282.421 196.1C281.892 196.938 281.275 197.688 280.349 198.615L267.067 211.083C266.083 212.068 265.803 212.744 265.745 213.127C265.583 213.788 265.73 214.215 266.215 214.627L266.362 214.803C266.803 215.509 267.17 215.494 267.523 215.406C267.978 215.332 268.639 215.053 269.653 214.053L280.525 203.82L290.384 211.848C291.178 212.642 291.868 213.053 292.485 213.127C292.794 213.2 293.146 213.303 293.793 212.553C294.366 211.98 294.395 211.318 294.336 210.862C294.175 210.348 293.705 209.613 292.999 208.922L283.537 201.099L283.993 200.541C284.992 199.32 285.859 198.1 286.432 197.291C287.152 196.115 287.534 194.895 287.534 193.704C287.534 190.631 286.491 188.587 284.331 187.455C281.98 186.484 278.513 186.558 274.061 187.719L264.187 190.395C263.438 190.645 262.336 191.057 261.836 191.542C261.454 191.925 261.366 192.248 261.513 192.777L261.543 192.983C261.543 194.027 261.91 194.204 262.057 194.277C262.483 194.556 263.188 194.498 264.275 194.13H264.32L275.941 191.131C277.146 190.881 278.248 190.763 279.233 190.763L279.247 190.748Z" fill="#FFCD54"/>
<path d="M352.961 194.806C351.727 195.218 350.801 195.321 350.184 194.909C349.567 194.6 349.258 193.983 349.258 192.954C349.053 192.233 349.156 191.616 349.773 190.998C350.287 190.483 351.213 190.072 352.447 189.66L362.32 186.984C367.051 185.749 370.651 185.749 373.119 186.778C375.485 188.013 376.719 190.278 376.719 193.674C376.719 195.012 376.307 196.35 375.485 197.688C374.765 198.717 373.942 199.849 373.016 200.982L381.964 208.392C382.787 209.215 383.301 210.039 383.507 210.759C383.61 211.583 383.404 212.406 382.787 213.024C382.17 213.744 381.553 214.053 380.833 213.847C380.01 213.744 379.187 213.229 378.364 212.406L369.005 204.79L358.618 214.567C357.692 215.494 356.869 216.008 356.149 216.111C355.326 216.317 354.709 216.008 354.195 215.185C353.475 214.567 353.269 213.847 353.475 213.024C353.578 212.303 354.092 211.48 355.018 210.553L368.285 198.1C369.108 197.276 369.725 196.556 370.239 195.732C370.651 195.012 370.856 194.292 370.856 193.674C370.856 192.645 370.342 191.924 369.314 191.616C368.182 191.41 366.64 191.41 364.583 191.821L352.961 194.806ZM393.792 227.742C393.792 226.918 393.586 226.404 393.174 225.992C392.66 225.683 392.043 225.477 391.22 225.477L360.572 230.418C359.338 230.726 358.412 230.623 357.898 230.212C357.281 229.903 356.972 229.285 356.972 228.359C356.972 227.536 357.178 226.815 357.795 226.198C358.309 225.683 359.235 225.271 360.469 225.066L391.118 220.125C393.792 219.714 395.951 220.228 397.391 221.463C398.831 222.801 399.551 224.86 399.551 227.742V238.754C399.551 239.989 399.243 240.916 398.831 241.43C398.214 242.048 397.494 242.254 396.569 242.254C395.54 242.254 394.82 242.048 394.409 241.43C393.997 240.916 393.792 239.989 393.792 238.754V227.742ZM394.717 185.44C394.717 184.308 394.923 183.382 395.334 182.661C395.746 182.044 396.466 181.735 397.494 181.735C398.42 181.735 399.14 182.044 399.757 182.661C400.168 183.382 400.477 184.308 400.477 185.44V213.744C400.477 214.979 400.168 215.905 399.757 216.42C399.14 217.038 398.42 217.243 397.494 217.243C396.466 217.243 395.746 217.038 395.334 216.42C394.923 215.905 394.717 214.979 394.717 213.744V185.44Z" fill="#FFCC66"/>
<path d="M396.568 242.989C395.701 242.989 394.481 242.872 393.791 241.842C393.306 241.254 393.056 240.196 393.056 238.755V227.742C393.056 227.08 392.895 226.786 392.718 226.58C392.278 226.33 391.793 226.213 391.22 226.213L360.689 231.138C359.352 231.477 358.235 231.374 357.5 230.83C356.913 230.506 356.237 229.83 356.237 228.359C356.237 227.257 356.575 226.374 357.28 225.683C357.926 225.036 358.984 224.581 360.351 224.345L391.014 219.405C393.85 218.964 396.23 219.493 397.89 220.905C399.521 222.419 400.3 224.654 400.3 227.742V238.755C400.3 240.063 399.991 241.181 399.418 241.886C398.639 242.666 397.787 242.989 396.583 242.989H396.568ZM391.176 224.757C392.131 224.757 392.88 224.963 393.556 225.375L393.703 225.492C394.276 226.066 394.54 226.786 394.54 227.757V238.769C394.54 240.254 394.864 240.813 394.996 240.99C395.201 241.284 395.51 241.534 396.583 241.534C397.391 241.534 397.89 241.357 398.331 240.931C398.404 240.828 398.83 240.181 398.83 238.769V227.757C398.83 225.095 398.199 223.213 396.906 222.022C395.598 220.905 393.644 220.508 391.249 220.875L360.6 225.816C359.572 225.992 358.749 226.33 358.323 226.742C357.897 227.168 357.721 227.654 357.721 228.389C357.721 229.33 358.103 229.506 358.235 229.58L358.367 229.668C358.499 229.771 359.014 230.08 360.409 229.727L391.117 224.772C391.117 224.772 391.161 224.772 391.176 224.772V224.757ZM397.493 217.979C396.641 217.979 395.407 217.861 394.717 216.832C394.232 216.244 393.982 215.185 393.982 213.744V185.44C393.982 184.176 394.217 183.117 394.702 182.294C395.29 181.426 396.215 181 397.493 181C398.595 181 399.506 181.368 400.27 182.147L400.388 182.309C400.932 183.264 401.196 184.323 401.196 185.455V213.759C401.196 215.068 400.887 216.185 400.314 216.891C399.536 217.67 398.684 217.994 397.479 217.994L397.493 217.979ZM397.493 182.47C396.347 182.47 396.039 182.926 395.951 183.073C395.628 183.632 395.451 184.441 395.451 185.44V213.744C395.451 215.229 395.774 215.788 395.907 215.965C396.112 216.259 396.421 216.509 397.493 216.509C398.302 216.509 398.801 216.332 399.242 215.906C399.315 215.803 399.741 215.156 399.741 213.744V185.44C399.741 184.602 399.55 183.823 399.168 183.117C398.698 182.676 398.169 182.47 397.493 182.47ZM355.678 216.92C355.047 216.92 354.268 216.656 353.636 215.67C352.799 214.906 352.49 213.935 352.769 212.847C352.887 212.039 353.46 211.083 354.503 210.039L367.785 197.571C368.623 196.733 369.166 196.071 369.622 195.35C369.945 194.792 370.121 194.189 370.121 193.689C370.121 192.969 369.813 192.542 369.107 192.336C367.991 192.13 366.492 192.204 364.729 192.557L353.166 195.527C352.093 195.88 350.756 196.189 349.772 195.527C348.993 195.145 348.538 194.292 348.523 193.057C348.273 192.072 348.523 191.219 349.258 190.484C349.816 189.925 350.698 189.469 352.226 188.969L362.143 186.278C366.918 185.029 370.709 184.97 373.412 186.102C376.116 187.514 377.468 190.057 377.468 193.674C377.468 195.145 377.012 196.63 376.116 198.071C375.602 198.806 374.882 199.82 374.044 200.879L382.434 207.834C383.374 208.76 383.962 209.701 384.211 210.568C384.373 211.789 384.05 212.818 383.3 213.553C382.507 214.479 381.596 214.847 380.626 214.568C379.774 214.465 378.834 213.935 377.835 212.936L369.034 205.775L359.116 215.112C358.088 216.141 357.133 216.714 356.251 216.847C356.075 216.891 355.884 216.92 355.678 216.92ZM367.697 190.748C368.329 190.748 368.902 190.792 369.445 190.895C370.841 191.307 371.59 192.307 371.59 193.674C371.59 194.439 371.341 195.277 370.871 196.1C370.342 196.938 369.724 197.688 368.799 198.615L355.517 211.083C354.532 212.068 354.253 212.744 354.194 213.127C354.033 213.788 354.18 214.215 354.665 214.627L354.812 214.803C355.208 215.45 355.546 215.509 355.972 215.406C356.428 215.332 357.089 215.053 358.103 214.053L368.975 203.82L378.834 211.848C379.627 212.642 380.318 213.053 380.935 213.127C381.243 213.2 381.596 213.303 382.243 212.553C382.816 211.98 382.845 211.318 382.786 210.862C382.625 210.348 382.154 209.613 381.449 208.922L371.987 201.099L372.443 200.541C373.442 199.32 374.309 198.1 374.882 197.291C375.602 196.115 375.984 194.895 375.984 193.704C375.984 190.631 374.94 188.587 372.781 187.455C370.43 186.484 366.962 186.558 362.51 187.719L352.637 190.395C351.888 190.645 350.786 191.057 350.286 191.542C349.904 191.925 349.816 192.248 349.963 192.777L349.992 192.983C349.992 194.027 350.36 194.204 350.507 194.277C350.933 194.556 351.638 194.498 352.725 194.13H352.769L364.391 191.131C365.596 190.881 366.698 190.763 367.682 190.763L367.697 190.748Z" fill="#FFCD54"/>
<path d="M421.046 189.764L434.211 188.323C436.576 188.117 438.427 188.632 439.764 189.764C440.587 190.69 441.101 191.719 441.41 193.16L458.483 192.543V186.264C458.483 185.132 458.688 184.206 459.1 183.485C459.511 182.868 460.231 182.559 461.26 182.559C462.185 182.559 462.905 182.868 463.522 183.485C463.934 184.206 464.242 185.132 464.242 186.264V218.994C464.242 220.229 463.934 221.155 463.522 221.67C462.905 222.287 462.185 222.493 461.26 222.493C460.231 222.493 459.511 222.287 459.1 221.67C458.688 221.155 458.483 220.229 458.483 218.994V210.143L441.513 210.863H441.41C441.101 212.098 440.587 213.23 439.764 213.951C438.427 215.186 436.576 215.803 434.313 216.009L422.897 216.833C419.812 217.244 417.549 216.627 416.109 215.186C414.567 213.848 413.847 211.583 413.847 208.496V197.174C413.847 195.013 414.361 193.263 415.595 192.028C416.726 190.793 418.578 190.072 421.046 189.764ZM435.959 195.219C435.959 194.704 435.753 194.292 435.548 193.984C435.136 193.778 434.725 193.675 434.313 193.675L421.149 195.116C420.532 195.322 420.12 195.527 419.915 195.836C419.606 196.248 419.503 196.66 419.503 197.174V208.496C419.503 209.628 419.709 210.451 420.326 210.863C420.738 211.481 421.56 211.686 422.794 211.481L434.211 210.554C434.725 210.554 435.136 210.451 435.548 210.143C435.753 209.937 435.959 209.525 435.959 208.907V195.219ZM433.902 229.286C433.799 230.11 433.799 230.933 433.799 231.551C433.696 232.271 433.696 232.991 433.696 233.609C433.696 234.227 433.696 234.844 433.799 235.462C433.799 236.079 433.799 236.697 433.902 237.314C433.902 238.138 434.108 238.652 434.519 238.961C434.828 239.373 435.65 239.579 436.885 239.476C438.53 239.476 440.381 239.27 442.541 239.064C444.598 238.858 446.758 238.652 449.021 238.241C451.283 238.035 453.443 237.623 455.603 237.211C457.66 236.903 459.614 236.594 461.26 236.182C462.082 236.079 462.7 236.285 463.317 236.697C463.831 237.211 464.242 237.726 464.448 238.344C464.551 239.064 464.551 239.682 464.345 240.299C464.037 241.02 463.522 241.431 462.905 241.637C461.054 242.255 458.997 242.666 456.631 243.078C454.163 243.49 451.592 243.901 449.021 244.21C446.347 244.622 443.673 244.828 441.204 244.931C438.633 245.136 436.37 245.239 434.519 245.239C432.668 245.239 431.125 244.828 429.994 243.798C428.76 242.975 428.143 241.534 428.04 239.682C427.834 237.829 427.731 236.079 427.834 234.432C427.834 232.786 427.834 231.036 428.04 229.183C428.04 228.36 428.348 227.64 429.068 227.125C429.685 226.713 430.302 226.404 431.125 226.404C431.742 226.404 432.462 226.713 433.079 227.125C433.594 227.742 433.902 228.463 433.902 229.286ZM441.616 198.615V205.408L458.483 204.791V197.998L441.616 198.615Z" fill="#FFCC66"/>
<path d="M434.519 245.973C432.344 245.973 430.714 245.444 429.494 244.341C428.186 243.474 427.422 241.901 427.305 239.724C427.07 237.622 427.011 235.916 427.099 234.387C427.099 232.74 427.099 230.991 427.305 229.109C427.305 228.079 427.76 227.153 428.642 226.536C429.288 226.109 430.067 225.683 431.125 225.683C432.08 225.683 433.006 226.212 433.49 226.521L433.652 226.668C434.313 227.462 434.651 228.344 434.651 229.3V229.388C434.548 230.167 434.548 230.976 434.548 231.564C434.445 232.343 434.445 233.02 434.445 233.623C434.445 234.225 434.445 234.799 434.534 235.358C434.534 236.078 434.534 236.651 434.636 237.21C434.636 238.151 434.886 238.328 434.974 238.386L435.121 238.533C435.18 238.607 435.636 238.857 436.84 238.754C438.266 238.754 439.794 238.607 441.542 238.431L442.791 238.313C444.76 238.122 446.787 237.916 448.903 237.534C451.195 237.328 453.369 236.901 455.485 236.504C457.542 236.196 459.496 235.887 461.098 235.475C462.112 235.343 462.905 235.534 463.742 236.093L463.86 236.181C464.36 236.681 464.888 237.298 465.168 238.122C465.329 239.166 465.285 239.871 465.065 240.548C464.668 241.474 464.036 242.062 463.155 242.356C461.303 242.974 459.261 243.386 456.778 243.827C454.339 244.238 451.739 244.65 449.123 244.959C446.743 245.326 444.172 245.562 441.248 245.679C438.721 245.885 436.458 245.988 434.534 245.988L434.519 245.973ZM431.125 227.138C430.493 227.138 430.023 227.374 429.479 227.741C429.009 228.079 428.774 228.55 428.774 229.182C428.568 231.079 428.568 232.784 428.568 234.431C428.48 235.916 428.539 237.548 428.774 239.607C428.877 241.342 429.421 242.533 430.405 243.194C431.419 244.106 432.741 244.503 434.519 244.503C436.4 244.503 438.633 244.4 441.145 244.194C444.04 244.077 446.567 243.841 448.903 243.474C451.504 243.165 454.089 242.739 456.499 242.342C458.923 241.915 460.907 241.518 462.655 240.93C463.125 240.768 463.449 240.474 463.654 240.004C463.787 239.622 463.801 239.136 463.698 238.445C463.596 238.166 463.316 237.769 462.832 237.269C462.317 236.946 461.891 236.843 461.333 236.916C459.746 237.313 457.763 237.637 455.691 237.945C453.575 238.342 451.371 238.769 449.065 238.975C446.949 239.357 444.892 239.563 442.908 239.769L441.659 239.886C439.867 240.063 438.31 240.21 436.87 240.21C435.503 240.327 434.504 240.077 433.99 239.489C433.432 239.019 433.153 238.313 433.153 237.313C433.05 236.754 433.05 236.093 433.05 235.461C432.947 234.902 432.947 234.24 432.947 233.608C432.947 232.976 432.947 232.211 433.064 231.446C433.064 230.932 433.064 230.094 433.153 229.241C433.153 228.682 432.947 228.168 432.565 227.668C432.036 227.33 431.492 227.124 431.11 227.124L431.125 227.138ZM461.259 223.227C460.393 223.227 459.173 223.11 458.483 222.08C457.998 221.492 457.748 220.434 457.748 218.993V210.906L441.968 211.582C441.571 212.861 440.998 213.847 440.249 214.508C438.883 215.773 436.958 216.508 434.387 216.743L422.956 217.567C419.753 217.993 417.255 217.375 415.595 215.699C413.964 214.288 413.112 211.847 413.112 208.495V197.173C413.112 194.688 413.758 192.836 415.081 191.512C416.285 190.204 418.21 189.38 420.958 189.042L434.122 187.601C436.649 187.381 438.706 187.925 440.234 189.219C441.101 190.174 441.63 191.174 441.983 192.409L457.748 191.836V186.263C457.748 184.999 457.983 183.94 458.468 183.117C459.041 182.249 459.981 181.823 461.259 181.823C462.361 181.823 463.272 182.19 464.036 182.97L464.154 183.131C464.698 184.087 464.977 185.146 464.977 186.278V219.007C464.977 220.316 464.668 221.434 464.095 222.139C463.316 222.919 462.464 223.242 461.259 223.242V223.227ZM459.217 209.377V218.993C459.217 220.478 459.54 221.037 459.673 221.213C459.878 221.507 460.187 221.757 461.259 221.757C462.068 221.757 462.567 221.581 463.008 221.154C463.081 221.051 463.507 220.404 463.507 218.993V186.263C463.507 185.425 463.316 184.631 462.934 183.94C462.464 183.499 461.935 183.293 461.259 183.293C460.113 183.293 459.805 183.749 459.717 183.896C459.393 184.455 459.217 185.263 459.217 186.263V193.247L440.822 193.909L440.69 193.306C440.411 192.012 439.97 191.101 439.221 190.248C438.089 189.292 436.4 188.851 434.284 189.042L421.134 190.483C418.783 190.777 417.108 191.453 416.138 192.512C415.081 193.571 414.581 195.085 414.581 197.158V208.48C414.581 211.391 415.257 213.464 416.594 214.611C417.96 215.964 420.032 216.464 422.809 216.082L434.269 215.258C436.502 215.052 438.133 214.449 439.279 213.391C439.926 212.832 440.396 211.92 440.704 210.671L440.837 210.112H441.41L459.217 209.362V209.377ZM421.927 212.303C420.972 212.303 420.252 211.994 419.782 211.391C418.857 210.685 418.754 209.406 418.754 208.495V197.173C418.754 196.467 418.93 195.909 419.312 195.394C419.65 194.894 420.282 194.629 420.899 194.424L421.046 194.394L434.21 192.953C434.739 192.953 435.342 193.071 435.856 193.335L436.032 193.424L436.135 193.585C436.502 194.129 436.664 194.659 436.664 195.232V208.921C436.664 209.641 436.429 210.274 436.032 210.671C435.445 211.127 434.886 211.303 434.181 211.303L422.824 212.229C422.5 212.288 422.192 212.317 421.913 212.317L421.927 212.303ZM421.31 195.835C420.767 196.026 420.59 196.159 420.532 196.232C420.311 196.526 420.238 196.761 420.238 197.158V208.48C420.238 209.436 420.399 210.009 420.737 210.244L420.943 210.45C421.237 210.891 422.045 210.847 422.677 210.744L434.152 209.803C434.607 209.803 434.857 209.73 435.107 209.539C435.107 209.539 435.224 209.303 435.224 208.892V195.203C435.224 194.982 435.165 194.776 435.033 194.541C434.783 194.438 434.548 194.394 434.313 194.394L421.31 195.82V195.835ZM440.881 206.171V197.908L459.217 197.232V205.495L440.881 206.171ZM442.35 199.32V204.642L457.748 204.084V198.761L442.35 199.32Z" fill="#FFCD54"/>
<path d="M514.123 229.698C511.963 229.698 510.112 229.389 508.569 228.771C506.923 228.154 505.484 227.228 504.249 225.992C503.015 224.86 502.09 223.419 501.473 221.773C500.855 220.126 500.547 218.273 500.547 216.112C500.547 213.333 500.855 210.76 501.678 208.393C502.295 206.128 503.427 204.07 505.072 202.217C506.512 200.57 508.158 199.232 510.009 198.203C511.86 197.277 513.814 196.762 516.077 196.762C518.134 196.762 520.088 197.174 521.836 197.894C523.482 198.718 525.025 199.644 526.465 200.879C526.567 200.982 526.67 201.188 526.773 201.291C527.082 201.291 527.39 201.188 527.699 201.188L546.931 200.262V189.866C546.931 188.734 547.137 187.808 547.548 187.087C547.96 186.47 548.68 186.161 549.708 186.161C550.634 186.161 551.354 186.47 551.971 187.087C552.382 187.808 552.691 188.734 552.691 189.866V233.506C552.691 234.741 552.382 235.667 551.971 236.182C551.354 236.799 550.634 237.005 549.708 237.005C548.68 237.005 547.96 236.799 547.548 236.182C547.137 235.667 546.931 234.741 546.931 233.506V219.714L528.11 220.64C527.39 221.876 526.567 223.111 525.642 224.243C523.996 226.095 522.145 227.536 520.294 228.36C518.34 229.286 516.283 229.698 514.123 229.698ZM524.716 211.686C524.716 210.142 524.51 208.804 524.099 207.569C523.585 206.437 522.968 205.408 522.145 204.584C521.219 203.864 520.294 203.246 519.265 202.835C518.237 202.423 517.105 202.217 516.077 202.217C514.637 202.217 513.403 202.629 512.272 203.246C511.037 203.967 510.009 204.893 509.083 206.128C508.055 207.569 507.438 209.113 507.026 210.76C506.512 212.407 506.306 214.259 506.306 216.112C506.306 217.553 506.409 218.788 506.821 219.817C507.026 220.846 507.541 221.67 508.363 222.287C508.98 223.008 509.803 223.522 510.832 223.728C511.757 224.14 512.889 224.243 514.123 224.243C515.357 224.243 516.694 223.934 517.928 223.316C519.162 222.802 520.294 221.875 521.425 220.537C522.454 219.302 523.276 217.964 523.893 216.421C524.408 214.98 524.716 213.436 524.716 211.686ZM529.756 206.54C530.167 208.187 530.476 209.833 530.476 211.686C530.476 212.921 530.373 213.95 530.167 215.083L546.931 214.259V205.717L529.756 206.54Z" fill="#FFCC66"/>
<path d="M549.708 237.74C548.841 237.74 547.622 237.623 546.931 236.594C546.446 236.005 546.197 234.947 546.197 233.506V220.479L528.536 221.346C527.787 222.596 527.008 223.713 526.2 224.699C524.437 226.684 522.497 228.169 520.587 229.021C518.604 229.962 516.488 230.418 514.123 230.418C511.875 230.418 509.92 230.095 508.29 229.433C506.571 228.786 505.028 227.801 503.72 226.492C502.442 225.316 501.443 223.802 500.782 222.008C500.121 220.258 499.812 218.332 499.812 216.082C499.812 212.995 500.194 210.392 500.987 208.113C501.619 205.79 502.809 203.629 504.528 201.688C506.012 199.982 507.746 198.585 509.656 197.512C511.728 196.468 513.814 195.983 516.077 195.983C518.178 195.983 520.205 196.38 522.115 197.174C524.099 198.159 525.612 199.144 526.949 200.276C527.023 200.335 527.067 200.409 527.126 200.468C527.317 200.438 527.522 200.409 527.713 200.409L546.211 199.512V189.808C546.211 188.558 546.446 187.499 546.931 186.661C547.504 185.779 548.444 185.367 549.723 185.367C550.825 185.367 551.736 185.735 552.5 186.514L552.617 186.676C553.161 187.631 553.44 188.675 553.44 189.822V233.462C553.44 234.77 553.131 235.888 552.558 236.594C551.78 237.373 550.928 237.696 549.723 237.696L549.708 237.74ZM547.666 218.95V233.521C547.666 235.006 547.989 235.564 548.121 235.741C548.327 236.035 548.635 236.285 549.708 236.285C550.516 236.285 551.016 236.108 551.456 235.682C551.53 235.579 551.956 234.932 551.956 233.521V189.881C551.956 189.043 551.765 188.264 551.383 187.558C550.913 187.117 550.384 186.911 549.708 186.911C548.562 186.911 548.253 187.367 548.165 187.514C547.842 188.073 547.666 188.881 547.666 189.881V200.982L527.728 201.938C527.581 201.938 527.463 201.967 527.346 201.982C527.155 202.011 526.949 202.041 526.758 202.041H526.45L526.229 201.82C526.141 201.747 526.068 201.629 525.979 201.497C524.731 200.394 523.305 199.468 521.484 198.556C519.794 197.865 517.957 197.497 516.047 197.497C513.99 197.497 512.168 197.924 510.302 198.865C508.554 199.835 506.967 201.129 505.586 202.702C504.014 204.467 502.927 206.437 502.354 208.584C501.605 210.745 501.252 213.201 501.252 216.112C501.252 218.17 501.546 219.935 502.133 221.508C502.721 223.081 503.588 224.419 504.719 225.448C505.895 226.625 507.261 227.507 508.804 228.08C510.273 228.668 512.051 228.963 514.093 228.963C516.135 228.963 518.148 228.551 519.956 227.698C521.704 226.919 523.467 225.551 525.069 223.758C525.877 222.772 526.685 221.581 527.449 220.273L527.654 219.935L547.651 218.95H547.666ZM514.123 224.978C513.079 224.978 511.742 224.919 510.611 224.434C509.524 224.199 508.598 223.655 507.864 222.831C506.938 222.111 506.336 221.14 506.1 219.964C505.645 218.847 505.571 217.376 505.571 216.112C505.571 214.009 505.821 212.142 506.321 210.539C506.791 208.657 507.482 207.099 508.481 205.702C509.465 204.393 510.582 203.379 511.889 202.614C513.285 201.85 514.652 201.482 516.062 201.482C517.223 201.482 518.457 201.717 519.529 202.158C520.499 202.541 521.439 203.114 522.586 204.011C523.452 204.879 524.143 205.922 524.76 207.275C525.23 208.672 525.436 210.098 525.436 211.701C525.436 213.421 525.157 215.053 524.569 216.685C523.937 218.273 523.085 219.685 521.968 221.023C520.734 222.493 519.5 223.464 518.192 224.008C516.929 224.64 515.489 224.993 514.108 224.993L514.123 224.978ZM516.077 202.952C514.887 202.952 513.799 203.246 512.624 203.893C511.478 204.555 510.538 205.423 509.671 206.569C508.789 207.804 508.172 209.201 507.731 210.936C507.261 212.436 507.026 214.156 507.026 216.112C507.026 217.7 507.158 218.729 507.482 219.538C507.687 220.523 508.099 221.184 508.789 221.684L508.907 221.802C509.45 222.434 510.141 222.831 510.964 223.008L511.111 223.052C511.816 223.361 512.742 223.508 514.108 223.508C515.254 223.508 516.488 223.199 517.59 222.655C518.721 222.184 519.765 221.332 520.852 220.052C521.866 218.847 522.63 217.553 523.203 216.141C523.717 214.7 523.967 213.23 523.967 211.671C523.967 210.231 523.776 208.951 523.394 207.79C522.879 206.672 522.292 205.761 521.616 205.084C520.646 204.334 519.823 203.835 518.986 203.496C518.075 203.129 517.046 202.938 516.062 202.938L516.077 202.952ZM529.271 215.862L529.432 214.95C529.638 213.803 529.726 212.833 529.726 211.686C529.726 209.775 529.373 208.099 529.021 206.716L528.8 205.849L547.636 204.952V214.965L529.241 215.877L529.271 215.862ZM530.666 207.231C530.96 208.525 531.195 210.01 531.195 211.686C531.195 212.598 531.137 213.436 531.019 214.303L546.182 213.553V206.481L530.652 207.231H530.666Z" fill="#FFCD54"/>
<path d="M566.885 194.806C565.651 195.218 564.726 195.321 564.109 194.909C563.491 194.6 563.183 193.983 563.183 192.954C562.977 192.233 563.08 191.616 563.697 190.998C564.211 190.483 565.137 190.072 566.371 189.66L576.245 186.984C580.976 185.749 584.575 185.749 587.044 186.778C589.409 188.013 590.643 190.278 590.643 193.674C590.643 195.012 590.232 196.35 589.409 197.688C588.689 198.717 587.866 199.849 586.941 200.982L595.889 208.392C596.711 209.215 597.226 210.039 597.431 210.759C597.534 211.583 597.329 212.406 596.711 213.024C596.094 213.744 595.477 214.053 594.757 213.847C593.935 213.744 593.112 213.229 592.289 212.406L582.93 204.79L572.542 214.567C571.616 215.494 570.794 216.008 570.074 216.111C569.251 216.317 568.634 216.008 568.12 215.185C567.4 214.567 567.194 213.847 567.4 213.024C567.503 212.303 568.017 211.48 568.942 210.553L582.21 198.1C583.033 197.276 583.65 196.556 584.164 195.732C584.575 195.012 584.781 194.292 584.781 193.674C584.781 192.645 584.267 191.924 583.238 191.616C582.107 191.41 580.564 191.41 578.507 191.821L566.885 194.806ZM615.738 231.653C615.738 233.608 615.327 235.358 614.607 237.005C613.784 238.754 612.756 240.298 611.522 241.739C610.082 243.18 608.333 244.312 606.482 244.93C604.425 245.753 602.265 246.062 599.797 246.062C597.534 246.062 595.477 245.856 593.832 245.239C592.083 244.724 590.643 243.901 589.615 242.665C588.381 241.636 587.455 240.401 586.941 238.857C586.324 237.416 586.015 235.77 586.015 233.917C586.015 231.859 586.324 230.006 587.044 228.153C587.661 226.404 588.792 224.757 590.232 223.213C591.466 221.772 593.112 220.64 595.066 219.816C596.917 219.096 599.18 218.684 601.648 218.684C603.705 218.684 605.556 218.993 607.305 219.611C608.95 220.331 610.39 221.257 611.727 222.287C612.961 223.522 613.887 224.963 614.71 226.404C615.327 228.05 615.738 229.8 615.738 231.653ZM610.082 231.653C610.082 230.623 609.876 229.697 609.567 228.668C609.156 227.844 608.539 227.021 607.922 226.198C607.099 225.58 606.276 225.066 605.248 224.654C604.219 224.345 602.985 224.139 601.648 224.139C600.003 224.139 598.666 224.448 597.431 224.86C596.094 225.374 595.066 226.095 594.243 227.021C593.215 228.05 592.597 229.183 592.289 230.212C591.878 231.447 591.672 232.682 591.672 233.917C591.672 235.049 591.775 235.975 592.186 236.799C592.392 237.725 592.906 238.446 593.626 238.96C594.243 239.578 595.066 239.989 596.094 240.195C597.123 240.504 598.357 240.607 599.797 240.607C601.34 240.607 602.779 240.401 604.116 239.887C605.351 239.475 606.379 238.754 607.305 237.622C608.128 236.799 608.745 235.77 609.362 234.74C609.773 233.711 610.082 232.682 610.082 231.653ZM599.9 202.422C598.974 202.422 598.357 202.217 597.946 201.702C597.431 201.29 597.226 200.673 597.226 199.746C597.226 198.923 597.431 198.203 597.946 197.688C598.357 197.276 598.974 196.968 599.9 196.968H610.596V185.44C610.596 184.308 610.802 183.382 611.316 182.661C611.727 182.044 612.344 181.735 613.373 181.735C614.298 181.735 615.018 182.044 615.635 182.661C616.15 183.382 616.458 184.308 616.458 185.44V213.744C616.458 214.979 616.15 215.905 615.635 216.42C615.018 217.038 614.298 217.243 613.373 217.243C612.344 217.243 611.727 217.038 611.316 216.42C610.802 215.905 610.596 214.979 610.596 213.744V202.422H599.9Z" fill="#FFCC66"/>
<path d="M599.796 246.797C597.137 246.797 595.153 246.518 593.567 245.93C591.657 245.371 590.114 244.43 589.041 243.136C587.719 242.048 586.764 240.696 586.235 239.093C585.603 237.623 585.265 235.858 585.265 233.917C585.265 231.697 585.603 229.786 586.338 227.889C586.94 226.169 588.042 224.463 589.673 222.713C590.937 221.243 592.656 220.023 594.757 219.14C596.755 218.361 599.135 217.949 601.618 217.949C603.749 217.949 605.673 218.258 607.524 218.92C609.111 219.611 610.595 220.508 612.153 221.714C613.593 223.14 614.562 224.698 615.326 226.051C616.105 228.095 616.458 229.889 616.458 231.668C616.458 233.623 616.061 235.476 615.267 237.314C614.43 239.078 613.387 240.681 612.064 242.239C610.463 243.842 608.626 245.004 606.702 245.651C604.733 246.445 602.514 246.812 599.782 246.812L599.796 246.797ZM601.647 219.42C599.326 219.42 597.152 219.787 595.33 220.508C593.449 221.302 591.921 222.375 590.79 223.698C589.291 225.301 588.277 226.874 587.734 228.404C587.058 230.139 586.749 231.888 586.749 233.917C586.749 235.667 587.043 237.226 587.616 238.564C588.086 239.96 588.88 241.093 590.084 242.092C591.069 243.254 592.332 244.018 594.037 244.533C595.477 245.077 597.343 245.327 599.796 245.327C602.25 245.327 604.366 244.989 606.202 244.254C607.951 243.666 609.596 242.622 610.992 241.225C612.197 239.813 613.166 238.328 613.93 236.696C614.636 235.064 614.988 233.417 614.988 231.653C614.988 230.065 614.665 228.433 614.004 226.669C613.328 225.507 612.432 224.051 611.183 222.816C609.802 221.758 608.406 220.92 606.981 220.287C605.35 219.714 603.572 219.42 601.618 219.42H601.647ZM599.796 241.342C598.107 241.342 596.902 241.21 595.888 240.901C594.786 240.681 593.831 240.196 593.111 239.49C592.332 238.946 591.745 238.078 591.495 237.049C591.01 236.035 590.937 234.947 590.937 233.917C590.937 232.609 591.157 231.285 591.598 229.977C591.98 228.727 592.714 227.521 593.728 226.492C594.624 225.478 595.756 224.713 597.166 224.169C598.782 223.64 600.149 223.404 601.647 223.404C602.955 223.404 604.263 223.596 605.453 223.948C606.496 224.36 607.363 224.86 608.362 225.61L608.509 225.757C609.141 226.595 609.787 227.463 610.228 228.345C610.551 229.403 610.816 230.447 610.816 231.653C610.816 232.638 610.581 233.682 610.052 235.02C609.376 236.182 608.715 237.255 607.833 238.152C606.878 239.313 605.732 240.137 604.351 240.593C603.043 241.093 601.545 241.342 599.796 241.342ZM601.647 224.875C600.31 224.875 599.076 225.081 597.666 225.551C596.505 225.992 595.565 226.639 594.801 227.507C593.699 228.609 593.214 229.697 592.994 230.418C592.597 231.594 592.406 232.77 592.406 233.917C592.406 235.064 592.538 235.843 592.847 236.476L592.905 236.652C593.067 237.358 593.449 237.946 594.051 238.372C594.668 238.961 595.344 239.299 596.241 239.49C597.166 239.769 598.283 239.887 599.796 239.887C601.31 239.887 602.676 239.666 603.851 239.21C604.997 238.828 605.908 238.181 606.731 237.167C607.539 236.358 608.112 235.388 608.729 234.373C609.141 233.329 609.346 232.462 609.346 231.668C609.346 230.874 609.199 230.036 608.862 228.889C608.538 228.271 607.965 227.492 607.392 226.727C606.54 226.095 605.805 225.683 604.968 225.345C603.969 225.051 602.808 224.875 601.633 224.875H601.647ZM613.372 217.979C612.432 217.979 611.374 217.847 610.698 216.832C610.154 216.303 609.861 215.288 609.861 213.744V203.158H599.899C599.179 203.158 598.136 203.055 597.416 202.232C596.579 201.511 596.49 200.482 596.49 199.747C596.49 198.659 596.799 197.791 597.431 197.174C598.048 196.556 598.885 196.233 599.899 196.233H609.861V185.44C609.861 184.088 610.14 183.044 610.713 182.235C611.256 181.412 612.138 181 613.372 181C614.474 181 615.385 181.368 616.149 182.147C616.869 183.132 617.192 184.205 617.192 185.44V213.744C617.192 215.156 616.84 216.259 616.149 216.935C615.429 217.655 614.577 217.979 613.372 217.979ZM599.899 197.703C599.267 197.703 598.797 197.865 598.459 198.203C598.121 198.541 597.96 199.056 597.96 199.747C597.96 200.658 598.18 200.952 598.4 201.129L598.518 201.246C598.694 201.467 598.988 201.688 599.899 201.688H611.33V213.744C611.33 215.112 611.609 215.67 611.829 215.906C612.094 216.288 612.344 216.523 613.372 216.523C614.18 216.523 614.68 216.347 615.121 215.92C615.503 215.538 615.723 214.744 615.723 213.759V185.455C615.723 184.529 615.488 183.735 615.032 183.103C614.621 182.706 614.077 182.485 613.372 182.485C612.447 182.485 612.138 182.779 611.932 183.088C611.521 183.661 611.33 184.411 611.33 185.455V197.718H599.899V197.703ZM569.603 216.92C568.971 216.92 568.192 216.656 567.561 215.67C566.723 214.906 566.415 213.935 566.694 212.847C566.811 212.039 567.384 211.083 568.428 210.039L581.71 197.571C582.547 196.733 583.091 196.071 583.546 195.35C583.869 194.792 584.046 194.189 584.046 193.689C584.046 192.969 583.737 192.542 583.032 192.336C581.915 192.13 580.417 192.204 578.654 192.557L567.091 195.527C566.018 195.88 564.681 196.189 563.697 195.527C562.918 195.145 562.462 194.292 562.448 193.057C562.198 192.072 562.448 191.219 563.182 190.484C563.741 189.925 564.622 189.469 566.15 188.969L576.068 186.278C580.843 185.029 584.633 184.97 587.337 186.102C590.04 187.514 591.392 190.057 591.392 193.674C591.392 195.145 590.937 196.63 590.04 198.071C589.526 198.806 588.806 199.82 587.969 200.879L596.358 207.834C597.298 208.76 597.886 209.701 598.136 210.568C598.298 211.789 597.974 212.818 597.225 213.553C596.432 214.479 595.521 214.847 594.551 214.568C593.699 214.465 592.758 213.935 591.759 212.936L582.958 205.775L573.041 215.112C572.013 216.141 571.057 216.714 570.176 216.847C570 216.891 569.809 216.92 569.603 216.92ZM581.621 190.748C582.253 190.748 582.826 190.792 583.37 190.895C584.766 191.307 585.515 192.307 585.515 193.674C585.515 194.439 585.265 195.277 584.795 196.1C584.266 196.938 583.649 197.688 582.723 198.615L569.441 211.083C568.457 212.068 568.178 212.744 568.119 213.127C567.957 213.788 568.104 214.215 568.589 214.627L568.736 214.803C569.133 215.45 569.471 215.509 569.897 215.406C570.352 215.332 571.013 215.053 572.027 214.053L582.9 203.82L592.758 211.848C593.552 212.642 594.242 213.053 594.859 213.127C595.168 213.2 595.521 213.303 596.167 212.553C596.74 211.98 596.77 211.318 596.711 210.862C596.549 210.348 596.079 209.613 595.374 208.922L585.912 201.099L586.367 200.541C587.366 199.32 588.233 198.1 588.806 197.291C589.526 196.115 589.908 194.895 589.908 193.704C589.908 190.631 588.865 188.587 586.705 187.455C584.354 186.484 580.887 186.558 576.435 187.719L566.562 190.395C565.812 190.645 564.71 191.057 564.211 191.542C563.829 191.925 563.741 192.248 563.888 192.777L563.917 192.983C563.917 194.027 564.284 194.204 564.431 194.277C564.857 194.556 565.562 194.498 566.65 194.13H566.694L578.316 191.131C579.52 190.881 580.622 190.763 581.607 190.763L581.621 190.748Z" fill="#FFCD54"/>
</svg>
