<svg width="220" height="58" viewBox="0 0 220 58" fill="none" xmlns="http://www.w3.org/2000/svg">
<path d="M140.672 21.5612C144.759 22.0891 148.817 24.9101 149.401 29.2322C150.273 35.6713 147.465 41.1185 141.277 43.3689C137.211 44.8487 125.276 45.006 120.837 44.4674C117.256 44.0328 115.752 41.0119 115.598 37.7083C116.184 27.6271 114.854 16.7406 115.598 6.75793C115.843 3.44906 117.157 0.646778 120.808 0.236168C124.994 -0.235767 135.339 -0.0571246 139.216 1.29202C146.252 3.74235 150.129 11.9545 145.159 18.1857C143.834 19.8468 142.242 20.3054 140.672 21.5612ZM125.207 18.0977H132.273C132.449 18.0977 134.038 17.6231 134.347 17.5058C138.317 15.978 138.533 10.9414 134.638 9.33358C134.358 9.21893 133.214 8.76566 133.073 8.76566H125.207V18.0977ZM125.207 36.2285H134.139C134.512 36.2285 136.197 35.7379 136.667 35.5566C140.818 33.9622 140.541 27.7204 136.077 26.2886C135.422 26.0779 133.363 25.5633 132.803 25.5633H125.204V36.2285H125.207Z" fill="#9C79DE"/>
<path d="M24.582 21.3445L28.8401 22.8136C37.5482 28.1035 34.706 40.0459 25.7152 43.4081C21.7184 44.9039 9.93071 45.0399 5.51532 44.5386C2.98234 44.2533 0.596002 42.1923 0.316041 39.606C1.05461 28.6021 -0.665157 16.3185 0.305375 5.46667C0.56134 2.6084 2.71038 0.579346 5.51532 0.275388C10.8826 -0.308532 21.5051 -0.140555 26.1845 2.53908C33.9994 7.01312 33.3461 18.6089 24.582 21.3445ZM9.65075 18.1423H16.4498C17.295 18.1423 19.4654 17.369 20.1826 16.8091C22.145 15.268 22.377 12.0284 20.5852 10.2767C20.14 9.84207 18.0389 8.81021 17.519 8.81021H9.65342V18.1423H9.65075ZM9.65075 36.2731H18.5829C18.9561 36.2731 20.6412 35.7825 21.1105 35.6012C25.3366 33.9774 24.9793 27.6209 20.3159 26.2745C19.5907 26.0638 17.6203 25.6079 16.9831 25.6079H9.65075V36.2731Z" fill="#9C79DE"/>
<path d="M58.7086 40.5393C53.3973 45.0907 44.4066 44.2801 39.9378 38.9155C34.8052 32.7564 37.2022 23.499 36.8716 16.164C37.8981 10.8501 45.8224 10.8528 46.4463 16.4067C46.8969 20.3981 45.3824 29.1622 47.5128 32.1378C49.7578 35.2707 55.5623 35.4467 57.7594 32.2551C60.0471 28.9303 58.5566 20.87 58.9805 16.6786C59.5938 10.6128 67.8007 10.9087 68.5526 16.4333C69.1551 20.8594 68.7419 29.2822 68.5872 34.0176C68.3926 39.9474 68.1233 48.2929 64.0358 52.9296C58.7326 58.9421 45.969 58.9341 39.6419 54.6787C36.5063 52.5697 36.4796 48.7062 39.6925 46.7171C42.8201 44.7814 43.716 47.1384 45.9157 48.1383C52.0562 50.9352 59.6284 48.2316 58.7112 40.5393H58.7086Z" fill="#9C79DE"/>
<path d="M80.8418 31.4738C81.847 37.1796 88.4034 37.9395 93.0961 36.3958C95.2932 35.6732 98.3647 32.9909 100.263 35.9185C103.583 41.0351 96.0531 44.1733 92.1443 44.7759C82.5989 46.2477 72.331 41.651 71.5018 31.0845C70.5552 19.0035 77.7063 11.0819 90.0406 12.2791C97.2609 12.9803 104.031 21.0699 101.506 28.2715C101.13 29.3461 99.1833 31.4738 98.0421 31.4738H80.8445H80.8418ZM93.1068 25.0746C92.2323 17.7317 82.0897 18.1503 80.8418 25.0746H93.1068Z" fill="#9C79DE"/>
<path d="M205.692 11.5544C209.894 11.3608 214.669 12.6356 217.179 17.2819C219.771 22.082 220.514 26.3421 219.666 30.3102C218.833 34.2116 216.53 37.4941 213.727 40.4909C211.894 42.4504 209.258 43.4361 206.591 43.735C203.899 44.0366 200.959 43.6697 198.234 42.696C192.819 40.761 187.698 36.1623 187.698 28.9499C187.697 25.2915 189.227 22.1178 190.78 19.8356C192.337 17.5465 194.057 15.9475 194.778 15.3698C197.272 13.3706 201.525 11.7463 205.692 11.5544Z" fill="#755BA7"/>
<path d="M163.161 17.0849C166.855 15.8906 171.727 15.6503 176.181 18.8994C180.374 21.9587 183.074 25.2178 184.117 28.7314C185.188 32.3385 184.399 35.8149 182.441 38.9775C181.425 40.6171 179.735 41.711 177.994 42.4121C176.219 43.1268 174.163 43.5284 172.098 43.6357C168.076 43.8445 163.383 42.9589 160.362 40.3242C158.694 38.8695 156.537 35.8462 155.263 32.58C154.039 29.4419 153.293 25.1571 155.852 21.8388C156.138 21.3835 156.51 20.9769 156.853 20.6533C157.301 20.2296 157.849 19.7924 158.468 19.3711C159.704 18.5296 161.317 17.6814 163.161 17.0849Z" fill="#755BA7"/>
</svg>
