<svg width="62" height="56" viewBox="0 0 62 56" fill="none" xmlns="http://www.w3.org/2000/svg">
<g filter="url(#filter0_d_6121_49801)">
<path d="M26.7305 6.32986C39.2565 4.28186 48.2924 12.4252 48.688 12.7933C56.0265 19.6352 55.5208 28 55.4428 30.4338C55.3058 31.9942 55.1808 41.6642 47.3969 46.0231C46.2685 46.6549 43.807 48.4448 38.596 49.1888C28.95 50.5664 22.2665 50.1435 17.0804 48.269C14.7149 47.4146 8.87862 44.8421 6.04003 39.124C3.79904 34.6087 4.55848 30.4181 5.06616 27.6234C5.35528 26.029 6.37896 21.3533 10.2357 16.5698C12.1115 14.2431 17.2395 7.88097 26.7318 6.32986H26.7305Z" fill="#F8E2C6"/>
<path d="M26.6497 5.83594C38.6219 3.87848 47.4492 11.0442 48.8489 12.2666L49.0286 12.4268V12.4277C56.5423 19.4331 56.0209 28.0077 55.9426 30.4502L55.9407 30.4775C55.8746 31.2306 55.8061 34.1083 54.7629 37.333C53.718 40.5633 51.6794 44.1975 47.6409 46.459C46.5234 47.0848 43.9834 48.9244 38.6663 49.6836C28.9809 51.0668 22.205 50.6529 16.9104 48.7393C14.518 47.8751 8.52073 45.246 5.59204 39.3467C3.27128 34.6706 4.06646 30.3306 4.57446 27.5342L4.72485 26.7793C5.17756 24.7037 6.40753 20.5206 9.84595 16.2559C11.7323 13.9161 16.9621 7.42053 26.6497 5.83691V5.83594Z" stroke="#AA9070"/>
</g>
<path d="M30.0872 36.5C30.6672 36.5 31.2413 36.5058 31.7307 36.5664C32.2456 36.6302 32.5478 36.7427 32.6809 36.8662C32.8189 36.9943 32.9123 37.189 32.9651 37.499C33.0191 37.8167 33.0208 38.1908 33.0208 38.6396C33.0208 38.6946 32.9991 38.8775 32.9407 39.2002C32.8853 39.5057 32.8035 39.9006 32.7004 40.3545C32.4943 41.2622 32.2049 42.3938 31.8704 43.4971C31.5345 44.6048 31.1588 45.6656 30.7854 46.4414C30.5976 46.8317 30.4217 47.1256 30.2659 47.3145C30.1737 47.4262 30.1127 47.4713 30.0842 47.4893C30.0544 47.4709 29.9924 47.4248 29.8977 47.3135C29.7385 47.1262 29.5573 46.8347 29.3635 46.4482C28.9784 45.6801 28.5877 44.6284 28.2356 43.5273C27.8849 42.4305 27.5778 41.3023 27.3596 40.3906C27.2506 39.9351 27.1644 39.5368 27.1057 39.2256C27.044 38.8983 27.0208 38.7059 27.0208 38.6396C27.0206 37.7405 27.0271 37.3057 27.5217 36.8467C27.6536 36.7245 27.9468 36.6154 28.4534 36.5566C28.9366 36.5006 29.5031 36.5 30.0872 36.5Z" fill="#AA9070" stroke="#AA9070"/>
<path d="M33.5022 27.5352C34.109 27.4774 34.8065 27.49 35.4817 27.582C36.3452 27.6998 36.9275 27.9895 37.5227 28.3623C38.1123 28.7315 38.7809 29.2323 39.6995 29.6523C40.9617 30.2295 41.3474 30.6121 42.8528 30.9736C43.5907 31.1508 44.4109 31.3039 45.0422 31.4121C45.3585 31.4663 45.6295 31.5093 45.8215 31.5391C45.9176 31.554 45.9946 31.5664 46.0471 31.5742C46.0733 31.5781 46.0938 31.581 46.1077 31.583C46.1145 31.584 46.1197 31.5844 46.1233 31.585C46.125 31.5852 46.1262 31.5858 46.1272 31.5859H46.1292L46.1584 31.5898L46.1868 31.5908H46.1926C46.1963 31.5909 46.2019 31.5916 46.2092 31.5918C46.2246 31.5923 46.2482 31.5927 46.2776 31.5938C46.3364 31.5959 46.4209 31.5992 46.5227 31.6045C46.7276 31.6151 46.9994 31.6331 47.2717 31.6611C47.4563 31.6801 47.6326 31.7055 47.7854 31.7324C47.6803 31.8375 47.5495 31.9581 47.3948 32.0879C46.9086 32.4957 46.2501 32.9577 45.6262 33.3164C44.369 34.0392 42.159 34.9143 40.7649 35.1553C39.3421 35.4012 37.4238 35.5 35.55 35.5C34.1278 35.5 33.2277 35.4139 32.0891 34.75C31.6039 34.4671 31.28 34.271 31.0159 34.0352C30.7656 33.8116 30.5565 33.5399 30.3499 33.0928C30.0998 32.5519 30.0093 32.0907 30.0217 31.6328C30.0345 31.1658 30.1554 30.6734 30.3684 30.0664C30.5693 29.4939 30.77 29.0953 31.0305 28.7705C31.2894 28.4477 31.6296 28.1699 32.1477 27.8721C32.4089 27.7219 32.8814 27.5942 33.5022 27.5352Z" fill="#AA9070" stroke="#AA9070"/>
<path d="M26.7473 27.5352C26.1775 27.4779 25.5218 27.4896 24.887 27.5811C24.0796 27.6974 23.5347 27.9837 22.9729 28.3555C22.4176 28.7229 21.7807 29.226 20.9084 29.6475C19.7215 30.221 19.3469 30.6097 17.9163 30.9727C17.214 31.1508 16.4052 31.3039 15.7776 31.4121C15.4625 31.4664 15.1906 31.5102 14.9973 31.54C14.9008 31.5549 14.8239 31.5664 14.7708 31.5742C14.7442 31.5781 14.7233 31.581 14.7092 31.583C14.7025 31.584 14.6973 31.5844 14.6936 31.585C14.6918 31.5852 14.6897 31.5858 14.6887 31.5859H14.6877L14.6174 31.0908L14.6868 31.5859L14.6594 31.5898L14.6311 31.5908H14.6272C14.6239 31.5909 14.6184 31.5916 14.6116 31.5918C14.5979 31.5923 14.5772 31.5927 14.551 31.5938C14.4984 31.5959 14.4226 31.5992 14.3313 31.6045C14.1477 31.615 13.9047 31.6325 13.6614 31.6602C13.5076 31.6777 13.3614 31.7007 13.2336 31.7246C13.3366 31.8333 13.4662 31.9596 13.6213 32.0957C14.0859 32.5032 14.7142 32.964 15.304 33.3223C15.8785 33.6713 16.8249 34.0954 17.7493 34.4551C18.68 34.8173 19.523 35.0892 19.8899 35.1562C21.7673 35.4991 23.2255 35.5 24.7961 35.5H24.8157C26.3508 35.5 27.234 35.3303 28.1663 34.7559C28.6917 34.4321 28.9625 34.2432 29.1604 34.0332C29.3497 33.8322 29.4954 33.586 29.7073 33.1016C29.9445 32.5592 30.0316 32.0952 30.0198 31.6328C30.0077 31.1617 29.8925 30.6663 29.6907 30.0586C29.5 29.4844 29.3093 29.0847 29.0627 28.7598C28.8185 28.438 28.4982 28.1622 28.011 27.8662C27.7709 27.7204 27.3313 27.5939 26.7473 27.5352Z" fill="#AA9070" stroke="#AA9070"/>
<path d="M21.9885 18.2725C25.2893 18.2725 28.0247 20.6955 28.5139 23.8594H29.8625V26.1455H28.469C27.8768 29.1845 25.2007 31.4785 21.9885 31.4785C18.3424 31.4781 15.3862 28.5221 15.386 24.876C15.3861 21.2297 18.3423 18.2729 21.9885 18.2725ZM22.1165 20.0508C19.5221 20.0511 17.4193 22.1546 17.4192 24.749C17.4194 27.3433 19.5222 29.446 22.1165 29.4463C24.711 29.4463 26.8145 27.3436 26.8147 24.749C26.8146 22.1544 24.7111 20.0508 22.1165 20.0508Z" fill="#AA9070"/>
<path d="M37.7346 18.2725C34.4338 18.2725 31.6992 20.6955 31.2102 23.8594H29.8625V26.1455H31.2551C31.8471 29.1846 34.5224 31.4785 37.7346 31.4785C41.381 31.4784 44.3369 28.5223 44.3372 24.876C44.337 21.2296 41.3811 18.2726 37.7346 18.2725ZM37.6077 20.0508C40.2023 20.0508 42.3058 22.1545 42.3059 24.749C42.3057 27.3435 40.2022 29.4463 37.6077 29.4463C35.0131 29.4463 32.9096 27.3435 32.9094 24.749C32.9096 22.1545 35.0131 20.0508 37.6077 20.0508Z" fill="#AA9070"/>
<ellipse cx="20.8705" cy="21.4122" rx="2.14893" ry="1.12831" transform="rotate(-21.1395 20.8705 21.4122)" fill="url(#paint0_linear_6121_49801)" fill-opacity="0.5"/>
<ellipse cx="36.3538" cy="21.4222" rx="2.15" ry="1.12802" transform="rotate(-21.1395 36.3538 21.4222)" fill="url(#paint1_linear_6121_49801)" fill-opacity="0.5"/>
<defs>
<filter id="filter0_d_6121_49801" x="0.52063" y="1.99951" width="60.959" height="54.0005" filterUnits="userSpaceOnUse" color-interpolation-filters="sRGB">
<feFlood flood-opacity="0" result="BackgroundImageFix"/>
<feColorMatrix in="SourceAlpha" type="matrix" values="0 0 0 0 0 0 0 0 0 0 0 0 0 0 0 0 0 0 127 0" result="hardAlpha"/>
<feOffset dx="1" dy="1"/>
<feGaussianBlur stdDeviation="2"/>
<feComposite in2="hardAlpha" operator="out"/>
<feColorMatrix type="matrix" values="0 0 0 0 0 0 0 0 0 0 0 0 0 0 0 0 0 0 0.25 0"/>
<feBlend mode="normal" in2="BackgroundImageFix" result="effect1_dropShadow_6121_49801"/>
<feBlend mode="normal" in="SourceGraphic" in2="effect1_dropShadow_6121_49801" result="shape"/>
</filter>
<linearGradient id="paint0_linear_6121_49801" x1="20.8705" y1="20.2838" x2="20.8705" y2="22.5405" gradientUnits="userSpaceOnUse">
<stop stop-color="#FFEEDA"/>
<stop offset="1" stop-color="#E4D0B7"/>
</linearGradient>
<linearGradient id="paint1_linear_6121_49801" x1="36.3538" y1="20.2942" x2="36.3538" y2="22.5503" gradientUnits="userSpaceOnUse">
<stop stop-color="#FFEEDA"/>
<stop offset="1" stop-color="#E4D0B7"/>
</linearGradient>
</defs>
</svg>
