<svg width="56" height="56" viewBox="0 0 56 56" fill="none" xmlns="http://www.w3.org/2000/svg">
<g clip-path="url(#clip0_6121_49787)">
<g filter="url(#filter0_d_6121_49787)">
<path d="M24.6452 5.33735C37.4168 3.24282 46.6299 11.5712 47.0333 11.9476C54.5157 18.9451 54 27.5 54 30C53.8604 31.5958 53.6534 41.4748 45.7168 45.9327C44.5664 46.5789 42.0565 48.4094 36.7434 49.1703C26.9083 50.5792 20.0937 50.1467 14.8059 48.2296C12.394 47.3558 6.44331 44.7249 3.54907 38.8768C1.26414 34.2589 2.03847 29.973 2.55611 27.1149C2.85089 25.4842 3.89464 20.7022 7.82698 15.81C9.73955 13.4305 14.9681 6.92372 24.6466 5.33735H24.6452Z" fill="#CCEAC6"/>
<path d="M24.5645 4.84375C37.5781 2.70963 46.9461 11.1828 47.374 11.582H47.375C55.0312 18.742 54.5 27.5102 54.5 30V30.0215L54.498 30.0439C54.4302 30.8201 54.3401 33.7554 53.2568 37.0488C52.1719 40.3472 50.0756 44.0585 45.9619 46.3691C44.8224 47.0092 42.2339 48.8889 36.8145 49.665C26.9397 51.0796 20.0323 50.6557 14.6357 48.6992V48.7002C12.1966 47.8165 6.08466 45.1282 3.10059 39.0986C0.736329 34.3203 1.54651 29.8853 2.06445 27.0254C2.36694 25.3523 3.43264 20.4795 7.4375 15.4971C9.36048 13.1046 14.6902 6.4637 24.5645 4.84473V4.84375Z" stroke="#6B8A65"/>
</g>
<rect x="31" y="22" width="13" height="2" rx="1" fill="#6B8A65"/>
<rect x="11" y="22" width="13" height="2" rx="1" fill="#6B8A65"/>
<rect x="23" y="33" width="7" height="1.8" rx="0.9" fill="#6B8A65"/>
<path d="M39.002 26.8329C39.002 29.1343 37.6588 31 36.002 31C34.3451 31 33.002 29.1343 33.002 26.8329C33.002 19.5402 34.3451 22.6659 36.002 22.6659C37.6588 22.6659 39.002 20.5826 39.002 26.8329Z" fill="#6B8A65"/>
<path d="M21.002 26.8329C21.002 29.1343 19.6588 31 18.002 31C16.3451 31 15.002 29.1343 15.002 26.8329C15.002 19.54 16.3451 22.6657 18.002 22.6657C19.6588 22.6657 21.002 20.5824 21.002 26.8329Z" fill="#6B8A65"/>
<ellipse cx="1.40725" cy="1.18594" rx="1.40725" ry="1.18594" transform="matrix(0.0408504 -0.999165 0.999609 0.0279566 15 26.7451)" fill="url(#paint0_linear_6121_49787)" fill-opacity="0.5"/>
<ellipse cx="1.40725" cy="1.19377" rx="1.40725" ry="1.19377" transform="matrix(0.0409741 -0.99916 0.999611 0.0278722 32.9639 26.7363)" fill="url(#paint1_linear_6121_49787)" fill-opacity="0.5"/>
<path d="M31 33.901C31 32.9768 29 33.001 29 33.001V34.8009C29 34.8009 31 34.8251 31 33.901Z" fill="#6B8A65"/>
<path d="M22 33.901C22 32.9768 24 33.001 24 33.001V34.8009C24 34.8009 22 34.8251 22 33.901Z" fill="#6B8A65"/>
</g>
<defs>
<filter id="filter0_d_6121_49787" x="-2.00012" y="0.999512" width="62.0083" height="55.0005" filterUnits="userSpaceOnUse" color-interpolation-filters="sRGB">
<feFlood flood-opacity="0" result="BackgroundImageFix"/>
<feColorMatrix in="SourceAlpha" type="matrix" values="0 0 0 0 0 0 0 0 0 0 0 0 0 0 0 0 0 0 127 0" result="hardAlpha"/>
<feOffset dx="1" dy="1"/>
<feGaussianBlur stdDeviation="2"/>
<feComposite in2="hardAlpha" operator="out"/>
<feColorMatrix type="matrix" values="0 0 0 0 0 0 0 0 0 0 0 0 0 0 0 0 0 0 0.25 0"/>
<feBlend mode="normal" in2="BackgroundImageFix" result="effect1_dropShadow_6121_49787"/>
<feBlend mode="normal" in="SourceGraphic" in2="effect1_dropShadow_6121_49787" result="shape"/>
</filter>
<linearGradient id="paint0_linear_6121_49787" x1="1.40725" y1="4.72025e-09" x2="1.54057" y2="2.7829" gradientUnits="userSpaceOnUse">
<stop stop-color="#819C7B"/>
<stop offset="1" stop-color="#758D70"/>
</linearGradient>
<linearGradient id="paint1_linear_6121_49787" x1="1.40725" y1="4.75141e-09" x2="1.54234" y2="2.80119" gradientUnits="userSpaceOnUse">
<stop stop-color="#819C7B"/>
<stop offset="1" stop-color="#758D70"/>
</linearGradient>
<clipPath id="clip0_6121_49787">
<rect width="56" height="56" fill="white"/>
</clipPath>
</defs>
</svg>
