<svg width="62" height="57" viewBox="0 0 62 57" fill="none" xmlns="http://www.w3.org/2000/svg">
<g filter="url(#filter0_d_6121_49831)">
<path d="M26.7305 5.83735C39.2565 3.74282 48.2924 12.0712 48.688 12.4476C56.0265 19.4451 55.5208 28 55.4428 30.4892C55.3058 32.0849 55.1808 41.9748 47.3969 46.4327C46.2685 47.0789 43.807 48.9094 38.596 49.6703C28.95 51.0792 22.2665 50.6467 17.0804 48.7296C14.7149 47.8558 8.87862 45.2249 6.04003 39.3768C3.79904 34.7589 4.55848 30.473 5.06616 27.6149C5.35528 25.9842 6.37896 21.2022 10.2357 16.31C12.1115 13.9305 17.2395 7.42372 26.7318 5.83735H26.7305Z" fill="#FAD8D1"/>
<path d="M26.6477 5.34375C39.4197 3.20808 48.6126 11.6856 49.0325 12.085L49.0334 12.0859C56.5431 19.2468 56.0208 28.009 55.9426 30.5049L55.9407 30.5322C55.8745 31.304 55.806 34.2434 54.7639 37.5381C53.7203 40.8376 51.6841 44.5532 47.6458 46.8662C46.5288 47.5059 43.9874 49.3883 38.6682 50.165C28.9819 51.5798 22.204 51.1561 16.9075 49.1982C14.5127 48.3136 8.51676 45.6242 5.59009 39.5947C3.27254 34.8187 4.06554 30.387 4.57349 27.5273C4.8606 25.908 5.84985 21.2843 9.48267 16.4668L9.84302 16C11.7281 13.6086 16.9576 6.96482 26.6477 5.34473V5.34375Z" stroke="#BC7D70"/>
</g>
<path d="M13.9778 30.4092C13.6222 30.7999 13.4211 31.2241 13.5707 31.7518C13.7729 32.4645 14.543 32.6163 15.1989 32.423C15.8094 32.2432 18.5348 30.1408 20.8976 30.1854C22.908 30.2234 25.1715 31.7518 25.7821 31.9755C26.331 32.1767 26.8464 32.0257 27.2068 31.528C27.5078 31.1121 27.6266 30.6608 27.4103 30.1854C27.2068 29.7381 23.6138 27.5263 20.8976 27.5003C18.0045 27.4725 14.7923 29.5142 13.9778 30.4092Z" fill="#BC7D70"/>
<path d="M46.0637 30.4092C46.4193 30.7999 46.6204 31.2241 46.4708 31.7518C46.2686 32.4645 45.4985 32.6163 44.8426 32.423C44.2321 32.2432 41.5067 30.1408 39.1439 30.1854C37.1335 30.2234 34.87 31.7518 34.2594 31.9755C33.7105 32.1767 33.1951 32.0257 32.8347 31.528C32.5337 31.1121 32.4149 30.6608 32.6312 30.1854C32.8347 29.7381 36.4277 27.5263 39.1439 27.5003C42.037 27.4725 45.2493 29.5142 46.0637 30.4092Z" fill="#BC7D70"/>
<path d="M34.1996 36.1982C33.5448 35.3569 31.5208 35.5 29.5208 35.5002C27.5208 35.5004 25.6871 35.3007 25.0323 36.1982C23.9765 37.6455 24.8227 40.1029 25.5206 41C26.0444 41.6733 27.5489 44.5 29.5208 44.5C31.4926 44.5 33.1373 41.6733 33.5202 41C33.9032 40.3267 35.0725 37.3197 34.1996 36.1982Z" fill="#BC7D70"/>
<path d="M39.833 16.0339C39.4616 16.0071 39.0547 21.6428 39.0547 21.6428C39.0547 21.6428 38.0266 21.3983 37.3836 21.5221C36.2205 21.7461 35.166 22.2411 35.0062 23.4277C34.8177 24.8279 36.2344 25.8027 37.6287 25.883C38.8775 25.955 40.2728 25.4543 40.3639 24.1922L40.7572 18.7443C40.7572 18.7443 42.2509 19.4989 42.75 18.9998C43.2491 18.5006 41.4194 16.1484 39.833 16.0339Z" fill="#BC7D70"/>
<path d="M49.7928 11.2865C49.4007 11.2582 48.971 17.2089 48.971 17.2089C48.971 17.2089 47.8854 16.9508 47.2065 17.0815C45.9784 17.3181 44.8649 17.8407 44.6961 19.0936C44.4971 20.5721 45.9931 21.6015 47.4653 21.6863C48.7839 21.7622 50.2572 21.2336 50.3534 19.9008L50.7687 14.1484C50.7687 14.1484 52.0897 14.9577 52.6168 14.4306C53.082 13.9654 51.4679 11.4073 49.7928 11.2865Z" fill="#BC7D70"/>
<ellipse cx="1.81005" cy="1.00295" rx="1.81005" ry="1.00295" transform="matrix(0.991696 -0.128605 0.0969645 0.995288 35.5667 21.7646)" fill="url(#paint0_linear_6121_49831)" fill-opacity="0.5"/>
<ellipse cx="1.72312" cy="0.955553" rx="1.72312" ry="0.955553" transform="matrix(0.991696 -0.128605 0.0969645 0.995288 45.2424 17.3936)" fill="url(#paint1_linear_6121_49831)" fill-opacity="0.5"/>
<defs>
<filter id="filter0_d_6121_49831" x="0.52063" y="1.49948" width="60.9591" height="55.0005" filterUnits="userSpaceOnUse" color-interpolation-filters="sRGB">
<feFlood flood-opacity="0" result="BackgroundImageFix"/>
<feColorMatrix in="SourceAlpha" type="matrix" values="0 0 0 0 0 0 0 0 0 0 0 0 0 0 0 0 0 0 127 0" result="hardAlpha"/>
<feOffset dx="1" dy="1"/>
<feGaussianBlur stdDeviation="2"/>
<feComposite in2="hardAlpha" operator="out"/>
<feColorMatrix type="matrix" values="0 0 0 0 0 0 0 0 0 0 0 0 0 0 0 0 0 0 0.25 0"/>
<feBlend mode="normal" in2="BackgroundImageFix" result="effect1_dropShadow_6121_49831"/>
<feBlend mode="normal" in="SourceGraphic" in2="effect1_dropShadow_6121_49831" result="shape"/>
</filter>
<linearGradient id="paint0_linear_6121_49831" x1="1.81005" y1="0" x2="1.81005" y2="2.00591" gradientUnits="userSpaceOnUse">
<stop stop-color="#CE9E94"/>
<stop offset="1" stop-color="#B47467"/>
</linearGradient>
<linearGradient id="paint1_linear_6121_49831" x1="1.72312" y1="0" x2="1.72312" y2="1.91111" gradientUnits="userSpaceOnUse">
<stop stop-color="#CE9E94"/>
<stop offset="1" stop-color="#B47467"/>
</linearGradient>
</defs>
</svg>
