<svg width="62" height="57" viewBox="0 0 62 57" fill="none" xmlns="http://www.w3.org/2000/svg">
<g filter="url(#filter0_d_6121_49821)">
<path d="M26.7305 5.83735C39.2565 3.74282 48.2924 12.0712 48.688 12.4476C56.0265 19.4451 55.5208 28 55.4428 30.4892C55.3058 32.0849 55.1808 41.9748 47.3969 46.4327C46.2685 47.0789 43.807 48.9094 38.596 49.6703C28.95 51.0792 22.2665 50.6467 17.0804 48.7296C14.7149 47.8558 8.87862 45.2249 6.04003 39.3768C3.79904 34.7589 4.55848 30.473 5.06616 27.6149C5.35528 25.9842 6.37896 21.2022 10.2357 16.31C12.1115 13.9305 17.2395 7.42372 26.7318 5.83735H26.7305Z" fill="#C8E6F4"/>
<path d="M26.6477 5.34375C39.4197 3.20808 48.6126 11.6856 49.0325 12.085L49.0334 12.0859C56.5431 19.2468 56.0208 28.009 55.9426 30.5049L55.9407 30.5322C55.8745 31.304 55.806 34.2434 54.7639 37.5381C53.7203 40.8376 51.6841 44.5532 47.6458 46.8662C46.5288 47.5059 43.9874 49.3883 38.6682 50.165C28.9819 51.5798 22.204 51.1561 16.9075 49.1982C14.5127 48.3136 8.51676 45.6242 5.59009 39.5947C3.27254 34.8187 4.06554 30.387 4.57349 27.5273C4.8606 25.908 5.84985 21.2843 9.48267 16.4668L9.84302 16C11.7281 13.6086 16.9576 6.96482 26.6477 5.34473V5.34375Z" stroke="#598FB0"/>
</g>
<path d="M46.4988 30.3632C47.176 29.9253 47.1897 29.6859 47.1658 29.2644C47.1418 28.843 46.471 28.5442 45.8493 28.5665C45.2277 28.5887 42.2598 29.5708 40.102 28.9969C38.2661 28.5086 36.5319 26.8365 36.0208 26.5C35.5612 26.1974 34.9287 26.1711 34.5254 26.5015C34.1222 26.8319 34.0261 27.5015 34.5262 28.0014C35.0262 28.5012 37.0048 30.4486 39.5166 30.9753C42.0254 31.5014 45.8216 30.8011 46.4988 30.3632Z" fill="#598FB0"/>
<path d="M13.3689 30.3632C12.6917 29.9253 12.6779 29.6859 12.7019 29.2644C12.7259 28.843 13.3967 28.5442 14.0183 28.5665C14.64 28.5887 17.6079 29.5708 19.7656 28.9969C21.6016 28.5086 23.3357 26.8365 23.8469 26.5C24.3065 26.1974 24.939 26.1711 25.3423 26.5015C25.7455 26.8319 25.8415 27.5015 25.3415 28.0014C24.8415 28.5012 22.8629 30.4486 20.3511 30.9753C17.8423 31.5014 14.0461 30.8011 13.3689 30.3632Z" fill="#598FB0"/>
<path d="M12.5208 39.2298C12.521 36.3456 15.0661 32.5 15.6117 32.5C16.5207 32.5 18.5208 36.5379 18.5208 39.2298C18.5208 40.9828 17.2685 42.4455 15.6117 42.4986C13.9054 42.5532 12.5206 41.0351 12.5208 39.2298Z" fill="#598FB0"/>
<path d="M24.5208 36.5C24.5208 36.5 27.4823 35.5 30.0208 35.5C32.7104 35.5 35.5208 36.5 35.5208 36.5" stroke="#598FB0" stroke-width="2.1" stroke-linecap="round"/>
<ellipse cx="14.8588" cy="35.4354" rx="1.79274" ry="1.15748" transform="rotate(-65.0411 14.8588 35.4354)" fill="url(#paint0_linear_6121_49821)" fill-opacity="0.5"/>
<defs>
<filter id="filter0_d_6121_49821" x="0.52063" y="1.49948" width="60.9591" height="55.0005" filterUnits="userSpaceOnUse" color-interpolation-filters="sRGB">
<feFlood flood-opacity="0" result="BackgroundImageFix"/>
<feColorMatrix in="SourceAlpha" type="matrix" values="0 0 0 0 0 0 0 0 0 0 0 0 0 0 0 0 0 0 127 0" result="hardAlpha"/>
<feOffset dx="1" dy="1"/>
<feGaussianBlur stdDeviation="2"/>
<feComposite in2="hardAlpha" operator="out"/>
<feColorMatrix type="matrix" values="0 0 0 0 0 0 0 0 0 0 0 0 0 0 0 0 0 0 0.25 0"/>
<feBlend mode="normal" in2="BackgroundImageFix" result="effect1_dropShadow_6121_49821"/>
<feBlend mode="normal" in="SourceGraphic" in2="effect1_dropShadow_6121_49821" result="shape"/>
</filter>
<linearGradient id="paint0_linear_6121_49821" x1="14.8588" y1="34.2779" x2="14.8588" y2="36.5929" gradientUnits="userSpaceOnUse">
<stop stop-color="#7AA8C5"/>
<stop offset="1" stop-color="#5182A1"/>
</linearGradient>
</defs>
</svg>
