<svg width="271" height="61" viewBox="0 0 271 61" fill="none" xmlns="http://www.w3.org/2000/svg">
<path d="M259.004 0C265.631 0.00012745 271.004 5.37266 271.004 12V36C271.004 42.6273 265.631 47.9999 259.004 48H141.842C141.771 48.3631 141.649 48.7262 141.467 49.0801L136.83 58.0898C135.341 60.9825 131.206 60.9824 129.717 58.0898L125.08 49.0801C124.898 48.7262 124.776 48.3632 124.705 48H12C5.37258 48 0 42.6274 0 36V12C0 5.37258 5.37258 0 12 0H259.004Z" fill="#F5F2FC" fill-opacity="0.2"/>
<path d="M125.529 47L125.687 47.8086C125.74 48.0814 125.832 48.3545 125.97 48.6221L130.606 57.6318C131.723 59.8013 134.824 59.8012 135.94 57.6318L140.577 48.6221C140.715 48.3545 140.807 48.0813 140.86 47.8086L141.018 47H259.004V48H141.842C141.771 48.3631 141.649 48.7262 141.467 49.0801L136.83 58.0898C135.341 60.9825 131.206 60.9824 129.717 58.0898L125.08 49.0801C124.898 48.7262 124.776 48.3632 124.705 48H12V47H125.529ZM270.004 36V12C270.004 6.11494 265.382 1.30956 259.57 1.01465L259.004 1H12C5.92487 1 1 5.92487 1 12V36C1 42.0751 5.92487 47 12 47V48C5.37258 48 0 42.6274 0 36V12C0 5.37258 5.37258 0 12 0H259.004C265.631 0.00012745 271.004 5.37266 271.004 12V36C271.004 42.6273 265.631 47.9999 259.004 48V47C265.079 46.9999 270.004 42.075 270.004 36Z" fill="#9C79DE"/>
<path d="M223.213 26.0977C223.23 23.8652 223.863 23.1797 224.971 22.4941C225.727 22.0195 226.289 21.4219 226.289 20.543C226.289 19.5586 225.533 18.9258 224.566 18.9258C223.688 18.9258 222.844 19.4883 222.791 20.666H220.594C220.646 18.3105 222.422 17.0977 224.584 17.0977C226.957 17.0977 228.592 18.416 228.592 20.5078C228.592 21.9316 227.871 22.8633 226.729 23.5488C225.709 24.1641 225.287 24.7793 225.27 26.0977V26.2559H223.213V26.0977ZM224.303 30.1406C223.547 30.1406 222.932 29.5254 222.932 28.7695C222.932 28.0312 223.547 27.416 224.303 27.416C225.023 27.416 225.656 28.0312 225.656 28.7695C225.656 29.5254 225.023 30.1406 224.303 30.1406Z" fill="#F5F2FC"/>
<path d="M219.666 28.0312V29.6309H205.147V28.0312H208.504V24.0059C207.239 23.2852 206.474 22.1514 206.483 20.7363C206.465 18.2051 208.961 16.5352 212.371 16.5352C215.799 16.5352 218.295 18.2051 218.295 20.7363C218.295 22.125 217.557 23.2412 216.326 23.9707V28.0312H219.666ZM212.371 18.082C209.998 18.082 208.381 19.084 208.399 20.7363C208.381 22.3711 209.998 23.3906 212.371 23.3906C214.744 23.3906 216.379 22.3711 216.379 20.7363C216.379 19.084 214.744 18.082 212.371 18.082ZM210.438 28.0312H214.34V24.709C213.734 24.8496 213.074 24.9199 212.371 24.9199C211.686 24.9199 211.035 24.8496 210.438 24.7266V28.0312Z" fill="#F5F2FC"/>
<path d="M202.444 15.6738V22.0195H204.641V23.6367H202.444V31.5645H200.475V15.6738H202.444ZM194.534 17.3438C194.516 21.5098 193.936 25.0254 191.071 28.1191L189.542 27.0117C191.783 24.6387 192.512 22.125 192.67 18.9434H190.174V17.3438H194.534ZM198.928 17.3438C198.911 21.6152 198.471 25.6934 195.606 29.1387L194.042 28.0664C196.309 25.3682 196.942 22.3887 197.083 18.9434H195.061V17.3438H198.928Z" fill="#F5F2FC"/>
<path d="M178.208 15.9199V17.168H185.063V15.9199H186.997V21.2109H182.567V22.4238H188.878V23.9707H174.394V22.4238H180.634V21.2109H176.274V15.9199H178.208ZM178.208 19.752H185.063V18.5918H178.208V19.752ZM187.067 24.9727V28.8223H178.032V29.9297H187.507V31.4238H176.116V27.4512H185.151V26.4141H176.099V24.9727H187.067Z" fill="#F5F2FC"/>
<path d="M171.462 15.6738V21.8789H173.818V23.5137H171.462V31.5293H169.511V15.6738H171.462ZM167.261 17.3262C167.261 22.002 165.327 26.0977 160.036 28.6992L158.929 27.1875C162.796 25.2627 164.888 22.5557 165.292 18.9434H159.79V17.3262H167.261Z" fill="#F5F2FC"/>
<path d="M152.855 15.6738V31.582H150.904V23.127H148.18V21.5273H150.904V15.6738H152.855ZM147.266 17.0625V22.8809H142.062V26.2207C144.418 26.2119 146.325 26.1328 148.461 25.7461L148.619 27.3457C146.246 27.7676 144.137 27.8555 141.395 27.8555H140.129V21.2988H145.35V18.6445H140.076V17.0625H147.266Z" fill="#F5F2FC"/>
<path d="M136.617 15.6738V22.002H139.061V23.6191H136.617V31.5645H134.684V15.6738H136.617ZM133.453 18.1172V19.6816H124.084V18.1172H127.846V15.9023H129.797V18.1172H133.453ZM128.83 20.7188C131.115 20.7188 132.82 22.2656 132.82 24.4629C132.82 26.6602 131.115 28.1895 128.83 28.1895C126.51 28.1895 124.805 26.6602 124.822 24.4629C124.805 22.2656 126.51 20.7188 128.83 20.7188ZM128.83 22.3184C127.582 22.3184 126.686 23.1621 126.686 24.4629C126.686 25.7637 127.582 26.5898 128.83 26.5723C130.043 26.5898 130.939 25.7637 130.957 24.4629C130.939 23.1621 130.043 22.3184 128.83 22.3184Z" fill="#F5F2FC"/>
<path d="M114.491 18.4336C114.491 20.3848 115.756 22.3184 118.252 23.1445L117.268 24.6562C115.493 24.0674 114.227 22.8721 113.542 21.3867C112.83 23.0127 111.511 24.3047 109.657 24.9375L108.62 23.4258C111.186 22.582 112.522 20.5254 112.522 18.4336V18.2402H109.165V16.6758H117.795V18.2402H114.491V18.4336ZM121.329 15.6738V19.6465H123.543V21.2812H121.329V25.2539H119.377V15.6738H121.329ZM121.329 25.9922V31.5645H119.377V27.5566H110.747V25.9922H121.329Z" fill="#F5F2FC"/>
<path d="M99.4304 19.4883C99.4128 22.4062 100.942 25.3242 103.526 26.4316L102.366 27.9961C100.538 27.1523 99.1931 25.4648 98.4636 23.3906C97.7341 25.6318 96.3718 27.46 94.4382 28.3652L93.2429 26.7305C95.8972 25.5879 97.4441 22.5469 97.4441 19.4883V16.957H99.4304V19.4883ZM106.637 15.6738V31.582H104.669V15.6738H106.637Z" fill="#F5F2FC"/>
<path d="M81.1753 15.9199C84.7964 15.9199 86.8882 16.8867 86.9058 18.6445C86.8882 20.4199 84.7964 21.3691 81.1753 21.3867C77.5542 21.3691 75.4448 20.4199 75.4448 18.6445C75.4448 16.8867 77.5542 15.9199 81.1753 15.9199ZM81.1753 17.3613C78.7495 17.3613 77.4839 17.8184 77.5015 18.6445C77.4839 19.5234 78.7495 19.9277 81.1753 19.9277C83.6362 19.9277 84.8843 19.5234 84.8843 18.6445C84.8843 17.8184 83.6362 17.3613 81.1753 17.3613ZM88.4351 22.2305V23.7949H73.9507V22.2305H88.4351ZM86.6245 24.8672V28.752H77.5894V29.9297H87.064V31.4238H75.6733V27.3633H84.7085V26.3086H75.6558V24.8672H86.6245Z" fill="#F5F2FC"/>
<path d="M71.8806 15.6738V25.1133H69.9294V21.2285H67.2224V19.6289H69.9294V15.6738H71.8806ZM66.5017 25.5176C69.8767 25.5176 71.9333 26.625 71.9333 28.541C71.9333 30.457 69.8767 31.5645 66.5017 31.5645C63.1443 31.5645 61.0876 30.457 61.1052 28.541C61.0876 26.625 63.1443 25.5176 66.5017 25.5176ZM66.5017 27.0117C64.2869 27.0117 63.0388 27.5391 63.0388 28.541C63.0388 29.5254 64.2869 30.0527 66.5017 30.0527C68.7166 30.0527 69.9822 29.5254 69.9822 28.541C69.9822 27.5391 68.7166 27.0117 66.5017 27.0117ZM64.4099 18.3984C64.4099 20.332 65.6931 22.2832 68.1541 23.1094L67.1697 24.6562C65.4031 24.0586 64.1462 22.8457 63.4607 21.3516C62.7576 23.0479 61.4304 24.4014 59.5408 25.0781L58.5212 23.5312C61.0701 22.6523 62.4236 20.5078 62.4236 18.416V18.293H59.1189V16.7109H67.697V18.293H64.4099V18.3984Z" fill="#F5F2FC"/>
<path d="M47.5391 16.834C48.9805 16.834 50.167 17.6338 50.8789 19.0312H54.5879V15.6738H56.5215V31.582H54.5879V25.5703H51.0195C50.334 27.1523 49.0771 28.0664 47.5391 28.0664C45.1484 28.0664 43.4609 25.9043 43.4609 22.4414C43.4609 19.0137 45.1484 16.834 47.5391 16.834ZM47.5391 18.5918C46.2207 18.5918 45.3242 20.0156 45.3418 22.4414C45.3242 24.8848 46.2207 26.3086 47.5391 26.3086C48.8574 26.3086 49.7363 24.8848 49.7539 22.4414C49.7363 20.0156 48.8574 18.5918 47.5391 18.5918ZM51.4238 20.6309C51.5381 21.1846 51.5996 21.791 51.5996 22.4414C51.5996 22.9951 51.5557 23.5049 51.4766 23.9883H54.5879V20.6309H51.4238Z" fill="#F5F2FC"/>
</svg>
