<svg width="327" height="61" viewBox="0 0 327 61" fill="none" xmlns="http://www.w3.org/2000/svg">
<mask id="path-1-inside-1_5528_26189" fill="white">
<path d="M315 0C321.627 3.67227e-06 327 5.37259 327 12V36C327 42.6274 321.627 48 315 48H172.877L167.521 57.9385C166.011 60.7418 161.989 60.7418 160.479 57.9385L155.123 48H12C5.37259 48 0 42.6274 0 36V12C0 5.37258 5.37258 0 12 0H315Z"/>
</mask>
<path d="M315 0C321.627 3.67227e-06 327 5.37259 327 12V36C327 42.6274 321.627 48 315 48H172.877L167.521 57.9385C166.011 60.7418 161.989 60.7418 160.479 57.9385L155.123 48H12C5.37259 48 0 42.6274 0 36V12C0 5.37258 5.37258 0 12 0H315Z" fill="white" fill-opacity="0.1"/>
<path d="M315 0L315 -1H315V0ZM172.877 48V47C172.509 47 172.171 47.2019 171.997 47.5256L172.877 48ZM167.521 57.9385L166.641 57.4641L166.641 57.4641L167.521 57.9385ZM160.479 57.9385L161.359 57.4641L161.359 57.4641L160.479 57.9385ZM155.123 48L156.003 47.5256C155.829 47.2019 155.491 47 155.123 47V48ZM12 48L12 49H12V48ZM315 0L315 1C321.075 1 326 5.92487 326 12H327H328C328 4.8203 322.18 -0.999996 315 -1L315 0ZM327 12H326V36H327H328V12H327ZM327 36H326C326 42.0751 321.075 47 315 47V48V49C322.18 49 328 43.1797 328 36H327ZM315 48V47H172.877V48V49H315V48ZM172.877 48L171.997 47.5256L166.641 57.4641L167.521 57.9385L168.402 58.4128L173.757 48.4744L172.877 48ZM167.521 57.9385L166.641 57.4641C165.508 59.5666 162.492 59.5666 161.359 57.4641L160.479 57.9385L159.598 58.4128C161.486 61.917 166.514 61.917 168.402 58.4128L167.521 57.9385ZM160.479 57.9385L161.359 57.4641L156.003 47.5256L155.123 48L154.243 48.4744L159.598 58.4128L160.479 57.9385ZM155.123 48V47H12V48V49H155.123V48ZM12 48L12 47C5.92487 47 1 42.0751 1 36H0H-1C-1 43.1797 4.8203 49 12 49L12 48ZM0 36H1V12H0H-1V36H0ZM0 12H1C1 5.92487 5.92487 1 12 1V0V-1C4.8203 -1 -1 4.8203 -1 12H0ZM12 0V1H315V0V-1H12V0Z" fill="#A16DFF" mask="url(#path-1-inside-1_5528_26189)"/>
</svg>
