<svg width="273" height="62" viewBox="0 0 273 62" fill="none" xmlns="http://www.w3.org/2000/svg">
<mask id="path-1-inside-1_928_22755" fill="white">
<path d="M260.5 0C267.127 0.00012745 272.5 5.37266 272.5 12V36C272.5 42.6273 267.127 47.9999 260.5 48H143.338C143.267 48.3631 143.145 48.7262 142.963 49.0801L138.326 58.0898C136.837 60.9825 132.702 60.9824 131.213 58.0898L126.576 49.0801C126.394 48.7262 126.272 48.3632 126.201 48H13.4961C6.86868 48 1.49609 42.6274 1.49609 36V12C1.49609 5.37258 6.86868 0 13.4961 0H260.5Z"/>
</mask>
<path d="M260.5 0C267.127 0.00012745 272.5 5.37266 272.5 12V36C272.5 42.6273 267.127 47.9999 260.5 48H143.338C143.267 48.3631 143.145 48.7262 142.963 49.0801L138.326 58.0898C136.837 60.9825 132.702 60.9824 131.213 58.0898L126.576 49.0801C126.394 48.7262 126.272 48.3632 126.201 48H13.4961C6.86868 48 1.49609 42.6274 1.49609 36V12C1.49609 5.37258 6.86868 0 13.4961 0H260.5Z" fill="#F5F2FC" fill-opacity="0.2"/>
<path d="M260.5 0L260.5 -1H260.5V0ZM260.5 48L260.5 49L260.5 49L260.5 48ZM143.338 48V47H142.514L142.356 47.8091L143.338 48ZM142.963 49.0801L143.852 49.5377L143.852 49.5376L142.963 49.0801ZM138.326 58.0898L139.215 58.5475L139.215 58.5474L138.326 58.0898ZM131.213 58.0898L130.324 58.5474L130.324 58.5475L131.213 58.0898ZM126.576 49.0801L125.687 49.5377L125.687 49.5377L126.576 49.0801ZM126.201 48L127.183 47.809L127.025 47H126.201V48ZM260.5 0L260.5 1C266.575 1.00012 271.5 5.92497 271.5 12H272.5H273.5C273.5 4.82036 267.68 -0.999862 260.5 -1L260.5 0ZM272.5 12H271.5V36H272.5H273.5V12H272.5ZM272.5 36H271.5C271.5 42.075 266.575 46.9999 260.5 47L260.5 48L260.5 49C267.68 48.9999 273.5 43.1796 273.5 36H272.5ZM260.5 48V47H143.338V48V49H260.5V48ZM143.338 48L142.356 47.8091C142.303 48.0818 142.211 48.3549 142.074 48.6225L142.963 49.0801L143.852 49.5376C144.079 49.0975 144.231 48.6444 144.319 48.1909L143.338 48ZM142.963 49.0801L142.074 48.6225L137.437 57.6323L138.326 58.0898L139.215 58.5474L143.852 49.5377L142.963 49.0801ZM138.326 58.0898L137.437 57.6322C136.32 59.8016 133.219 59.8016 132.102 57.6322L131.213 58.0898L130.324 58.5475C132.185 62.1631 137.354 62.1633 139.215 58.5475L138.326 58.0898ZM131.213 58.0898L132.102 57.6323L127.465 48.6225L126.576 49.0801L125.687 49.5377L130.324 58.5474L131.213 58.0898ZM126.576 49.0801L127.465 48.6225C127.328 48.3549 127.236 48.0819 127.183 47.809L126.201 48L125.22 48.191C125.308 48.6444 125.46 49.0974 125.687 49.5377L126.576 49.0801ZM126.201 48V47H13.4961V48V49H126.201V48ZM13.4961 48V47C7.42096 47 2.49609 42.0751 2.49609 36H1.49609H0.496094C0.496094 43.1797 6.31639 49 13.4961 49V48ZM1.49609 36H2.49609V12H1.49609H0.496094V36H1.49609ZM1.49609 12H2.49609C2.49609 5.92487 7.42096 1 13.4961 1V0V-1C6.31639 -1 0.496094 4.8203 0.496094 12H1.49609ZM13.4961 0V1H260.5V0V-1H13.4961V0Z" fill="#9C79DE" mask="url(#path-1-inside-1_928_22755)"/>
<path d="M49.0355 16.834C50.4769 16.834 51.6634 17.6338 52.3753 19.0312H56.0843V15.6738H58.0179V31.582H56.0843V25.5703H52.516C51.8304 27.1523 50.5736 28.0664 49.0355 28.0664C46.6449 28.0664 44.9574 25.9043 44.9574 22.4414C44.9574 19.0137 46.6449 16.834 49.0355 16.834ZM49.0355 18.5918C47.7171 18.5918 46.8206 20.0156 46.8382 22.4414C46.8206 24.8848 47.7171 26.3086 49.0355 26.3086C50.3539 26.3086 51.2328 24.8848 51.2503 22.4414C51.2328 20.0156 50.3539 18.5918 49.0355 18.5918ZM52.9203 20.6309C53.0345 21.1846 53.096 21.791 53.096 22.4414C53.096 22.9951 53.0521 23.5049 52.973 23.9883H56.0843V20.6309H52.9203ZM73.377 15.6738V25.1133H71.4258V21.2285H68.7188V19.6289H71.4258V15.6738H73.377ZM67.9981 25.5176C71.3731 25.5176 73.4297 26.625 73.4297 28.541C73.4297 30.457 71.3731 31.5645 67.9981 31.5645C64.6406 31.5645 62.584 30.457 62.6016 28.541C62.584 26.625 64.6406 25.5176 67.9981 25.5176ZM67.9981 27.0117C65.7832 27.0117 64.5352 27.5391 64.5352 28.541C64.5352 29.5254 65.7832 30.0527 67.9981 30.0527C70.2129 30.0527 71.4785 29.5254 71.4785 28.541C71.4785 27.5391 70.2129 27.0117 67.9981 27.0117ZM65.9063 18.3984C65.9063 20.332 67.1895 22.2832 69.6504 23.1094L68.666 24.6562C66.8994 24.0586 65.6426 22.8457 64.9571 21.3516C64.2539 23.0479 62.9268 24.4014 61.0371 25.0781L60.0176 23.5312C62.5664 22.6523 63.9199 20.5078 63.9199 18.416V18.293H60.6153V16.7109H69.1934V18.293H65.9063V18.3984ZM82.6716 15.9199C86.2927 15.9199 88.3845 16.8867 88.4021 18.6445C88.3845 20.4199 86.2927 21.3691 82.6716 21.3867C79.0505 21.3691 76.9411 20.4199 76.9411 18.6445C76.9411 16.8867 79.0505 15.9199 82.6716 15.9199ZM82.6716 17.3613C80.2458 17.3613 78.9802 17.8184 78.9978 18.6445C78.9802 19.5234 80.2458 19.9277 82.6716 19.9277C85.1325 19.9277 86.3806 19.5234 86.3806 18.6445C86.3806 17.8184 85.1325 17.3613 82.6716 17.3613ZM89.9314 22.2305V23.7949H75.447V22.2305H89.9314ZM88.1208 24.8672V28.752H79.0856V29.9297H88.5603V31.4238H77.1696V27.3633H86.2048V26.3086H77.1521V24.8672H88.1208ZM100.927 19.4883C100.909 22.4062 102.439 25.3242 105.023 26.4316L103.862 27.9961C102.034 27.1523 100.69 25.4648 99.96 23.3906C99.2305 25.6318 97.8682 27.46 95.9346 28.3652L94.7393 26.7305C97.3936 25.5879 98.9405 22.5469 98.9405 19.4883V16.957H100.927V19.4883ZM108.134 15.6738V31.582H106.165V15.6738H108.134ZM115.987 18.4336C115.987 20.3848 117.253 22.3184 119.749 23.1445L118.764 24.6562C116.989 24.0674 115.723 22.8721 115.038 21.3867C114.326 23.0127 113.008 24.3047 111.153 24.9375L110.116 23.4258C112.682 22.582 114.018 20.5254 114.018 18.4336V18.2402H110.661V16.6758H119.292V18.2402H115.987V18.4336ZM122.825 15.6738V19.6465H125.04V21.2812H122.825V25.2539H120.874V15.6738H122.825ZM122.825 25.9922V31.5645H120.874V27.5566H112.243V25.9922H122.825ZM138.114 15.6738V22.002H140.557V23.6191H138.114V31.5645H136.18V15.6738H138.114ZM134.95 18.1172V19.6816H125.58V18.1172H129.342V15.9023H131.293V18.1172H134.95ZM130.327 20.7188C132.612 20.7188 134.317 22.2656 134.317 24.4629C134.317 26.6602 132.612 28.1895 130.327 28.1895C128.006 28.1895 126.301 26.6602 126.319 24.4629C126.301 22.2656 128.006 20.7188 130.327 20.7188ZM130.327 22.3184C129.079 22.3184 128.182 23.1621 128.182 24.4629C128.182 25.7637 129.079 26.5898 130.327 26.5723C131.539 26.5898 132.436 25.7637 132.454 24.4629C132.436 23.1621 131.539 22.3184 130.327 22.3184ZM154.352 15.6738V31.582H152.4V23.127H149.676V21.5273H152.4V15.6738H154.352ZM148.762 17.0625V22.8809H143.559V26.2207C145.914 26.2119 147.821 26.1328 149.957 25.7461L150.115 27.3457C147.742 27.7676 145.633 27.8555 142.891 27.8555H141.625V21.2988H146.846V18.6445H141.572V17.0625H148.762ZM172.958 15.6738V21.8789H175.314V23.5137H172.958V31.5293H171.007V15.6738H172.958ZM168.757 17.3262C168.757 22.002 166.824 26.0977 161.533 28.6992L160.425 27.1875C164.292 25.2627 166.384 22.5557 166.789 18.9434H161.287V17.3262H168.757ZM179.704 15.9199V17.168H186.56V15.9199H188.493V21.2109H184.064V22.4238H190.374V23.9707H175.89V22.4238H182.13V21.2109H177.771V15.9199H179.704ZM179.704 19.752H186.56V18.5918H179.704V19.752ZM188.564 24.9727V28.8223H179.528V29.9297H189.003V31.4238H177.612V27.4512H186.648V26.4141H177.595V24.9727H188.564ZM203.94 15.6738V22.0195H206.138V23.6367H203.94V31.5645H201.972V15.6738H203.94ZM196.03 17.3438C196.013 21.5098 195.432 25.0254 192.567 28.1191L191.038 27.0117C193.279 24.6387 194.009 22.125 194.167 18.9434H191.671V17.3438H196.03ZM200.425 17.3438C200.407 21.6152 199.968 25.6934 197.102 29.1387L195.538 28.0664C197.805 25.3682 198.438 22.3887 198.579 18.9434H196.557V17.3438H200.425ZM221.163 28.0312V29.6309H206.643V28.0312H210V24.0059C208.735 23.2852 207.97 22.1514 207.979 20.7363C207.961 18.2051 210.458 16.5352 213.868 16.5352C217.295 16.5352 219.792 18.2051 219.792 20.7363C219.792 22.125 219.053 23.2412 217.823 23.9707V28.0312H221.163ZM213.868 18.082C211.495 18.082 209.877 19.084 209.895 20.7363C209.877 22.3711 211.495 23.3906 213.868 23.3906C216.241 23.3906 217.875 22.3711 217.875 20.7363C217.875 19.084 216.241 18.082 213.868 18.082ZM211.934 28.0312H215.836V24.709C215.23 24.8496 214.571 24.9199 213.868 24.9199C213.182 24.9199 212.532 24.8496 211.934 24.7266V28.0312ZM224.709 26.0977C224.727 23.8652 225.36 23.1797 226.467 22.4941C227.223 22.0195 227.785 21.4219 227.785 20.543C227.785 19.5586 227.029 18.9258 226.063 18.9258C225.184 18.9258 224.34 19.4883 224.287 20.666H222.09C222.143 18.3105 223.918 17.0977 226.08 17.0977C228.453 17.0977 230.088 18.416 230.088 20.5078C230.088 21.9316 229.367 22.8633 228.225 23.5488C227.205 24.1641 226.783 24.7793 226.766 26.0977V26.2559H224.709V26.0977ZM225.799 30.1406C225.043 30.1406 224.428 29.5254 224.428 28.7695C224.428 28.0312 225.043 27.416 225.799 27.416C226.52 27.416 227.153 28.0312 227.153 28.7695C227.153 29.5254 226.52 30.1406 225.799 30.1406Z" fill="#F5F2FC"/>
</svg>
