<svg width="24" height="24" viewBox="0 0 24 24" fill="none" xmlns="http://www.w3.org/2000/svg">
<path d="M9.90562 4.98528C10.5512 4.40936 11.9583 4.34579 12.132 4.46916C12.3058 4.59253 12.5529 6.2199 11.8212 6.84916C11.0795 7.48711 9.38987 7.18965 9.22206 6.91318C9.05424 6.6367 9.29437 5.5306 9.90562 4.98528Z" fill="#A16DFF"/>
<path d="M9.90562 4.79021C10.5512 4.21429 11.9583 4.15072 12.132 4.27409C12.3058 4.39746 12.5529 6.02483 11.8212 6.6541C11.0795 7.29204 9.38987 6.99458 9.22206 6.71811C9.05424 6.44164 9.29437 5.33553 9.90562 4.79021Z" fill="#A16DFF"/>
<path d="M18.9912 15.3672C19.5517 15.7109 20.1035 16.0501 20.5225 16.3086C20.7214 16.4313 20.89 16.5346 21.0146 16.6123C20.9973 16.6854 20.9634 16.796 20.8887 16.9492C20.8784 16.9703 20.8667 16.9845 20.8594 16.9961C20.8533 16.9951 20.8471 16.9936 20.8408 16.9922L17.1357 14.2314C17.6194 14.5273 18.3116 14.9504 18.9912 15.3672ZM16.04 13.2295C16.068 13.3237 16.1115 13.42 16.1709 13.5127L15.6963 13.1592L15.6797 13.1465L15.6621 13.1348L15.293 12.8828C15.5011 12.8229 15.6874 12.7013 15.8291 12.5371C15.921 12.8314 16.01 13.1283 16.04 13.2295Z" fill="#59481D" stroke="#735C26" stroke-width="2"/>
<path d="M8.5 6.80493C8.5 6.80493 15 10.3049 15 16.1383C15 17.6938 14.0714 20.8049 8.5 20.8049M8.5 6.80493C8.5 6.80493 2 10.3049 2 16.1383C2 17.6938 2.92857 20.8049 8.5 20.8049" fill="#A16DFF"/>
<mask id="mask0_9494_94182" style="mask-type:alpha" maskUnits="userSpaceOnUse" x="2" y="6" width="13" height="15">
<path d="M8.5 6.80493C8.5 6.80493 15 10.3049 15 16.1383C15 17.6938 14.0714 20.8049 8.5 20.8049M8.5 6.80493C8.5 6.80493 2 10.3049 2 16.1383C2 17.6938 2.92857 20.8049 8.5 20.8049" fill="#96CE5A"/>
</mask>
<g mask="url(#mask0_9494_94182)">
<path d="M7 18.8049C4.38132 18.7312 1 15.8049 1 15.8049L3 20.3049L9.5 21.8049L15.5 19.3049L16 13.3049L12.5 9.30493C12.5 9.30493 14.3807 14.5595 12.5 16.8049C11.0325 18.557 9.28458 18.8692 7 18.8049Z" fill="#9162E6"/>
</g>
<path d="M10.8438 5.32568C10.8438 5.32568 9.91273 5.69105 9.60309 6.25774C9.38414 6.65845 9.33695 7.41409 9.33695 7.41409" stroke="#8157CC" stroke-width="0.5" stroke-linecap="round"/>
<path d="M8.45508 7.94922C8.45508 7.94922 8.40115 7.94016 7.74239 8.8435C7.47334 9.21245 7.00079 10.2399 7.00079 10.2399" stroke="#8157CC" stroke-width="0.5" stroke-linecap="round"/>
<path d="M8.2832 7.51953C8.2832 7.51953 8.33308 7.4971 9.19922 8.20407C9.55297 8.4928 10.2704 9.36705 10.2704 9.36705" stroke="#8157CC" stroke-width="0.5" stroke-linecap="round"/>
<line x1="17.3426" y1="13.9126" x2="20.0132" y2="15.4977" stroke="#59481D" stroke-width="0.5" stroke-linecap="round"/>
<path d="M8.62179 4.24469C7.90833 3.33832 6.07582 2.92732 5.81896 3.04884C5.56211 3.17036 4.85889 5.24934 5.67299 6.24579C6.49832 7.25599 8.78577 7.25876 9.07044 6.93486C9.35511 6.61095 9.29733 5.1029 8.62179 4.24469Z" fill="#A16DFF"/>
<path d="M6.62109 4.25586C6.62109 4.25586 6.67548 4.2501 7.27806 5.19185C7.52416 5.57648 7.93331 6.63082 7.93331 6.63082" stroke="#8157CC" stroke-width="0.5" stroke-linecap="round"/>
<path d="M8.7832 5.58911C9.64286 5.58911 10.2832 6.08911 10.2832 7.20022C10.2832 7.49652 10.0689 8.08911 8.7832 8.08911M8.7832 5.58911C7.92355 5.58911 7.2832 6.08911 7.2832 7.20022C7.2832 7.49652 7.49749 8.08911 8.7832 8.08911" fill="#A16DFF"/>
<path d="M8.7832 5.58911C9.64286 5.58911 10.2832 6.08911 10.2832 7.20022C10.2832 7.49652 10.0689 8.08911 8.7832 8.08911C7.49749 8.08911 7.2832 7.49652 7.2832 7.20022C7.2832 6.08911 7.92355 5.58911 8.7832 5.58911Z" stroke="#8157CC" stroke-width="0.5" stroke-linecap="round" stroke-linejoin="round"/>
</svg>
