<svg width="24" height="24" viewBox="0 0 24 24" fill="none" xmlns="http://www.w3.org/2000/svg">
<path d="M3 5C3 4.44772 3.44772 4 4 4H17C17.5523 4 18 4.44772 18 5V19C18 19.5523 17.5523 20 17 20H4C3.44772 20 3 19.5523 3 19V5Z" fill="url(#paint0_linear_983_24442)" fill-opacity="0.5"/>
<path d="M4 5V19H17V5H4ZM19 19C19 20.1046 18.1046 21 17 21H4C2.89543 21 2 20.1046 2 19V5C2 3.89543 2.89543 3 4 3H17C18.1046 3 19 3.89543 19 5V19Z" fill="#9C79DE"/>
<path d="M11 12C11.5523 12 12 12.4477 12 13C12 13.5523 11.5523 14 11 14H7C6.44772 14 6 13.5523 6 13C6 12.4477 6.44772 12 7 12H11Z" fill="#9C79DE"/>
<path d="M13 8C13.5523 8 14 8.44772 14 9C14 9.55228 13.5523 10 13 10H7C6.44772 10 6 9.55228 6 9C6 8.44772 6.44772 8 7 8H13Z" fill="#9C79DE"/>
<path d="M20.1679 9.44531C20.4743 8.98578 21.0951 8.86161 21.5546 9.16797C22.0142 9.47432 22.1383 10.0952 21.832 10.5547L19.1708 14.5459C18.1825 16.0282 15.8955 15.576 15.5458 13.8291L15.5136 13.665L13.6962 16.5732C12.6313 18.2771 10.0003 17.5227 9.99994 15.5137V14.8594L6.87396 20.4853C6.60578 20.9681 5.99735 21.1421 5.51459 20.874C5.03186 20.6058 4.85784 19.9974 5.12592 19.5146L8.25189 13.8877C9.25423 12.084 11.9999 12.7957 11.9999 14.8594V15.5137L13.8173 12.6055C14.7768 11.0704 17.1195 11.4983 17.4746 13.2734L17.5068 13.4365L20.1679 9.44531Z" fill="#FFCD54"/>
<defs>
<linearGradient id="paint0_linear_983_24442" x1="10.9513" y1="4" x2="10.9513" y2="20.2163" gradientUnits="userSpaceOnUse">
<stop stop-color="#9C79DE"/>
<stop offset="1" stop-color="#9C79DE" stop-opacity="0"/>
</linearGradient>
</defs>
</svg>
