<svg width="24" height="24" viewBox="0 0 24 24" fill="none" xmlns="http://www.w3.org/2000/svg">
<path d="M12 3C16.9706 3 21 7.02944 21 12C21 16.9706 16.9706 21 12 21C7.02944 21 3 16.9706 3 12C3 7.02944 7.02944 3 12 3Z" fill="black"/>
<path d="M13 6.5L12.7664 14.4076H11.2774L11 6.5H13ZM12.0365 15.7349C12.562 15.7349 12.927 16.0879 12.927 16.6104C12.927 17.1329 12.562 17.5 12.0365 17.5C11.4964 17.5 11.1168 17.1329 11.1168 16.6104C11.1168 16.0879 11.4964 15.7349 12.0365 15.7349Z" fill="white"/>
</svg>
