<svg width="815" height="1185" viewBox="0 0 815 1185" fill="none" xmlns="http://www.w3.org/2000/svg">
<path d="M758.475 1185H55.8612C25.0655 1185 0 1159.93 0 1129.1V55.9021C0 25.0839 25.0509 0 55.8612 0H758.475C789.271 0 814.336 25.0692 814.336 55.9021V1129.1C814.336 1159.92 789.286 1185 758.475 1185ZM55.8612 11.7774C31.545 11.7774 11.7541 31.568 11.7541 55.9168V1129.11C11.7541 1153.45 31.5303 1173.25 55.8612 1173.25H758.475C782.792 1173.25 802.582 1153.46 802.582 1129.11V55.9021C802.582 31.5681 782.792 11.7627 758.475 11.7627H55.8612V11.7774Z" fill="#FFCC66"/>
<path d="M649.119 833.694H165.998C135.202 833.694 110.137 808.625 110.137 777.792V258.367C110.137 227.549 135.188 202.465 165.998 202.465H649.105C679.9 202.465 704.966 227.535 704.966 258.367V777.807C704.966 808.625 679.915 833.709 649.105 833.709L649.119 833.694ZM165.998 214.228C141.682 214.228 121.891 234.033 121.891 258.367V777.807C121.891 802.141 141.682 821.946 165.998 821.946H649.105C673.421 821.946 693.212 802.155 693.212 777.807V258.367C693.212 234.033 673.436 214.228 649.105 214.228H165.998Z" fill="#FFCC66"/>
<path d="M262.63 1140.85H157.505C154.904 1140.85 152.598 1139.13 151.863 1136.63C151.128 1134.13 152.127 1131.44 154.317 1130.02C156.065 1128.89 160.296 1125.63 161.78 1119.7C163.602 1112.39 159.753 1106.51 158.959 1105.41C157.299 1103.09 157.549 1099.9 159.547 1097.87C161.545 1095.82 164.719 1095.53 167.07 1097.15C179.94 1106.04 193.913 1113.23 208.591 1118.53C226.016 1124.8 244.265 1128.36 262.851 1129.1C266.054 1129.23 268.551 1131.89 268.493 1135.1C268.434 1138.3 265.819 1140.86 262.616 1140.86L262.63 1140.85ZM170.669 1129.08H203.272C193.164 1125.35 183.379 1120.78 174.034 1115.41C174.063 1117.64 173.814 1120.03 173.197 1122.53C172.594 1124.98 171.698 1127.16 170.669 1129.07V1129.08Z" fill="#FFCC66"/>
<path d="M44.211 1033.04C43.6527 1033.04 43.1091 1032.97 42.5508 1032.81C40.053 1032.07 38.334 1029.78 38.334 1027.16V921.958C38.334 918.752 40.8905 916.135 44.0935 916.076C44.1376 916.076 44.1669 916.076 44.211 916.076C47.3552 916.076 49.9558 918.561 50.0881 921.722C50.8227 940.307 54.3783 958.584 60.652 976.022C65.9414 990.711 73.126 1004.69 82.015 1017.57C83.6312 1019.93 83.3374 1023.1 81.2951 1025.1C79.2528 1027.1 76.0792 1027.35 73.7578 1025.69C72.6559 1024.9 66.7788 1021.06 59.4766 1022.87C53.5555 1024.34 50.2938 1028.57 49.1624 1030.34C48.0605 1032.06 46.1798 1033.03 44.2257 1033.03L44.211 1033.04ZM50.0881 981.359V1013.99C52.0128 1012.96 54.1873 1012.07 56.6263 1011.46C59.124 1010.84 61.5042 1010.59 63.7375 1010.62C58.3747 1001.27 53.8053 991.475 50.0734 981.359H50.0881Z" fill="#FFCC66"/>
<path d="M128.531 1136.14C126.9 1136.14 125.284 1135.91 123.711 1135.44C115.924 1133.1 110.341 1125.11 109.812 1115.59C109.636 1112.34 112.104 1109.57 115.351 1109.38C118.569 1109.19 121.361 1111.67 121.552 1114.92C121.801 1119.45 124.093 1123.26 127.105 1124.17C129.647 1124.94 132.336 1123.36 133.335 1122.78C137.831 1120.14 140.681 1114.09 139.844 1108.95C138.61 1101.47 129.06 1096.35 121.126 1096.35C121.037 1096.35 120.935 1096.35 120.846 1096.35C110.429 1096.52 100.659 1106.35 98.1463 1119.25C97.5145 1122.44 94.4291 1124.51 91.2555 1123.89C88.0672 1123.26 85.9955 1120.17 86.6126 1116.98C90.2417 1098.47 104.567 1084.84 120.67 1084.59C120.817 1084.59 120.979 1084.59 121.126 1084.59C134.026 1084.59 149.159 1093.08 151.466 1107.04C153.097 1116.97 147.984 1127.85 139.3 1132.94C135.642 1135.08 132.042 1136.14 128.575 1136.14H128.531Z" fill="#FFCC66"/>
<path d="M59.0783 1098.47C56.3308 1098.47 53.8625 1096.53 53.3188 1093.72C52.7018 1090.53 54.7734 1087.44 57.9617 1086.81C70.8471 1084.28 80.6764 1074.52 80.8381 1064.09C80.9556 1056.1 75.8279 1046.32 68.2465 1045.07C63.1335 1044.23 57.0655 1047.08 54.4355 1051.58C53.8478 1052.6 52.2757 1055.27 53.0397 1057.82C53.9506 1060.83 57.7413 1063.11 62.2813 1063.37C65.5284 1063.55 67.9967 1066.33 67.8204 1069.58C67.6441 1072.83 64.8819 1075.3 61.6202 1075.12C52.0994 1074.58 44.1213 1068.99 41.7852 1061.21C40.3012 1056.27 41.1387 1051.04 44.2829 1045.66C49.3519 1036.97 60.2391 1031.83 70.1566 1033.48C84.2761 1035.8 92.7831 1051.29 92.5774 1064.3C92.3277 1080.41 78.7076 1094.75 60.2097 1098.38C59.8277 1098.46 59.4457 1098.5 59.0783 1098.5V1098.47Z" fill="#FFCC66"/>
<path d="M656.832 1140.85H551.707C548.504 1140.85 545.888 1138.29 545.83 1135.08C545.771 1131.88 548.269 1129.21 551.472 1129.08C570.058 1128.35 588.306 1124.79 605.731 1118.51C620.409 1113.22 634.382 1106.03 647.253 1097.13C649.603 1095.51 652.777 1095.81 654.775 1097.85C656.773 1099.9 657.023 1103.07 655.363 1105.4C654.569 1106.5 650.735 1112.36 652.542 1119.69C654.011 1125.61 658.243 1128.88 660.006 1130.01C662.195 1131.42 663.194 1134.11 662.459 1136.61C661.725 1139.11 659.433 1140.83 656.817 1140.83L656.832 1140.85ZM611.079 1129.08H643.682C642.654 1127.16 641.772 1124.98 641.155 1122.54C640.538 1120.04 640.288 1117.66 640.318 1115.42C630.973 1120.79 621.188 1125.36 611.079 1129.1V1129.08Z" fill="#FFCC66"/>
<path d="M770.141 1033.04C768.187 1033.04 766.307 1032.06 765.205 1030.35C764.073 1028.6 760.812 1024.37 754.891 1022.88C747.588 1021.06 741.711 1024.91 740.609 1025.7C738.288 1027.37 735.1 1027.12 733.072 1025.12C731.03 1023.12 730.736 1019.94 732.352 1017.59C741.241 1004.71 748.426 990.725 753.715 976.036C759.989 958.598 763.545 940.337 764.279 921.737C764.411 918.532 767.071 916.003 770.274 916.091C773.477 916.15 776.033 918.767 776.033 921.972V1027.17C776.033 1029.78 774.314 1032.09 771.816 1032.82C771.273 1032.98 770.715 1033.06 770.156 1033.06L770.141 1033.04ZM750.924 1010.62C753.069 1010.62 755.346 1010.87 757.726 1011.46C760.18 1012.07 762.354 1012.96 764.264 1013.99V981.359C760.533 991.475 755.963 1001.27 750.6 1010.62C750.703 1010.62 750.806 1010.62 750.924 1010.62Z" fill="#FFCC66"/>
<path d="M685.807 1136.14C682.325 1136.14 678.74 1135.07 675.081 1132.94C666.398 1127.85 661.27 1116.97 662.901 1107.04C665.223 1092.91 680.694 1084.46 693.697 1084.59C709.8 1084.84 724.125 1098.47 727.754 1116.98C728.371 1120.17 726.3 1123.26 723.111 1123.89C719.923 1124.51 716.838 1122.44 716.221 1119.25C713.693 1106.35 703.938 1096.52 693.52 1096.35C693.432 1096.35 693.329 1096.35 693.241 1096.35C685.307 1096.35 675.757 1101.47 674.523 1108.95C673.685 1114.09 676.536 1120.14 681.032 1122.78C682.046 1123.36 684.72 1124.94 687.276 1124.17C690.288 1123.26 692.565 1119.47 692.83 1114.92C693.006 1111.67 695.768 1109.2 699.03 1109.38C702.277 1109.56 704.746 1112.34 704.569 1115.59C704.04 1125.11 698.442 1133.1 690.67 1135.44C689.098 1135.91 687.482 1136.14 685.851 1136.14H685.807Z" fill="#FFCC66"/>
<path d="M755.259 1098.47C754.877 1098.47 754.509 1098.44 754.127 1098.35C735.629 1094.72 722.009 1080.39 721.76 1064.27C721.554 1051.27 730.076 1035.79 744.18 1033.45C754.098 1031.82 764.97 1036.94 770.054 1045.63C773.198 1051.01 774.036 1056.24 772.552 1061.18C770.216 1068.96 762.238 1074.56 752.717 1075.09C749.484 1075.25 746.707 1072.8 746.516 1069.55C746.34 1066.3 748.809 1063.54 752.056 1063.34C756.581 1063.09 760.386 1060.8 761.297 1057.79C762.061 1055.24 760.504 1052.55 759.901 1051.55C757.272 1047.05 751.218 1044.2 746.09 1045.04C738.524 1046.29 733.381 1056.07 733.499 1064.07C733.66 1074.49 743.49 1084.27 756.375 1086.78C759.564 1087.41 761.635 1090.5 761.018 1093.69C760.474 1096.5 758.006 1098.44 755.259 1098.44V1098.47Z" fill="#FFCC66"/>
<path d="M163.75 84.4114C162.222 84.4114 160.694 83.8086 159.562 82.647C157.564 80.6033 157.314 77.4273 158.975 75.1042C159.768 74.0015 163.603 68.1348 161.796 60.8126C160.326 54.8871 156.095 51.623 154.332 50.4908C152.143 49.0793 151.143 46.3886 151.878 43.889C152.613 41.3895 154.905 39.6692 157.52 39.6692H262.645C265.848 39.6692 268.464 42.2276 268.523 45.4329C268.581 48.6382 266.084 51.2995 262.881 51.4319C244.294 52.167 226.046 55.7252 208.621 62.0035C193.943 67.2967 179.97 74.4867 167.1 83.3822C166.086 84.0879 164.925 84.4261 163.764 84.4261L163.75 84.4114ZM170.67 51.4319C171.698 53.358 172.58 55.5341 173.197 57.9748C173.814 60.4744 174.064 62.8563 174.034 65.0912C183.379 59.7245 193.164 55.1518 203.273 51.4171H170.67V51.4319Z" fill="#FFCC66"/>
<path d="M44.211 264.439C44.211 264.439 44.1376 264.439 44.0935 264.439C40.8905 264.38 38.334 261.763 38.334 258.557V153.355C38.334 150.752 40.053 148.444 42.5508 147.709C45.0485 146.974 47.7372 147.973 49.1477 150.164C50.2791 151.914 53.5408 156.149 59.4619 157.634C66.7641 159.457 72.6412 155.604 73.7431 154.811C76.0645 153.149 79.2528 153.399 81.2804 155.399C83.3227 157.398 83.6165 160.574 82.0004 162.927C73.1113 175.807 65.9267 189.79 60.6373 204.478C54.3636 221.916 50.808 240.178 50.0734 258.778C49.9411 261.939 47.3552 264.424 44.1963 264.424L44.211 264.439ZM50.0881 166.529V199.156C53.82 189.04 58.3894 179.247 63.7522 169.896C61.5042 169.926 59.1387 169.676 56.6409 169.058C54.1873 168.44 52.0128 167.558 50.1027 166.529H50.0881Z" fill="#FFCC66"/>
<path d="M121.112 95.9233C120.965 95.9233 120.803 95.9233 120.656 95.9233C104.553 95.6733 90.228 82.0433 86.599 63.5318C85.9819 60.3412 88.0535 57.2535 91.2418 56.6213C94.4301 56.0037 97.5156 58.0769 98.1326 61.2675C100.66 74.1623 110.416 83.9989 120.833 84.1606C120.921 84.1606 121.024 84.1606 121.112 84.1606C129.046 84.1606 138.596 79.0438 139.83 71.5598C140.668 66.4284 137.817 60.3706 133.321 57.7387C132.308 57.1506 129.634 55.5773 127.092 56.3419C124.08 57.2535 121.802 61.047 121.538 65.5903C121.362 68.8397 118.585 71.3099 115.338 71.1334C112.091 70.957 109.622 68.1781 109.799 64.9286C110.327 55.4009 115.925 47.417 123.698 45.0792C128.634 43.5941 133.865 44.4322 139.242 47.5787C147.926 52.6661 153.054 63.5465 151.423 73.4713C149.131 87.4247 133.983 95.9233 121.082 95.9233H121.112Z" fill="#FFCC66"/>
<path d="M66.4251 147.342C57.6242 147.342 48.7352 142.475 44.2981 134.859C41.1538 129.478 40.3164 124.243 41.8003 119.303C44.1364 111.525 52.1145 105.923 61.6353 105.394C64.8677 105.217 67.6446 107.687 67.8356 110.937C68.0119 114.186 65.5435 116.95 62.2965 117.141C57.7712 117.391 53.9658 119.685 53.0548 122.699C52.2908 125.243 53.8629 127.934 54.4506 128.948C57.0806 133.447 63.1339 136.3 68.2617 135.462C75.8283 134.212 80.9707 124.434 80.8532 116.436C80.6916 106.011 70.8622 96.2334 57.9768 93.7191C54.7886 93.0868 52.7169 89.9991 53.334 86.8085C53.9658 83.6179 57.0512 81.5447 60.2248 82.1623C78.7228 85.794 92.3428 100.13 92.5926 116.245C92.7983 129.242 84.2766 144.725 70.1717 147.063C68.9375 147.269 67.6886 147.372 66.4251 147.372V147.342Z" fill="#FFCC66"/>
<path d="M650.588 84.4112C649.427 84.4112 648.266 84.073 647.253 83.3673C634.382 74.4718 620.409 67.2819 605.731 61.9887C588.306 55.7103 570.058 52.1521 551.472 51.417C548.269 51.2846 545.771 48.6233 545.83 45.418C545.888 42.2127 548.504 39.6543 551.707 39.6543H656.832C659.433 39.6543 661.739 41.3746 662.474 43.8742C663.209 46.3737 662.21 49.0644 660.02 50.4759C658.272 51.6081 654.041 54.8722 652.557 60.7977C650.735 68.1052 654.584 73.9866 655.378 75.0893C657.038 77.4124 656.788 80.6031 654.79 82.6321C653.644 83.7937 652.13 84.3965 650.602 84.3965L650.588 84.4112ZM611.079 51.4317C621.188 55.1663 630.973 59.739 640.318 65.1058C640.288 62.8709 640.538 60.4889 641.155 57.9893C641.758 55.5339 642.654 53.3578 643.682 51.4464H611.079V51.4317Z" fill="#FFCC66"/>
<path d="M770.142 264.439C766.998 264.439 764.397 261.954 764.265 258.793C763.53 240.208 759.975 221.931 753.701 204.493C748.412 189.805 741.227 175.822 732.338 162.942C730.722 160.589 731.016 157.413 733.058 155.414C735.1 153.414 738.274 153.164 740.595 154.825C741.697 155.619 747.574 159.472 754.876 157.648C760.798 156.178 764.059 151.944 765.191 150.179C766.601 147.988 769.29 146.989 771.788 147.724C774.285 148.459 776.004 150.753 776.004 153.37V258.572C776.004 261.777 773.448 264.395 770.245 264.453C770.201 264.453 770.171 264.453 770.127 264.453L770.142 264.439ZM750.601 169.896C755.964 179.248 760.533 189.04 764.265 199.156V166.529C762.34 167.558 760.166 168.441 757.727 169.058C755.229 169.676 752.849 169.882 750.616 169.896H750.601Z" fill="#FFCC66"/>
<path d="M693.24 95.9233C680.34 95.9233 665.207 87.4394 662.9 73.4713C661.269 63.5465 666.382 52.6661 675.066 47.5787C680.443 44.4322 685.674 43.5941 690.61 45.0792C698.398 47.417 703.981 55.4009 704.51 64.9286C704.686 68.1781 702.218 70.9423 698.971 71.1334C695.724 71.3099 692.961 68.8397 692.77 65.5903C692.521 61.0617 690.228 57.2535 687.217 56.3419C684.675 55.5773 681.986 57.1506 680.987 57.7387C676.491 60.3706 673.641 66.4284 674.478 71.5598C675.712 79.0438 685.262 84.1606 693.196 84.1606C693.299 84.1606 693.387 84.1606 693.49 84.1606C703.907 83.9989 713.678 74.1623 716.19 61.2675C716.822 58.0769 719.908 56.0037 723.081 56.6213C726.269 57.2535 728.341 60.3412 727.724 63.5318C724.095 82.0433 709.77 95.6733 693.667 95.9233C693.52 95.9233 693.358 95.9233 693.211 95.9233H693.24Z" fill="#FFCC66"/>
<path d="M747.927 147.341C746.678 147.341 745.429 147.238 744.18 147.032C730.061 144.709 721.554 129.227 721.76 116.214C722.009 100.099 735.629 85.7637 754.127 82.1319C757.316 81.4997 760.401 83.5876 761.018 86.7782C761.635 89.9688 759.564 93.0565 756.375 93.6888C743.49 96.2177 733.66 105.981 733.499 116.405C733.381 124.404 738.509 134.182 746.09 135.432C751.203 136.27 757.272 133.417 759.901 128.918C760.489 127.903 762.061 125.227 761.297 122.684C760.386 119.67 756.596 117.376 752.056 117.126C748.809 116.949 746.34 114.17 746.516 110.921C746.693 107.672 749.47 105.201 752.717 105.378C762.238 105.922 770.216 111.509 772.552 119.287C774.036 124.228 773.198 129.462 770.054 134.843C765.617 142.46 756.713 147.326 747.927 147.326V147.341Z" fill="#FFCC66"/>
<path d="M240.739 937.954C239.431 938.218 238.373 938.086 237.727 937.424C236.933 936.895 236.419 936.116 236.419 935.19C236.155 934.396 236.419 933.484 236.948 932.558C237.477 931.764 238.388 931.249 239.71 930.984C242.34 930.587 244.956 930.19 247.85 929.94C250.612 929.676 253.36 929.543 255.99 929.279C259.927 929.146 263.072 929.543 265.305 930.587C267.406 931.764 268.713 933.219 269.375 935.057C270.036 936.895 270.036 938.998 269.507 941.233C268.846 943.6 267.803 945.702 266.495 947.805C264.923 950.172 262.822 952.672 260.192 955.157C257.43 957.789 254.814 960.141 252.184 962.111C251.141 962.905 250.083 963.288 249.172 963.023C248.129 962.891 247.468 962.494 246.939 961.847C246.41 961.185 246.146 960.406 246.146 959.347C246.146 958.421 246.675 957.509 247.718 956.715C250.348 954.613 252.831 952.51 255.196 950.275C257.43 948.173 259.398 945.805 261.103 943.188C262.675 940.821 263.072 938.983 262.41 937.674C261.617 936.63 259.531 936.101 255.975 936.233C253.477 936.366 250.994 936.63 248.364 936.895C245.734 937.292 243.119 937.689 240.753 937.939L240.739 937.954ZM252.287 975.653C252.287 973.286 252.948 971.845 254.256 971.051C255.431 970.389 256.886 970.007 258.59 969.742C259.898 969.742 261.999 969.61 264.893 969.345C267.773 969.213 270.8 969.081 273.944 968.816C277.088 968.684 280.115 968.551 283.127 968.287C286.007 968.154 288.108 968.022 289.694 967.757C291.531 967.757 292.971 968.287 294.029 969.331C294.94 970.507 295.469 971.83 295.469 973.271V977.873C295.336 979.447 295.204 981.02 295.204 982.475V987.21C295.072 988.783 295.072 990.356 295.204 991.944C295.072 992.856 294.675 993.915 294.029 995.091C293.235 996.399 292.192 997.061 291.017 997.326C289.577 997.59 287.608 997.987 284.978 998.237C282.348 998.634 279.468 999.031 276.574 999.281C273.562 999.811 270.668 1000.08 268.038 1000.33C265.275 1000.72 263.189 1000.99 261.734 1001.12C258.723 1001.65 256.357 1000.99 254.785 999.149C253.081 997.576 252.287 995.605 252.287 993.238C252.155 991.533 252.155 989.959 252.155 988.504V984.563C252.155 983.255 252.155 981.931 252.287 980.49V975.638V975.653ZM259.633 976.829C259.501 978.138 259.501 979.329 259.501 980.373C259.369 981.681 259.369 982.872 259.369 983.916V987.327C259.369 988.636 259.369 989.827 259.501 990.871C259.501 992.18 259.766 992.974 260.412 993.503C260.941 994.032 261.852 994.165 263.174 993.9C265.672 993.635 268.287 993.238 270.917 992.856C273.415 992.591 275.781 992.194 278.131 991.944C280.232 991.68 282.201 991.415 284.038 991.15C285.61 991.018 286.918 990.886 287.711 990.621C287.843 987.739 287.975 984.71 287.975 981.696V974.741C285.61 974.874 283.127 975.006 280.497 975.138C277.735 975.403 275.119 975.668 272.622 975.8C269.992 976.065 267.509 976.329 265.275 976.462C262.91 976.726 260.941 976.859 259.633 976.859V976.829ZM293.368 940.586H306.753C307.796 940.586 308.721 940.983 309.515 941.497C310.044 942.159 310.426 943.071 310.426 944.129C310.426 945.305 310.029 946.099 309.515 946.629C308.721 947.29 307.81 947.555 306.753 947.555H293.764L294.425 959.641C294.558 961.214 294.293 962.405 293.764 963.052C293.103 963.846 292.192 964.229 291.002 964.229C289.695 964.229 288.637 963.964 288.122 963.185C287.461 962.523 287.079 961.347 287.079 959.773L285.11 923.662C284.846 922.221 284.978 921.03 285.639 920.119C286.168 919.325 287.079 918.942 288.402 918.942C289.577 918.942 290.503 919.339 291.281 920.119C291.81 921.03 292.192 922.221 292.457 923.53L293.368 940.6V940.586Z" fill="#FFCC66"/>
<path d="M259.839 1002.05C257.518 1002.05 255.593 1001.24 254.227 999.65C252.478 998.032 251.553 995.871 251.553 993.268C251.421 991.592 251.421 989.975 251.421 988.534V984.593C251.421 983.285 251.421 981.932 251.553 980.447V975.654C251.553 973.081 252.317 971.36 253.874 970.419C255.064 969.758 256.519 969.317 258.473 969.008C259.869 969.008 261.955 968.861 264.82 968.611H265.158C267.964 968.464 270.859 968.332 273.885 968.082C277.309 967.935 280.145 967.817 283.068 967.552C286.051 967.42 288.049 967.288 289.577 967.038C291.766 966.964 293.368 967.626 294.543 968.817C295.66 970.258 296.204 971.728 296.204 973.272V977.874C296.071 979.462 295.939 981.035 295.939 982.476V987.211C295.807 988.799 295.807 990.342 295.939 991.872V991.96V992.048C295.792 993.048 295.366 994.195 294.675 995.459C293.838 996.856 292.663 997.723 291.179 998.047L290.606 998.15C289.254 998.4 287.388 998.738 285.052 998.973C281.79 999.473 279.101 999.797 276.648 1000.03C273.944 1000.5 271.256 1000.77 268.875 1001L268.126 1001.08C265.393 1001.47 263.263 1001.74 261.823 1001.87C261.147 1001.99 260.486 1002.05 259.854 1002.05H259.839ZM289.695 968.508C288.225 968.758 286.168 968.89 283.171 969.037C280.247 969.287 277.397 969.42 273.974 969.567C270.947 969.817 268.038 969.949 265.232 970.081H264.923C262.014 970.361 259.928 970.493 258.59 970.493C256.93 970.758 255.637 971.155 254.624 971.713C253.948 972.11 253.037 972.978 253.037 975.668V980.521C252.904 981.991 252.904 983.314 252.904 984.593V988.534C252.904 989.931 252.904 991.533 253.037 993.21C253.037 995.474 253.771 997.238 255.299 998.635C256.754 1000.33 258.87 1000.9 261.632 1000.41C263.116 1000.28 265.217 1000.02 267.95 999.62L268.728 999.547C271.197 999.297 273.753 999.047 276.457 998.576C278.94 998.341 281.599 998.018 284.876 997.518C287.197 997.282 288.945 996.959 290.341 996.709L290.885 996.606C291.957 996.371 292.78 995.753 293.412 994.724C293.985 993.68 294.352 992.724 294.484 991.93C294.352 990.342 294.367 988.74 294.484 987.166V982.506C294.484 981.006 294.617 979.403 294.749 977.845V973.316C294.749 972.096 294.308 970.934 293.456 969.831C292.604 968.978 291.355 968.537 289.709 968.537L289.695 968.508ZM261.999 994.783C261.103 994.783 260.398 994.533 259.898 994.048C259.119 993.43 258.767 992.474 258.767 990.901C258.635 989.901 258.635 988.666 258.635 987.358V983.946C258.635 982.888 258.635 981.682 258.767 980.329C258.767 979.344 258.767 978.139 258.899 976.786L258.958 976.124H259.619C260.956 976.124 262.925 975.992 265.187 975.742C267.186 975.624 269.36 975.404 271.667 975.169L272.548 975.08C274.826 974.963 277.177 974.727 279.66 974.492L280.438 974.419C283.098 974.286 285.581 974.154 287.946 974.022L288.725 973.978V981.712C288.725 984.667 288.607 987.637 288.461 990.681L288.431 991.181L287.946 991.342C287.05 991.636 285.625 991.783 284.097 991.901C282.304 992.166 280.321 992.43 278.22 992.68C277.118 992.798 276.016 992.96 274.899 993.107C273.621 993.283 272.313 993.459 270.991 993.607C268.449 993.989 265.79 994.386 263.248 994.65C262.793 994.739 262.381 994.783 261.999 994.783ZM260.31 977.565C260.236 978.594 260.236 979.535 260.236 980.388C260.104 981.741 260.104 982.902 260.104 983.932V987.343C260.104 988.651 260.104 989.798 260.236 990.798C260.236 992.239 260.545 992.68 260.883 992.945C261.279 993.327 261.999 993.401 263.042 993.195C265.614 992.916 268.258 992.518 270.815 992.136C272.166 991.989 273.445 991.813 274.723 991.651C275.854 991.489 276.956 991.342 278.073 991.225C280.159 990.96 282.128 990.695 283.95 990.445C285.096 990.342 286.242 990.24 287.021 990.078C287.153 987.24 287.256 984.476 287.256 981.712V975.521C285.125 975.639 282.892 975.757 280.541 975.874L279.807 975.948C277.309 976.183 274.943 976.418 272.681 976.536L271.843 976.624C269.522 976.859 267.333 977.08 265.334 977.198C263.41 977.418 261.661 977.551 260.324 977.58L260.31 977.565ZM291.002 964.964C289.269 964.964 288.123 964.509 287.506 963.582C286.771 962.862 286.33 961.509 286.33 959.759L284.361 923.677C284.053 922.06 284.273 920.707 285.022 919.664C285.684 918.678 286.815 918.178 288.372 918.178C289.724 918.178 290.841 918.634 291.781 919.575L291.899 919.737C292.442 920.693 292.868 921.913 293.162 923.369L294.058 939.851H306.753C307.825 939.851 308.869 940.189 309.912 940.895L310.073 941.042C310.764 941.91 311.146 943.012 311.146 944.13C311.146 945.38 310.764 946.394 310.015 947.144C309.089 947.923 308.031 948.276 306.738 948.276H294.529L295.146 959.583C295.293 961.289 295.013 962.641 294.338 963.494C293.529 964.465 292.413 964.95 291.002 964.95V964.964ZM288.372 919.649C287.315 919.649 286.609 919.928 286.227 920.502C285.713 921.222 285.581 922.207 285.816 923.501L287.799 959.715C287.799 961.068 288.108 962.127 288.637 962.656C289.048 963.259 289.798 963.494 291.002 963.494C291.957 963.494 292.677 963.2 293.192 962.583C293.603 962.068 293.794 961.009 293.676 959.701L292.971 946.821H306.738C307.678 946.821 308.413 946.585 309.03 946.071C309.456 945.644 309.691 944.997 309.691 944.145C309.691 943.159 309.28 942.454 309.001 942.071C308.237 941.586 307.502 941.336 306.753 941.336H292.677L291.722 923.575C291.487 922.442 291.12 921.369 290.679 920.575C290.033 919.958 289.313 919.678 288.387 919.678L288.372 919.649ZM249.731 963.862C249.452 963.862 249.187 963.818 248.937 963.744C247.865 963.626 247.013 963.156 246.337 962.318C245.705 961.524 245.382 960.553 245.382 959.363C245.382 958.539 245.705 957.304 247.248 956.142C250.201 953.775 252.567 951.746 254.668 949.761C256.842 947.717 258.796 945.365 260.456 942.807C261.411 941.366 262.411 939.381 261.735 938.013C261.426 937.631 260.177 936.793 255.99 936.969C253.757 937.087 251.509 937.307 249.143 937.557L248.423 937.631C245.867 938.013 243.207 938.41 240.857 938.675C239.24 938.998 238.006 938.748 237.213 937.94C236.317 937.366 235.729 936.381 235.685 935.308C235.435 934.411 235.641 933.367 236.302 932.205C236.963 931.206 238.05 930.573 239.549 930.279C242.179 929.882 244.853 929.485 247.762 929.221C249.099 929.088 250.436 929 251.744 928.897C253.154 928.794 254.535 928.691 255.887 928.559C260.163 928.412 263.322 928.868 265.584 929.941C267.876 931.235 269.316 932.823 270.036 934.823C270.712 936.734 270.771 938.954 270.183 941.41C269.566 943.645 268.581 945.791 267.068 948.203C265.378 950.732 263.233 953.246 260.647 955.701C257.371 958.818 254.888 960.98 252.581 962.715C251.567 963.479 250.598 963.862 249.716 963.862H249.731ZM256.989 935.499C260.133 935.499 262.087 936.072 262.984 937.263C263.85 938.969 263.395 941.072 261.691 943.63C259.957 946.291 257.944 948.717 255.681 950.849C253.551 952.864 251.156 954.922 248.159 957.319C247.307 957.966 246.866 958.671 246.866 959.377C246.866 960.245 247.057 960.877 247.498 961.421C247.938 961.965 248.438 962.23 249.246 962.333C250.142 962.582 251.083 962.038 251.729 961.553C253.992 959.862 256.445 957.73 259.663 954.643C262.161 952.275 264.247 949.835 265.863 947.409C267.289 945.144 268.214 943.115 268.787 941.057C269.287 938.91 269.257 936.969 268.67 935.323C268.067 933.646 266.877 932.352 264.938 931.25C262.954 930.323 259.928 929.897 256.005 930.029C254.682 930.162 253.286 930.265 251.876 930.367C250.568 930.456 249.246 930.559 247.924 930.691C245.059 930.956 242.399 931.353 239.828 931.735C238.756 931.955 237.992 932.382 237.58 932.999C237.272 933.529 236.934 934.352 237.139 934.984L237.183 935.22C237.183 936.058 237.8 936.602 238.168 936.837C238.726 937.366 239.52 937.484 240.636 937.249H240.695C243.046 936.984 245.69 936.587 248.262 936.19L249.026 936.117C251.421 935.881 253.668 935.646 255.961 935.528C256.328 935.528 256.68 935.514 257.033 935.514L256.989 935.499Z" fill="#FFCD54"/>
<path d="M321.313 935.602C319.741 936.132 318.551 936.264 317.772 935.735C316.978 935.338 316.596 934.558 316.596 933.235C316.332 932.323 316.464 931.529 317.258 930.735C317.919 930.074 319.094 929.559 320.666 929.03L333.273 925.619C339.311 924.045 343.91 924.045 347.054 925.354C350.066 926.927 351.653 929.824 351.653 934.161C351.653 935.867 351.124 937.572 350.081 939.278C349.155 940.587 348.112 942.042 346.937 943.483L358.353 952.938C359.396 953.981 360.057 955.04 360.322 955.952C360.454 956.996 360.189 958.054 359.411 958.834C358.617 959.745 357.839 960.142 356.913 959.877C355.87 959.745 354.812 959.083 353.769 958.04L341.824 948.321L328.571 960.804C327.395 961.98 326.338 962.642 325.427 962.774C324.383 963.039 323.59 962.642 322.929 961.598C322.003 960.804 321.754 959.892 322.003 958.834C322.136 957.922 322.797 956.863 323.972 955.687L340.898 939.793C341.941 938.749 342.735 937.823 343.396 936.779C343.925 935.867 344.189 934.941 344.189 934.147C344.189 932.838 343.528 931.912 342.22 931.515C340.78 931.25 338.812 931.25 336.182 931.779L321.357 935.588L321.313 935.602ZM383.653 982.609C383.653 985.108 383.124 987.343 382.213 989.431C381.17 991.666 379.848 993.636 378.276 995.474C376.439 997.312 374.206 998.753 371.841 999.547C369.211 1000.59 366.463 1000.99 363.304 1000.99C360.424 1000.99 357.794 1000.72 355.693 999.944C353.46 999.282 351.624 998.238 350.316 996.665C348.744 995.357 347.554 993.769 346.907 991.798C346.114 989.96 345.732 987.858 345.732 985.491C345.732 982.859 346.129 980.506 347.039 978.139C347.833 975.904 349.273 973.802 351.109 971.831C352.681 969.993 354.782 968.552 357.28 967.494C359.646 966.567 362.525 966.053 365.684 966.053C368.314 966.053 370.665 966.45 372.898 967.229C374.999 968.141 376.836 969.332 378.54 970.64C380.112 972.214 381.303 974.051 382.346 975.889C383.139 977.992 383.653 980.227 383.653 982.594V982.609ZM376.439 982.609C376.439 981.3 376.175 980.109 375.778 978.801C375.249 977.757 374.471 976.698 373.677 975.654C372.634 974.86 371.576 974.213 370.268 973.684C368.961 973.287 367.389 973.022 365.67 973.022C363.569 973.022 361.864 973.419 360.292 973.949C358.588 974.61 357.28 975.522 356.222 976.713C354.915 978.021 354.121 979.477 353.725 980.786C353.196 982.359 352.931 983.932 352.931 985.52C352.931 986.961 353.063 988.152 353.592 989.196C353.857 990.372 354.518 991.298 355.429 991.96C356.222 992.754 357.265 993.269 358.573 993.533C359.881 993.93 361.453 994.063 363.304 994.063C365.273 994.063 367.11 993.798 368.814 993.151C370.386 992.622 371.694 991.71 372.884 990.269C373.927 989.225 374.72 987.902 375.514 986.593C376.043 985.285 376.425 983.961 376.425 982.653L376.439 982.609ZM363.436 945.321C362.261 945.321 361.468 945.057 360.939 944.395C360.278 943.866 360.013 943.086 360.013 941.895C360.013 940.851 360.278 939.925 360.939 939.263C361.468 938.734 362.246 938.352 363.436 938.352H377.086V923.648C377.086 922.207 377.35 921.017 377.997 920.105C378.526 919.311 379.304 918.929 380.627 918.929C381.802 918.929 382.728 919.326 383.506 920.105C384.168 921.017 384.55 922.207 384.55 923.648V959.76C384.55 961.333 384.153 962.524 383.506 963.171C382.713 963.965 381.802 964.215 380.627 964.215C379.319 964.215 378.526 963.95 377.997 963.171C377.336 962.509 377.086 961.333 377.086 959.76V945.306H363.436V945.321Z" fill="#FFCC66"/>
<path d="M363.305 1001.74C359.984 1001.74 357.398 1001.39 355.429 1000.64C353.005 999.929 351.08 998.738 349.743 997.136C348.054 995.739 346.864 994.048 346.202 992.034C345.394 990.166 344.983 987.946 344.983 985.491C344.983 982.682 345.409 980.256 346.349 977.874C347.113 975.728 348.524 973.522 350.566 971.331C352.168 969.464 354.327 967.935 356.987 966.818C359.514 965.832 362.511 965.318 365.67 965.318C368.359 965.318 370.798 965.715 373.134 966.538C375.117 967.406 377.013 968.552 378.982 970.067C380.774 971.846 382.008 973.831 382.978 975.537C383.948 978.08 384.388 980.359 384.388 982.594C384.388 985.079 383.889 987.402 382.875 989.711C381.832 991.946 380.51 993.975 378.82 995.93C376.807 997.944 374.486 999.415 372.061 1000.22C369.549 1001.22 366.757 1001.71 363.305 1001.71V1001.74ZM365.67 966.803C362.688 966.803 359.881 967.288 357.53 968.2C355.106 969.214 353.123 970.611 351.653 972.331C349.729 974.39 348.421 976.434 347.716 978.404C346.849 980.639 346.438 982.903 346.438 985.52C346.438 987.77 346.82 989.799 347.554 991.534C348.157 993.328 349.2 994.813 350.757 996.121C352.021 997.606 353.652 998.606 355.87 999.268C357.721 999.959 360.131 1000.28 363.275 1000.28C366.419 1000.28 369.167 999.841 371.532 998.885C373.78 998.136 375.911 996.783 377.718 994.974C379.275 993.151 380.524 991.24 381.509 989.137C382.434 987.035 382.89 984.888 382.89 982.624C382.89 980.565 382.478 978.463 381.626 976.184C380.745 974.669 379.584 972.787 377.982 971.184C376.19 969.817 374.397 968.729 372.561 967.92C370.445 967.17 368.153 966.803 365.641 966.803H365.67ZM363.305 994.769C361.204 994.769 359.631 994.592 358.368 994.21C356.987 993.93 355.797 993.342 354.915 992.445C353.931 991.754 353.196 990.681 352.902 989.417C352.3 988.152 352.212 986.785 352.212 985.491C352.212 983.844 352.491 982.168 353.035 980.536C353.505 978.962 354.43 977.448 355.709 976.184C356.84 974.904 358.265 973.934 360.028 973.258C362.041 972.581 363.775 972.287 365.67 972.287C367.316 972.287 368.976 972.522 370.475 972.978C371.768 973.493 372.87 974.125 374.118 975.066L374.265 975.213C375.059 976.286 375.881 977.375 376.44 978.477C376.836 979.786 377.174 981.094 377.174 982.609C377.174 984.123 376.66 985.682 376.205 986.829C375.353 988.27 374.53 989.637 373.413 990.754C372.208 992.225 370.768 993.254 369.064 993.828C367.404 994.474 365.509 994.783 363.319 994.783L363.305 994.769ZM365.67 973.757C363.936 973.757 362.35 974.037 360.528 974.64C359.014 975.228 357.78 976.066 356.781 977.183C355.356 978.61 354.724 980.036 354.445 980.977C353.945 982.491 353.681 984.006 353.681 985.491C353.681 986.976 353.843 988.02 354.254 988.843L354.313 989.02C354.518 989.975 355.047 990.755 355.855 991.343C356.634 992.107 357.56 992.563 358.721 992.798C359.911 993.151 361.35 993.313 363.305 993.313C365.259 993.313 367.037 993.034 368.55 992.445C370.049 991.946 371.224 991.107 372.311 989.784C373.34 988.74 374.089 987.505 374.868 986.196C375.426 984.785 375.69 983.668 375.69 982.624C375.69 981.3 375.397 980.109 375.059 979.021C374.618 978.168 373.869 977.169 373.134 976.184C372.017 975.36 371.062 974.816 369.975 974.375C368.667 973.993 367.154 973.772 365.655 973.772L365.67 973.757ZM380.627 964.965C379.481 964.965 378.203 964.803 377.395 963.583C376.719 962.921 376.352 961.671 376.352 959.76V946.042H363.437C362.555 946.042 361.277 945.924 360.425 944.91C359.411 944.057 359.294 942.778 359.294 941.895C359.294 940.557 359.676 939.499 360.425 938.749C361.174 937.999 362.188 937.617 363.437 937.617H376.352V923.648C376.352 921.972 376.69 920.664 377.41 919.679C378.085 918.664 379.114 918.194 380.627 918.194C381.979 918.194 383.096 918.649 384.036 919.59C384.903 920.781 385.299 922.119 385.299 923.648V959.76C385.299 961.51 384.859 962.862 384.036 963.7C383.154 964.583 382.111 964.965 380.627 964.965ZM363.437 939.087C362.599 939.087 361.924 939.322 361.468 939.793C360.998 940.263 360.763 940.969 360.763 941.895C360.763 943.13 361.086 943.557 361.409 943.821L361.527 943.939C361.777 944.263 362.203 944.586 363.452 944.586H377.836V959.775C377.836 961.23 378.071 962.201 378.541 962.671C378.938 963.23 379.364 963.509 380.642 963.509C381.729 963.509 382.42 963.259 383.007 962.671C383.536 962.142 383.845 961.083 383.845 959.775V923.663C383.845 922.443 383.536 921.399 382.934 920.546C382.346 919.973 381.612 919.664 380.642 919.664C379.378 919.664 378.923 920.076 378.629 920.517C378.085 921.281 377.836 922.281 377.836 923.648V939.087H363.452H363.437ZM324.751 963.612C323.811 963.612 322.973 963.112 322.312 962.098C321.269 961.157 320.902 960.01 321.24 958.672C321.387 957.657 322.092 956.481 323.4 955.172L340.34 939.263C341.413 938.19 342.133 937.323 342.72 936.382C343.146 935.632 343.396 934.823 343.396 934.147C343.396 933.132 342.941 932.515 341.956 932.221C340.487 931.956 338.548 932.044 336.27 932.5L321.504 936.293C320.182 936.734 318.536 937.117 317.346 936.337C316.391 935.867 315.862 934.838 315.833 933.338C315.524 932.147 315.803 931.118 316.7 930.221C317.39 929.53 318.492 928.971 320.402 928.339L333.038 924.913C339.091 923.34 343.881 923.252 347.29 924.678C350.654 926.427 352.329 929.618 352.329 934.161C352.329 935.999 351.756 937.852 350.64 939.675C349.964 940.646 349.009 941.984 347.892 943.395L358.75 952.394C359.896 953.54 360.645 954.687 360.954 955.775C361.145 957.246 360.748 958.481 359.852 959.392C358.867 960.539 357.795 960.966 356.634 960.627C355.562 960.51 354.401 959.833 353.167 958.598L341.78 949.335L328.997 961.377C327.704 962.671 326.544 963.377 325.442 963.539C325.192 963.597 324.957 963.627 324.707 963.627L324.751 963.612ZM340.12 930.618C340.913 930.618 341.648 930.677 342.324 930.794C344.013 931.294 344.895 932.485 344.895 934.147C344.895 935.088 344.586 936.132 344.013 937.131C343.352 938.19 342.573 939.131 341.398 940.307L324.457 956.216C323.429 957.246 322.827 958.187 322.709 958.936C322.489 959.833 322.709 960.451 323.385 961.024L323.532 961.201C324.105 962.112 324.619 962.215 325.221 962.054C326.044 961.936 326.985 961.318 328.028 960.275L341.765 947.336L354.21 957.466C355.238 958.495 356.149 959.039 356.987 959.142C357.501 959.289 358.03 959.275 358.838 958.348C359.602 957.569 359.661 956.657 359.587 956.025C359.367 955.305 358.735 954.349 357.824 953.437L345.894 943.557L346.364 942.998C347.642 941.44 348.759 939.881 349.479 938.837C350.434 937.293 350.919 935.705 350.919 934.132C350.919 930.118 349.552 927.457 346.717 925.986C343.661 924.707 339.179 924.81 333.464 926.31L320.872 929.721C319.888 930.059 318.448 930.589 317.787 931.235C317.243 931.779 317.111 932.279 317.317 933.015L317.346 933.22C317.346 934.5 317.758 934.882 318.125 935.058C318.713 935.441 319.638 935.382 321.108 934.882H321.152L335.976 931.059C337.504 930.75 338.886 930.603 340.134 930.603L340.12 930.618Z" fill="#FFCD54"/>
<path d="M434.166 935.602C432.594 936.132 431.404 936.264 430.625 935.735C429.831 935.338 429.449 934.559 429.449 933.235C429.185 932.324 429.317 931.53 430.111 930.736C430.772 930.074 431.947 929.559 433.519 929.03L446.126 925.619C452.164 924.046 456.763 924.046 459.907 925.354C462.919 926.928 464.506 929.824 464.506 934.162C464.506 935.867 463.977 937.573 462.934 939.278C462.008 940.587 460.965 942.043 459.79 943.484L471.206 952.938C472.249 953.982 472.91 955.04 473.175 955.952C473.307 956.996 473.042 958.055 472.264 958.834C471.47 959.745 470.692 960.142 469.766 959.878C468.723 959.745 467.665 959.084 466.622 958.04L454.677 948.321L441.424 960.804C440.249 961.98 439.191 962.642 438.28 962.774C437.237 963.039 436.443 962.642 435.782 961.598C434.856 960.804 434.607 959.892 434.856 958.834C434.989 957.922 435.65 956.864 436.825 955.687L453.751 939.793C454.794 938.749 455.588 937.823 456.249 936.779C456.778 935.867 457.042 934.941 457.042 934.147C457.042 932.838 456.381 931.912 455.073 931.515C453.633 931.25 451.665 931.25 449.035 931.78L434.21 935.588L434.166 935.602ZM486.266 977.625C486.266 976.581 486.001 975.919 485.472 975.39C484.811 974.993 484.032 974.728 482.975 974.728L443.863 981.036C442.291 981.433 441.101 981.3 440.454 980.771C439.661 980.374 439.279 979.595 439.279 978.404C439.279 977.36 439.543 976.434 440.322 975.64C440.983 974.978 442.159 974.463 443.731 974.199L482.842 967.891C486.251 967.362 489.013 968.023 490.85 969.597C492.686 971.302 493.612 973.934 493.612 977.61V991.666C493.612 993.24 493.215 994.431 492.701 995.077C491.908 995.871 490.997 996.121 489.821 996.121C488.514 996.121 487.588 995.857 487.059 995.077C486.53 994.416 486.266 993.24 486.266 991.666V977.61V977.625ZM487.456 923.649C487.456 922.208 487.72 921.017 488.249 920.105C488.778 919.311 489.689 918.929 491.011 918.929C492.187 918.929 493.112 919.326 493.891 920.105C494.42 921.017 494.817 922.208 494.817 923.649V959.76C494.817 961.333 494.42 962.524 493.891 963.171C493.098 963.965 492.187 964.215 491.011 964.215C489.704 964.215 488.778 963.95 488.249 963.171C487.72 962.51 487.456 961.333 487.456 959.76V923.649Z" fill="#FFCC66"/>
<path d="M489.822 996.871C488.676 996.871 487.265 996.709 486.457 995.489C485.869 994.754 485.546 993.445 485.546 991.666V977.61C485.546 976.683 485.311 976.257 485.032 975.963C484.43 975.625 483.783 975.463 482.99 975.463L443.996 981.756C442.321 982.168 440.954 982.05 440.073 981.388C439.367 981.006 438.559 980.183 438.559 978.404C438.559 977.036 438.956 975.992 439.823 975.125C440.616 974.331 441.939 973.757 443.628 973.478L482.74 967.17C486.295 966.611 489.263 967.273 491.335 969.038C493.363 970.934 494.347 973.728 494.347 977.61V991.666C494.347 993.269 493.95 994.68 493.274 995.533C492.349 996.474 491.291 996.856 489.822 996.856V996.871ZM482.931 974.007C484.092 974.007 485.017 974.257 485.855 974.757L486.002 974.875C486.692 975.566 487.001 976.419 487.001 977.624V991.681C487.001 993.577 487.397 994.342 487.632 994.636C487.912 995.048 488.352 995.415 489.822 995.415C490.909 995.415 491.599 995.165 492.187 994.577C492.613 994.048 492.892 992.945 492.892 991.681V977.624C492.892 974.169 492.07 971.728 490.365 970.155C488.646 968.685 486.09 968.155 482.975 968.641L443.863 974.948C442.512 975.169 441.41 975.625 440.851 976.183C440.278 976.757 440.014 977.448 440.014 978.418C440.014 979.594 440.455 979.962 440.793 980.124L440.925 980.212C441.41 980.609 442.453 980.653 443.702 980.33L482.872 974.022C482.872 974.022 482.916 974.022 482.931 974.022V974.007ZM490.997 964.965C489.851 964.965 488.441 964.803 487.632 963.583C487.045 962.847 486.722 961.539 486.722 959.76V923.648C486.722 922.075 487.015 920.766 487.603 919.737C488.294 918.693 489.425 918.179 490.997 918.179C492.349 918.179 493.465 918.635 494.406 919.576L494.523 919.737C495.199 920.914 495.537 922.237 495.537 923.648V959.76C495.537 961.362 495.14 962.774 494.45 963.627C493.524 964.568 492.466 964.95 490.997 964.95V964.965ZM490.997 919.649C489.939 919.649 489.234 919.928 488.852 920.502C488.426 921.266 488.191 922.325 488.191 923.634V959.745C488.191 961.642 488.588 962.406 488.823 962.7C489.102 963.112 489.543 963.48 491.012 963.48C492.099 963.48 492.79 963.23 493.377 962.642C493.803 962.112 494.083 961.01 494.083 959.745V923.634C494.083 922.516 493.818 921.472 493.304 920.546C492.657 919.928 491.937 919.649 491.012 919.649H490.997ZM437.619 963.612C436.679 963.612 435.841 963.112 435.18 962.098C434.137 961.157 433.769 960.01 434.107 958.672C434.254 957.657 434.96 956.481 436.267 955.172L453.208 939.263C454.28 938.19 455 937.322 455.588 936.381C456.014 935.632 456.264 934.823 456.264 934.147C456.264 933.132 455.808 932.514 454.824 932.22C453.355 931.956 451.415 932.044 449.138 932.5L434.372 936.293C433.05 936.734 431.404 937.117 430.214 936.337C429.259 935.867 428.73 934.838 428.701 933.338C428.392 932.132 428.671 931.118 429.567 930.221C430.258 929.53 431.36 928.971 433.27 928.339L445.906 924.913C451.959 923.34 456.749 923.251 460.157 924.678C463.522 926.427 465.197 929.618 465.197 934.161C465.197 935.999 464.624 937.852 463.507 939.675C462.831 940.645 461.876 941.983 460.76 943.395L471.618 952.393C472.764 953.54 473.513 954.687 473.821 955.775C474.012 957.245 473.616 958.48 472.72 959.392C471.735 960.539 470.663 960.965 469.502 960.627C468.429 960.51 467.269 959.833 466.034 958.598L454.648 949.335L441.865 961.377C440.572 962.671 439.411 963.377 438.309 963.538C438.06 963.597 437.825 963.627 437.575 963.627L437.619 963.612ZM452.973 930.618C453.766 930.618 454.501 930.677 455.177 930.794C456.866 931.294 457.748 932.485 457.748 934.147C457.748 935.088 457.439 936.131 456.866 937.131C456.205 938.19 455.426 939.131 454.251 940.307L437.31 956.216C436.282 957.245 435.68 958.186 435.562 958.936C435.342 959.833 435.562 960.451 436.238 961.024L436.385 961.201C436.958 962.112 437.472 962.215 438.074 962.053C438.897 961.936 439.838 961.318 440.881 960.274L454.618 947.335L467.063 957.466C468.091 958.495 469.002 959.039 469.84 959.142C470.354 959.289 470.883 959.275 471.691 958.348C472.455 957.569 472.514 956.657 472.44 956.025C472.22 955.305 471.588 954.349 470.677 953.437L458.747 943.557L459.217 942.998C460.495 941.439 461.612 939.881 462.332 938.837C463.287 937.293 463.772 935.705 463.772 934.132C463.772 930.118 462.405 927.457 459.57 925.986C456.514 924.707 452.032 924.81 446.317 926.31L433.725 929.721C432.741 930.059 431.301 930.588 430.64 931.235C430.096 931.779 429.964 932.279 430.17 933.014L430.199 933.22C430.199 934.499 430.611 934.882 430.978 935.058C431.566 935.44 432.491 935.382 433.96 934.882H434.005L448.829 931.059C450.357 930.75 451.739 930.603 452.987 930.603L452.973 930.618Z" fill="#FFCD54"/>
<path d="M521.043 929.161L537.836 927.323C540.848 927.058 543.214 927.72 544.918 929.161C545.961 930.337 546.623 931.66 547.019 933.498L568.808 932.704V924.691C568.808 923.25 569.073 922.059 569.602 921.147C570.131 920.353 571.042 919.971 572.364 919.971C573.539 919.971 574.465 920.368 575.258 921.147C575.787 922.074 576.169 923.25 576.169 924.691V966.463C576.169 968.036 575.773 969.227 575.258 969.874C574.465 970.668 573.554 970.918 572.364 970.918C571.056 970.918 570.131 970.653 569.602 969.874C569.073 969.212 568.808 968.036 568.808 966.463V955.171L547.151 956.082H547.019C546.623 957.656 545.976 959.097 544.918 960.023C543.214 961.596 540.848 962.39 537.969 962.655L523.394 963.699C519.456 964.228 516.576 963.434 514.74 961.596C512.771 959.89 511.845 956.994 511.845 953.053V938.6C511.845 935.836 512.506 933.616 514.078 932.028C515.518 930.454 517.884 929.528 521.028 929.146L521.043 929.161ZM540.07 936.115C540.07 935.454 539.805 934.939 539.541 934.542C539.012 934.277 538.498 934.145 537.969 934.145L521.175 935.983C520.382 936.248 519.867 936.512 519.603 936.909C519.206 937.439 519.074 937.953 519.074 938.615V953.068C519.074 954.509 519.338 955.568 520.117 956.082C520.646 956.876 521.689 957.126 523.261 956.876L537.836 955.7C538.498 955.7 539.012 955.568 539.541 955.171C539.805 954.906 540.07 954.377 540.07 953.598V936.13V936.115ZM537.454 979.593C537.322 980.637 537.322 981.696 537.322 982.475C537.19 983.386 537.19 984.313 537.19 985.107C537.19 985.901 537.19 986.68 537.322 987.474C537.322 988.268 537.322 989.047 537.454 989.841C537.454 990.885 537.719 991.547 538.248 991.944C538.644 992.473 539.688 992.738 541.26 992.605C543.361 992.605 545.726 992.341 548.474 992.076C551.104 991.811 553.851 991.547 556.746 991.032C559.625 990.768 562.388 990.238 565.15 989.724C567.78 989.327 570.263 988.93 572.364 988.415C573.407 988.283 574.201 988.547 574.994 989.077C575.655 989.738 576.169 990.385 576.434 991.179C576.566 992.091 576.566 992.885 576.302 993.679C575.905 994.59 575.258 995.12 574.465 995.384C572.099 996.178 569.484 996.693 566.458 997.222C563.313 997.752 560.022 998.266 556.746 998.663C553.337 999.193 549.914 999.457 546.769 999.575C543.493 999.839 540.599 999.972 538.233 999.972C535.868 999.972 533.899 999.442 532.459 998.134C530.887 997.09 530.093 995.252 529.961 992.885C529.697 990.518 529.564 988.283 529.697 986.18C529.697 984.077 529.697 981.843 529.961 979.475C529.961 978.431 530.358 977.505 531.269 976.844C532.062 976.314 532.841 975.932 533.899 975.932C534.692 975.932 535.603 976.329 536.397 976.844C537.058 977.637 537.44 978.549 537.44 979.608L537.454 979.593ZM547.298 940.453V949.128L568.823 948.334V939.659L547.298 940.453Z" fill="#FFCC66"/>
<path d="M538.235 1000.69C535.517 1000.69 533.474 1000.03 531.961 998.664C530.33 997.576 529.375 995.621 529.228 992.901C528.934 990.225 528.846 988.063 528.964 986.123C528.964 984.02 528.964 981.8 529.228 979.388C529.228 978.124 529.787 977.006 530.844 976.242C531.667 975.683 532.608 975.183 533.9 975.183C535.061 975.183 536.222 975.83 536.795 976.227L536.956 976.374C537.765 977.345 538.176 978.433 538.176 979.609V979.697C538.044 980.697 538.044 981.741 538.044 982.491C537.912 983.461 537.912 984.343 537.912 985.123C537.912 985.902 537.912 986.637 538.029 987.372C538.029 988.269 538.029 989.004 538.161 989.74C538.161 990.886 538.455 991.21 538.661 991.372L538.808 991.519C538.94 991.695 539.616 992.019 541.173 991.886C543.01 991.886 544.979 991.695 547.256 991.475L548.813 991.328C551.311 991.078 553.882 990.828 556.586 990.328C559.495 990.063 562.287 989.534 564.975 989.019C567.576 988.622 570.059 988.24 572.145 987.71C573.379 987.549 574.334 987.799 575.363 988.475C576.083 989.181 576.759 989.945 577.097 990.96C577.288 992.224 577.244 993.107 576.964 993.915C576.494 995.018 575.73 995.738 574.658 996.091C572.292 996.885 569.706 997.4 566.547 997.959C563.462 998.473 560.141 999.003 556.791 999.414C553.765 999.885 550.474 1000.18 546.756 1000.34C543.495 1000.61 540.6 1000.74 538.191 1000.74L538.235 1000.69ZM533.9 976.654C533.048 976.654 532.402 976.977 531.682 977.448C531.021 977.918 530.697 978.58 530.697 979.462C530.433 981.873 530.433 984.049 530.433 986.167C530.315 988.063 530.404 990.151 530.697 992.783C530.83 995.047 531.55 996.635 532.872 997.503C534.18 998.679 535.899 999.223 538.235 999.223C540.571 999.223 543.451 999.091 546.712 998.826C550.4 998.679 553.633 998.37 556.63 997.915C559.965 997.518 563.256 996.988 566.327 996.474C569.412 995.93 571.94 995.415 574.217 994.665C574.878 994.445 575.334 994.018 575.613 993.371C575.789 992.827 575.818 992.18 575.686 991.269C575.525 990.828 575.143 990.284 574.452 989.578C573.835 989.181 573.218 989.034 572.439 989.137C570.367 989.666 567.84 990.063 565.24 990.445C562.536 990.96 559.715 991.504 556.791 991.769C554.103 992.254 551.487 992.518 548.96 992.768L547.403 992.915C545.081 993.136 543.083 993.342 541.247 993.342C539.557 993.489 538.323 993.195 537.706 992.474C537.03 991.93 536.707 991.063 536.707 989.842C536.574 989.122 536.574 988.284 536.574 987.475C536.442 986.74 536.442 985.917 536.442 985.108C536.442 984.299 536.442 983.344 536.574 982.373C536.574 981.697 536.575 980.623 536.692 979.55C536.692 978.786 536.413 978.05 535.884 977.389C535.149 976.918 534.429 976.654 533.886 976.654H533.9ZM572.366 971.654C571.22 971.654 569.809 971.493 569.001 970.272C568.413 969.537 568.09 968.229 568.09 966.449V955.922L547.609 956.789C547.124 958.451 546.389 959.73 545.419 960.568C543.7 962.156 541.291 963.082 538.044 963.376L523.454 964.435C519.414 964.979 516.299 964.2 514.227 962.127C512.185 960.348 511.127 957.289 511.127 953.069V938.616C511.127 935.499 511.92 933.176 513.581 931.529C515.094 929.882 517.504 928.868 520.971 928.427L537.765 926.589C540.938 926.324 543.509 926.986 545.405 928.603C546.507 929.824 547.183 931.103 547.609 932.735L568.09 932V924.692C568.09 923.133 568.384 921.81 568.972 920.781C569.662 919.737 570.794 919.222 572.366 919.222C573.717 919.222 574.834 919.678 575.774 920.619L575.892 920.781C576.568 921.957 576.906 923.28 576.906 924.692V966.464C576.906 968.067 576.509 969.478 575.833 970.331C574.907 971.272 573.85 971.654 572.366 971.654ZM569.559 954.393V966.449C569.559 968.346 569.956 969.111 570.191 969.405C570.47 969.817 570.911 970.184 572.38 970.184C573.468 970.184 574.158 969.934 574.746 969.346C575.172 968.817 575.451 967.714 575.451 966.449V924.677C575.451 923.56 575.187 922.516 574.672 921.575C574.026 920.957 573.306 920.678 572.38 920.678C571.322 920.678 570.617 920.957 570.235 921.531C569.809 922.295 569.574 923.369 569.574 924.663V933.382L546.463 934.22L546.33 933.617C545.963 931.926 545.39 930.735 544.406 929.618C542.892 928.338 540.688 927.794 537.926 928.03L521.147 929.868C518.106 930.25 515.917 931.147 514.653 932.529C513.272 933.911 512.611 935.896 512.611 938.601V953.055C512.611 956.833 513.492 959.524 515.241 961.039C517.019 962.818 519.722 963.45 523.322 962.965L537.941 961.906C540.835 961.641 542.966 960.848 544.45 959.48C545.302 958.745 545.919 957.539 546.33 955.907L546.463 955.348H547.036L569.559 954.393ZM522.19 957.701C521.03 957.701 520.148 957.333 519.605 956.598C518.473 955.745 518.341 954.172 518.341 953.055V938.601C518.341 937.734 518.547 937.072 519.017 936.455C519.414 935.852 520.178 935.543 520.942 935.278L521.089 935.249L537.882 933.411H537.912C538.617 933.411 539.249 933.573 539.866 933.882L540.042 933.97L540.145 934.132C540.586 934.778 540.791 935.44 540.791 936.117V953.584C540.791 954.452 540.527 955.216 540.057 955.687C539.351 956.216 538.69 956.422 537.838 956.422L523.336 957.598C522.925 957.672 522.543 957.701 522.19 957.701ZM521.338 936.705C520.912 936.852 520.383 937.058 520.222 937.307C519.928 937.704 519.825 938.057 519.825 938.601V953.055C519.825 954.363 520.06 955.143 520.545 955.466L520.751 955.672C521.103 956.187 521.911 956.348 523.175 956.142L537.809 954.951C538.411 954.951 538.764 954.849 539.131 954.569C539.19 954.496 539.366 954.128 539.366 953.584V936.117C539.366 935.778 539.278 935.455 539.072 935.117C538.72 934.955 538.352 934.881 538 934.881L521.353 936.705H521.338ZM546.565 949.879V939.733L569.559 938.895V949.041L546.565 949.879ZM548.035 941.16V948.35L568.09 947.615V940.425L548.035 941.16Z" fill="#FFCD54"/>
<path d="M513.286 371.966C513.845 374.612 522.322 378.362 519.325 385.552C517.385 390.183 500.313 405.195 495.89 404.416C489.146 403.225 491.365 398.976 494.862 395.153C500.533 388.963 515.52 385.184 503.854 376.538L465.271 404.607C456.117 407.886 446.67 418.149 438.795 421.751C433.124 424.354 407.47 425.074 404.737 419.604C403.136 416.384 411.996 396.976 414.831 394.153C416.051 392.947 421.531 391.712 424.117 389.992C451.959 371.495 478.421 350.337 507.159 333.031C508.423 332.531 509.98 331.752 511.332 332.09C515.402 333.075 529.242 349.396 529.081 353.689C528.772 361.482 512.14 366.599 513.301 372.01L513.286 371.966ZM507.012 360.644C511.92 353.337 521.382 354.969 512.449 345.441C507.277 339.927 502.81 347.926 498.344 351.837L507.012 360.644ZM418.108 412.547L429.215 413.061C446.685 399.667 466.182 389.095 484.107 376.435C487.119 374.318 493.334 370.172 495.64 367.952C498.77 364.938 490.41 357.115 488.573 357.498C488.265 357.556 485.767 361.071 484.254 362.144C467.93 373.715 436.679 390.301 423.706 403.343C421.105 405.96 419.915 409.43 418.108 412.532V412.547Z" fill="#FFCC66"/>
<path d="M525.994 635.92V657.931C525.994 659.004 524.466 667.635 524.026 669.047C522.63 673.546 518.354 674.369 514.622 671.693C512.477 670.149 505.601 656.622 502.839 657.343C482.166 692.895 476.098 667.547 475.481 640.669C459.349 646.845 441.659 654.976 427.995 665.694C425.203 667.885 419.444 675.413 417.034 676.134C414.786 676.81 398.463 676.884 395.877 676.384C392.601 675.751 385.445 661.871 382.183 657.975C364.787 637.229 327.042 630.156 301.683 636.788C295.453 638.42 280.834 647.168 275.75 643.184C272.621 640.728 274.502 628.098 274.075 623.452C270.02 579.856 266.332 535.173 263.409 491.386C263.056 486.078 262.586 471.375 264.04 467.067C265.833 461.759 287.034 444.983 292.471 441.998C320.46 426.692 368.96 432.044 397.846 443.63C400.946 444.865 410.555 451.202 411.319 451.202C412.494 451.202 418.636 445.497 420.766 444.35C441.497 433.22 478.89 433.396 501.531 437.366C519.721 440.542 544.39 458.054 554.998 473.066C559.391 479.271 560.39 486.034 560.507 493.724C561.124 536.717 556.335 575.783 549.811 617.57C548.885 623.51 551.971 634.023 547.343 637.714C541.334 642.507 532.915 634.009 525.98 635.949L525.994 635.92ZM406.955 460.054C390.573 451.702 370.356 445.468 351.946 444.35C321.253 442.483 298.303 444.762 276.867 468.611C272.151 473.86 271.974 479.683 272.841 486.667C276.235 514.015 279.468 542.172 281.187 569.917C281.862 580.812 280.481 591.795 282.391 602.617C294.483 598.632 306.899 594.633 319.828 594.295C344.952 593.663 376.057 605.352 395.833 620.437C397.728 621.893 398.962 624.29 401.196 625.216L406.955 460.054ZM540.246 607.366C541.907 584.782 546.065 562.771 547.372 540.143C547.916 530.674 547.093 521.043 547.328 511.559C547.519 504.149 550.84 485.358 547.446 479.418C543.831 473.11 524.055 458.583 517.12 455.054C496.551 444.615 460.216 444.718 438.03 450.893C429.361 453.305 423.734 456.789 416.931 462.465L411.921 628.76C422.735 625.128 432.168 618.203 442.864 613.953C465.373 604.984 504.558 595.78 527.963 602.411C532.356 603.661 535.662 607.116 540.246 607.366ZM400.946 638.567C398.962 635.053 377.673 620.834 372.927 618.453C350.256 607.057 310.16 598.868 287.534 613.115C280.011 617.85 286.476 623.422 284.786 631.171C285.462 631.877 300.698 626.142 303.475 625.51C323.016 620.982 345.731 623.805 364.582 631.583C377.57 636.949 390.632 648.609 396.7 661.283C397.567 663.092 397.523 666.635 398.771 667.532C399.932 668.37 409.306 668.385 411.363 668.15C412.832 667.973 417.886 661.122 420.223 659.122C435.106 646.389 457.586 636.508 475.937 629.833L476.084 615.703C451.106 619.555 427.98 631.921 407.455 646.418C400.152 648.227 402.298 640.949 400.961 638.567H400.946ZM486.78 612.13V654.358C486.78 654.814 488.293 661.916 490.336 659.71C490.718 659.298 492.951 652.211 495.111 649.609C498.343 645.727 501.428 644.036 506.688 645.815C507.599 646.124 513.403 655.902 515.298 653.77C513.902 646.227 519.192 615.482 515.974 610.88C513.256 606.984 492.084 613.63 486.78 612.145V612.13ZM539.967 618.335L523.614 612.13C524.687 616.218 523.467 626.054 528.007 627.348C531.548 628.363 536.235 627.598 540.232 629.965C539.717 627.069 542.641 620.217 539.952 618.335H539.967Z" fill="#FFCC66"/>
<path d="M264.555 378.508C268.595 376.185 271.989 380.405 273.238 384.081C276.089 392.55 281.966 415.443 283.126 424.089C283.743 428.632 283.67 436.366 276.911 433.543C272.577 431.734 268.669 417.693 267.067 412.694C264.966 406.107 257.326 382.655 264.57 378.494L264.555 378.508Z" fill="#FFCC66"/>
<path d="M259.559 447.82C255.769 446.011 252.58 443.335 249.539 440.483C245.014 436.263 233.024 423.559 229.851 418.751C227.5 415.179 225.355 408.724 230.688 406.224C237.476 403.048 259.471 433.969 260.808 440.953C261.278 443.394 261.087 445.732 259.559 447.805V447.82Z" fill="#FFCC66"/>
<path d="M477.024 512.559C486.398 511.545 495.448 511.956 504.602 513.986C510.905 515.382 534.163 521.661 520.661 528.836L497.99 522.969C484.018 521.881 470.133 524.072 457.233 529.63C453.736 531.13 440.616 539.893 438.867 539.452C437.119 539.011 434.548 535.114 434.724 533.203C435.679 523.028 468.238 513.5 477.009 512.545L477.024 512.559Z" fill="#FFCC66"/>
<path d="M480.594 473.286C488.543 472.565 501.943 473.521 509.627 475.653C513.491 476.726 532.635 486.695 526.038 491.459C523.599 493.223 510.641 485.842 506.086 485.151C487.705 482.328 470.03 484.666 453.075 492.135C449.358 493.767 439.323 502.428 436.223 498.002C431.727 491.577 441.174 486.724 445.391 484.431C454.632 479.387 470.221 474.241 480.609 473.3L480.594 473.286Z" fill="#FFCC66"/>
<path d="M473.468 555.39C479.463 554.816 487.411 554.522 493.362 554.993C497.961 555.346 522.174 560.021 521.175 566.197C520.088 572.857 501.751 566.182 496.873 565.77C485.237 564.785 469.09 565.8 458.056 569.711C453.06 571.475 434.959 586.267 433.284 577.033C432.094 570.564 440.307 565.506 445.273 562.859C452.928 558.757 464.755 556.242 473.483 555.404L473.468 555.39Z" fill="#FFCC66"/>
<path d="M296.819 484.667C294.674 481.3 298.156 475.184 301.139 473.022C316.537 461.848 347.303 464.053 364.552 469.802C368.666 471.17 393.805 481.271 384.652 487.902C382.198 489.681 366.565 481.418 362.51 480.168C348.581 475.875 326.88 473.904 313.304 479.521C309.955 480.903 299.552 488.975 296.805 484.667H296.819Z" fill="#FFCC66"/>
<path d="M388.076 522.837C386.078 525.704 364.274 518.073 359.954 517.235C346.084 514.559 329.306 512.838 315.641 517.543C311.704 518.896 308.516 522.381 304.387 522.969C296.365 524.116 295.836 517.529 301.492 512.897C318.859 498.723 360.263 504.428 379.451 513.177C382.228 514.441 391.161 518.411 388.061 522.837H388.076Z" fill="#FFCC66"/>
<path d="M375.939 561.315C377.364 562.903 377.628 566.858 374.484 567.005C367.931 567.329 354.752 561.315 346.833 560.109C338.15 558.786 327.674 558.051 319.211 560.345C314.832 561.536 300.008 571.107 300.11 561.55C300.184 554.257 319.446 548.361 325.72 547.832C335.902 546.965 369.239 553.86 375.954 561.315H375.939Z" fill="#FFCC66"/>
</svg>
