<svg width="815" height="1185" viewBox="0 0 815 1185" fill="none" xmlns="http://www.w3.org/2000/svg">
<path d="M758.475 1185H55.8612C25.0655 1185 0 1159.93 0 1129.1V55.9021C0 25.0839 25.0509 0 55.8612 0H758.475C789.271 0 814.336 25.0692 814.336 55.9021V1129.1C814.336 1159.92 789.286 1185 758.475 1185ZM55.8612 11.7774C31.545 11.7774 11.7541 31.568 11.7541 55.9168V1129.11C11.7541 1153.45 31.5303 1173.25 55.8612 1173.25H758.475C782.791 1173.25 802.582 1153.46 802.582 1129.11V55.9021C802.582 31.5681 782.791 11.7627 758.475 11.7627H55.8612V11.7774Z" fill="#FFCC66"/>
<path d="M55.8612 11.7774C31.545 11.7774 11.7541 31.568 11.7541 55.9168V1129.11C11.7541 1153.45 31.5303 1173.25 55.8612 1173.25H758.475C782.791 1173.25 802.582 1153.46 802.582 1129.11V55.9021C802.582 31.5681 782.791 11.7627 758.475 11.7627H55.8612V11.7774Z" fill="white" fill-opacity="0.1"/>
<path d="M649.119 833.694H165.998C135.202 833.694 110.137 808.625 110.137 777.792V258.367C110.137 227.549 135.188 202.465 165.998 202.465H649.105C679.9 202.465 704.966 227.535 704.966 258.367V777.807C704.966 808.625 679.915 833.709 649.105 833.709L649.119 833.694ZM165.998 214.228C141.682 214.228 121.891 234.033 121.891 258.367V777.807C121.891 802.141 141.682 821.946 165.998 821.946H649.105C673.421 821.946 693.212 802.155 693.212 777.807V258.367C693.212 234.033 673.436 214.228 649.105 214.228H165.998Z" fill="#FFCC66"/>
<path d="M262.631 1143.19H157.505C154.905 1143.19 152.598 1141.47 151.863 1138.97C151.129 1136.47 152.128 1133.78 154.317 1132.37C156.065 1131.24 160.297 1127.97 161.781 1122.05C163.603 1114.74 159.753 1108.86 158.96 1107.76C157.299 1105.43 157.549 1102.24 159.547 1100.21C161.546 1098.17 164.719 1097.88 167.07 1099.49C179.941 1108.39 193.913 1115.58 208.591 1120.87C226.017 1127.15 244.265 1130.71 262.851 1131.44C266.054 1131.58 268.552 1134.24 268.493 1137.44C268.434 1140.65 265.819 1143.21 262.616 1143.21L262.631 1143.19ZM170.67 1131.43H203.273C193.164 1127.69 183.379 1123.12 174.034 1117.75C174.064 1119.99 173.814 1122.37 173.197 1124.87C172.594 1127.33 171.698 1129.5 170.67 1131.41V1131.43Z" fill="#FFCC66"/>
<path d="M44.2108 1035.39C43.6525 1035.39 43.1088 1035.31 42.5505 1035.15C40.0528 1034.42 38.3337 1032.12 38.3337 1029.51V924.303C38.3337 921.098 40.8903 918.481 44.0932 918.422C44.1373 918.422 44.1667 918.422 44.2108 918.422C47.355 918.422 49.9556 920.907 50.0878 924.068C50.8224 942.653 54.378 960.929 60.6518 978.367C65.9411 993.056 73.1258 1007.04 82.0148 1019.92C83.631 1022.27 83.3371 1025.45 81.2949 1027.45C79.2526 1029.45 76.079 1029.7 73.7576 1028.04C72.6556 1027.24 66.7786 1023.4 59.4764 1025.21C53.5553 1026.68 50.2935 1030.92 49.1622 1032.68C48.0602 1034.4 46.1796 1035.37 44.2255 1035.37L44.2108 1035.39ZM50.0878 983.705V1016.33C52.0125 1015.3 54.187 1014.42 56.626 1013.8C59.1237 1013.18 61.5039 1012.93 63.7372 1012.96C58.3744 1003.61 53.805 993.82 50.0731 983.705H50.0878Z" fill="#FFCC66"/>
<path d="M128.531 1138.49C126.9 1138.49 125.284 1138.25 123.712 1137.78C115.925 1135.44 110.341 1127.46 109.812 1117.93C109.636 1114.68 112.105 1111.92 115.352 1111.73C118.569 1111.54 121.361 1114.02 121.552 1117.27C121.802 1121.8 124.094 1125.61 127.106 1126.52C129.647 1127.28 132.336 1125.71 133.335 1125.12C137.831 1122.49 140.682 1116.43 139.844 1111.3C138.61 1103.82 129.06 1098.7 121.126 1098.7C121.038 1098.7 120.935 1098.7 120.847 1098.7C110.43 1098.86 100.659 1108.7 98.1466 1121.59C97.5148 1124.78 94.4293 1126.86 91.2557 1126.24C88.0674 1125.61 85.9958 1122.52 86.6129 1119.33C90.2419 1100.82 104.567 1087.19 120.67 1086.94C120.817 1086.94 120.979 1086.94 121.126 1086.94C134.026 1086.94 149.159 1095.42 151.466 1109.39C153.097 1119.31 147.984 1130.19 139.3 1135.28C135.642 1137.43 132.042 1138.49 128.575 1138.49H128.531Z" fill="#FFCC66"/>
<path d="M59.0786 1100.82C56.3311 1100.82 53.8627 1098.88 53.3191 1096.07C52.702 1092.88 54.7737 1089.79 57.962 1089.16C70.8473 1086.63 80.6767 1076.86 80.8383 1066.44C80.9558 1058.44 75.8281 1048.66 68.2468 1047.41C63.1337 1046.58 57.0657 1049.43 54.4357 1053.93C53.848 1054.94 52.2759 1057.62 53.0399 1060.16C53.9509 1063.18 57.7416 1065.45 62.2816 1065.72C65.5286 1065.9 67.997 1068.67 67.8207 1071.92C67.6444 1075.17 64.8822 1077.64 61.6204 1077.47C52.0996 1076.92 44.1215 1071.34 41.7854 1063.56C40.3015 1058.62 41.1389 1053.38 44.2832 1048C49.3521 1039.31 60.2393 1034.18 70.1568 1035.83C84.2764 1038.15 92.7834 1053.63 92.5777 1066.65C92.3279 1082.76 78.7079 1097.1 60.2099 1100.73C59.8279 1100.8 59.4459 1100.85 59.0786 1100.85V1100.82Z" fill="#FFCC66"/>
<path d="M656.832 1143.19H551.706C548.503 1143.19 545.888 1140.63 545.829 1137.43C545.771 1134.22 548.268 1131.56 551.471 1131.43C570.057 1130.69 588.306 1127.13 605.731 1120.86C620.409 1115.56 634.382 1108.37 647.252 1099.48C649.603 1097.86 652.777 1098.15 654.775 1100.2C656.773 1102.24 657.023 1105.42 655.363 1107.74C654.569 1108.84 650.734 1114.71 652.542 1122.03C654.011 1127.96 658.242 1131.22 660.005 1132.35C662.195 1133.77 663.194 1136.46 662.459 1138.96C661.725 1141.46 659.432 1143.18 656.817 1143.18L656.832 1143.19ZM611.079 1131.43H643.682C642.653 1129.5 641.772 1127.33 641.155 1124.89C640.538 1122.39 640.288 1120 640.317 1117.77C630.973 1123.14 621.188 1127.71 611.079 1131.44V1131.43Z" fill="#FFCC66"/>
<path d="M770.141 1035.39C768.187 1035.39 766.306 1034.4 765.205 1032.7C764.073 1030.95 760.811 1026.71 754.89 1025.23C747.588 1023.4 741.711 1027.26 740.609 1028.05C738.288 1029.71 735.099 1029.46 733.072 1027.46C731.03 1025.46 730.736 1022.29 732.352 1019.93C741.241 1007.05 748.426 993.07 753.715 978.382C759.989 960.944 763.544 942.682 764.279 924.082C764.411 920.877 767.071 918.348 770.274 918.436C773.477 918.495 776.033 921.112 776.033 924.318V1029.52C776.033 1032.12 774.314 1034.43 771.816 1035.17C771.273 1035.33 770.714 1035.4 770.156 1035.4L770.141 1035.39ZM750.923 1012.96C753.068 1012.96 755.346 1013.21 757.726 1013.8C760.18 1014.42 762.354 1015.3 764.264 1016.33V983.704C760.532 993.82 755.963 1003.61 750.6 1012.96C750.703 1012.96 750.806 1012.96 750.923 1012.96Z" fill="#FFCC66"/>
<path d="M685.807 1138.49C682.325 1138.49 678.74 1137.41 675.081 1135.28C666.398 1130.19 661.27 1119.31 662.901 1109.39C665.223 1095.26 680.694 1086.8 693.697 1086.94C709.8 1087.19 724.125 1100.82 727.754 1119.33C728.371 1122.52 726.3 1125.61 723.111 1126.24C719.923 1126.86 716.838 1124.78 716.221 1121.59C713.693 1108.7 703.938 1098.86 693.52 1098.7C693.432 1098.7 693.329 1098.7 693.241 1098.7C685.307 1098.7 675.757 1103.82 674.523 1111.3C673.685 1116.43 676.536 1122.49 681.032 1125.12C682.046 1125.71 684.72 1127.28 687.276 1126.52C690.288 1125.61 692.565 1121.81 692.83 1117.27C693.006 1114.02 695.768 1111.55 699.03 1111.73C702.277 1111.9 704.746 1114.68 704.569 1117.93C704.04 1127.46 698.442 1135.44 690.67 1137.78C689.098 1138.25 687.482 1138.49 685.851 1138.49H685.807Z" fill="#FFCC66"/>
<path d="M755.258 1100.82C754.876 1100.82 754.509 1100.79 754.127 1100.7C735.629 1097.07 722.009 1082.73 721.759 1066.62C721.554 1053.62 730.075 1038.14 744.18 1035.8C754.098 1034.17 764.97 1039.28 770.054 1047.97C773.198 1053.35 774.035 1058.59 772.552 1063.53C770.215 1071.31 762.237 1076.91 752.717 1077.44C749.484 1077.6 746.707 1075.14 746.516 1071.89C746.34 1068.65 748.808 1065.88 752.055 1065.69C756.581 1065.44 760.386 1063.15 761.297 1060.13C762.061 1057.59 760.504 1054.9 759.901 1053.9C757.271 1049.4 751.218 1046.55 746.09 1047.38C738.523 1048.63 733.381 1058.41 733.499 1066.41C733.66 1076.83 743.49 1086.61 756.375 1089.13C759.563 1089.76 761.635 1092.85 761.018 1096.04C760.474 1098.85 758.006 1100.79 755.258 1100.79V1100.82Z" fill="#FFCC66"/>
<path d="M163.75 86.7571C162.222 86.7571 160.694 86.1543 159.562 84.9927C157.564 82.949 157.314 79.773 158.975 77.4499C159.768 76.3472 163.603 70.4805 161.796 63.1583C160.326 57.2328 156.095 53.9687 154.332 52.8365C152.143 51.425 151.143 48.7343 151.878 46.2347C152.613 43.7352 154.905 42.0149 157.52 42.0149H262.645C265.848 42.0149 268.464 44.5733 268.523 47.7786C268.581 50.9839 266.084 53.6452 262.881 53.7776C244.294 54.5127 226.046 58.0709 208.621 64.3492C193.943 69.6424 179.97 76.8324 167.1 85.7279C166.086 86.4336 164.925 86.7718 163.764 86.7718L163.75 86.7571ZM170.67 53.7776C171.698 55.7037 172.58 57.8798 173.197 60.3205C173.814 62.8201 174.064 65.202 174.034 67.4369C183.379 62.0702 193.164 57.4975 203.273 53.7628H170.67V53.7776Z" fill="#FFCC66"/>
<path d="M44.211 266.784C44.211 266.784 44.1376 266.784 44.0935 266.784C40.8905 266.725 38.334 264.108 38.334 260.903V155.701C38.334 153.098 40.053 150.79 42.5508 150.055C45.0485 149.319 47.7372 150.319 49.1477 152.51C50.2791 154.26 53.5408 158.494 59.4619 159.979C66.7641 161.802 72.6412 157.95 73.7431 157.156C76.0645 155.495 79.2528 155.745 81.2804 157.744C83.3227 159.744 83.6165 162.92 82.0004 165.272C73.1113 178.153 65.9267 192.135 60.6373 206.824C54.3636 224.262 50.808 242.524 50.0734 261.123C49.9411 264.285 47.3552 266.77 44.1963 266.77L44.211 266.784ZM50.0881 168.875V201.501C53.82 191.386 58.3894 181.593 63.7522 172.242C61.5042 172.271 59.1387 172.021 56.6409 171.404C54.1873 170.786 52.0128 169.904 50.1027 168.875H50.0881Z" fill="#FFCC66"/>
<path d="M121.112 98.269C120.965 98.269 120.804 98.269 120.657 98.269C104.554 98.019 90.2283 84.389 86.5992 65.8775C85.9821 62.6869 88.0538 59.5992 91.2421 58.967C94.4304 58.3494 97.5158 60.4226 98.1329 63.6132C100.66 76.508 110.416 86.3446 120.833 86.5063C120.921 86.5063 121.024 86.5063 121.112 86.5063C129.046 86.5063 138.596 81.3895 139.83 73.9055C140.668 68.7741 137.818 62.7163 133.322 60.0844C132.308 59.4963 129.634 57.923 127.092 58.6876C124.08 59.5992 121.803 63.3927 121.538 67.936C121.362 71.1854 118.585 73.6556 115.338 73.4792C112.091 73.3027 109.622 70.5238 109.799 67.2743C110.328 57.7466 115.926 49.7627 123.698 47.4249C128.635 45.9398 133.865 46.7779 139.243 49.9244C147.926 55.0118 153.054 65.8922 151.423 75.817C149.131 89.7704 133.983 98.269 121.083 98.269H121.112Z" fill="#FFCC66"/>
<path d="M66.4251 149.688C57.6242 149.688 48.7352 144.821 44.2981 137.205C41.1538 131.823 40.3164 126.589 41.8003 121.649C44.1364 113.871 52.1145 108.269 61.6353 107.739C64.8677 107.563 67.6446 110.033 67.8356 113.282C68.0119 116.532 65.5435 119.296 62.2965 119.487C57.7712 119.737 53.9658 122.031 53.0548 125.045C52.2908 127.589 53.8629 130.279 54.4506 131.294C57.0806 135.793 63.1339 138.646 68.2617 137.808C75.8283 136.558 80.9707 126.78 80.8532 118.781C80.6916 108.357 70.8622 98.5791 57.9768 96.0648C54.7886 95.4325 52.7169 92.3449 53.334 89.1542C53.9658 85.9636 57.0512 83.8904 60.2248 84.508C78.7228 88.1397 92.3428 102.475 92.5926 118.59C92.7983 131.588 84.2766 147.071 70.1717 149.408C68.9375 149.614 67.6886 149.717 66.4251 149.717V149.688Z" fill="#FFCC66"/>
<path d="M650.588 86.7569C649.427 86.7569 648.266 86.4188 647.252 85.713C634.382 76.8175 620.409 69.6276 605.731 64.3344C588.306 58.056 570.057 54.4978 551.471 53.7627C548.268 53.6303 545.771 50.969 545.829 47.7637C545.888 44.5584 548.503 42 551.706 42H656.832C659.432 42 661.739 43.7203 662.474 46.2199C663.208 48.7194 662.209 51.4101 660.02 52.8216C658.272 53.9538 654.04 57.2179 652.556 63.1434C650.734 70.4509 654.584 76.3323 655.377 77.435C657.038 79.7581 656.788 82.9488 654.79 84.9778C653.644 86.1394 652.13 86.7422 650.602 86.7422L650.588 86.7569ZM611.079 53.7774C621.188 57.512 630.973 62.0847 640.317 67.4515C640.288 65.2166 640.538 62.8346 641.155 60.3351C641.757 57.8796 642.653 55.7035 643.682 53.7921H611.079V53.7774Z" fill="#FFCC66"/>
<path d="M770.142 266.784C766.998 266.784 764.397 264.3 764.265 261.138C763.53 242.553 759.975 224.277 753.701 206.839C748.412 192.15 741.227 178.167 732.338 165.287C730.722 162.935 731.016 159.759 733.058 157.759C735.1 155.76 738.274 155.51 740.595 157.171C741.697 157.965 747.574 161.817 754.876 159.994C760.798 158.524 764.059 154.289 765.191 152.525C766.601 150.334 769.29 149.334 771.788 150.069C774.285 150.805 776.004 153.098 776.004 155.715V260.918C776.004 264.123 773.448 266.74 770.245 266.799C770.201 266.799 770.171 266.799 770.127 266.799L770.142 266.784ZM750.601 172.242C755.964 181.593 760.533 191.386 764.265 201.502V168.875C762.34 169.904 760.166 170.786 757.727 171.404C755.229 172.021 752.849 172.227 750.616 172.242H750.601Z" fill="#FFCC66"/>
<path d="M693.24 98.269C680.34 98.269 665.207 89.7851 662.9 75.817C661.269 65.8922 666.382 55.0118 675.066 49.9244C680.443 46.7779 685.674 45.9398 690.61 47.4249C698.398 49.7627 703.981 57.7466 704.51 67.2743C704.686 70.5238 702.218 73.288 698.971 73.4792C695.724 73.6556 692.961 71.1854 692.77 67.936C692.521 63.4074 690.228 59.5992 687.217 58.6876C684.675 57.923 681.986 59.4963 680.987 60.0844C676.491 62.7163 673.641 68.7741 674.478 73.9055C675.712 81.3895 685.262 86.5063 693.196 86.5063C693.299 86.5063 693.387 86.5063 693.49 86.5063C703.907 86.3446 713.678 76.508 716.19 63.6132C716.822 60.4226 719.908 58.3494 723.081 58.967C726.269 59.5992 728.341 62.6869 727.724 65.8775C724.095 84.389 709.77 98.019 693.667 98.269C693.52 98.269 693.358 98.269 693.211 98.269H693.24Z" fill="#FFCC66"/>
<path d="M747.927 149.687C746.678 149.687 745.429 149.584 744.18 149.378C730.061 147.055 721.554 131.572 721.759 118.56C722.009 102.445 735.629 88.1094 754.127 84.4776C757.315 83.8454 760.401 85.9333 761.018 89.1239C761.635 92.3145 759.563 95.4022 756.375 96.0345C743.49 98.5634 733.66 108.326 733.499 118.751C733.381 126.75 738.509 136.527 746.09 137.777C751.203 138.615 757.271 135.763 759.901 131.264C760.489 130.249 762.061 127.573 761.297 125.029C760.386 122.015 756.595 119.722 752.055 119.472C748.808 119.295 746.34 116.516 746.516 113.267C746.693 110.017 749.469 107.547 752.717 107.724C762.237 108.268 770.215 113.855 772.552 121.633C774.035 126.573 773.198 131.808 770.054 137.189C765.617 144.805 756.713 149.672 747.927 149.672V149.687Z" fill="#FFCC66"/>
<path d="M240.739 937.953C239.431 938.218 238.374 938.086 237.727 937.424C236.934 936.895 236.419 936.115 236.419 935.189C236.155 934.395 236.419 933.483 236.948 932.557C237.477 931.763 238.388 931.249 239.711 930.984C242.341 930.587 244.956 930.19 247.85 929.94C250.612 929.675 253.36 929.543 255.99 929.278C259.928 929.146 263.072 929.543 265.305 930.587C267.406 931.763 268.714 933.219 269.375 935.057C270.036 936.895 270.036 938.997 269.507 941.232C268.846 943.599 267.803 945.702 266.495 947.805C264.923 950.172 262.822 952.671 260.192 955.156C257.43 957.788 254.815 960.141 252.185 962.111C251.141 962.905 250.084 963.287 249.173 963.022C248.129 962.89 247.468 962.493 246.939 961.846C246.41 961.185 246.146 960.405 246.146 959.347C246.146 958.42 246.675 957.509 247.718 956.715C250.348 954.612 252.831 952.51 255.197 950.275C257.43 948.172 259.399 945.805 261.103 943.188C262.675 940.82 263.072 938.983 262.411 937.674C261.617 936.63 259.531 936.101 255.975 936.233C253.478 936.365 250.994 936.63 248.365 936.895C245.735 937.292 243.119 937.689 240.754 937.939L240.739 937.953ZM252.287 975.653C252.287 973.285 252.949 971.844 254.256 971.05C255.432 970.389 256.886 970.007 258.591 969.742C259.898 969.742 261.999 969.61 264.894 969.345C267.773 969.213 270.8 969.08 273.944 968.816C277.089 968.683 280.115 968.551 283.127 968.286C286.007 968.154 288.108 968.022 289.695 967.757C291.531 967.757 292.971 968.286 294.029 969.33C294.94 970.506 295.469 971.83 295.469 973.271V977.873C295.337 979.446 295.204 981.019 295.204 982.475V987.209C295.072 988.783 295.072 990.356 295.204 991.944C295.072 992.855 294.676 993.914 294.029 995.09C293.236 996.399 292.192 997.061 291.017 997.325C289.577 997.59 287.608 997.987 284.978 998.237C282.348 998.634 279.469 999.031 276.574 999.281C273.562 999.81 270.668 1000.07 268.038 1000.32C265.276 1000.72 263.189 1000.99 261.735 1001.12C258.723 1001.65 256.357 1000.99 254.785 999.149C253.081 997.575 252.287 995.605 252.287 993.238C252.155 991.532 252.155 989.959 252.155 988.503V984.563C252.155 983.254 252.155 981.931 252.287 980.49V975.638V975.653ZM259.634 976.829C259.501 978.137 259.501 979.328 259.501 980.372C259.369 981.681 259.369 982.872 259.369 983.916V987.327C259.369 988.636 259.369 989.827 259.501 990.871C259.501 992.179 259.766 992.973 260.412 993.502C260.941 994.032 261.852 994.164 263.175 993.899C265.672 993.635 268.288 993.238 270.918 992.855C273.415 992.591 275.781 992.194 278.132 991.944C280.233 991.679 282.202 991.415 284.038 991.15C285.61 991.018 286.918 990.885 287.711 990.621C287.843 987.739 287.976 984.71 287.976 981.696V974.741C285.61 974.873 283.127 975.006 280.497 975.138C277.735 975.403 275.12 975.667 272.622 975.8C269.992 976.064 267.509 976.329 265.276 976.461C262.91 976.726 260.941 976.858 259.634 976.858V976.829ZM293.368 940.585H306.753C307.796 940.585 308.722 940.982 309.515 941.497C310.044 942.158 310.426 943.07 310.426 944.129C310.426 945.305 310.029 946.099 309.515 946.628C308.722 947.29 307.811 947.555 306.753 947.555H293.765L294.426 959.641C294.558 961.214 294.294 962.405 293.765 963.052C293.103 963.846 292.192 964.228 291.002 964.228C289.695 964.228 288.637 963.963 288.123 963.184C287.461 962.523 287.079 961.346 287.079 959.773L285.111 923.662C284.846 922.221 284.978 921.03 285.64 920.118C286.169 919.324 287.079 918.942 288.402 918.942C289.577 918.942 290.503 919.339 291.282 920.118C291.81 921.03 292.192 922.221 292.457 923.529L293.368 940.6V940.585Z" fill="#FFCC66"/>
<path d="M259.839 1002.05C257.518 1002.05 255.593 1001.24 254.227 999.649C252.478 998.032 251.553 995.871 251.553 993.268C251.421 991.592 251.421 989.975 251.421 988.534V984.593C251.421 983.285 251.421 981.932 251.553 980.447V975.654C251.553 973.08 252.317 971.36 253.874 970.419C255.064 969.757 256.519 969.316 258.473 969.008C259.869 969.008 261.955 968.861 264.82 968.611H265.158C267.964 968.464 270.859 968.331 273.885 968.081C277.309 967.934 280.145 967.817 283.068 967.552C286.051 967.42 288.049 967.287 289.577 967.037C291.766 966.964 293.368 967.626 294.543 968.816C295.66 970.257 296.204 971.728 296.204 973.272V977.874C296.071 979.462 295.939 981.035 295.939 982.476V987.21C295.807 988.798 295.807 990.342 295.939 991.871V991.96V992.048C295.792 993.048 295.366 994.194 294.675 995.459C293.838 996.856 292.663 997.723 291.179 998.047L290.606 998.15C289.254 998.4 287.388 998.738 285.052 998.973C281.79 999.473 279.101 999.796 276.648 1000.03C273.944 1000.5 271.256 1000.77 268.875 1001L268.126 1001.08C265.393 1001.47 263.263 1001.74 261.823 1001.87C261.147 1001.99 260.486 1002.05 259.854 1002.05H259.839ZM289.695 968.508C288.225 968.758 286.168 968.89 283.171 969.037C280.247 969.287 277.397 969.419 273.974 969.566C270.947 969.816 268.038 969.949 265.232 970.081H264.923C262.014 970.36 259.928 970.493 258.59 970.493C256.93 970.757 255.637 971.154 254.624 971.713C253.948 972.11 253.037 972.977 253.037 975.668V980.52C252.904 981.991 252.904 983.314 252.904 984.593V988.534C252.904 989.93 252.904 991.533 253.037 993.209C253.037 995.474 253.771 997.238 255.299 998.635C256.754 1000.33 258.87 1000.9 261.632 1000.41C263.116 1000.28 265.217 1000.02 267.95 999.62L268.728 999.546C271.197 999.297 273.753 999.047 276.457 998.576C278.94 998.341 281.599 998.017 284.876 997.517C287.197 997.282 288.945 996.959 290.341 996.709L290.885 996.606C291.957 996.371 292.78 995.753 293.412 994.724C293.985 993.68 294.352 992.724 294.484 991.93C294.352 990.342 294.367 988.739 294.484 987.166V982.505C294.484 981.006 294.617 979.403 294.749 977.844V973.316C294.749 972.095 294.308 970.934 293.456 969.831C292.604 968.978 291.355 968.537 289.709 968.537L289.695 968.508ZM261.999 994.783C261.103 994.783 260.398 994.533 259.898 994.047C259.119 993.43 258.767 992.474 258.767 990.901C258.635 989.901 258.635 988.666 258.635 987.357V983.946C258.635 982.888 258.635 981.682 258.767 980.329C258.767 979.344 258.767 978.138 258.899 976.786L258.958 976.124H259.619C260.956 976.124 262.925 975.992 265.187 975.742C267.186 975.624 269.36 975.404 271.667 975.168L272.548 975.08C274.826 974.962 277.177 974.727 279.66 974.492L280.438 974.418C283.098 974.286 285.581 974.154 287.946 974.021L288.725 973.977V981.711C288.725 984.667 288.607 987.637 288.461 990.68L288.431 991.18L287.946 991.342C287.05 991.636 285.625 991.783 284.097 991.901C282.304 992.165 280.321 992.43 278.22 992.68C277.118 992.798 276.016 992.959 274.899 993.106C273.621 993.283 272.313 993.459 270.991 993.606C268.449 993.989 265.79 994.386 263.248 994.65C262.793 994.738 262.381 994.783 261.999 994.783ZM260.31 977.565C260.236 978.594 260.236 979.535 260.236 980.388C260.104 981.741 260.104 982.902 260.104 983.931V987.343C260.104 988.651 260.104 989.798 260.236 990.798C260.236 992.239 260.545 992.68 260.883 992.945C261.279 993.327 261.999 993.4 263.042 993.195C265.614 992.915 268.258 992.518 270.815 992.136C272.166 991.989 273.445 991.812 274.723 991.651C275.854 991.489 276.956 991.342 278.073 991.224C280.159 990.96 282.128 990.695 283.95 990.445C285.096 990.342 286.242 990.239 287.021 990.078C287.153 987.24 287.256 984.476 287.256 981.711V975.521C285.125 975.639 282.892 975.756 280.541 975.874L279.807 975.948C277.309 976.183 274.943 976.418 272.681 976.536L271.843 976.624C269.522 976.859 267.333 977.08 265.334 977.197C263.41 977.418 261.661 977.55 260.324 977.58L260.31 977.565ZM291.002 964.964C289.269 964.964 288.123 964.508 287.506 963.582C286.771 962.862 286.33 961.509 286.33 959.759L284.361 923.677C284.053 922.06 284.273 920.707 285.022 919.663C285.684 918.678 286.815 918.178 288.372 918.178C289.724 918.178 290.841 918.634 291.781 919.575L291.899 919.737C292.442 920.692 292.868 921.913 293.162 923.368L294.058 939.851H306.753C307.825 939.851 308.869 940.189 309.912 940.895L310.073 941.042C310.764 941.909 311.146 943.012 311.146 944.13C311.146 945.379 310.764 946.394 310.015 947.144C309.089 947.923 308.031 948.276 306.738 948.276H294.529L295.146 959.583C295.293 961.288 295.013 962.641 294.338 963.494C293.529 964.464 292.413 964.95 291.002 964.95V964.964ZM288.372 919.649C287.315 919.649 286.609 919.928 286.227 920.501C285.713 921.222 285.581 922.207 285.816 923.501L287.799 959.715C287.799 961.068 288.108 962.126 288.637 962.656C289.048 963.259 289.798 963.494 291.002 963.494C291.957 963.494 292.677 963.2 293.192 962.582C293.603 962.068 293.794 961.009 293.676 959.7L292.971 946.82H306.738C307.678 946.82 308.413 946.585 309.03 946.07C309.456 945.644 309.691 944.997 309.691 944.144C309.691 943.159 309.28 942.453 309.001 942.071C308.237 941.586 307.502 941.336 306.753 941.336H292.677L291.722 923.574C291.487 922.442 291.12 921.369 290.679 920.575C290.033 919.957 289.313 919.678 288.387 919.678L288.372 919.649ZM249.731 963.861C249.452 963.861 249.187 963.817 248.937 963.744C247.865 963.626 247.013 963.156 246.337 962.318C245.705 961.524 245.382 960.553 245.382 959.362C245.382 958.539 245.705 957.304 247.248 956.142C250.201 953.775 252.567 951.746 254.668 949.761C256.842 947.717 258.796 945.365 260.456 942.806C261.411 941.365 262.411 939.38 261.735 938.013C261.426 937.631 260.177 936.793 255.99 936.969C253.757 937.087 251.509 937.307 249.143 937.557L248.423 937.631C245.867 938.013 243.207 938.41 240.857 938.675C239.24 938.998 238.006 938.748 237.213 937.94C236.317 937.366 235.729 936.381 235.685 935.308C235.435 934.411 235.641 933.367 236.302 932.205C236.963 931.205 238.05 930.573 239.549 930.279C242.179 929.882 244.853 929.485 247.762 929.22C249.099 929.088 250.436 929 251.744 928.897C253.154 928.794 254.535 928.691 255.887 928.559C260.163 928.412 263.322 928.868 265.584 929.941C267.876 931.235 269.316 932.823 270.036 934.822C270.712 936.734 270.771 938.954 270.183 941.409C269.566 943.644 268.581 945.791 267.068 948.202C265.378 950.731 263.233 953.246 260.647 955.701C257.371 958.818 254.888 960.98 252.581 962.715C251.567 963.479 250.598 963.861 249.716 963.861H249.731ZM256.989 935.499C260.133 935.499 262.087 936.072 262.984 937.263C263.85 938.969 263.395 941.071 261.691 943.63C259.957 946.291 257.944 948.717 255.681 950.849C253.551 952.863 251.156 954.922 248.159 957.318C247.307 957.965 246.866 958.671 246.866 959.377C246.866 960.244 247.057 960.877 247.498 961.421C247.938 961.965 248.438 962.229 249.246 962.332C250.142 962.582 251.083 962.038 251.729 961.553C253.992 959.862 256.445 957.73 259.663 954.642C262.161 952.275 264.247 949.834 265.863 947.408C267.289 945.144 268.214 943.115 268.787 941.057C269.287 938.91 269.257 936.969 268.67 935.322C268.067 933.646 266.877 932.352 264.938 931.25C262.954 930.323 259.928 929.897 256.005 930.029C254.682 930.161 253.286 930.264 251.876 930.367C250.568 930.455 249.246 930.558 247.924 930.691C245.059 930.955 242.399 931.352 239.828 931.735C238.756 931.955 237.992 932.382 237.58 932.999C237.272 933.529 236.934 934.352 237.139 934.984L237.183 935.219C237.183 936.058 237.8 936.601 238.168 936.837C238.726 937.366 239.52 937.484 240.636 937.248H240.695C243.046 936.984 245.69 936.587 248.262 936.19L249.026 936.116C251.421 935.881 253.668 935.646 255.961 935.528C256.328 935.528 256.68 935.513 257.033 935.513L256.989 935.499Z" fill="#FFCD54"/>
<path d="M321.313 935.602C319.74 936.131 318.55 936.263 317.772 935.734C316.978 935.337 316.596 934.558 316.596 933.235C316.332 932.323 316.464 931.529 317.257 930.735C317.919 930.073 319.094 929.559 320.666 929.029L333.272 925.618C339.311 924.045 343.91 924.045 347.054 925.354C350.066 926.927 351.653 929.823 351.653 934.161C351.653 935.866 351.124 937.572 350.081 939.278C349.155 940.586 348.112 942.042 346.936 943.483L358.353 952.937C359.396 953.981 360.057 955.04 360.321 955.951C360.454 956.995 360.189 958.054 359.41 958.833C358.617 959.745 357.838 960.142 356.913 959.877C355.869 959.745 354.812 959.083 353.768 958.039L341.823 948.32L328.571 960.803C327.395 961.98 326.337 962.641 325.426 962.774C324.383 963.038 323.59 962.641 322.929 961.597C322.003 960.803 321.753 959.892 322.003 958.833C322.135 957.921 322.796 956.863 323.972 955.687L340.898 939.792C341.941 938.748 342.734 937.822 343.395 936.778C343.924 935.866 344.189 934.94 344.189 934.146C344.189 932.838 343.528 931.911 342.22 931.514C340.78 931.25 338.811 931.25 336.181 931.779L321.357 935.587L321.313 935.602ZM383.653 982.608C383.653 985.108 383.124 987.343 382.213 989.431C381.17 991.666 379.848 993.636 378.276 995.474C376.439 997.312 374.206 998.753 371.84 999.547C369.21 1000.59 366.463 1000.99 363.304 1000.99C360.424 1000.99 357.794 1000.72 355.693 999.944C353.46 999.282 351.623 998.238 350.316 996.665C348.744 995.356 347.553 993.768 346.907 991.798C346.114 989.96 345.732 987.857 345.732 985.49C345.732 982.858 346.128 980.506 347.039 978.138C347.833 975.904 349.273 973.801 351.109 971.831C352.681 969.993 354.782 968.552 357.28 967.493C359.645 966.567 362.525 966.052 365.684 966.052C368.314 966.052 370.665 966.449 372.898 967.229C374.999 968.14 376.836 969.331 378.54 970.64C380.112 972.213 381.302 974.051 382.345 975.889C383.139 977.991 383.653 980.226 383.653 982.594V982.608ZM376.439 982.608C376.439 981.3 376.175 980.109 375.778 978.8C375.249 977.756 374.47 976.698 373.677 975.654C372.634 974.86 371.576 974.213 370.268 973.683C368.961 973.286 367.388 973.022 365.669 973.022C363.568 973.022 361.864 973.419 360.292 973.948C358.588 974.61 357.28 975.521 356.222 976.712C354.914 978.021 354.121 979.477 353.724 980.785C353.195 982.358 352.931 983.932 352.931 985.52C352.931 986.96 353.063 988.151 353.592 989.195C353.857 990.372 354.518 991.298 355.429 991.96C356.222 992.754 357.265 993.268 358.573 993.533C359.881 993.93 361.453 994.062 363.304 994.062C365.273 994.062 367.109 993.798 368.814 993.151C370.386 992.621 371.693 991.71 372.883 990.269C373.927 989.225 374.72 987.901 375.513 986.593C376.042 985.284 376.424 983.961 376.424 982.652L376.439 982.608ZM363.436 945.321C362.261 945.321 361.467 945.056 360.938 944.394C360.277 943.865 360.013 943.086 360.013 941.895C360.013 940.851 360.277 939.925 360.938 939.263C361.467 938.734 362.246 938.351 363.436 938.351H377.086V923.648C377.086 922.207 377.35 921.016 377.996 920.104C378.525 919.31 379.304 918.928 380.626 918.928C381.802 918.928 382.728 919.325 383.506 920.104C384.167 921.016 384.549 922.207 384.549 923.648V959.759C384.549 961.333 384.153 962.524 383.506 963.17C382.713 963.964 381.802 964.214 380.626 964.214C379.319 964.214 378.525 963.95 377.996 963.17C377.335 962.509 377.086 961.333 377.086 959.759V945.306H363.436V945.321Z" fill="#FFCC66"/>
<path d="M363.304 1001.74C359.984 1001.74 357.398 1001.38 355.429 1000.63C353.005 999.929 351.08 998.738 349.743 997.136C348.053 995.739 346.863 994.048 346.202 992.033C345.394 990.166 344.983 987.946 344.983 985.49C344.983 982.682 345.409 980.256 346.349 977.874C347.113 975.727 348.524 973.522 350.566 971.331C352.167 969.464 354.327 967.935 356.987 966.817C359.514 965.832 362.511 965.318 365.67 965.318C368.359 965.318 370.798 965.715 373.134 966.538C375.117 967.405 377.013 968.552 378.981 970.067C380.774 971.846 382.008 973.831 382.978 975.536C383.947 978.08 384.388 980.359 384.388 982.594C384.388 985.079 383.889 987.402 382.875 989.71C381.832 991.945 380.509 993.974 378.82 995.93C376.807 997.944 374.485 999.415 372.061 1000.22C369.549 1001.22 366.757 1001.71 363.304 1001.71V1001.74ZM365.67 966.803C362.687 966.803 359.881 967.288 357.53 968.199C355.106 969.214 353.122 970.611 351.653 972.331C349.728 974.389 348.421 976.433 347.716 978.404C346.849 980.638 346.437 982.903 346.437 985.52C346.437 987.769 346.819 989.799 347.554 991.534C348.156 993.327 349.199 994.812 350.757 996.121C352.02 997.606 353.651 998.606 355.87 999.268C357.721 999.959 360.131 1000.28 363.275 1000.28C366.419 1000.28 369.167 999.841 371.532 998.885C373.78 998.135 375.911 996.783 377.718 994.974C379.275 993.151 380.524 991.239 381.508 989.137C382.434 987.034 382.89 984.888 382.89 982.623C382.89 980.565 382.478 978.462 381.626 976.183C380.744 974.669 379.584 972.787 377.982 971.184C376.19 969.817 374.397 968.729 372.561 967.92C370.445 967.17 368.153 966.803 365.64 966.803H365.67ZM363.304 994.768C361.203 994.768 359.631 994.592 358.368 994.21C356.987 993.93 355.796 993.342 354.915 992.445C353.931 991.754 353.196 990.681 352.902 989.416C352.3 988.152 352.211 986.784 352.211 985.49C352.211 983.844 352.491 982.167 353.034 980.535C353.504 978.962 354.43 977.448 355.708 976.183C356.84 974.904 358.265 973.934 360.028 973.257C362.041 972.581 363.775 972.287 365.67 972.287C367.315 972.287 368.976 972.522 370.474 972.978C371.767 973.493 372.869 974.125 374.118 975.066L374.265 975.213C375.058 976.286 375.881 977.374 376.44 978.477C376.836 979.786 377.174 981.094 377.174 982.609C377.174 984.123 376.66 985.682 376.204 986.828C375.352 988.269 374.53 989.637 373.413 990.754C372.208 992.225 370.768 993.254 369.064 993.827C367.404 994.474 365.508 994.783 363.319 994.783L363.304 994.768ZM365.67 973.757C363.936 973.757 362.349 974.037 360.527 974.639C359.014 975.228 357.78 976.066 356.781 977.183C355.356 978.609 354.724 980.036 354.445 980.977C353.945 982.491 353.681 984.005 353.681 985.49C353.681 986.975 353.842 988.019 354.254 988.843L354.313 989.019C354.518 989.975 355.047 990.754 355.855 991.342C356.634 992.107 357.56 992.563 358.72 992.798C359.91 993.151 361.35 993.313 363.304 993.313C365.258 993.313 367.036 993.033 368.55 992.445C370.048 991.945 371.224 991.107 372.311 989.784C373.339 988.74 374.089 987.505 374.867 986.196C375.426 984.785 375.69 983.667 375.69 982.623C375.69 981.3 375.396 980.109 375.058 979.021C374.618 978.168 373.868 977.168 373.134 976.183C372.017 975.36 371.062 974.816 369.975 974.375C368.667 973.992 367.154 973.772 365.655 973.772L365.67 973.757ZM380.627 964.965C379.481 964.965 378.203 964.803 377.395 963.583C376.719 962.921 376.351 961.671 376.351 959.76V946.041H363.437C362.555 946.041 361.277 945.924 360.425 944.909C359.411 944.056 359.293 942.777 359.293 941.895C359.293 940.557 359.675 939.498 360.425 938.749C361.174 937.999 362.188 937.616 363.437 937.616H376.351V923.648C376.351 921.972 376.689 920.664 377.409 919.678C378.085 918.664 379.114 918.193 380.627 918.193C381.979 918.193 383.095 918.649 384.036 919.59C384.902 920.781 385.299 922.119 385.299 923.648V959.76C385.299 961.509 384.858 962.862 384.036 963.7C383.154 964.582 382.111 964.965 380.627 964.965ZM363.437 939.087C362.599 939.087 361.923 939.322 361.468 939.793C360.998 940.263 360.763 940.969 360.763 941.895C360.763 943.13 361.086 943.557 361.409 943.821L361.527 943.939C361.776 944.262 362.202 944.586 363.451 944.586H377.835V959.774C377.835 961.23 378.07 962.2 378.541 962.671C378.937 963.23 379.363 963.509 380.642 963.509C381.729 963.509 382.419 963.259 383.007 962.671C383.536 962.142 383.845 961.083 383.845 959.774V923.663C383.845 922.443 383.536 921.399 382.934 920.546C382.346 919.972 381.611 919.664 380.642 919.664C379.378 919.664 378.923 920.075 378.629 920.517C378.085 921.281 377.835 922.281 377.835 923.648V939.087H363.451H363.437ZM324.751 963.612C323.811 963.612 322.973 963.112 322.312 962.097C321.269 961.156 320.902 960.01 321.239 958.672C321.386 957.657 322.092 956.481 323.399 955.172L340.34 939.263C341.412 938.19 342.132 937.322 342.72 936.381C343.146 935.632 343.396 934.823 343.396 934.146C343.396 933.132 342.94 932.514 341.956 932.22C340.487 931.956 338.547 932.044 336.27 932.5L321.504 936.293C320.182 936.734 318.536 937.116 317.346 936.337C316.391 935.867 315.862 934.838 315.833 933.338C315.524 932.147 315.803 931.118 316.699 930.221C317.39 929.53 318.492 928.971 320.402 928.339L333.038 924.913C339.091 923.34 343.881 923.251 347.289 924.677C350.654 926.427 352.329 929.618 352.329 934.161C352.329 935.999 351.756 937.852 350.639 939.675C349.964 940.645 349.008 941.983 347.892 943.395L358.75 952.393C359.896 953.54 360.645 954.687 360.954 955.775C361.145 957.245 360.748 958.48 359.852 959.392C358.867 960.539 357.795 960.965 356.634 960.627C355.561 960.51 354.401 959.833 353.166 958.598L341.78 949.335L328.997 961.377C327.704 962.671 326.544 963.377 325.442 963.538C325.192 963.597 324.957 963.627 324.707 963.627L324.751 963.612ZM340.119 930.618C340.913 930.618 341.648 930.676 342.323 930.794C344.013 931.294 344.895 932.485 344.895 934.146C344.895 935.087 344.586 936.131 344.013 937.131C343.352 938.19 342.573 939.131 341.398 940.307L324.457 956.216C323.429 957.245 322.826 958.186 322.709 958.936C322.488 959.833 322.709 960.451 323.385 961.024L323.532 961.201C324.105 962.112 324.619 962.215 325.221 962.053C326.044 961.936 326.984 961.318 328.027 960.274L341.765 947.335L354.21 957.466C355.238 958.495 356.149 959.039 356.987 959.142C357.501 959.289 358.03 959.274 358.838 958.348C359.602 957.569 359.661 956.657 359.587 956.025C359.367 955.305 358.735 954.349 357.824 953.437L345.894 943.557L346.364 942.998C347.642 941.439 348.759 939.881 349.479 938.837C350.434 937.293 350.919 935.705 350.919 934.132C350.919 930.118 349.552 927.456 346.716 925.986C343.66 924.707 339.179 924.81 333.464 926.31L320.872 929.721C319.888 930.059 318.448 930.588 317.787 931.235C317.243 931.779 317.111 932.279 317.317 933.014L317.346 933.22C317.346 934.499 317.757 934.882 318.125 935.058C318.712 935.44 319.638 935.382 321.107 934.882H321.151L335.976 931.059C337.504 930.75 338.885 930.603 340.134 930.603L340.119 930.618Z" fill="#FFCD54"/>
<path d="M434.166 935.602C432.594 936.131 431.404 936.263 430.625 935.734C429.832 935.337 429.45 934.558 429.45 933.235C429.185 932.323 429.317 931.529 430.111 930.735C430.772 930.073 431.947 929.559 433.52 929.029L446.126 925.618C452.164 924.045 456.763 924.045 459.907 925.354C462.919 926.927 464.506 929.823 464.506 934.161C464.506 935.866 463.977 937.572 462.934 939.278C462.008 940.586 460.965 942.042 459.79 943.483L471.206 952.937C472.249 953.981 472.91 955.04 473.175 955.951C473.307 956.995 473.043 958.054 472.264 958.833C471.471 959.745 470.692 960.142 469.766 959.877C468.723 959.745 467.665 959.083 466.622 958.039L454.677 948.32L441.424 960.803C440.249 961.98 439.191 962.641 438.28 962.774C437.237 963.038 436.443 962.641 435.782 961.597C434.857 960.803 434.607 959.892 434.857 958.833C434.989 957.921 435.65 956.863 436.825 955.687L453.751 939.792C454.794 938.748 455.588 937.822 456.249 936.778C456.778 935.866 457.042 934.94 457.042 934.146C457.042 932.838 456.381 931.911 455.074 931.514C453.634 931.25 451.665 931.25 449.035 931.779L434.21 935.587L434.166 935.602ZM486.266 977.624C486.266 976.58 486.001 975.918 485.473 975.389C484.811 974.992 484.033 974.727 482.975 974.727L443.863 981.035C442.291 981.432 441.101 981.3 440.454 980.77C439.661 980.373 439.279 979.594 439.279 978.403C439.279 977.359 439.544 976.433 440.322 975.639C440.983 974.977 442.159 974.463 443.731 974.198L482.843 967.89C486.251 967.361 489.013 968.023 490.85 969.596C492.687 971.301 493.612 973.933 493.612 977.609V991.666C493.612 993.239 493.216 994.43 492.701 995.077C491.908 995.871 490.997 996.121 489.822 996.121C488.514 996.121 487.588 995.856 487.059 995.077C486.53 994.415 486.266 993.239 486.266 991.666V977.609V977.624ZM487.456 923.648C487.456 922.207 487.721 921.016 488.249 920.104C488.778 919.31 489.689 918.928 491.012 918.928C492.187 918.928 493.113 919.325 493.891 920.104C494.42 921.016 494.817 922.207 494.817 923.648V959.759C494.817 961.333 494.42 962.524 493.891 963.17C493.098 963.964 492.187 964.214 491.012 964.214C489.704 964.214 488.778 963.95 488.249 963.17C487.721 962.509 487.456 961.333 487.456 959.759V923.648Z" fill="#FFCC66"/>
<path d="M489.822 996.87C488.676 996.87 487.265 996.709 486.457 995.488C485.87 994.753 485.546 993.445 485.546 991.665V977.609C485.546 976.683 485.311 976.256 485.032 975.962C484.43 975.624 483.783 975.462 482.99 975.462L443.996 981.755C442.321 982.167 440.954 982.049 440.073 981.388C439.368 981.006 438.56 980.182 438.56 978.403C438.56 977.036 438.956 975.992 439.823 975.124C440.616 974.33 441.939 973.757 443.628 973.477L482.74 967.17C486.296 966.611 489.264 967.273 491.335 969.037C493.363 970.934 494.347 973.727 494.347 977.609V991.665C494.347 993.268 493.951 994.68 493.275 995.532C492.349 996.473 491.291 996.856 489.822 996.856V996.87ZM482.931 974.007C484.092 974.007 485.017 974.257 485.855 974.757L486.002 974.874C486.692 975.565 487.001 976.418 487.001 977.624V991.68C487.001 993.577 487.398 994.341 487.633 994.636C487.912 995.047 488.353 995.415 489.822 995.415C490.909 995.415 491.6 995.165 492.187 994.577C492.614 994.047 492.893 992.945 492.893 991.68V977.624C492.893 974.168 492.07 971.728 490.366 970.154C488.647 968.684 486.09 968.155 482.975 968.64L443.864 974.948C442.512 975.168 441.41 975.624 440.852 976.183C440.279 976.756 440.014 977.447 440.014 978.418C440.014 979.594 440.455 979.962 440.793 980.123L440.925 980.212C441.41 980.609 442.453 980.653 443.702 980.329L482.872 974.021C482.872 974.021 482.916 974.021 482.931 974.021V974.007ZM490.997 964.964C489.851 964.964 488.441 964.802 487.633 963.582C487.045 962.847 486.722 961.538 486.722 959.759V923.648C486.722 922.075 487.016 920.766 487.603 919.737C488.294 918.693 489.425 918.178 490.997 918.178C492.349 918.178 493.466 918.634 494.406 919.575L494.524 919.737C495.199 920.913 495.537 922.236 495.537 923.648V959.759C495.537 961.362 495.141 962.773 494.45 963.626C493.524 964.567 492.467 964.95 490.997 964.95V964.964ZM490.997 919.649C489.939 919.649 489.234 919.928 488.852 920.501C488.426 921.266 488.191 922.325 488.191 923.633V959.745C488.191 961.641 488.588 962.406 488.823 962.7C489.102 963.112 489.543 963.479 491.012 963.479C492.099 963.479 492.79 963.229 493.378 962.641C493.804 962.112 494.083 961.009 494.083 959.745V923.633C494.083 922.516 493.818 921.472 493.304 920.545C492.658 919.928 491.938 919.649 491.012 919.649H490.997ZM437.619 963.612C436.679 963.612 435.841 963.112 435.18 962.097C434.137 961.156 433.77 960.009 434.108 958.671C434.255 957.657 434.96 956.48 436.267 955.172L453.208 939.263C454.281 938.189 455.001 937.322 455.588 936.381C456.014 935.631 456.264 934.822 456.264 934.146C456.264 933.131 455.809 932.514 454.824 932.22C453.355 931.955 451.416 932.043 449.138 932.499L434.372 936.293C433.05 936.734 431.404 937.116 430.214 936.337C429.259 935.866 428.73 934.837 428.701 933.337C428.392 932.132 428.671 931.117 429.568 930.22C430.258 929.529 431.36 928.97 433.27 928.338L445.906 924.912C451.959 923.339 456.749 923.251 460.158 924.677C463.522 926.427 465.197 929.617 465.197 934.161C465.197 935.999 464.624 937.851 463.508 939.674C462.832 940.645 461.877 941.983 460.76 943.394L471.618 952.393C472.764 953.54 473.513 954.687 473.822 955.775C474.013 957.245 473.616 958.48 472.72 959.392C471.735 960.538 470.663 960.965 469.502 960.627C468.43 960.509 467.269 959.833 466.035 958.598L454.648 949.335L441.865 961.377C440.572 962.671 439.412 963.376 438.31 963.538C438.06 963.597 437.825 963.626 437.575 963.626L437.619 963.612ZM452.973 930.617C453.766 930.617 454.501 930.676 455.177 930.794C456.866 931.294 457.748 932.485 457.748 934.146C457.748 935.087 457.439 936.131 456.866 937.131C456.205 938.189 455.427 939.13 454.251 940.307L437.311 956.216C436.282 957.245 435.68 958.186 435.562 958.936C435.342 959.833 435.562 960.45 436.238 961.024L436.385 961.2C436.958 962.112 437.472 962.215 438.075 962.053C438.897 961.935 439.838 961.318 440.881 960.274L454.618 947.335L467.063 957.465C468.092 958.495 469.003 959.039 469.84 959.142C470.354 959.289 470.883 959.274 471.691 958.348C472.455 957.568 472.514 956.657 472.441 956.025C472.22 955.304 471.588 954.348 470.677 953.437L458.747 943.556L459.217 942.997C460.496 941.439 461.612 939.88 462.332 938.836C463.287 937.293 463.772 935.705 463.772 934.131C463.772 930.117 462.406 927.456 459.57 925.986C456.514 924.706 452.033 924.809 446.317 926.309L433.726 929.72C432.741 930.058 431.301 930.588 430.64 931.235C430.097 931.779 429.964 932.279 430.17 933.014L430.199 933.22C430.199 934.499 430.611 934.881 430.978 935.058C431.566 935.44 432.491 935.381 433.961 934.881H434.005L448.83 931.058C450.358 930.75 451.739 930.603 452.988 930.603L452.973 930.617Z" fill="#FFCD54"/>
<path d="M521.043 929.16L537.836 927.322C540.848 927.057 543.214 927.719 544.918 929.16C545.961 930.336 546.622 931.659 547.019 933.497L568.808 932.703V924.69C568.808 923.249 569.073 922.058 569.602 921.147C570.13 920.353 571.041 919.97 572.364 919.97C573.539 919.97 574.465 920.367 575.258 921.147C575.787 922.073 576.169 923.249 576.169 924.69V966.462C576.169 968.035 575.772 969.226 575.258 969.873C574.465 970.667 573.554 970.917 572.364 970.917C571.056 970.917 570.13 970.653 569.602 969.873C569.073 969.212 568.808 968.035 568.808 966.462V955.17L547.151 956.082H547.019C546.622 957.655 545.976 959.096 544.918 960.022C543.214 961.595 540.848 962.389 537.968 962.654L523.393 963.698C519.456 964.227 516.576 963.433 514.739 961.595C512.771 959.89 511.845 956.993 511.845 953.053V938.599C511.845 935.835 512.506 933.615 514.078 932.027C515.518 930.454 517.884 929.527 521.028 929.145L521.043 929.16ZM540.069 936.115C540.069 935.453 539.805 934.938 539.541 934.541C539.012 934.277 538.497 934.144 537.968 934.144L521.175 935.982C520.381 936.247 519.867 936.511 519.603 936.908C519.206 937.438 519.074 937.952 519.074 938.614V953.067C519.074 954.508 519.338 955.567 520.117 956.082C520.646 956.876 521.689 957.126 523.261 956.876L537.836 955.699C538.497 955.699 539.012 955.567 539.541 955.17C539.805 954.905 540.069 954.376 540.069 953.597V936.129V936.115ZM537.454 979.592C537.322 980.636 537.322 981.695 537.322 982.474C537.19 983.386 537.19 984.312 537.19 985.106C537.19 985.9 537.19 986.679 537.322 987.473C537.322 988.267 537.322 989.046 537.454 989.84C537.454 990.884 537.719 991.546 538.248 991.943C538.644 992.472 539.687 992.737 541.26 992.605C543.361 992.605 545.726 992.34 548.474 992.075C551.104 991.811 553.851 991.546 556.746 991.031C559.625 990.767 562.387 990.237 565.15 989.723C567.78 989.326 570.263 988.929 572.364 988.414C573.407 988.282 574.2 988.547 574.994 989.076C575.655 989.738 576.169 990.385 576.434 991.179C576.566 992.09 576.566 992.884 576.301 993.678C575.905 994.59 575.258 995.119 574.465 995.384C572.099 996.178 569.484 996.692 566.457 997.222C563.313 997.751 560.022 998.265 556.746 998.662C553.337 999.192 549.913 999.456 546.769 999.574C543.493 999.839 540.598 999.971 538.233 999.971C535.867 999.971 533.899 999.442 532.459 998.133C530.887 997.089 530.093 995.251 529.961 992.884C529.696 990.517 529.564 988.282 529.696 986.179C529.696 984.077 529.696 981.842 529.961 979.475C529.961 978.431 530.358 977.504 531.269 976.843C532.062 976.313 532.841 975.931 533.899 975.931C534.692 975.931 535.603 976.328 536.396 976.843C537.057 977.637 537.439 978.548 537.439 979.607L537.454 979.592ZM547.298 940.452V949.127L568.823 948.333V939.658L547.298 940.452Z" fill="#FFCC66"/>
<path d="M538.234 1000.69C535.516 1000.69 533.474 1000.03 531.961 998.664C530.33 997.576 529.375 995.62 529.228 992.9C528.934 990.224 528.846 988.063 528.963 986.122C528.963 984.019 528.963 981.799 529.228 979.388C529.228 978.123 529.786 977.006 530.844 976.241C531.667 975.682 532.607 975.183 533.9 975.183C535.061 975.183 536.221 975.829 536.794 976.226L536.956 976.374C537.764 977.344 538.175 978.432 538.175 979.608V979.696C538.043 980.696 538.043 981.74 538.043 982.49C537.911 983.46 537.911 984.343 537.911 985.122C537.911 985.901 537.911 986.636 538.029 987.372C538.029 988.268 538.029 989.004 538.161 989.739C538.161 990.886 538.455 991.209 538.66 991.371L538.807 991.518C538.94 991.694 539.615 992.018 541.173 991.886C543.009 991.886 544.978 991.694 547.256 991.474L548.813 991.327C551.311 991.077 553.882 990.827 556.585 990.327C559.494 990.062 562.286 989.533 564.975 989.018C567.575 988.621 570.058 988.239 572.145 987.71C573.379 987.548 574.334 987.798 575.362 988.474C576.082 989.18 576.758 989.945 577.096 990.959C577.287 992.224 577.243 993.106 576.964 993.915C576.494 995.017 575.73 995.738 574.657 996.091C572.292 996.885 569.706 997.399 566.547 997.958C563.461 998.473 560.141 999.002 556.791 999.414C553.764 999.884 550.473 1000.18 546.756 1000.34C543.494 1000.6 540.6 1000.74 538.19 1000.74L538.234 1000.69ZM533.9 976.653C533.048 976.653 532.401 976.976 531.681 977.447C531.02 977.917 530.697 978.579 530.697 979.461C530.432 981.873 530.432 984.049 530.432 986.166C530.315 988.063 530.403 990.15 530.697 992.782C530.829 995.047 531.549 996.635 532.871 997.502C534.179 998.678 535.898 999.222 538.234 999.222C540.57 999.222 543.45 999.09 546.712 998.825C550.4 998.678 553.632 998.37 556.629 997.914C559.965 997.517 563.256 996.988 566.326 996.473C569.412 995.929 571.939 995.414 574.216 994.664C574.878 994.444 575.333 994.018 575.612 993.371C575.789 992.827 575.818 992.18 575.686 991.268C575.524 990.827 575.142 990.283 574.451 989.577C573.834 989.18 573.217 989.033 572.439 989.136C570.367 989.665 567.84 990.062 565.239 990.445C562.536 990.959 559.715 991.503 556.791 991.768C554.102 992.253 551.487 992.518 548.96 992.768L547.402 992.915C545.081 993.135 543.083 993.341 541.246 993.341C539.557 993.488 538.322 993.194 537.705 992.474C537.029 991.93 536.706 991.062 536.706 989.842C536.574 989.121 536.574 988.283 536.574 987.475C536.442 986.739 536.442 985.916 536.442 985.107C536.442 984.299 536.442 983.343 536.574 982.372C536.574 981.696 536.574 980.623 536.692 979.549C536.692 978.785 536.412 978.05 535.883 977.388C535.149 976.918 534.429 976.653 533.885 976.653H533.9ZM572.365 971.654C571.219 971.654 569.809 971.492 569.001 970.272C568.413 969.536 568.09 968.228 568.09 966.449V955.921L547.608 956.789C547.123 958.45 546.389 959.729 545.419 960.567C543.7 962.155 541.29 963.082 538.043 963.376L523.454 964.434C519.413 964.978 516.298 964.199 514.227 962.126C512.184 960.347 511.126 957.289 511.126 953.069V938.615C511.126 935.498 511.92 933.175 513.58 931.528C515.093 929.882 517.503 928.867 520.97 928.426L537.764 926.588C540.938 926.323 543.509 926.985 545.404 928.602C546.506 929.823 547.182 931.102 547.608 932.734L568.09 931.999V924.691C568.09 923.133 568.383 921.809 568.971 920.78C569.662 919.736 570.793 919.222 572.365 919.222C573.717 919.222 574.834 919.677 575.774 920.618L575.891 920.78C576.567 921.956 576.905 923.28 576.905 924.691V966.463C576.905 968.066 576.508 969.478 575.833 970.33C574.907 971.271 573.849 971.654 572.365 971.654ZM569.559 954.392V966.449C569.559 968.345 569.956 969.11 570.191 969.404C570.47 969.816 570.911 970.183 572.38 970.183C573.467 970.183 574.158 969.933 574.745 969.345C575.171 968.816 575.451 967.713 575.451 966.449V924.677C575.451 923.559 575.186 922.515 574.672 921.574C574.025 920.957 573.305 920.677 572.38 920.677C571.322 920.677 570.617 920.957 570.235 921.53C569.809 922.295 569.574 923.368 569.574 924.662V933.381L546.462 934.219L546.33 933.616C545.963 931.925 545.39 930.734 544.405 929.617C542.892 928.338 540.688 927.794 537.926 928.029L521.147 929.867C518.105 930.249 515.916 931.146 514.653 932.528C513.272 933.91 512.61 935.895 512.61 938.601V953.054C512.61 956.833 513.492 959.524 515.24 961.038C517.018 962.817 519.722 963.449 523.321 962.964L537.94 961.905C540.835 961.641 542.965 960.847 544.449 959.479C545.301 958.744 545.918 957.538 546.33 955.906L546.462 955.348H547.035L569.559 954.392ZM522.19 957.7C521.029 957.7 520.148 957.333 519.604 956.598C518.473 955.745 518.34 954.171 518.34 953.054V938.601C518.34 937.733 518.546 937.071 519.016 936.454C519.413 935.851 520.177 935.542 520.941 935.278L521.088 935.248L537.882 933.41H537.911C538.616 933.41 539.248 933.572 539.865 933.881L540.041 933.969L540.144 934.131C540.585 934.778 540.791 935.439 540.791 936.116V953.583C540.791 954.451 540.526 955.215 540.056 955.686C539.351 956.215 538.69 956.421 537.838 956.421L523.336 957.597C522.925 957.671 522.543 957.7 522.19 957.7ZM521.338 936.704C520.912 936.851 520.383 937.057 520.221 937.307C519.927 937.704 519.824 938.057 519.824 938.601V953.054C519.824 954.363 520.06 955.142 520.544 955.465L520.75 955.671C521.103 956.186 521.911 956.348 523.174 956.142L537.808 954.951C538.411 954.951 538.763 954.848 539.131 954.568C539.189 954.495 539.366 954.127 539.366 953.583V936.116C539.366 935.778 539.277 935.454 539.072 935.116C538.719 934.954 538.352 934.881 537.999 934.881L521.352 936.704H521.338ZM546.565 949.878V939.733L569.559 938.895V949.04L546.565 949.878ZM548.034 941.159V948.349L568.09 947.614V940.424L548.034 941.159Z" fill="#FFCD54"/>
<path d="M513.286 371.966C513.845 374.612 522.322 378.362 519.325 385.552C517.385 390.183 500.313 405.195 495.89 404.416C489.146 403.225 491.365 398.976 494.862 395.153C500.533 388.963 515.52 385.184 503.854 376.538L465.271 404.607C456.117 407.886 446.67 418.149 438.795 421.751C433.124 424.354 407.47 425.074 404.737 419.604C403.136 416.384 411.996 396.976 414.831 394.153C416.051 392.947 421.531 391.712 424.117 389.992C451.959 371.495 478.421 350.337 507.159 333.031C508.423 332.531 509.98 331.752 511.332 332.09C515.402 333.075 529.242 349.396 529.081 353.689C528.772 361.482 512.14 366.599 513.301 372.01L513.286 371.966ZM507.012 360.644C511.92 353.337 521.382 354.969 512.449 345.441C507.277 339.927 502.81 347.926 498.344 351.837L507.012 360.644ZM418.108 412.547L429.215 413.061C446.685 399.667 466.182 389.095 484.107 376.435C487.119 374.318 493.334 370.172 495.64 367.952C498.77 364.938 490.41 357.115 488.573 357.498C488.265 357.556 485.767 361.071 484.254 362.144C467.93 373.715 436.679 390.301 423.706 403.343C421.105 405.96 419.915 409.43 418.108 412.532V412.547Z" fill="#FFCC66"/>
<path d="M525.995 635.92V657.931C525.995 659.004 524.467 667.635 524.026 669.047C522.63 673.546 518.355 674.369 514.623 671.693C512.478 670.149 505.601 656.622 502.839 657.343C482.167 692.895 476.099 667.547 475.482 640.669C459.349 646.845 441.659 654.976 427.995 665.694C425.204 667.885 419.444 675.413 417.035 676.134C414.787 676.81 398.463 676.884 395.877 676.384C392.601 675.751 385.445 661.871 382.184 657.975C364.788 637.229 327.042 630.156 301.683 636.788C295.453 638.42 280.834 647.168 275.751 643.184C272.621 640.728 274.502 628.098 274.076 623.452C270.021 579.856 266.333 535.173 263.409 491.386C263.056 486.078 262.586 471.375 264.041 467.067C265.833 461.759 287.035 444.983 292.471 441.998C320.46 426.692 368.96 432.044 397.846 443.63C400.946 444.865 410.555 451.202 411.319 451.202C412.494 451.202 418.636 445.497 420.766 444.35C441.498 433.22 478.89 433.396 501.532 437.366C519.721 440.542 544.39 458.054 554.998 473.066C559.391 479.271 560.39 486.034 560.508 493.724C561.125 536.717 556.335 575.783 549.811 617.57C548.886 623.51 551.971 634.023 547.343 637.714C541.334 642.507 532.915 634.009 525.98 635.949L525.995 635.92ZM406.955 460.054C390.573 451.702 370.356 445.468 351.946 444.35C321.254 442.483 298.304 444.762 276.867 468.611C272.151 473.86 271.975 479.683 272.841 486.667C276.235 514.015 279.468 542.172 281.187 569.917C281.863 580.812 280.482 591.795 282.392 602.617C294.484 598.632 306.899 594.633 319.828 594.295C344.953 593.663 376.057 605.352 395.833 620.437C397.728 621.893 398.963 624.29 401.196 625.216L406.955 460.054ZM540.246 607.366C541.907 584.782 546.065 562.771 547.372 540.143C547.916 530.674 547.093 521.043 547.328 511.559C547.519 504.149 550.84 485.358 547.446 479.418C543.831 473.11 524.055 458.583 517.12 455.054C496.551 444.615 460.216 444.718 438.03 450.893C429.362 453.305 423.734 456.789 416.932 462.465L411.921 628.76C422.735 625.128 432.168 618.203 442.864 613.953C465.373 604.984 504.558 595.78 527.964 602.411C532.357 603.661 535.662 607.116 540.246 607.366ZM400.946 638.567C398.963 635.053 377.673 620.834 372.927 618.453C350.257 607.057 310.161 598.868 287.534 613.115C280.011 617.85 286.476 623.422 284.787 631.171C285.462 631.877 300.699 626.142 303.476 625.51C323.017 620.982 345.731 623.805 364.582 631.583C377.57 636.949 390.632 648.609 396.7 661.283C397.567 663.092 397.523 666.635 398.772 667.532C399.932 668.37 409.306 668.385 411.363 668.15C412.832 667.973 417.887 661.122 420.223 659.122C435.106 646.389 457.586 636.508 475.937 629.833L476.084 615.703C451.107 619.555 427.98 631.921 407.455 646.418C400.153 648.227 402.298 640.949 400.961 638.567H400.946ZM486.78 612.13V654.358C486.78 654.814 488.294 661.916 490.336 659.71C490.718 659.298 492.951 652.211 495.111 649.609C498.343 645.727 501.429 644.036 506.689 645.815C507.6 646.124 513.403 655.902 515.299 653.77C513.903 646.227 519.192 615.482 515.974 610.88C513.256 606.984 492.084 613.63 486.78 612.145V612.13ZM539.967 618.335L523.615 612.13C524.687 616.218 523.468 626.054 528.008 627.348C531.548 628.363 536.235 627.598 540.232 629.965C539.718 627.069 542.641 620.217 539.953 618.335H539.967Z" fill="#FFCC66"/>
<path d="M264.555 378.508C268.595 376.185 271.989 380.405 273.238 384.081C276.088 392.55 281.965 415.443 283.126 424.089C283.743 428.632 283.67 436.366 276.911 433.543C272.577 431.734 268.669 417.693 267.067 412.694C264.966 406.107 257.326 382.655 264.569 378.494L264.555 378.508Z" fill="#FFCC66"/>
<path d="M259.559 447.82C255.769 446.011 252.58 443.335 249.539 440.483C245.014 436.263 233.024 423.559 229.851 418.751C227.5 415.179 225.355 408.724 230.688 406.224C237.476 403.048 259.471 433.969 260.808 440.953C261.278 443.394 261.087 445.732 259.559 447.805V447.82Z" fill="#FFCC66"/>
<path d="M477.024 512.559C486.398 511.545 495.449 511.956 504.602 513.986C510.905 515.382 534.164 521.661 520.661 528.836L497.99 522.969C484.018 521.881 470.133 524.072 457.233 529.63C453.736 531.13 440.616 539.893 438.867 539.452C437.119 539.011 434.548 535.114 434.724 533.203C435.679 523.028 468.238 513.5 477.009 512.545L477.024 512.559Z" fill="#FFCC66"/>
<path d="M480.594 473.286C488.543 472.565 501.943 473.521 509.627 475.653C513.491 476.726 532.636 486.695 526.039 491.459C523.6 493.223 510.641 485.842 506.086 485.151C487.706 482.328 470.031 484.666 453.075 492.135C449.358 493.767 439.323 502.428 436.223 498.002C431.727 491.577 441.174 486.724 445.391 484.431C454.633 479.387 470.221 474.241 480.609 473.3L480.594 473.286Z" fill="#FFCC66"/>
<path d="M473.468 555.39C479.463 554.816 487.411 554.522 493.362 554.993C497.961 555.346 522.174 560.021 521.175 566.197C520.088 572.857 501.751 566.182 496.873 565.77C485.237 564.785 469.09 565.8 458.056 569.711C453.06 571.475 434.959 586.267 433.284 577.033C432.094 570.564 440.307 565.506 445.273 562.859C452.928 558.757 464.755 556.242 473.483 555.404L473.468 555.39Z" fill="#FFCC66"/>
<path d="M296.82 484.667C294.675 481.3 298.157 475.184 301.139 473.022C316.537 461.848 347.303 464.053 364.552 469.802C368.666 471.17 393.805 481.271 384.652 487.902C382.198 489.681 366.565 481.418 362.51 480.168C348.582 475.875 326.881 473.904 313.305 479.521C309.955 480.903 299.552 488.975 296.805 484.667H296.82Z" fill="#FFCC66"/>
<path d="M388.076 522.837C386.078 525.704 364.274 518.073 359.954 517.235C346.084 514.559 329.306 512.838 315.641 517.543C311.704 518.896 308.516 522.381 304.387 522.969C296.365 524.116 295.836 517.529 301.492 512.897C318.859 498.723 360.263 504.428 379.451 513.177C382.228 514.441 391.161 518.411 388.061 522.837H388.076Z" fill="#FFCC66"/>
<path d="M375.939 561.315C377.364 562.903 377.628 566.858 374.484 567.005C367.931 567.329 354.752 561.315 346.833 560.109C338.15 558.786 327.674 558.051 319.211 560.345C314.832 561.536 300.008 571.107 300.11 561.55C300.184 554.257 319.446 548.361 325.72 547.832C335.902 546.965 369.239 553.86 375.954 561.315H375.939Z" fill="#FFCC66"/>
</svg>
